<svg width="50" height="48" viewBox="0 0 50 48" fill="none" xmlns="http://www.w3.org/2000/svg">
<g id="Icons/Briefcase">
<rect id="Bg" width="50" height="47.3585" fill="white" fill-opacity="0.01"/>
<path id="Fill 1" fill-rule="evenodd" clip-rule="evenodd" d="M44.6889 25.6806H33.9209V23.8636C33.9209 23.0191 33.1977 22.335 32.307 22.335C31.4158 22.335 30.6931 23.0191 30.6931 23.8636V25.6806H19.3068V23.8636C19.3068 23.0191 18.5841 22.335 17.6929 22.335C16.8022 22.335 16.0795 23.0191 16.0795 23.8636V25.6806H5.31106V15.1334H17.3297C17.4469 15.1593 17.5678 15.1758 17.6929 15.1758C17.8186 15.1758 17.9395 15.1593 18.0567 15.1334H31.9433C32.0604 15.1593 32.1814 15.1758 32.307 15.1758C32.4322 15.1758 32.5531 15.1593 32.6702 15.1334H44.6889V25.6806ZM44.6889 39.2851H5.31106V28.7379H16.0795V30.4528C16.0795 31.2974 16.8022 31.9815 17.6929 31.9815C18.5841 31.9815 19.3068 31.2974 19.3068 30.4528V28.7379H30.6931V30.4528C30.6931 31.2974 31.4158 31.9815 32.307 31.9815C33.1977 31.9815 33.9209 31.2974 33.9209 30.4528V28.7379H44.6889V39.2851ZM19.3068 12.0766H30.6931V8.97696H19.3068V12.0766ZM46.3028 12.0761H33.9209V7.44832C33.9209 6.60378 33.1977 5.91968 32.307 5.91968H17.6929C16.8022 5.91968 16.0795 6.60378 16.0795 7.44832V12.0761H3.69715C2.80645 12.0761 2.08325 12.7607 2.08325 13.6048V40.8137C2.08325 41.6578 2.80645 42.3419 3.69715 42.3419H46.3028C47.1935 42.3419 47.9167 41.6578 47.9167 40.8137V13.6048C47.9167 12.7607 47.1935 12.0761 46.3028 12.0761Z" fill="#92E3A9"/>
</g>
</svg>
