<svg width="50" height="48" viewBox="0 0 50 48" fill="none" xmlns="http://www.w3.org/2000/svg">
<g id="Icons/Unlock">
<rect id="Bg" width="50" height="47.3585" fill="white" fill-opacity="0.01"/>
<path id="Fill 1" fill-rule="evenodd" clip-rule="evenodd" d="M11.5607 42.328H37.3481V28.2739H11.5607V42.328ZM38.9621 25.217H11.5607V17.0673C11.5607 10.4302 17.2622 5.03031 24.2695 5.03031C31.2772 5.03031 36.9783 10.4302 36.9783 17.0673C36.9783 17.9109 37.7005 18.5959 38.5922 18.5959C39.4839 18.5959 40.2062 17.9109 40.2062 17.0673C40.2062 8.74462 33.0568 1.97339 24.2695 1.97339C15.4822 1.97339 8.33325 8.74462 8.33325 17.0673V26.7457V43.8567C8.33325 44.7008 9.05553 45.3854 9.9472 45.3854H38.9621C39.8537 45.3854 40.576 44.7008 40.576 43.8567V26.7457C40.576 25.9016 39.8537 25.217 38.9621 25.217Z" fill="#92E3A9"/>
<path id="Fill 3" fill-rule="evenodd" clip-rule="evenodd" d="M24.4948 37.7753C25.9374 37.7753 27.1072 36.6673 27.1072 35.3008C27.1072 33.9339 25.9374 32.8264 24.4948 32.8264C23.0521 32.8264 21.8823 33.9339 21.8823 35.3008C21.8823 36.6673 23.0521 37.7753 24.4948 37.7753Z" fill="#92E3A9"/>
</g>
</svg>
