<svg width="50" height="50" viewBox="0 0 50 50" fill="none" xmlns="http://www.w3.org/2000/svg">
<path d="M8.33325 39.5834V35.4167H12.4999V20.8334C12.4999 17.9515 13.368 15.3994 15.1041 13.1772C16.8402 10.9202 19.0971 9.44452 21.8749 8.75008V7.29175C21.8749 6.42369 22.1701 5.69452 22.7603 5.10425C23.3853 4.47925 24.1319 4.16675 24.9999 4.16675C25.868 4.16675 26.5971 4.47925 27.1874 5.10425C27.8124 5.69452 28.1249 6.42369 28.1249 7.29175V8.75008C30.9027 9.44452 33.1596 10.9202 34.8958 13.1772C36.6319 15.3994 37.4999 17.9515 37.4999 20.8334V35.4167H41.6666V39.5834H8.33325ZM24.9999 45.8334C23.8541 45.8334 22.8645 45.4341 22.0312 44.6355C21.2326 43.8022 20.8333 42.8126 20.8333 41.6668H29.1666C29.1666 42.8126 28.7499 43.8022 27.9166 44.6355C27.118 45.4341 26.1458 45.8334 24.9999 45.8334ZM16.6666 35.4167H33.3333V20.8334C33.3333 18.5417 32.5173 16.5799 30.8853 14.948C29.2534 13.3161 27.2916 12.5001 24.9999 12.5001C22.7083 12.5001 20.7464 13.3161 19.1145 14.948C17.4826 16.5799 16.6666 18.5417 16.6666 20.8334V35.4167Z" fill="#92E3A9"/>
</svg>
