<svg width="1135" height="1370" viewBox="0 0 1135 1370" fill="none" xmlns="http://www.w3.org/2000/svg">
<path d="M66.9423 671.629C81.2206 386.833 262.162 390.943 472.342 327.211C569.702 297.674 670.24 240.051 756.092 240.051C1026.93 240.051 1092.55 487.857 1063.61 767.474C1033.78 1055.61 869.16 1228.51 584.639 1199.11C315.121 1171.24 51.3474 982.838 66.9423 671.629Z" fill="#92E3A9"/>
<path opacity="0.75" d="M66.9423 671.629C81.2206 386.833 262.162 390.943 472.342 327.211C569.702 297.674 670.24 240.051 756.092 240.051C1026.93 240.051 1092.55 487.857 1063.61 767.474C1033.78 1055.61 869.16 1228.51 584.639 1199.11C315.121 1171.24 51.3474 982.838 66.9423 671.629Z" fill="white"/>
<path d="M309.991 363.379V468.924H183.484" stroke="#263238" stroke-width="0.75" stroke-linecap="round" stroke-linejoin="round"/>
<path d="M309.969 343.13V356.529" stroke="#263238" stroke-width="0.75" stroke-linecap="round" stroke-linejoin="round"/>
<path d="M309.969 316.251V336.445" stroke="#263238" stroke-width="0.75" stroke-linecap="round" stroke-linejoin="round"/>
<path d="M451.412 468.924H324.905V316.251" stroke="#263238" stroke-width="0.75" stroke-linecap="round" stroke-linejoin="round"/>
<path d="M324.905 543.452V486.953H451.412" stroke="#263238" stroke-width="0.75" stroke-linecap="round" stroke-linejoin="round"/>
<path d="M451.412 651.654H435.84" stroke="#263238" stroke-width="0.75" stroke-linecap="round" stroke-linejoin="round"/>
<path d="M439.245 669.683H451.412" stroke="#263238" stroke-width="0.75" stroke-linecap="round" stroke-linejoin="round"/>
<path d="M183.484 852.441H213.947" stroke="#263238" stroke-width="0.75" stroke-linecap="round" stroke-linejoin="round"/>
<path d="M227.567 834.412H183.484" stroke="#263238" stroke-width="0.75" stroke-linecap="round" stroke-linejoin="round"/>
<path d="M183.484 669.683H279.777" stroke="#263238" stroke-width="0.75" stroke-linecap="round" stroke-linejoin="round"/>
<path d="M285.725 651.654H183.484" stroke="#263238" stroke-width="0.75" stroke-linecap="round" stroke-linejoin="round"/>
<path d="M183.484 486.953H309.991V553.809" stroke="#263238" stroke-width="0.75" stroke-linecap="round" stroke-linejoin="round"/>
<path d="M477.517 707.989V740.375M477.517 675.547V698.7M157.447 906.611V365.269L160.307 361.68C202.013 311.442 258.528 283.228 317.448 283.228C376.369 283.228 432.883 311.442 474.589 361.68L477.517 365.187V665.382M157.447 939.382V920.202M157.447 964.343V946.122M177.355 785.832V958.671M177.355 765.282V778.16M177.355 375.38V745.718M457.655 533.615V375.38C421.3 333.338 373.279 309.14 322.95 307.504C272.621 305.868 223.59 326.91 185.414 366.53M457.655 549.096V541.561M457.655 719.031V565.125" stroke="#263238" stroke-width="0.75" stroke-linecap="round" stroke-linejoin="round"/>
<path d="M676.914 944.177H667.039V1156.39H676.914V944.177Z" stroke="#263238" stroke-width="0.75" stroke-linecap="round" stroke-linejoin="round"/>
<path d="M612.605 944.177H602.73V1156.39H612.605V944.177Z" stroke="#263238" stroke-width="0.75" stroke-linecap="round" stroke-linejoin="round"/>
<path d="M644.748 944.177H634.874V1156.39H644.748V944.177Z" stroke="#263238" stroke-width="0.75" stroke-linecap="round" stroke-linejoin="round"/>
<path d="M709.08 944.177H699.205V1156.39H709.08V944.177Z" stroke="#263238" stroke-width="0.75" stroke-linecap="round" stroke-linejoin="round"/>
<path d="M805.578 944.177H795.703V1156.39H805.578V944.177Z" stroke="#263238" stroke-width="0.75" stroke-linecap="round" stroke-linejoin="round"/>
<path d="M580.439 944.177H570.564V1156.39H580.439V944.177Z" stroke="#263238" stroke-width="0.75" stroke-linecap="round" stroke-linejoin="round"/>
<path d="M773.412 944.177H763.537V1156.39H773.412V944.177Z" stroke="#263238" stroke-width="0.75" stroke-linecap="round" stroke-linejoin="round"/>
<path d="M741.246 944.177H731.371V1156.39H741.246V944.177Z" stroke="#263238" stroke-width="0.75" stroke-linecap="round" stroke-linejoin="round"/>
<path d="M862.191 1155.16C860.071 1155.15 857.953 1155.34 855.858 1155.73L862.191 1157.4L868.207 1155.68C866.215 1155.32 864.205 1155.15 862.191 1155.16Z" stroke="#263238" stroke-width="0.75" stroke-linecap="round" stroke-linejoin="round"/>
<path d="M862.963 1161.35C869.932 1161.21 873.723 1159.27 873.723 1158.25C873.723 1157.79 872.906 1157.13 871.317 1156.53L862.963 1158.91V1161.35Z" stroke="#263238" stroke-width="0.75" stroke-linecap="round" stroke-linejoin="round"/>
<path d="M850.66 1158.25C850.66 1159.27 854.473 1161.21 861.465 1161.35V1159.02L852.725 1156.75C851.363 1157.21 850.66 1157.81 850.66 1158.25Z" stroke="#263238" stroke-width="0.75" stroke-linecap="round" stroke-linejoin="round"/>
<path d="M580.439 913.68H570.564V944.204H580.439V913.68Z" stroke="#263238" stroke-width="0.75" stroke-linecap="round" stroke-linejoin="round"/>
<path d="M676.914 913.68H667.039V944.204H676.914V913.68Z" stroke="#263238" stroke-width="0.75" stroke-linecap="round" stroke-linejoin="round"/>
<path d="M612.605 913.68H602.73V944.204H612.605V913.68Z" stroke="#263238" stroke-width="0.75" stroke-linecap="round" stroke-linejoin="round"/>
<path d="M709.08 913.68H699.205V944.204H709.08V913.68Z" stroke="#263238" stroke-width="0.75" stroke-linecap="round" stroke-linejoin="round"/>
<path d="M805.578 913.68H795.703V944.204H805.578V913.68Z" stroke="#263238" stroke-width="0.75" stroke-linecap="round" stroke-linejoin="round"/>
<path d="M741.246 913.68H731.371V944.204H741.246V913.68Z" stroke="#263238" stroke-width="0.75" stroke-linecap="round" stroke-linejoin="round"/>
<path d="M644.748 913.68H634.874V944.204H644.748V913.68Z" stroke="#263238" stroke-width="0.75" stroke-linecap="round" stroke-linejoin="round"/>
<path d="M773.412 913.68H763.537V944.204H773.412V913.68Z" stroke="#263238" stroke-width="0.75" stroke-linecap="round" stroke-linejoin="round"/>
<path d="M834.588 923.846H827.869V937.655H834.588V923.846Z" stroke="#263238" stroke-width="0.75" stroke-linecap="round" stroke-linejoin="round"/>
<path d="M548.25 923.846H542.099V937.655H548.25V923.846Z" stroke="#263238" stroke-width="0.75" stroke-linecap="round" stroke-linejoin="round"/>
<path d="M548.25 1167.87H542.099V1181.68H548.25V1167.87Z" stroke="#263238" stroke-width="0.75" stroke-linecap="round" stroke-linejoin="round"/>
<path d="M862.963 1163.02H861.465V1168.14H862.963V1163.02Z" stroke="#263238" stroke-width="0.75" stroke-linecap="round" stroke-linejoin="round"/>
<path d="M862.963 1163.02C869.183 1163.02 875.221 1161.27 875.221 1158.25C875.221 1155.24 868.661 1153.49 862.191 1153.49C855.722 1153.49 849.162 1155.13 849.162 1158.25C849.162 1161.38 855.222 1162.91 861.465 1163.02H862.963ZM873.723 1158.25C873.723 1159.27 869.932 1161.21 862.963 1161.35V1159.02L871.317 1156.64C872.906 1157.13 873.723 1157.79 873.723 1158.25ZM861.465 1161.35C854.473 1161.21 850.66 1159.27 850.66 1158.25C850.66 1157.81 851.363 1157.21 852.725 1156.66L861.465 1158.94V1161.35ZM855.79 1155.73C859.884 1155 864.045 1155 868.139 1155.73L862.123 1157.46L855.79 1155.73Z" stroke="#263238" stroke-width="0.75" stroke-linecap="round" stroke-linejoin="round"/>
<path d="M870.727 1171.05H866.936V1172.34H857.47V1171.05H827.96V1184.89H868.411V1235.16H880.715V1184.89V1182.15C880.597 1179.08 879.481 1176.2 877.611 1174.12C875.741 1172.04 873.267 1170.94 870.727 1171.05Z" stroke="#263238" stroke-width="0.75" stroke-linecap="round" stroke-linejoin="round"/>
<path d="M866.936 1172.34V1171.05V1168.14H862.963H861.465H857.47V1171.05V1172.34H866.936Z" stroke="#263238" stroke-width="0.75" stroke-linecap="round" stroke-linejoin="round"/>
<path d="M773.412 1156.39H763.537V1186.91H773.412V1156.39Z" stroke="#263238" stroke-width="0.75" stroke-linecap="round" stroke-linejoin="round"/>
<path d="M741.246 1156.39H731.371V1186.91H741.246V1156.39Z" stroke="#263238" stroke-width="0.75" stroke-linecap="round" stroke-linejoin="round"/>
<path d="M676.914 1156.39H667.039V1186.91H676.914V1156.39Z" stroke="#263238" stroke-width="0.75" stroke-linecap="round" stroke-linejoin="round"/>
<path d="M805.578 1156.39H795.703V1186.91H805.578V1156.39Z" stroke="#263238" stroke-width="0.75" stroke-linecap="round" stroke-linejoin="round"/>
<path d="M709.08 1156.39H699.205V1186.91H709.08V1156.39Z" stroke="#263238" stroke-width="0.75" stroke-linecap="round" stroke-linejoin="round"/>
<path d="M580.439 1156.39H570.564V1186.91H580.439V1156.39Z" stroke="#263238" stroke-width="0.75" stroke-linecap="round" stroke-linejoin="round"/>
<path d="M612.605 1156.39H602.73V1186.91H612.605V1156.39Z" stroke="#263238" stroke-width="0.75" stroke-linecap="round" stroke-linejoin="round"/>
<path d="M644.748 1156.39H634.874V1186.91H644.748V1156.39Z" stroke="#263238" stroke-width="0.75" stroke-linecap="round" stroke-linejoin="round"/>
<path d="M827.869 937.655V923.846V902.967L816.723 899.295V1194.34L825.281 1193.74L827.869 1192.89V1184.89V1171.05V937.655Z" stroke="#263238" stroke-width="0.75" stroke-linecap="round" stroke-linejoin="round"/>
<path d="M816.723 1194.34V899.295L805.555 902.967V913.653V944.177V1156.39V1186.89V1192.89L811.139 1194.72L816.723 1194.34Z" stroke="#263238" stroke-width="0.75" stroke-linecap="round" stroke-linejoin="round"/>
<path d="M795.703 944.177V913.653V902.967L784.557 899.295V1196.56L795.703 1192.89V1186.89V1156.39V944.177Z" stroke="#263238" stroke-width="0.75" stroke-linecap="round" stroke-linejoin="round"/>
<path d="M784.557 899.295L773.389 902.967V913.653V944.177V1156.39V1186.89V1192.89L784.557 1196.56V899.295Z" stroke="#263238" stroke-width="0.75" stroke-linecap="round" stroke-linejoin="round"/>
<path d="M763.537 944.177V913.653V902.967L752.392 899.295V1196.56L763.537 1192.89V1186.89V1156.39V944.177Z" stroke="#263238" stroke-width="0.75" stroke-linecap="round" stroke-linejoin="round"/>
<path d="M752.391 899.295L741.246 902.967V913.653V944.177V1156.39V1186.89V1192.89L752.391 1196.56V899.295Z" stroke="#263238" stroke-width="0.75" stroke-linecap="round" stroke-linejoin="round"/>
<path d="M731.371 944.177V913.653V902.967L720.226 899.295V1196.56L731.371 1192.89V1186.89V1156.39V944.177Z" stroke="#263238" stroke-width="0.75" stroke-linecap="round" stroke-linejoin="round"/>
<path d="M720.226 899.295L709.08 902.967V913.653V944.177V1156.39V1186.89V1192.89L720.226 1196.56V899.295Z" stroke="#263238" stroke-width="0.75" stroke-linecap="round" stroke-linejoin="round"/>
<path d="M699.205 944.177V913.653V902.967L688.06 899.295V1196.56L699.205 1192.89V1186.89V1156.39V944.177Z" stroke="#263238" stroke-width="0.75" stroke-linecap="round" stroke-linejoin="round"/>
<path d="M688.06 899.295L676.914 902.967V913.653V944.177V1156.39V1186.89V1192.89L688.06 1196.56V899.295Z" stroke="#263238" stroke-width="0.75" stroke-linecap="round" stroke-linejoin="round"/>
<path d="M667.04 944.177V913.653V902.967L655.894 899.295V1196.56L667.04 1192.89V1186.89V1156.39V944.177Z" stroke="#263238" stroke-width="0.75" stroke-linecap="round" stroke-linejoin="round"/>
<path d="M655.894 899.295L644.748 902.967V913.653V944.177V1156.39V1186.89V1192.89L655.894 1196.56V899.295Z" stroke="#263238" stroke-width="0.75" stroke-linecap="round" stroke-linejoin="round"/>
<path d="M634.896 944.177V913.653V902.967L623.728 899.295V1196.56L634.896 1192.89V1186.89V1156.39V944.177Z" stroke="#263238" stroke-width="0.75" stroke-linecap="round" stroke-linejoin="round"/>
<path d="M623.728 899.295L612.582 902.967V913.653V944.177V1156.39V1186.89V1192.89L623.728 1196.56V899.295Z" stroke="#263238" stroke-width="0.75" stroke-linecap="round" stroke-linejoin="round"/>
<path d="M602.73 944.177V913.653V902.967L591.562 899.295V1196.56L602.73 1192.89V1186.89V1156.39V944.177Z" stroke="#263238" stroke-width="0.75" stroke-linecap="round" stroke-linejoin="round"/>
<path d="M591.562 899.295L580.416 902.967V913.653V944.177V1156.39V1186.89V1192.89L591.562 1196.56V899.295Z" stroke="#263238" stroke-width="0.75" stroke-linecap="round" stroke-linejoin="round"/>
<path d="M570.565 944.177V913.653V902.967L559.419 899.295V1194.37L564.458 1194.72L564.436 1194.89L570.565 1192.89V1186.89V1156.39V944.177Z" stroke="#263238" stroke-width="0.75" stroke-linecap="round" stroke-linejoin="round"/>
<path d="M559.419 899.295L548.25 902.967V923.846V937.655V1167.87V1181.71V1192.89L550.974 1193.79L559.419 1194.37V899.295Z" stroke="#263238" stroke-width="0.75" stroke-linecap="round" stroke-linejoin="round"/>
<path d="M816.723 1194.34L811.139 1194.72L816.723 1236.12H825.281V1193.74L816.723 1194.34Z" stroke="#263238" stroke-width="0.75" stroke-linecap="round" stroke-linejoin="round"/>
<path d="M559.419 1194.37L550.974 1193.79L550.316 1193.74V1236.12H558.897L564.435 1194.89L564.458 1194.72L559.419 1194.37Z" stroke="#263238" stroke-width="0.75" stroke-linecap="round" stroke-linejoin="round"/>
<path d="M1010.15 1238.64H153.77C130.094 1244.86 110.14 1253.3 118.04 1263.14C135.065 1284.13 557.285 1287.55 559.555 1263.14C561.825 1238.73 675.325 1240.51 667.947 1256.15C660.57 1271.8 698.978 1271.8 717.229 1270.43C735.48 1269.06 740.973 1254.84 760.563 1271.8C775.318 1284.59 903.959 1284.59 953.513 1264.32C996.643 1246.73 1030.92 1257.69 1026.81 1247.33C1024.45 1241.22 1018.34 1242.15 1010.15 1238.64Z" fill="#92E3A9"/>
<path d="M90.8 1238.64H1044.2" stroke="#263238" stroke-linecap="round" stroke-linejoin="round"/>
<path d="M930.7 1046.82C930.7 1046.82 887.298 1012.81 906.683 1089.1C906.57 1089.1 958.053 1065.86 930.7 1046.82Z" fill="#92E3A9"/>
<path d="M962.48 807.916C962.48 807.916 925.229 767.529 938.486 850.195C938.577 850.195 990.061 826.905 962.48 807.916Z" fill="#92E3A9"/>
<path d="M977.916 999.799C977.916 999.799 1023.91 963.795 1003.34 1044.57C1003.34 1044.57 948.86 1019.91 977.916 999.799Z" fill="#92E3A9"/>
<path d="M995.554 884.582C995.554 884.582 1041.54 848.578 1020.98 929.353C1020.98 929.353 966.452 904.693 995.554 884.582Z" fill="#92E3A9"/>
<path d="M1018.1 740.485C1018.1 740.485 1048.79 695.275 1043.5 785.257C1043.5 785.257 988.971 760.569 1018.1 740.485Z" fill="#92E3A9"/>
<path d="M962.117 682.013C962.117 682.013 931.404 636.803 936.693 726.785C936.693 726.785 991.218 702.125 962.117 682.013Z" fill="#92E3A9"/>
<path d="M1003.04 674.807C1003.04 674.807 1014.64 630.721 1032.55 698.7C1032.6 698.7 986.542 699.878 1003.04 674.807Z" fill="#92E3A9"/>
<path d="M972.059 1075.86C972.059 1075.86 1001.57 1052.71 988.403 1104.69C988.403 1104.69 953.4 1088.82 972.059 1075.86Z" fill="#92E3A9"/>
<path d="M941.324 927.49C941.324 927.49 902.734 897.35 920.031 964.973C920.031 964.973 965.681 944.341 941.324 927.49Z" fill="#92E3A9"/>
<path d="M968.927 1138.63C968.927 1138.63 939.78 1057.64 960.21 944.834C980.64 832.028 1006.75 751.089 986.315 687.274" stroke="#263238" stroke-linecap="round" stroke-linejoin="round"/>
<path d="M953.559 1051.91C953.559 1051.91 924.457 1026.76 912.54 1075.94" stroke="#263238" stroke-linecap="round" stroke-linejoin="round"/>
<path d="M985.566 813.04C985.566 813.04 956.465 787.86 944.547 837.07" stroke="#263238" stroke-linecap="round" stroke-linejoin="round"/>
<path d="M953.582 1005.2C953.582 1005.2 984.408 978.536 997.029 1030.68" stroke="#263238" stroke-linecap="round" stroke-linejoin="round"/>
<path d="M971.22 889.979C971.22 889.979 1002.05 863.319 1014.67 915.434" stroke="#263238" stroke-linecap="round" stroke-linejoin="round"/>
<path d="M993.738 745.883C993.738 745.883 1024.56 719.223 1037.19 771.337" stroke="#263238" stroke-linecap="round" stroke-linejoin="round"/>
<path d="M986.474 687.411C986.474 687.411 955.625 660.751 943.003 712.866" stroke="#263238" stroke-linecap="round" stroke-linejoin="round"/>
<path d="M986.474 687.384C986.474 687.384 1002.64 656.888 1024.59 690.727" stroke="#263238" stroke-linecap="round" stroke-linejoin="round"/>
<path d="M981.752 663.08C981.752 663.08 951.289 635.022 1010.38 637.543C1010.38 637.653 995.735 690.48 981.752 663.08Z" fill="#92E3A9"/>
<path d="M985.975 686.26C985.975 686.26 967.656 657.6 1001.43 644.092" stroke="#263238" stroke-linecap="round" stroke-linejoin="round"/>
<path d="M956.374 1079.34C956.374 1079.34 976.214 1062.19 984.34 1095.78" stroke="#263238" stroke-linecap="round" stroke-linejoin="round"/>
<path d="M961.708 932.011C961.708 932.011 935.898 909.707 925.388 953.328" stroke="#263238" stroke-linecap="round" stroke-linejoin="round"/>
<path d="M1003.79 1238.64H934.037L925.502 1123.54H1012.33L1003.79 1238.64Z" fill="white"/>
<mask id="mask0_106_155" style="mask-type:luminance" maskUnits="userSpaceOnUse" x="925" y="1123" width="88" height="116">
<path d="M1003.79 1238.64H934.037L925.502 1123.54H1012.33L1003.79 1238.64Z" fill="white"/>
</mask>
<g mask="url(#mask0_106_155)">
<path d="M1033.98 1106.11H908.681V1161.51H1033.98V1106.11Z" fill="#92E3A9"/>
</g>
<path d="M1003.79 1238.64H934.037L925.502 1123.54H1012.33L1003.79 1238.64Z" stroke="#263238" stroke-linecap="round" stroke-linejoin="round"/>
<path d="M1023.86 1123.54H913.97L916.24 1109.86H1021.59L1023.86 1123.54Z" fill="white" stroke="#263238" stroke-linecap="round" stroke-linejoin="round"/>
<path d="M869.024 1066.98H830.23C827.861 1067.02 825.597 1068.17 823.922 1070.19C822.247 1072.21 821.293 1074.95 821.263 1077.81V1081.51C819.012 1078.94 816.049 1077.49 812.955 1077.42C804.715 1077.42 800.311 1088.22 800.311 1101.51C800.311 1114.8 804.715 1125.59 812.955 1125.59C816.044 1125.53 819.004 1124.08 821.263 1121.54V1132.06C821.26 1134.29 821.622 1136.5 822.326 1138.56C823.031 1140.62 824.066 1142.49 825.371 1144.07C826.676 1145.65 828.226 1146.9 829.932 1147.75C831.638 1148.61 833.467 1149.05 835.315 1149.05H863.939C867.672 1149.05 871.252 1147.26 873.891 1144.07C876.531 1140.88 878.013 1136.56 878.013 1132.06V1077.81C877.984 1074.94 877.027 1072.21 875.346 1070.18C873.666 1068.16 871.397 1067.01 869.024 1066.98ZM813.386 1116.5C808.256 1116.5 805.51 1109.78 805.51 1101.51C805.51 1093.23 808.256 1086.52 813.386 1086.52C815.123 1086.66 816.788 1087.41 818.184 1088.66C819.581 1089.91 820.65 1091.62 821.263 1093.59V1109.43C820.65 1111.39 819.581 1113.1 818.184 1114.36C816.788 1115.61 815.123 1116.35 813.386 1116.5Z" fill="white" stroke="#263238" stroke-linecap="round" stroke-linejoin="round"/>
<path d="M837.244 1110.28C836.152 1109.1 835.266 1107.67 834.639 1106.08C834.011 1104.48 833.654 1102.75 833.589 1100.99C833.532 1099.86 833.676 1098.72 834.01 1097.66C834.344 1096.61 834.861 1095.65 835.527 1094.85C836.193 1094.05 836.992 1093.43 837.871 1093.03C838.751 1092.64 839.69 1092.47 840.626 1092.55C844.576 1092.55 845.916 1094.77 848.231 1098.03C850.501 1094.85 851.908 1092.55 855.858 1092.55C856.793 1092.48 857.729 1092.64 858.606 1093.04C859.482 1093.44 860.279 1094.06 860.942 1094.86C861.605 1095.66 862.121 1096.61 862.453 1097.67C862.786 1098.73 862.929 1099.86 862.872 1100.99C862.813 1102.75 862.458 1104.48 861.83 1106.08C861.202 1107.68 860.314 1109.1 859.218 1110.28L848.231 1123.4L837.244 1110.28Z" fill="#92E3A9"/>
<path d="M844.44 1032.08C846.068 1026.39 846.115 1020.21 844.576 1014.48" stroke="#263238" stroke-width="0.75" stroke-linecap="round" stroke-linejoin="round"/>
<path d="M842.397 1057.64C840.727 1054.56 839.838 1050.96 839.838 1047.28C839.838 1043.6 840.727 1040 842.397 1036.93" stroke="#263238" stroke-width="0.75" stroke-linecap="round" stroke-linejoin="round"/>
<path d="M856.335 1031.97C864.779 1016.7 859.513 999.744 859.513 999.744" stroke="#263238" stroke-width="0.75" stroke-linecap="round" stroke-linejoin="round"/>
<path d="M856.335 1061.53C854.53 1058.16 853.355 1054.36 852.893 1050.39C852.43 1046.42 852.691 1042.38 853.656 1038.54" stroke="#263238" stroke-width="0.75" stroke-linecap="round" stroke-linejoin="round"/>
<path d="M921.075 1254.92H781.675C773.003 1254.92 766.443 1242.21 766.443 1225.3C766.443 1208.39 773.003 1195.71 781.675 1195.71H921.075C922.231 1195.71 923.34 1196.26 924.157 1197.25C924.974 1198.24 925.434 1199.57 925.434 1200.97C925.434 1202.36 924.974 1203.7 924.157 1204.69C923.34 1205.68 922.231 1206.23 921.075 1206.23H781.675C779.087 1206.23 775.16 1213.85 775.16 1225.41C775.16 1236.97 779.087 1244.59 781.675 1244.59H921.075C921.648 1244.59 922.214 1244.73 922.743 1244.99C923.272 1245.26 923.752 1245.64 924.157 1246.13C924.562 1246.62 924.883 1247.2 925.102 1247.84C925.321 1248.48 925.434 1249.16 925.434 1249.85C925.434 1250.54 925.321 1251.23 925.102 1251.86C924.883 1252.5 924.562 1253.08 924.157 1253.57C923.752 1254.06 923.272 1254.45 922.743 1254.71C922.214 1254.98 921.648 1255.11 921.075 1255.11V1254.92Z" fill="#92E3A9" stroke="black" stroke-linecap="round" stroke-linejoin="round"/>
<path d="M913.335 1225.19C913.345 1218.38 914.993 1211.72 918.079 1206.01H781.198V1244.56H918.079C914.965 1238.8 913.316 1232.07 913.335 1225.19Z" fill="white" stroke="black" stroke-linecap="round" stroke-linejoin="round"/>
<path d="M854.473 1212.83H833.953" stroke="black" stroke-width="0.75" stroke-linecap="round" stroke-linejoin="round"/>
<path d="M915.196 1212.83H862.101" stroke="black" stroke-width="0.75" stroke-linecap="round" stroke-linejoin="round"/>
<path d="M812.183 1221.03H807.643" stroke="black" stroke-width="0.75" stroke-linecap="round" stroke-linejoin="round"/>
<path d="M885.141 1221.03H817.45" stroke="black" stroke-width="0.75" stroke-linecap="round" stroke-linejoin="round"/>
<path d="M913.539 1221.03H892.042" stroke="black" stroke-width="0.75" stroke-linecap="round" stroke-linejoin="round"/>
<path d="M841.035 1237.44H817.45" stroke="black" stroke-width="0.75" stroke-linecap="round" stroke-linejoin="round"/>
<path d="M909.816 1237.44H849.638" stroke="black" stroke-width="0.75" stroke-linecap="round" stroke-linejoin="round"/>
<path d="M903.937 1195.6H793.819C787.009 1195.6 781.788 1185.54 781.788 1172.2C781.788 1158.86 786.964 1148.8 793.819 1148.8H903.937C904.43 1148.7 904.936 1148.74 905.418 1148.9C905.9 1149.06 906.347 1149.34 906.728 1149.74C907.11 1150.13 907.416 1150.61 907.626 1151.16C907.836 1151.71 907.945 1152.31 907.945 1152.91C907.945 1153.51 907.836 1154.11 907.626 1154.66C907.416 1155.21 907.11 1155.69 906.728 1156.08C906.347 1156.47 905.9 1156.76 905.418 1156.92C904.936 1157.08 904.43 1157.12 903.937 1157.02H793.819C791.776 1157.02 788.666 1163.05 788.666 1172.12C788.666 1181.19 791.776 1187.21 793.819 1187.21H903.937C904.43 1187.12 904.936 1187.15 905.418 1187.31C905.9 1187.47 906.347 1187.76 906.728 1188.15C907.11 1188.54 907.416 1189.03 907.626 1189.58C907.836 1190.12 907.945 1190.72 907.945 1191.32C907.945 1191.93 907.836 1192.53 907.626 1193.07C907.416 1193.62 907.11 1194.11 906.728 1194.5C906.347 1194.89 905.9 1195.18 905.418 1195.34C904.936 1195.5 904.43 1195.53 903.937 1195.43V1195.6Z" fill="#92E3A9"/>
<mask id="mask1_106_155" style="mask-type:luminance" maskUnits="userSpaceOnUse" x="781" y="1148" width="127" height="48">
<path d="M903.937 1195.6H793.819C787.009 1195.6 781.788 1185.54 781.788 1172.2C781.788 1158.86 786.964 1148.8 793.819 1148.8H903.937C904.43 1148.7 904.936 1148.74 905.418 1148.9C905.9 1149.06 906.347 1149.34 906.728 1149.74C907.11 1150.13 907.416 1150.61 907.626 1151.16C907.836 1151.71 907.945 1152.31 907.945 1152.91C907.945 1153.51 907.836 1154.11 907.626 1154.66C907.416 1155.21 907.11 1155.69 906.728 1156.08C906.347 1156.47 905.9 1156.76 905.418 1156.92C904.936 1157.08 904.43 1157.12 903.937 1157.02H793.819C791.776 1157.02 788.666 1163.05 788.666 1172.12C788.666 1181.19 791.776 1187.21 793.819 1187.21H903.937C904.43 1187.12 904.936 1187.15 905.418 1187.31C905.9 1187.47 906.347 1187.76 906.728 1188.15C907.11 1188.54 907.416 1189.03 907.626 1189.58C907.836 1190.12 907.945 1190.72 907.945 1191.32C907.945 1191.93 907.836 1192.53 907.626 1193.07C907.416 1193.62 907.11 1194.11 906.728 1194.5C906.347 1194.89 905.9 1195.18 905.418 1195.34C904.936 1195.5 904.43 1195.53 903.937 1195.43V1195.6Z" fill="white"/>
</mask>
<g mask="url(#mask1_106_155)">
<g opacity="0.3">
<path d="M903.937 1195.6H793.819C787.009 1195.6 781.788 1185.54 781.788 1172.2C781.788 1158.86 786.964 1148.8 793.819 1148.8H903.937C904.43 1148.7 904.936 1148.74 905.418 1148.9C905.9 1149.06 906.347 1149.34 906.728 1149.74C907.11 1150.13 907.416 1150.61 907.626 1151.16C907.836 1151.71 907.945 1152.31 907.945 1152.91C907.945 1153.51 907.836 1154.11 907.626 1154.66C907.416 1155.21 907.11 1155.69 906.728 1156.08C906.347 1156.47 905.9 1156.76 905.418 1156.92C904.936 1157.08 904.43 1157.12 903.937 1157.02H793.819C791.776 1157.02 788.666 1163.05 788.666 1172.12C788.666 1181.19 791.776 1187.21 793.819 1187.21H903.937C904.43 1187.12 904.936 1187.15 905.418 1187.31C905.9 1187.47 906.347 1187.76 906.728 1188.15C907.11 1188.54 907.416 1189.03 907.626 1189.58C907.836 1190.12 907.945 1190.72 907.945 1191.32C907.945 1191.93 907.836 1192.53 907.626 1193.07C907.416 1193.62 907.11 1194.11 906.728 1194.5C906.347 1194.89 905.9 1195.18 905.418 1195.34C904.936 1195.5 904.43 1195.53 903.937 1195.43V1195.6Z" fill="black"/>
</g>
</g>
<path d="M903.937 1195.6H793.819C787.009 1195.6 781.788 1185.54 781.788 1172.2C781.788 1158.86 786.964 1148.8 793.819 1148.8H903.937C904.43 1148.7 904.936 1148.74 905.418 1148.9C905.9 1149.06 906.347 1149.34 906.728 1149.74C907.11 1150.13 907.416 1150.61 907.626 1151.16C907.836 1151.71 907.945 1152.31 907.945 1152.91C907.945 1153.51 907.836 1154.11 907.626 1154.66C907.416 1155.21 907.11 1155.69 906.728 1156.08C906.347 1156.47 905.9 1156.76 905.418 1156.92C904.936 1157.08 904.43 1157.12 903.937 1157.02H793.819C791.776 1157.02 788.666 1163.05 788.666 1172.12C788.666 1181.19 791.776 1187.21 793.819 1187.21H903.937C904.43 1187.12 904.936 1187.15 905.418 1187.31C905.9 1187.47 906.347 1187.76 906.728 1188.15C907.11 1188.54 907.416 1189.03 907.626 1189.58C907.836 1190.12 907.945 1190.72 907.945 1191.32C907.945 1191.93 907.836 1192.53 907.626 1193.07C907.416 1193.62 907.11 1194.11 906.728 1194.5C906.347 1194.89 905.9 1195.18 905.418 1195.34C904.936 1195.5 904.43 1195.53 903.937 1195.43V1195.6Z" stroke="black" stroke-linecap="round" stroke-linejoin="round"/>
<path d="M897.83 1172.2C897.831 1166.79 899.124 1161.5 901.553 1156.96H793.433V1187.43H901.553C899.124 1182.89 897.831 1177.6 897.83 1172.2Z" fill="white" stroke="black" stroke-linecap="round" stroke-linejoin="round"/>
<path d="M851.318 1162.42H835.11" stroke="black" stroke-width="0.75" stroke-linecap="round" stroke-linejoin="round"/>
<path d="M899.283 1162.42H857.334" stroke="black" stroke-width="0.75" stroke-linecap="round" stroke-linejoin="round"/>
<path d="M817.904 1168.91H814.34" stroke="black" stroke-width="0.75" stroke-linecap="round" stroke-linejoin="round"/>
<path d="M875.562 1168.91H822.08" stroke="black" stroke-width="0.75" stroke-linecap="round" stroke-linejoin="round"/>
<path d="M897.989 1168.91H881.01" stroke="black" stroke-width="0.75" stroke-linecap="round" stroke-linejoin="round"/>
<path d="M840.717 1181.87H822.08" stroke="black" stroke-width="0.75" stroke-linecap="round" stroke-linejoin="round"/>
<path d="M895.061 1181.87H847.505" stroke="black" stroke-width="0.75" stroke-linecap="round" stroke-linejoin="round"/>
<path d="M825.531 90.4749H541.872C529.31 90.4749 519.126 102.767 519.126 117.93V819.918C519.126 835.081 529.31 847.373 541.872 847.373H825.531C838.093 847.373 848.276 835.081 848.276 819.918V117.93C848.276 102.767 838.093 90.4749 825.531 90.4749Z" fill="#263238" stroke="#263238" stroke-linecap="round" stroke-linejoin="round"/>
<path d="M744.696 123.464L741.314 132.863C740.113 136.128 738.153 138.902 735.67 140.848C733.188 142.794 730.291 143.827 727.331 143.823H640.14C637.179 143.834 634.279 142.804 631.796 140.857C629.312 138.911 627.353 136.132 626.157 132.863L622.775 123.464C621.574 120.199 619.613 117.425 617.131 115.479C614.648 113.533 611.751 112.5 608.791 112.504H548.387C545.443 112.504 542.619 113.916 540.538 116.429C538.456 118.942 537.286 122.35 537.286 125.903V812.081C537.286 815.635 538.456 819.043 540.538 821.556C542.619 824.068 545.443 825.48 548.387 825.48H819.016C821.96 825.48 824.783 824.068 826.865 821.556C828.947 819.043 830.116 815.635 830.116 812.081V125.793C830.122 124.029 829.84 122.281 829.284 120.649C828.729 119.017 827.913 117.534 826.881 116.284C825.85 115.034 824.624 114.042 823.274 113.365C821.925 112.688 820.478 112.34 819.016 112.34H758.679C755.703 112.343 752.793 113.397 750.308 115.374C747.822 117.351 745.872 120.164 744.696 123.464Z" fill="#92E3A9"/>
<mask id="mask2_106_155" style="mask-type:luminance" maskUnits="userSpaceOnUse" x="537" y="112" width="294" height="714">
<path d="M744.696 123.464L741.314 132.863C740.113 136.128 738.153 138.902 735.67 140.848C733.188 142.794 730.291 143.827 727.331 143.823H640.14C637.179 143.834 634.279 142.804 631.796 140.857C629.312 138.911 627.353 136.132 626.157 132.863L622.775 123.464C621.574 120.199 619.613 117.425 617.131 115.479C614.648 113.533 611.751 112.5 608.791 112.504H548.387C545.443 112.504 542.619 113.916 540.538 116.429C538.456 118.942 537.286 122.35 537.286 125.903V812.081C537.286 815.635 538.456 819.043 540.538 821.556C542.619 824.068 545.443 825.48 548.387 825.48H819.016C821.96 825.48 824.783 824.068 826.865 821.556C828.947 819.043 830.116 815.635 830.116 812.081V125.793C830.122 124.029 829.84 122.281 829.284 120.649C828.729 119.017 827.913 117.534 826.881 116.284C825.85 115.034 824.624 114.042 823.274 113.365C821.925 112.688 820.478 112.34 819.016 112.34H758.679C755.703 112.343 752.793 113.397 750.308 115.374C747.822 117.351 745.872 120.164 744.696 123.464Z" fill="white"/>
</mask>
<g mask="url(#mask2_106_155)">
<path opacity="0.5" d="M744.696 123.464L741.314 132.863C740.113 136.128 738.153 138.902 735.67 140.848C733.188 142.794 730.291 143.827 727.331 143.823H640.14C637.179 143.834 634.279 142.804 631.796 140.857C629.312 138.911 627.353 136.132 626.157 132.863L622.775 123.464C621.574 120.199 619.613 117.425 617.131 115.479C614.648 113.533 611.751 112.5 608.791 112.504H548.387C545.443 112.504 542.619 113.916 540.538 116.429C538.456 118.942 537.286 122.35 537.286 125.903V812.081C537.286 815.635 538.456 819.043 540.538 821.556C542.619 824.068 545.443 825.48 548.387 825.48H819.016C821.96 825.48 824.783 824.068 826.865 821.556C828.947 819.043 830.116 815.635 830.116 812.081V125.793C830.122 124.029 829.84 122.281 829.284 120.649C828.729 119.017 827.913 117.534 826.881 116.284C825.85 115.034 824.624 114.042 823.274 113.365C821.925 112.688 820.478 112.34 819.016 112.34H758.679C755.703 112.343 752.793 113.397 750.308 115.374C747.822 117.351 745.872 120.164 744.696 123.464Z" fill="white" stroke="#263238" stroke-linecap="round" stroke-linejoin="round"/>
</g>
<path d="M744.696 123.464L741.314 132.863C740.113 136.128 738.153 138.902 735.67 140.848C733.188 142.794 730.291 143.827 727.331 143.823H640.14C637.179 143.834 634.279 142.804 631.796 140.857C629.312 138.911 627.353 136.132 626.157 132.863L622.775 123.464C621.574 120.199 619.613 117.425 617.131 115.479C614.648 113.533 611.751 112.5 608.791 112.504H548.387C545.443 112.504 542.619 113.916 540.538 116.429C538.456 118.942 537.286 122.35 537.286 125.903V812.081C537.286 815.635 538.456 819.043 540.538 821.556C542.619 824.068 545.443 825.48 548.387 825.48H819.016C821.96 825.48 824.783 824.068 826.865 821.556C828.947 819.043 830.116 815.635 830.116 812.081V125.793C830.122 124.029 829.84 122.281 829.284 120.649C828.729 119.017 827.913 117.534 826.881 116.284C825.85 115.034 824.624 114.042 823.274 113.365C821.925 112.688 820.478 112.34 819.016 112.34H758.679C755.703 112.343 752.793 113.397 750.308 115.374C747.822 117.351 745.872 120.164 744.696 123.464Z" stroke="#263238" stroke-linecap="round" stroke-linejoin="round"/>
<path d="M646.95 127.492C649.294 127.492 651.195 125.198 651.195 122.368C651.195 119.539 649.294 117.245 646.95 117.245C644.606 117.245 642.705 119.539 642.705 122.368C642.705 125.198 644.606 127.492 646.95 127.492Z" fill="#92E3A9" stroke="#263238" stroke-linecap="round" stroke-linejoin="round"/>
<path d="M720.453 117.217H675.053C674.468 117.166 673.88 117.26 673.327 117.495C672.773 117.73 672.266 118.1 671.836 118.582C671.406 119.064 671.064 119.648 670.829 120.297C670.595 120.946 670.474 121.647 670.474 122.355C670.474 123.063 670.595 123.763 670.829 124.412C671.064 125.062 671.406 125.645 671.836 126.128C672.266 126.61 672.773 126.98 673.327 127.214C673.88 127.449 674.468 127.544 675.053 127.492H720.453C721.528 127.397 722.533 126.815 723.267 125.862C724.001 124.909 724.409 123.656 724.409 122.355C724.409 121.053 724.001 119.801 723.267 118.847C722.533 117.894 721.528 117.312 720.453 117.217Z" fill="#92E3A9" stroke="#263238" stroke-linecap="round" stroke-linejoin="round"/>
<path d="M812.932 358.721H554.47C551.248 358.721 548.636 361.874 548.636 365.763V379.928C548.636 383.818 551.248 386.97 554.47 386.97H812.932C816.154 386.97 818.766 383.818 818.766 379.928V365.763C818.766 361.874 816.154 358.721 812.932 358.721Z" fill="white"/>
<path d="M552.563 358.94C551.645 360.095 550.551 361.026 549.34 361.68V382.86C551.081 383.445 552.653 384.602 553.88 386.203H747.375V358.94H552.563Z" fill="#92E3A9"/>
<path opacity="0.2" d="M552.563 358.94C551.645 360.095 550.551 361.026 549.34 361.68V382.86C551.081 383.445 552.653 384.602 553.88 386.203H626.338V358.94H552.563Z" fill="black"/>
<path opacity="0.5" d="M679.978 358.913H626.361V386.861H679.978V358.913Z" fill="white"/>
<path d="M812.932 358.721H554.47C551.248 358.721 548.636 361.874 548.636 365.763V379.928C548.636 383.818 551.248 386.97 554.47 386.97H812.932C816.154 386.97 818.766 383.818 818.766 379.928V365.763C818.766 361.874 816.154 358.721 812.932 358.721Z" stroke="#263238" stroke-linecap="round" stroke-linejoin="round"/>
<path opacity="0.8" d="M809.459 618.336H557.943C552.803 618.336 548.636 623.365 548.636 629.57V682.424C548.636 688.629 552.803 693.658 557.943 693.658H809.459C814.599 693.658 818.766 688.629 818.766 682.424V629.57C818.766 623.365 814.599 618.336 809.459 618.336Z" fill="white"/>
<path d="M809.459 618.336H557.943C552.803 618.336 548.636 623.365 548.636 629.57V682.424C548.636 688.629 552.803 693.658 557.943 693.658H809.459C814.599 693.658 818.766 688.629 818.766 682.424V629.57C818.766 623.365 814.599 618.336 809.459 618.336Z" stroke="#263238" stroke-linecap="round" stroke-linejoin="round"/>
<path d="M595.285 628.857H564.39C560.491 628.857 557.33 632.673 557.33 637.379V674.67C557.33 679.376 560.491 683.192 564.39 683.192H595.285C599.184 683.192 602.345 679.376 602.345 674.67V637.379C602.345 632.673 599.184 628.857 595.285 628.857Z" stroke="#263238" stroke-linecap="round" stroke-linejoin="round"/>
<path d="M583.072 637.954H576.58C570.111 637.954 564.867 644.284 564.867 652.093V659.929C564.867 667.738 570.111 674.067 576.58 674.067H583.072C589.541 674.067 594.785 667.738 594.785 659.929V652.093C594.785 644.284 589.541 637.954 583.072 637.954Z" fill="#92E3A9" stroke="#263238" stroke-width="0.75" stroke-linecap="round" stroke-linejoin="round"/>
<path d="M626.27 646.421C625.288 647.974 624.001 649.207 622.525 650.01V661.244C623.874 662.37 624.986 663.862 625.771 665.601H729.465V646.421H626.27Z" fill="#92E3A9"/>
<path d="M788.485 646.996H627.473C624.251 646.996 621.64 650.149 621.64 654.038V658.011C621.64 661.9 624.251 665.053 627.473 665.053H788.485C791.706 665.053 794.318 661.9 794.318 658.011V654.038C794.318 650.149 791.706 646.996 788.485 646.996Z" stroke="#263238" stroke-linecap="round" stroke-linejoin="round"/>
<path d="M576.149 674.04H576.603H579.894V664.669H584.729V660.559H579.894V652.558H586.046V648.448H576.149V674.04Z" fill="black" stroke="black" stroke-width="0.75" stroke-miterlimit="10"/>
<path opacity="0.8" d="M809.459 426.097H557.943C552.803 426.097 548.636 431.127 548.636 437.331V490.186C548.636 496.39 552.803 501.42 557.943 501.42H809.459C814.599 501.42 818.766 496.39 818.766 490.186V437.331C818.766 431.127 814.599 426.097 809.459 426.097Z" fill="white"/>
<path d="M809.459 426.097H557.943C552.803 426.097 548.636 431.127 548.636 437.331V490.186C548.636 496.39 552.803 501.42 557.943 501.42H809.459C814.599 501.42 818.766 496.39 818.766 490.186V437.331C818.766 431.127 814.599 426.097 809.459 426.097Z" stroke="#263238" stroke-linecap="round" stroke-linejoin="round"/>
<path d="M595.285 436.592H564.39C560.491 436.592 557.33 440.407 557.33 445.113V482.404C557.33 487.111 560.491 490.926 564.39 490.926H595.285C599.184 490.926 602.345 487.111 602.345 482.404V445.113C602.345 440.407 599.184 436.592 595.285 436.592Z" stroke="#263238" stroke-linecap="round" stroke-linejoin="round"/>
<path d="M583.072 445.688H576.58C570.111 445.688 564.867 452.018 564.867 459.827V467.663C564.867 475.472 570.111 481.802 576.58 481.802H583.072C589.541 481.802 594.785 475.472 594.785 467.663V459.827C594.785 452.018 589.541 445.688 583.072 445.688Z" fill="#92E3A9" stroke="#263238" stroke-width="0.75" stroke-linecap="round" stroke-linejoin="round"/>
<path d="M626.021 455.004C624.92 456.255 623.602 457.191 622.162 457.744V470.65C623.284 471.139 624.323 471.872 625.226 472.814H658.527V454.977L626.021 455.004Z" fill="#92E3A9"/>
<path d="M788.485 454.73H627.473C624.251 454.73 621.64 457.883 621.64 461.772V465.745C621.64 469.634 624.251 472.787 627.473 472.787H788.485C791.706 472.787 794.318 469.634 794.318 465.745V461.772C794.318 457.883 791.706 454.73 788.485 454.73Z" stroke="#263238" stroke-linecap="round" stroke-linejoin="round"/>
<path d="M581.619 471.938C581.619 473.499 579.622 475.171 577.079 475.691C574.537 476.212 572.539 475.39 572.539 473.856C572.539 472.321 574.537 470.622 577.079 470.102C579.622 469.581 581.619 470.403 581.619 471.938Z" fill="#263238" stroke="#263238" stroke-linecap="round" stroke-linejoin="round"/>
<path d="M581.619 471.938V454.292" stroke="#263238" stroke-linecap="round" stroke-linejoin="round"/>
<path d="M588.157 456.758L581.619 458.155V454.292L588.157 452.895V456.758Z" fill="#263238" stroke="#263238" stroke-linecap="round" stroke-linejoin="round"/>
<path opacity="0.8" d="M809.459 714.482H557.943C552.803 714.482 548.636 719.512 548.636 725.716V778.571C548.636 784.775 552.803 789.805 557.943 789.805H809.459C814.599 789.805 818.766 784.775 818.766 778.571V725.716C818.766 719.512 814.599 714.482 809.459 714.482Z" fill="white"/>
<path d="M809.459 714.482H557.943C552.803 714.482 548.636 719.512 548.636 725.716V778.571C548.636 784.775 552.803 789.805 557.943 789.805H809.459C814.599 789.805 818.766 784.775 818.766 778.571V725.716C818.766 719.512 814.599 714.482 809.459 714.482Z" stroke="#263238" stroke-linecap="round" stroke-linejoin="round"/>
<path d="M595.285 724.977H564.39C560.491 724.977 557.33 728.792 557.33 733.498V770.79C557.33 775.496 560.491 779.311 564.39 779.311H595.285C599.184 779.311 602.345 775.496 602.345 770.79V733.498C602.345 728.792 599.184 724.977 595.285 724.977Z" stroke="#263238" stroke-linecap="round" stroke-linejoin="round"/>
<path d="M583.072 734.101H576.58C570.111 734.101 564.867 740.431 564.867 748.239V756.076C564.867 763.884 570.111 770.214 576.58 770.214H583.072C589.541 770.214 594.785 763.884 594.785 756.076V748.239C594.785 740.431 589.541 734.101 583.072 734.101Z" fill="#92E3A9" stroke="#263238" stroke-width="0.75" stroke-linecap="round" stroke-linejoin="round"/>
<path d="M625.998 742.814C625.016 744.017 623.832 744.952 622.525 745.554V758.98C623.832 759.532 625.025 760.421 626.021 761.583H679.525V742.814H625.998Z" fill="#92E3A9"/>
<path d="M788.485 743.115H627.473C624.251 743.115 621.64 746.268 621.64 750.157V754.13C621.64 758.019 624.251 761.172 627.473 761.172H788.485C791.706 761.172 794.318 758.019 794.318 754.13V750.157C794.318 746.268 791.706 743.115 788.485 743.115Z" stroke="#263238" stroke-linecap="round" stroke-linejoin="round"/>
<path d="M579.826 759.007C582.96 759.007 585.501 755.941 585.501 752.157C585.501 748.374 582.96 745.307 579.826 745.307C576.692 745.307 574.151 748.374 574.151 752.157C574.151 755.941 576.692 759.007 579.826 759.007Z" stroke="#263238" stroke-linecap="round" stroke-linejoin="round"/>
<path d="M587.431 745.499C588.584 745.499 589.519 744.371 589.519 742.978C589.519 741.586 588.584 740.458 587.431 740.458C586.277 740.458 585.342 741.586 585.342 742.978C585.342 744.371 586.277 745.499 587.431 745.499Z" fill="#263238" stroke="#263238" stroke-width="0.75" stroke-linecap="round" stroke-linejoin="round"/>
<path opacity="0.8" d="M809.459 522.217H557.943C552.803 522.217 548.636 527.246 548.636 533.451V586.305C548.636 592.51 552.803 597.539 557.943 597.539H809.459C814.599 597.539 818.766 592.51 818.766 586.305V533.451C818.766 527.246 814.599 522.217 809.459 522.217Z" fill="white"/>
<path d="M809.459 522.217H557.943C552.803 522.217 548.636 527.246 548.636 533.451V586.305C548.636 592.51 552.803 597.539 557.943 597.539H809.459C814.599 597.539 818.766 592.51 818.766 586.305V533.451C818.766 527.246 814.599 522.217 809.459 522.217Z" stroke="#263238" stroke-linecap="round" stroke-linejoin="round"/>
<path d="M595.285 532.711H564.39C560.491 532.711 557.33 536.526 557.33 541.232V578.524C557.33 583.23 560.491 587.045 564.39 587.045H595.285C599.184 587.045 602.345 583.23 602.345 578.524V541.232C602.345 536.526 599.184 532.711 595.285 532.711Z" stroke="#263238" stroke-linecap="round" stroke-linejoin="round"/>
<path d="M583.072 541.835H576.58C570.111 541.835 564.867 548.165 564.867 555.973V563.81C564.867 571.618 570.111 577.948 576.58 577.948H583.072C589.541 577.948 594.785 571.618 594.785 563.81V555.973C594.785 548.165 589.541 541.835 583.072 541.835Z" fill="#92E3A9" stroke="#263238" stroke-width="0.75" stroke-linecap="round" stroke-linejoin="round"/>
<path d="M586.318 559.892L575.876 568.386V551.37L586.318 559.892Z" fill="#263238" stroke="#263238" stroke-linecap="round" stroke-linejoin="round"/>
<path d="M625.249 550.494C624.391 551.701 623.341 552.689 622.162 553.398V565.865C623.341 566.574 624.391 567.562 625.249 568.769H694.847V550.494H625.249Z" fill="#92E3A9"/>
<path d="M788.485 550.85H627.473C624.251 550.85 621.64 554.002 621.64 557.891V561.864C621.64 565.753 624.251 568.906 627.473 568.906H788.485C791.706 568.906 794.318 565.753 794.318 561.864V557.891C794.318 554.002 791.706 550.85 788.485 550.85Z" stroke="#263238" stroke-linecap="round" stroke-linejoin="round"/>
<path d="M803.557 172.373H563.845C555.446 172.373 548.636 180.593 548.636 190.731V314.963C548.636 325.102 555.446 333.321 563.845 333.321H803.557C811.957 333.321 818.766 325.102 818.766 314.963V190.731C818.766 180.593 811.957 172.373 803.557 172.373Z" fill="#92E3A9"/>
<mask id="mask3_106_155" style="mask-type:luminance" maskUnits="userSpaceOnUse" x="548" y="172" width="271" height="162">
<path d="M803.557 172.373H563.845C555.446 172.373 548.636 180.593 548.636 190.731V314.963C548.636 325.102 555.446 333.321 563.845 333.321H803.557C811.957 333.321 818.766 325.102 818.766 314.963V190.731C818.766 180.593 811.957 172.373 803.557 172.373Z" fill="white"/>
</mask>
<g mask="url(#mask3_106_155)">
<path d="M543.347 319.895L581.869 267.945L620.368 297.208L658.89 221.255L697.389 263.917L735.911 214.405H774.411L812.932 166.893" stroke="white" stroke-width="5" stroke-linecap="round" stroke-linejoin="round"/>
</g>
<path d="M803.557 172.373H563.845C555.446 172.373 548.636 180.593 548.636 190.731V314.963C548.636 325.102 555.446 333.321 563.845 333.321H803.557C811.957 333.321 818.766 325.102 818.766 314.963V190.731C818.766 180.593 811.957 172.373 803.557 172.373Z" stroke="#263238" stroke-width="0.75" stroke-linecap="round" stroke-linejoin="round"/>
<path d="M527.094 1125.45H184.823L210.565 913.352C215.877 877.525 231.458 845.095 254.581 821.737C277.704 798.379 306.897 785.582 337.05 785.585H374.868C405.02 785.582 434.213 798.379 457.336 821.737C480.46 845.095 496.041 877.525 501.352 913.352L527.094 1125.45Z" fill="white"/>
<mask id="mask4_106_155" style="mask-type:luminance" maskUnits="userSpaceOnUse" x="184" y="785" width="344" height="341">
<path d="M527.094 1125.45H184.823L210.565 913.352C215.877 877.525 231.458 845.095 254.581 821.737C277.704 798.379 306.897 785.582 337.05 785.585H374.868C405.02 785.582 434.213 798.379 457.336 821.737C480.46 845.095 496.041 877.525 501.352 913.352L527.094 1125.45Z" fill="white"/>
</mask>
<g mask="url(#mask4_106_155)">
<path opacity="0.1" d="M492.976 1115.78H218.942L239.553 945.903C243.804 917.217 256.278 891.25 274.79 872.546C293.303 853.842 316.676 843.592 340.818 843.591H371.1C395.242 843.592 418.615 853.842 437.127 872.546C455.64 891.25 468.113 917.217 472.364 945.903L492.976 1115.78Z" fill="black"/>
</g>
<path d="M527.094 1125.45H184.823L210.565 913.352C215.877 877.525 231.458 845.095 254.581 821.737C277.704 798.379 306.897 785.582 337.05 785.585H374.868C405.02 785.582 434.213 798.379 457.336 821.737C480.46 845.095 496.041 877.525 501.352 913.352L527.094 1125.45Z" stroke="#263238" stroke-linecap="round" stroke-linejoin="round"/>
<path d="M611.129 1094.19C676.165 1266.81 463.579 1254.65 367.014 1255.22C262.435 1255.8 57.6807 1274.7 105.759 1093.7C121.649 1033.83 151.296 1023.36 196.559 1043.91C252.469 1069.26 304.725 1104.19 366.401 1102.6C426.056 1100.96 468.21 1064.68 520.284 1036.19C566.456 1010.9 591.403 1041.86 611.129 1094.19Z" fill="white"/>
<mask id="mask5_106_155" style="mask-type:luminance" maskUnits="userSpaceOnUse" x="98" y="1027" width="526" height="230">
<path d="M611.129 1094.19C676.165 1266.81 463.579 1254.65 367.014 1255.22C262.435 1255.8 57.6807 1274.7 105.759 1093.7C121.649 1033.83 151.296 1023.36 196.559 1043.91C252.469 1069.26 304.725 1104.19 366.401 1102.6C426.056 1100.96 468.21 1064.68 520.284 1036.19C566.456 1010.9 591.403 1041.86 611.129 1094.19Z" fill="white"/>
</mask>
<g mask="url(#mask5_106_155)">
<path opacity="0.1" d="M570.95 1068.6C602.73 1213.38 448.643 1213.82 362.587 1214.56C279.528 1215.24 121.967 1214.56 153.111 1070.55C160.966 1034.32 200.032 1061.83 216.671 1070.02C265.272 1094.08 312.011 1114.77 362.224 1114.55C412.436 1114.33 458.88 1093.26 507.504 1068.68C523.212 1060.71 563.119 1032.98 570.95 1068.6Z" fill="black"/>
</g>
<path d="M611.129 1094.19C676.165 1266.81 463.579 1254.65 367.014 1255.22C262.435 1255.8 57.6807 1274.7 105.759 1093.7C121.649 1033.83 151.296 1023.36 196.559 1043.91C252.469 1069.26 304.725 1104.19 366.401 1102.6C426.056 1100.96 468.21 1064.68 520.284 1036.19C566.456 1010.9 591.403 1041.86 611.129 1094.19Z" stroke="#263238" stroke-linecap="round" stroke-linejoin="round"/>
<path d="M176.061 975.002C176.061 975.002 199.805 966.782 238.577 995.278C280.549 1026.29 282.751 973.138 296.621 948.478H430.369C430.369 948.478 447.621 1007.66 459.425 1002.73C471.229 997.798 526.299 981.797 542.348 1023.23C558.397 1064.65 512.089 1095.34 512.089 1095.34C512.089 1095.34 469.867 1136.44 459.879 1135.89C449.891 1135.35 329.127 1133.32 329.127 1133.32L188.41 1026.29L172.974 995.278L176.061 975.002Z" fill="#858585" stroke="#263238" stroke-linecap="round" stroke-linejoin="round"/>
<path opacity="0.3" d="M512.089 1095.34C512.089 1095.34 558.397 1064.65 542.348 1023.23C542.144 1022.68 541.894 1022.18 541.667 1021.69L486.506 1092.44L398.203 1069.83L404.469 1065.23C404.469 1065.23 450.368 1021.39 438.224 1012.43C428.667 1005.5 394.163 1041.67 354.12 1042.19C314.077 1042.71 283.387 1004.4 278.279 1011.69C276.872 1013.69 277.871 1018.49 280.05 1024.43C280.239 1024.92 280.295 1025.46 280.21 1025.99C280.125 1026.51 279.903 1026.99 279.577 1027.36C279.25 1027.72 278.836 1027.95 278.394 1028.01C277.953 1028.07 277.507 1027.96 277.122 1027.69C253.423 1011.69 223.504 995.278 223.504 995.278L211.36 1007.31L241.505 1058.74L292.421 1074.33L288.29 1079.56L345.835 1105.56L355.868 1133.7C392.052 1134.33 452.933 1135.43 459.902 1135.81C469.89 1136.44 512.089 1095.34 512.089 1095.34Z" fill="black"/>
<path d="M343.678 659.628V748.212H398.998V679.547L343.678 659.628Z" fill="white" stroke="#263238" stroke-linecap="round" stroke-linejoin="round"/>
<path d="M342.543 665.957C345.362 673.189 349.099 679.846 353.621 685.685C363.699 698.864 399.656 697.385 412.232 696.426C413.493 696.325 414.695 695.739 415.659 694.752C416.624 693.766 417.3 692.431 417.589 690.946C418.633 685.466 420.245 675.794 421.335 666.039L342.543 665.957Z" fill="#263238" stroke="#263238" stroke-linecap="round" stroke-linejoin="round"/>
<path d="M354.551 554.686C354.551 554.686 311.081 537.944 309.265 612.226C307.449 686.507 266.702 694.152 302.932 734.594C339.161 775.036 351.441 713.249 351.441 713.249C351.441 713.249 336.391 704.536 343.678 685.849C350.965 667.163 404.174 693.795 404.174 693.795C404.174 693.795 417.067 715.387 405.74 731.772C405.74 731.772 443.83 740.595 437.928 710.509C432.026 680.424 422.447 641.16 422.47 602.8C422.492 564.44 393.959 522.984 354.551 554.686Z" fill="#263238" stroke="#263238" stroke-linecap="round" stroke-linejoin="round"/>
<path d="M270.856 737.498C270.856 737.498 294.26 847.756 288.018 938.697C287.778 941.974 288.396 945.26 289.785 948.091C291.173 950.922 293.263 953.156 295.758 954.479C306.564 960.151 328.287 966.973 364.676 960.343C364.676 960.343 435.273 973.632 438.541 951.575C446.396 898.254 434.296 806.903 463.352 741.143C463.352 741.143 430.664 714.126 372.552 713.386C337.644 712.937 303.031 721.144 270.856 737.498Z" fill="#92E3A9"/>
<mask id="mask6_106_155" style="mask-type:luminance" maskUnits="userSpaceOnUse" x="270" y="713" width="194" height="252">
<path d="M270.856 737.498C270.856 737.498 294.26 847.756 288.018 938.697C287.778 941.974 288.396 945.26 289.785 948.091C291.173 950.922 293.263 953.156 295.758 954.479C306.564 960.151 328.287 966.973 364.676 960.343C364.676 960.343 435.273 973.632 438.541 951.575C446.396 898.254 434.296 806.903 463.352 741.143C463.352 741.143 430.664 714.126 372.552 713.386C337.644 712.937 303.031 721.144 270.856 737.498Z" fill="white"/>
</mask>
<g mask="url(#mask6_106_155)">
<path opacity="0.2" d="M307.857 959.301C307.857 959.301 297.779 953.383 301.865 942.094C305.951 930.805 319.707 896.254 319.707 896.254C319.707 896.254 334.121 901.734 344.541 897.898C351.064 895.45 357.344 892.142 363.268 888.034C363.268 888.034 378.568 898.446 405.15 888.034C405.15 888.034 412.504 937.354 430.279 960.671C448.053 983.989 448.688 955.438 448.688 955.438L422.47 879.814L410.371 857.346L374.8 871.594L327.289 857.346L303.227 873.786L283.75 916.146L274.67 937.354V955.986L296.666 969.686L307.857 959.301Z" fill="black"/>
<path opacity="0.2" d="M323.952 715.414C323.952 715.414 341.204 742.403 376.911 741.143C412.618 739.882 411.733 720.62 411.733 720.62L409.985 710.783H388.624L331.42 703.933L323.952 715.414Z" fill="black"/>
<path d="M400.7 944.122C401.586 943.464 402.471 942.807 403.311 942.094Z" fill="#92E3A9"/>
<path d="M400.7 944.122C401.586 943.464 402.471 942.807 403.311 942.094" stroke="#263238" stroke-width="0.75" stroke-linecap="round" stroke-linejoin="round"/>
<path d="M370.873 955.52C379.914 954.056 388.731 951.01 397.046 946.478Z" fill="#92E3A9"/>
<path d="M370.873 955.52C379.914 954.056 388.731 951.01 397.046 946.478" stroke="#263238" stroke-width="0.75" stroke-linecap="round" stroke-linejoin="round"/>
</g>
<path d="M270.856 737.498C270.856 737.498 294.26 847.756 288.018 938.697C287.778 941.974 288.396 945.26 289.785 948.091C291.173 950.922 293.263 953.156 295.758 954.479C306.564 960.151 328.287 966.973 364.676 960.343C364.676 960.343 435.273 973.632 438.541 951.575C446.396 898.254 434.296 806.903 463.352 741.143C463.352 741.143 430.664 714.126 372.552 713.386C337.644 712.937 303.031 721.144 270.856 737.498Z" stroke="#263238" stroke-linecap="round" stroke-linejoin="round"/>
<path d="M370.873 1065.23L295.963 1119.48C295.963 1119.48 283.41 1113.45 271.969 1116.19C260.528 1118.93 224.685 1103.59 209.703 1112.91C194.721 1122.22 190.635 1173.73 204.709 1180.31C218.783 1186.89 288.699 1170.45 304.135 1164.42C319.571 1158.39 397.205 1120.58 397.205 1120.58L370.873 1065.23Z" fill="white" stroke="#263238" stroke-linecap="round" stroke-linejoin="round"/>
<path d="M289.834 1164.5C292.763 1163.96 295.757 1164.66 298.301 1166.5C275.828 1173.46 217.443 1186.34 204.709 1180.39C190.635 1173.82 194.721 1122.3 209.703 1112.99C224.685 1103.67 260.551 1119.02 271.969 1116.28C283.387 1113.54 295.963 1119.56 295.963 1119.56C295.055 1125.32 283.478 1120.39 284.613 1124.77C285.748 1129.15 297.552 1123.67 300.049 1142.85C302.546 1162.03 281.662 1165.24 289.834 1164.5Z" fill="#263238" stroke="#263238" stroke-linecap="round" stroke-linejoin="round"/>
<path d="M218.51 1110.14C212.903 1120.3 198.602 1151.02 210.406 1181.6C208.466 1181.49 206.548 1181.06 204.709 1180.31C190.635 1173.73 194.721 1122.22 209.703 1112.91C212.47 1111.33 215.457 1110.39 218.51 1110.14Z" fill="white" stroke="#263238" stroke-linecap="round" stroke-linejoin="round"/>
<path d="M407.919 588.552L411.233 607.074C411.233 607.074 421.471 621.596 422.379 640.174C423.06 654.202 419.405 676.314 417.589 686.26C417.3 687.746 416.624 689.08 415.659 690.067C414.695 691.053 413.493 691.64 412.232 691.74C399.656 692.699 363.699 694.179 353.621 681C341.317 664.916 339.501 650.339 339.501 650.339C339.501 650.339 352.236 617.952 348.354 603.375C348.354 603.375 365.538 587.155 363.881 577.208C363.881 577.291 399.384 560.44 407.919 588.552Z" fill="white" stroke="#263238" stroke-linecap="round" stroke-linejoin="round"/>
<path d="M396.455 605.348C396.455 605.348 399.406 621.459 408.396 626.693C408.78 626.933 409.116 627.274 409.377 627.691C409.638 628.108 409.819 628.59 409.906 629.103C409.993 629.615 409.984 630.144 409.88 630.652C409.776 631.159 409.579 631.632 409.304 632.036L403.969 640.256" stroke="#263238" stroke-linecap="round" stroke-linejoin="round"/>
<path d="M382.495 656.504C387.942 658.953 393.9 659.203 399.475 657.216C408.555 653.846 406.829 647.983 406.829 647.983" stroke="#263238" stroke-linecap="round" stroke-linejoin="round"/>
<path d="M362.564 612.171C362.564 612.171 367.899 594.69 383.108 603.238" stroke="#263238" stroke-width="1.5" stroke-linecap="round" stroke-linejoin="round"/>
<path d="M398.998 597.621C398.998 597.621 403.016 588.36 408.418 591.319" stroke="#263238" stroke-width="1.5" stroke-linecap="round" stroke-linejoin="round"/>
<path d="M381.564 819.479V801.149C381.564 798.838 380.804 796.621 379.45 794.987C378.096 793.353 376.26 792.435 374.346 792.435H350.511C348.596 792.435 346.76 793.353 345.406 794.987C344.053 796.621 343.292 798.838 343.292 801.149V819.479H381.564Z" fill="#263238" stroke="#263238" stroke-linecap="round" stroke-linejoin="round"/>
<path d="M374.005 797.669H350.851C346.676 797.669 343.292 801.754 343.292 806.793V870.69C343.292 875.729 346.676 879.814 350.851 879.814H374.005C378.18 879.814 381.564 875.729 381.564 870.69V806.793C381.564 801.754 378.18 797.669 374.005 797.669Z" fill="#858585" stroke="#263238" stroke-linecap="round" stroke-linejoin="round"/>
<path d="M352.69 814.903C355.222 814.903 357.275 812.425 357.275 809.369C357.275 806.312 355.222 803.834 352.69 803.834C350.157 803.834 348.105 806.312 348.105 809.369C348.105 812.425 350.157 814.903 352.69 814.903Z" fill="#92E3A9" stroke="#263238" stroke-linecap="round" stroke-linejoin="round"/>
<path d="M352.69 811.095C353.48 811.095 354.12 810.322 354.12 809.369C354.12 808.415 353.48 807.642 352.69 807.642C351.9 807.642 351.26 808.415 351.26 809.369C351.26 810.322 351.9 811.095 352.69 811.095Z" fill="#263238"/>
<path d="M381.36 615.157C381.928 617.459 381.36 619.733 380.021 620.199C378.681 620.665 377.183 619.158 376.616 616.856C376.048 614.555 376.616 612.28 377.955 611.815C379.294 611.349 380.724 612.856 381.36 615.157Z" fill="#263238"/>
<path d="M409.349 606.718C409.917 609.02 409.349 611.294 408.01 611.76C406.671 612.226 405.172 610.719 404.605 608.417C404.037 606.115 404.605 603.841 405.944 603.375C407.283 602.91 408.782 604.417 409.349 606.718Z" fill="#263238"/>
<path d="M336.618 721.058L340.477 708.18V692.535C359.749 696.096 379.307 696.832 398.725 694.727C399.358 694.649 399.996 694.752 400.589 695.029C401.181 695.307 401.711 695.75 402.134 696.322C402.557 696.894 402.862 697.58 403.023 698.322C403.184 699.064 403.197 699.841 403.061 700.591C402.653 702.077 402.372 703.611 402.221 705.166C402.819 709.319 403.747 713.393 404.991 717.332C405.248 718.436 405.172 719.615 404.777 720.658C404.382 721.702 403.694 722.543 402.834 723.031C395.593 727.059 374.89 734.758 336.618 721.058Z" fill="#92E3A9" stroke="#263238" stroke-linecap="round" stroke-linejoin="round"/>
<path d="M387.466 624.72L376.593 628.309C375.538 628.741 374.39 628.703 373.357 628.2C372.324 627.697 371.475 626.764 370.963 625.569L367.581 615.842C367.258 614.799 367.237 613.654 367.521 612.595C367.805 611.535 368.379 610.623 369.147 610.006C369.816 609.392 370.593 608.97 371.417 608.773L384.674 606.033C385.247 605.854 385.844 605.817 386.429 605.923C387.014 606.028 387.575 606.275 388.079 606.649C388.584 607.022 389.02 607.514 389.363 608.096C389.707 608.677 389.949 609.336 390.077 610.034L391.076 619.048C391.109 620.351 390.768 621.628 390.11 622.662C389.452 623.696 388.518 624.423 387.466 624.72Z" stroke="#263238" stroke-linecap="round" stroke-linejoin="round"/>
<path d="M408.6 617.897L419.451 614.335C420.543 614.056 421.517 613.314 422.195 612.244C422.874 611.173 423.213 609.845 423.151 608.499L421.993 598.032C421.831 596.933 421.366 595.932 420.674 595.191C419.982 594.45 419.103 594.013 418.179 593.95C417.319 593.831 416.447 593.962 415.637 594.333L402.948 600.06C402.378 600.256 401.848 600.59 401.388 601.04C400.928 601.491 400.549 602.05 400.273 602.682C399.997 603.315 399.831 604.008 399.783 604.721C399.736 605.433 399.808 606.15 399.997 606.828L402.902 615.212C403.427 616.411 404.291 617.342 405.337 617.835C406.383 618.328 407.541 618.35 408.6 617.897Z" stroke="#263238" stroke-linecap="round" stroke-linejoin="round"/>
<path d="M390.894 609.458C390.776 608.217 391.03 606.967 391.609 605.932C392.188 604.897 393.055 604.146 394.053 603.815C395.051 603.484 396.114 603.595 397.05 604.128C397.986 604.66 398.733 605.579 399.157 606.718" stroke="#263238" stroke-linecap="round" stroke-linejoin="round"/>
<path d="M367.581 615.87L339.501 634.584" stroke="#263238" stroke-linecap="round" stroke-linejoin="round"/>
<path d="M300.82 856.743C306.881 844.906 331.919 825.37 342.271 841.755C345.667 842.678 349.11 843.337 352.576 843.728C358.342 843.728 371.576 839.207 373.756 845.92C374.891 849.455 369.352 850.825 363.541 852.715C358.867 854.121 354.054 854.739 349.24 854.551C345.241 854.604 341.246 854.237 337.299 853.455L349.852 859.291C349.852 859.291 362.11 855.784 366.196 855.264C370.736 854.688 384.039 852.715 384.356 859.291C384.493 862.36 381.065 861.84 376.934 863.319C372.257 864.963 366.787 866.224 366.787 866.224C366.787 866.224 355.3 871.704 349.852 871.156C346.749 870.886 343.693 870.092 340.772 868.799L334.712 866.224C339.047 870.311 344.353 872.615 349.852 872.8C359.682 873.539 362.86 867.511 370.578 866.607C378.296 865.703 381.655 867.511 381.769 870.717C381.928 874.992 374.664 875.183 368.92 876.636C363.177 878.088 360.748 881.951 355.891 882.307C355.891 882.307 346.811 888.144 339.41 888.527C332.01 888.911 314.577 884.308 313.078 886.691C312.216 888.034 305.156 908.392 294.691 930.668C286.633 947.848 273.876 968.152 253.582 968.152C253.582 968.152 239.962 959.384 238.622 919.38C238.282 909.379 240.166 900.2 240.484 891.98C241.46 867.32 242.754 851.51 242.754 851.51L289.062 851.236L284.068 882.472C290.278 874.518 295.885 865.907 300.82 856.743Z" fill="white" stroke="#263238" stroke-linecap="round" stroke-linejoin="round"/>
<path d="M355.891 882.28C355.891 882.28 347.128 885.924 335.007 879.732Z" fill="white"/>
<path d="M355.891 882.28C355.891 882.28 347.128 885.924 335.007 879.732" stroke="#263238" stroke-linecap="round" stroke-linejoin="round"/>
<path d="M342.271 841.755H330.103" stroke="#263238" stroke-linecap="round" stroke-linejoin="round"/>
<path d="M254.83 919.791C254.253 921.281 253.745 922.808 253.309 924.366" stroke="#263238" stroke-linecap="round" stroke-linejoin="round"/>
<path d="M278.279 889.842C272.672 898.802 263.706 902.583 257.373 914.256" stroke="#263238" stroke-linecap="round" stroke-linejoin="round"/>
<path d="M279.868 768.214C277.479 757.717 274.444 747.45 270.788 737.498C270.788 737.498 243.344 770.378 241.528 845.756C241.469 848.243 242.057 850.691 243.21 852.755C244.362 854.818 246.02 856.395 247.952 857.264C254.762 860.278 266.997 864.251 285.907 865.045C286.771 865.088 287.633 864.908 288.436 864.518C289.239 864.127 289.963 863.536 290.562 862.782C291.161 862.028 291.62 861.129 291.909 860.145C292.199 859.16 292.311 858.113 292.24 857.072C291.877 851.592 291.264 843.783 290.31 834.412" fill="#92E3A9"/>
<path d="M279.868 768.214C277.479 757.717 274.444 747.45 270.788 737.498C270.788 737.498 243.344 770.378 241.528 845.756C241.469 848.243 242.057 850.691 243.21 852.755C244.362 854.818 246.02 856.395 247.952 857.264C254.762 860.278 266.997 864.251 285.907 865.045C286.771 865.088 287.633 864.908 288.436 864.518C289.239 864.127 289.963 863.536 290.562 862.782C291.161 862.028 291.62 861.129 291.909 860.145C292.199 859.16 292.311 858.113 292.24 857.072C291.877 851.592 291.264 843.783 290.31 834.412" stroke="#263238" stroke-linecap="round" stroke-linejoin="round"/>
<path d="M342.475 689.658H290.56C285.861 704.153 286.156 715.852 302.886 734.539C339.206 774.982 351.396 713.195 351.396 713.195C351.396 713.195 338.457 705.66 342.475 689.658Z" fill="#263238" stroke="#263238" stroke-linecap="round" stroke-linejoin="round"/>
<path d="M434.228 692.398H401.223L404.174 693.823C404.174 693.823 417.067 715.414 405.74 731.799C405.74 731.799 443.83 740.622 437.928 710.537C436.793 704.81 435.522 698.7 434.228 692.398Z" fill="#263238" stroke="#263238" stroke-linecap="round" stroke-linejoin="round"/>
<path d="M425.829 848.003C418.111 838.851 399.792 824.63 382.54 833.042L374.073 835.015C374.073 835.015 353.235 828.275 351.056 835.015C349.921 838.55 355.459 839.92 361.271 841.81C367.082 843.701 371.94 845.811 375.572 845.811C379.578 845.862 383.58 845.495 387.534 844.715L374.981 850.578C374.981 850.578 362.701 849.263 358.637 848.742C354.097 848.167 340.772 846.194 340.477 852.77C340.318 855.839 343.746 855.318 347.878 856.771C352.554 858.442 358.024 859.702 358.024 859.702C358.024 859.702 369.533 862.99 374.981 862.442C378.086 862.172 381.144 861.37 384.061 860.059L388.284 859.702C388.284 859.702 384.81 863.347 374.981 864.086C365.152 864.826 361.952 860.99 354.234 860.059C346.516 859.127 343.156 860.99 343.042 864.169C342.884 868.47 350.147 868.662 355.913 870.114C361.679 871.567 364.085 873.211 368.92 873.594C368.92 873.594 378 879.43 385.423 879.787C392.846 880.143 408.418 875.594 409.939 877.978C411.46 880.362 430.369 971.494 463.965 976.974C463.965 976.974 484.849 966.014 486.211 926.01C487.573 886.006 483.941 862.442 483.941 862.442L441.265 857.784L442.627 880.252C442.627 880.252 434.705 858.579 425.829 848.003Z" fill="white" stroke="#263238" stroke-linecap="round" stroke-linejoin="round"/>
<path d="M449.959 895.98C451.875 899.325 453.984 902.502 456.27 905.488C463.194 914.502 470.685 925.051 472.16 939.299" stroke="#263238" stroke-width="0.75" stroke-linecap="round" stroke-linejoin="round"/>
<path d="M445.488 887.459C445.488 887.459 446.169 888.993 447.394 891.377" stroke="#263238" stroke-width="0.75" stroke-linecap="round" stroke-linejoin="round"/>
<path d="M368.92 873.594C368.92 873.594 375.889 877.238 387.988 871.019" stroke="#263238" stroke-linecap="round" stroke-linejoin="round"/>
<path d="M382.54 833.042H394.73" stroke="#263238" stroke-linecap="round" stroke-linejoin="round"/>
<path d="M539.92 1017.39C532.043 1000.95 507.232 981.769 469.686 1008.62C425.966 1039.75 354.075 1069.26 352.259 1077.29C352.259 1077.29 377.683 1100.69 383.131 1130.63C383.131 1130.63 396.297 1138.66 421.494 1126.99C446.691 1115.32 572.04 1084.38 539.92 1017.39Z" fill="#858585" stroke="#263238" stroke-linecap="round" stroke-linejoin="round"/>
<path d="M314.599 1074.08L389.509 1128.33C389.509 1128.33 402.062 1122.3 413.481 1125.04C424.899 1127.78 460.787 1112.44 475.769 1121.76C490.751 1131.07 494.837 1182.58 480.763 1189.16C466.689 1195.74 396.773 1179.3 381.337 1173.27C365.901 1167.24 288.267 1129.43 288.267 1129.43L314.599 1074.08Z" fill="white" stroke="#263238" stroke-linecap="round" stroke-linejoin="round"/>
<path d="M395.638 1173.16C392.705 1172.62 389.708 1173.32 387.149 1175.13C409.622 1182.12 468.029 1195 480.763 1189.05C494.837 1182.47 490.751 1130.96 475.769 1121.65C460.787 1112.33 424.921 1127.67 413.481 1124.93C402.04 1122.19 389.509 1128.22 389.509 1128.22C390.417 1133.98 401.994 1129.04 400.859 1133.43C399.724 1137.81 387.92 1132.33 385.423 1151.51C382.926 1170.69 403.81 1173.98 395.638 1173.16Z" fill="#263238" stroke="#263238" stroke-linecap="round" stroke-linejoin="round"/>
<path d="M466.939 1118.88C472.546 1129.04 486.87 1159.73 475.043 1190.34C476.99 1190.23 478.916 1189.8 480.763 1189.05C494.837 1182.47 490.751 1130.96 475.769 1121.65C472.998 1120.06 470.001 1119.12 466.939 1118.88Z" fill="white" stroke="#263238" stroke-linecap="round" stroke-linejoin="round"/>
<path d="M154.632 991.031C163.349 975.221 180.056 964.316 217.58 991.031C261.3 1022.18 331.375 1078 333.191 1086.03C333.191 1086.03 307.789 1109.4 302.341 1139.37C302.341 1139.37 289.175 1140.83 263.978 1129.13C238.781 1117.43 116.451 1060.38 154.632 991.031Z" fill="#858585" stroke="#263238" stroke-linecap="round" stroke-linejoin="round"/>
<path opacity="0.3" d="M263.978 1129.13C289.175 1140.83 302.341 1139.37 302.341 1139.37C304.086 1130.49 307.163 1122.07 311.421 1114.52C289.675 1143.05 233.719 1100.11 188.319 1065.2C142.919 1030.29 154.587 991.003 154.587 991.003C116.451 1060.38 238.781 1117.45 263.978 1129.13Z" fill="black"/>
<path d="M441.765 811.04C444.559 793.76 448.992 776.926 454.976 760.871C457.483 754.106 460.279 747.503 463.352 741.088C475.099 751.023 483.272 765.982 486.211 782.928C490.184 807.396 486.847 847.866 488.686 866.004C488.889 867.935 488.507 869.889 487.61 871.506C486.713 873.122 485.362 874.292 483.805 874.8C476.995 876.992 464.51 879.403 446.169 876.389C444.092 876.046 442.177 874.846 440.75 872.994C439.322 871.141 438.47 868.749 438.337 866.224C438.056 859.46 438.056 852.684 438.337 845.92" fill="#92E3A9"/>
<path d="M441.765 811.04C444.559 793.76 448.992 776.926 454.976 760.871C457.483 754.106 460.279 747.503 463.352 741.088C475.099 751.023 483.272 765.982 486.211 782.928C490.184 807.396 486.847 847.866 488.686 866.004C488.889 867.935 488.507 869.889 487.61 871.506C486.713 873.122 485.362 874.292 483.805 874.8C476.995 876.992 464.51 879.403 446.169 876.389C444.092 876.046 442.177 874.846 440.75 872.994C439.322 871.141 438.47 868.749 438.337 866.224C438.056 859.46 438.056 852.684 438.337 845.92" stroke="#263238" stroke-linecap="round" stroke-linejoin="round"/>
</svg>
