
<svg width="669" height="671" viewBox="0 0 669 671" fill="none" xmlns="http://www.w3.org/2000/svg">
<path d="M589.669 353.966C592.346 318.309 584.077 281.082 572.998 247.948C556.608 198.616 524.603 148.063 470.815 136.387C439.8 129.677 408.237 136.871 381.637 153.726C356.068 169.937 336.145 190.886 304.689 194.939C272.885 199.045 240.251 197.395 208.286 197.395C126.093 197.395 59.3934 283.994 76.0649 374.203C92.7363 464.413 171.357 526.963 238.057 526.963C297.999 526.963 347.318 490.904 404.25 481.214C432.481 476.41 460.833 482.1 488.771 474.907C521.244 466.533 551.777 446.577 569.773 417.684C582.03 397.984 587.997 376.283 589.669 353.966Z" fill="#92E3A9"/>
<path opacity="0.7" d="M589.669 353.966C592.346 318.309 584.077 281.082 572.998 247.948C556.608 198.616 524.603 148.063 470.815 136.387C439.8 129.677 408.237 136.871 381.637 153.726C356.068 169.937 336.145 190.886 304.689 194.939C272.885 199.045 240.251 197.395 208.286 197.395C126.093 197.395 59.3934 283.994 76.0649 374.203C92.7363 464.413 171.357 526.963 238.057 526.963C297.999 526.963 347.318 490.904 404.25 481.214C432.481 476.41 460.833 482.1 488.771 474.907C521.244 466.533 551.777 446.577 569.773 417.684C582.03 397.984 587.997 376.283 589.669 353.966Z" fill="white"/>
<path d="M580.05 341.445C580.05 341.445 580.05 334.735 570.684 325.435C561.318 316.135 555.378 310.74 555.378 310.74C555.378 310.74 550.721 326.093 559.392 335.446C565.756 342.016 572.658 348.04 580.024 353.456L580.05 341.445Z" fill="#92E3A9"/>
<path d="M566.537 383.128C566.537 383.128 566.537 376.418 557.171 367.118C547.805 357.817 541.891 352.423 541.891 352.423C541.891 352.423 537.221 367.775 545.905 377.129C552.269 383.698 559.171 389.722 566.537 395.138V383.128Z" fill="#92E3A9"/>
<path d="M579.462 352.812C579.462 352.812 580.171 346.182 590.42 337.875C600.669 329.568 607.185 324.898 607.185 324.898C607.185 324.898 610.196 340.653 600.616 349.054C593.595 354.914 586.098 360.175 578.204 364.782L579.462 352.812Z" fill="#92E3A9"/>
<path d="M563.138 402.036C563.138 402.036 564.476 395.514 575.594 388.335C586.713 381.155 593.617 377.196 593.617 377.196C593.617 377.196 594.955 393.193 584.559 400.506C576.962 405.595 568.956 410.039 560.622 413.792L563.138 402.036Z" fill="#92E3A9"/>
<path d="M566.202 455.716C566.202 455.716 566.202 449.006 575.568 439.693C584.934 430.379 590.861 425.011 590.861 425.011C590.861 425.011 595.531 440.364 586.847 449.704C580.485 456.28 573.584 462.309 566.216 467.727L566.202 455.716Z" fill="#92E3A9"/>
<path d="M566.055 468.814C566.055 468.814 566.992 462.212 559.097 451.637C551.203 441.062 546.025 434.915 546.025 434.915C546.025 434.915 539.242 449.449 546.48 459.93C551.846 467.343 557.821 474.292 564.342 480.704L566.055 468.814Z" fill="#92E3A9"/>
<path d="M556.862 507.638C556.862 507.638 556.862 500.928 566.228 491.628C575.594 482.328 581.535 476.933 581.535 476.933C581.535 476.933 586.191 492.286 577.521 501.64C571.154 508.211 564.253 514.24 556.889 519.663L556.862 507.638Z" fill="#92E3A9"/>
<path d="M563.084 542.839C563.084 542.839 561.399 536.384 568.048 524.977C574.698 513.57 579.154 506.887 579.154 506.887C579.154 506.887 587.53 520.548 581.522 531.794C577.028 539.767 571.876 547.349 566.122 554.461L563.084 542.839Z" fill="#92E3A9"/>
<path d="M580.893 339.741C580.425 346.689 579.576 353.606 578.351 360.461C574.658 379.544 565.453 391.864 561.773 409.095C558.094 426.327 568.664 448.537 565.787 470.68C562.911 492.823 554.374 505.129 556.823 519.904C559.271 534.68 572.169 574.698 572.169 574.698" stroke="#263238" stroke-linecap="round" stroke-linejoin="round"/>
<path d="M579.381 357.254L589.416 349.524" stroke="#263238" stroke-linecap="round" stroke-linejoin="round"/>
<path d="M579.849 348.356L575.635 340.855" stroke="#263238" stroke-linecap="round" stroke-linejoin="round"/>
<path d="M562.335 408.304C562.335 408.304 570.738 401.983 579.381 395.662" stroke="#263238" stroke-linecap="round" stroke-linejoin="round"/>
<path d="M566.536 395.138C566.536 395.138 559.525 381.37 551.591 372.244" stroke="#263238" stroke-linecap="round" stroke-linejoin="round"/>
<path d="M566.536 465.218C571.329 456.333 577.387 448.195 584.519 441.062" stroke="#263238" stroke-linecap="round" stroke-linejoin="round"/>
<path d="M564.904 474.585C562.354 468.561 559.306 462.761 555.792 457.246C550.895 449.986 550.186 449.047 550.186 449.047" stroke="#263238" stroke-linecap="round" stroke-linejoin="round"/>
<path d="M556.862 519.904C558.996 514.615 561.527 509.496 564.435 504.592C567.345 500.034 570.626 495.725 574.243 491.709" stroke="#263238" stroke-linecap="round" stroke-linejoin="round"/>
<path d="M566.121 554.461C565.634 549.403 566.502 544.307 568.637 539.699C572.142 532.908 576.103 524.011 577.735 520.495" stroke="#263238" stroke-linecap="round" stroke-linejoin="round"/>
<path d="M504.025 430.621C504.025 430.621 503.302 426.434 508.132 419.549C512.962 412.665 516.16 408.679 516.16 408.679C516.16 408.679 520.736 417.805 516.321 424.595C513.042 429.412 509.367 433.946 505.336 438.15L504.025 430.621Z" fill="#92E3A9"/>
<path d="M517.017 455.287C517.017 455.287 516.294 451.1 521.124 444.215C525.955 437.331 529.152 433.345 529.152 433.345C529.152 433.345 533.728 442.471 529.313 449.275C526.031 454.086 522.357 458.615 518.328 462.816L517.017 455.287Z" fill="#92E3A9"/>
<path d="M505.617 437.68C505.617 437.68 504.467 433.654 497.134 429.507C489.802 425.36 485.226 423.186 485.226 423.186C485.226 423.186 485.039 433.399 491.916 437.613C496.951 440.52 502.219 443.002 507.664 445.034L505.617 437.68Z" fill="#92E3A9"/>
<path d="M521.191 466.774C521.191 466.774 519.612 462.829 511.905 459.528C504.199 456.226 499.382 454.509 499.382 454.509C499.382 454.509 500.265 464.681 507.597 468.143C512.91 470.504 518.411 472.417 524.041 473.86L521.191 466.774Z" fill="#92E3A9"/>
<path d="M525.072 500.767C525.072 500.767 524.363 496.58 517.499 491.736C510.635 486.891 506.313 484.194 506.313 484.194C506.313 484.194 505.055 494.326 511.491 499.237C516.193 502.671 521.174 505.701 526.383 508.296L525.072 500.767Z" fill="#92E3A9"/>
<path d="M526.597 508.967C526.597 508.967 525.259 504.941 529.099 497.426C532.939 489.911 535.481 485.522 535.481 485.522C535.481 485.522 541.301 493.896 537.903 501.264C535.342 506.494 532.348 511.5 528.952 516.227L526.597 508.967Z" fill="#92E3A9"/>
<path d="M538.291 542.718C538.291 542.718 538.773 538.504 545.342 533.324C551.912 528.144 556.046 525.151 556.046 525.151C556.046 525.151 557.879 535.203 551.738 540.477C547.24 544.169 542.442 547.477 537.395 550.368L538.291 542.718Z" fill="#92E3A9"/>
<path d="M536.538 532.304C536.538 532.304 535.816 528.117 528.965 523.273C522.115 518.428 517.806 515.731 517.806 515.731C517.806 515.731 516.549 525.863 522.984 530.788C527.689 534.216 532.671 537.246 537.876 539.846L536.538 532.304Z" fill="#92E3A9"/>
<path d="M536.539 555.065C536.539 555.065 536.887 550.824 531.481 544.396C526.076 537.968 522.57 534.264 522.57 534.264C522.57 534.264 518.784 543.738 523.774 550.139C527.432 554.647 531.46 558.84 535.816 562.674L536.539 555.065Z" fill="#92E3A9"/>
<path d="M503.315 429.628C504.362 433.936 505.644 438.183 507.155 442.35C511.531 453.918 518.635 460.642 522.81 471.042C526.985 481.443 522.81 496.54 526.931 510.108C531.052 523.675 537.876 530.466 537.876 539.994C537.876 549.522 534.183 576.027 534.183 576.027" stroke="#263238" stroke-linecap="round" stroke-linejoin="round"/>
<path d="M506.166 440.444L499.034 436.7" stroke="#263238" stroke-linecap="round" stroke-linejoin="round"/>
<path d="M504.908 434.915L506.728 429.762" stroke="#263238" stroke-linecap="round" stroke-linejoin="round"/>
<path d="M522.369 470.613C522.369 470.613 516.415 467.566 510.327 464.533" stroke="#263238" stroke-linecap="round" stroke-linejoin="round"/>
<path d="M518.314 462.816C520.07 457.286 522.378 451.949 525.205 446.886" stroke="#263238" stroke-linecap="round" stroke-linejoin="round"/>
<path d="M525.901 506.753C521.931 501.714 517.253 497.279 512.013 493.588" stroke="#263238" stroke-linecap="round" stroke-linejoin="round"/>
<path d="M527.935 512.443C528.887 508.393 530.171 504.43 531.775 500.593C534.063 495.507 534.451 494.836 534.451 494.836" stroke="#263238" stroke-linecap="round" stroke-linejoin="round"/>
<path d="M537.556 547.227C539.876 544.344 542.446 541.672 545.236 539.242C547.01 537.932 548.675 536.478 550.213 534.894" stroke="#263238" stroke-linecap="round" stroke-linejoin="round"/>
<path d="M537.876 539.994C535.965 536.901 533.822 533.958 531.467 531.19C529.148 528.651 526.624 526.308 523.921 524.185" stroke="#263238" stroke-linecap="round" stroke-linejoin="round"/>
<path d="M535.816 562.674C535.576 559.447 534.482 556.343 532.645 553.682C529.714 549.804 526.262 544.651 524.857 542.624" stroke="#263238" stroke-linecap="round" stroke-linejoin="round"/>
<path d="M123.992 372.163L118.132 355.375L123.992 362.501L119.39 337.312L126.508 355.375L129.023 320.094L133.211 353.684L137.814 346.974V355.375L143.259 344.035L140.329 363.763L145.347 360.408L137.399 371.318L123.992 372.163Z" fill="#92E3A9"/>
<path d="M142.417 367.963H120.647L124.568 412.048H138.496L142.417 367.963Z" fill="#263238" stroke="#263238" stroke-linecap="round" stroke-linejoin="round"/>
<path d="M183.252 411.551H109.087V569.102H183.252V411.551Z" fill="white" stroke="#263238" stroke-linecap="round" stroke-linejoin="round"/>
<path d="M187.307 411.551H146.163V569.102H187.307V411.551Z" fill="white" stroke="#263238" stroke-linecap="round" stroke-linejoin="round"/>
<path d="M182.677 411.551H146.163V569.102H182.677V411.551Z" fill="#263238" stroke="#263238" stroke-linecap="round" stroke-linejoin="round"/>
<path d="M178.569 532.465H146.163V564.727H178.569V532.465Z" fill="#92E3A9" stroke="#263238" stroke-linecap="round" stroke-linejoin="round"/>
<path d="M178.569 534.21H146.163V538.343H178.569V534.21Z" fill="white" stroke="#263238" stroke-linecap="round" stroke-linejoin="round"/>
<path d="M178.569 557.963H146.163V562.097H178.569V557.963Z" fill="white" stroke="#263238" stroke-linecap="round" stroke-linejoin="round"/>
<path d="M152.305 533.136V573.933" stroke="#263238" stroke-linecap="round" stroke-linejoin="round"/>
<path d="M163.61 533.136V573.933" stroke="#263238" stroke-linecap="round" stroke-linejoin="round"/>
<path d="M173.538 533.136V573.933" stroke="#263238" stroke-linecap="round" stroke-linejoin="round"/>
<path d="M178.569 417.402H146.163V464.842H178.569V417.402Z" fill="#92E3A9" stroke="#263238" stroke-linecap="round" stroke-linejoin="round"/>
<path d="M178.569 419.388H146.163V424.085H178.569V419.388Z" fill="white" stroke="#263238" stroke-linecap="round" stroke-linejoin="round"/>
<path d="M178.569 449.798H146.163V454.495H178.569V449.798Z" fill="white" stroke="#263238" stroke-linecap="round" stroke-linejoin="round"/>
<path d="M152.305 418.154V464.52" stroke="#263238" stroke-linecap="round" stroke-linejoin="round"/>
<path d="M163.61 418.154V464.52" stroke="#263238" stroke-linecap="round" stroke-linejoin="round"/>
<path d="M173.538 418.154V464.52" stroke="#263238" stroke-linecap="round" stroke-linejoin="round"/>
<path d="M178.569 474.572H146.163V522.011H178.569V474.572Z" fill="#92E3A9" stroke="#263238" stroke-linecap="round" stroke-linejoin="round"/>
<path d="M178.569 476.558H146.163V481.255H178.569V476.558Z" fill="white" stroke="#263238" stroke-linecap="round" stroke-linejoin="round"/>
<path d="M178.569 506.967H146.163V511.664H178.569V506.967Z" fill="white" stroke="#263238" stroke-linecap="round" stroke-linejoin="round"/>
<path d="M152.305 475.336V521.689" stroke="#263238" stroke-linecap="round" stroke-linejoin="round"/>
<path d="M163.61 475.336V521.689" stroke="#263238" stroke-linecap="round" stroke-linejoin="round"/>
<path d="M173.538 475.336V521.689" stroke="#263238" stroke-linecap="round" stroke-linejoin="round"/>
<path d="M183.239 464.184H146.163V469.579H183.239V464.184Z" fill="white" stroke="#263238" stroke-linecap="round" stroke-linejoin="round"/>
<path d="M183.239 521.716H146.163V527.111H183.239V521.716Z" fill="white" stroke="#263238" stroke-linecap="round" stroke-linejoin="round"/>
<path d="M183.239 411.551V569.089" stroke="#263238" stroke-linecap="round" stroke-linejoin="round"/>
<path d="M140.932 411.551V569.089H146.163V417.402H182.597V411.484L140.932 411.551Z" fill="white" stroke="#263238" stroke-linecap="round" stroke-linejoin="round"/>
<path d="M146.163 417.402V411.551" stroke="#263238" stroke-linecap="round" stroke-linejoin="round"/>
<path d="M182.959 339.177C179.065 331.648 177.433 326.254 177.433 325.006C177.433 322.536 182.785 321.06 182.785 321.06C191.134 316.631 230.404 323.033 248.079 325.985C257.973 327.715 267.983 328.702 278.023 328.938C278.023 328.938 280.472 326.978 283.375 324.509C286.279 322.04 300.06 305.802 305.466 304.379C310.871 302.956 315.768 306.352 315.768 306.352C315.768 306.352 324.613 311.72 323.127 312.753C321.642 313.786 300.06 332.44 294.655 335.889C289.249 339.338 277.97 337.862 268.149 339.835C259.693 341.526 225.44 343.619 217.586 344.263C211.688 345.666 205.497 345.149 199.911 342.787" fill="white"/>
<mask id="mask0_106_298" style="mask-type:luminance" maskUnits="userSpaceOnUse" x="177" y="304" width="147" height="42">
<path d="M182.959 339.177C179.065 331.648 177.433 326.254 177.433 325.006C177.433 322.536 182.785 321.06 182.785 321.06C191.134 316.631 230.404 323.033 248.079 325.985C257.973 327.715 267.983 328.702 278.023 328.938C278.023 328.938 280.472 326.978 283.375 324.509C286.279 322.04 300.06 305.802 305.466 304.379C310.871 302.956 315.768 306.352 315.768 306.352C315.768 306.352 324.613 311.72 323.127 312.753C321.642 313.786 300.06 332.44 294.655 335.889C289.249 339.338 277.97 337.862 268.149 339.835C259.693 341.526 225.44 343.619 217.586 344.263C211.688 345.666 205.497 345.149 199.911 342.787" fill="white"/>
</mask>
<g mask="url(#mask0_106_298)">
<path d="M315.862 306.298C315.862 306.298 310.952 302.849 305.56 304.325C300.167 305.802 286.413 322.053 283.469 324.455C280.526 326.858 278.117 328.884 278.117 328.884C268.076 328.648 258.067 327.662 248.173 325.932C230.498 322.979 191.227 316.538 182.878 321.006C182.878 321.006 177.526 322.483 177.526 324.952C177.712 326.332 178.067 327.685 178.583 328.978L179.319 329.246C179.319 329.246 189.127 328.213 210.294 328.723C231.461 329.233 280.419 332.145 283.563 333.286C284.901 333.796 294.387 331.648 304.904 327.918C312.932 321.355 322.365 313.156 323.315 312.579C324.706 311.706 315.862 306.298 315.862 306.298Z" fill="#92E3A9"/>
<path opacity="0.5" d="M315.862 306.298C315.862 306.298 310.952 302.849 305.56 304.325C300.167 305.802 286.413 322.053 283.469 324.455C280.526 326.858 278.117 328.884 278.117 328.884C268.076 328.648 258.067 327.662 248.173 325.932C230.498 322.979 191.227 316.538 182.878 321.006C182.878 321.006 177.526 322.483 177.526 324.952C177.712 326.332 178.067 327.685 178.583 328.978L179.319 329.246C179.319 329.246 189.127 328.213 210.294 328.723C231.461 329.233 280.419 332.145 283.563 333.286C284.901 333.796 294.387 331.648 304.904 327.918C312.932 321.355 322.365 313.156 323.315 312.579C324.706 311.706 315.862 306.298 315.862 306.298Z" fill="white"/>
</g>
<path d="M182.959 339.177C179.065 331.648 177.433 326.254 177.433 325.006C177.433 322.536 182.785 321.06 182.785 321.06C191.134 316.631 230.404 323.033 248.079 325.985C257.973 327.715 267.983 328.702 278.023 328.938C278.023 328.938 280.472 326.978 283.375 324.509C286.279 322.04 300.06 305.802 305.466 304.379C310.871 302.956 315.768 306.352 315.768 306.352C315.768 306.352 324.613 311.72 323.127 312.753C321.642 313.786 300.06 332.44 294.655 335.889C289.249 339.338 277.97 337.862 268.149 339.835C259.693 341.526 225.44 343.619 217.586 344.263C211.688 345.666 205.497 345.149 199.911 342.787" stroke="#263238" stroke-linecap="round" stroke-linejoin="round"/>
<path d="M376.848 382.953C377.736 381.262 379.068 379.847 380.7 378.861C382.332 377.875 384.201 377.355 386.107 377.357H475.351C475.351 377.357 481.801 377.357 479.874 389.65C477.947 401.942 451.481 477.001 445.086 499.694C438.69 522.387 437.339 570.216 437.339 570.216H330.299C330.299 570.216 338.782 455.837 376.848 382.953Z" fill="white"/>
<mask id="mask1_106_298" style="mask-type:luminance" maskUnits="userSpaceOnUse" x="330" y="377" width="151" height="194">
<path d="M376.848 382.953C377.736 381.262 379.068 379.847 380.7 378.861C382.332 377.875 384.201 377.355 386.107 377.357H475.351C475.351 377.357 481.801 377.357 479.874 389.65C477.947 401.942 451.481 477.001 445.086 499.694C438.69 522.387 437.339 570.216 437.339 570.216H330.299C330.299 570.216 338.782 455.837 376.848 382.953Z" fill="white"/>
</mask>
<g mask="url(#mask1_106_298)">
<path opacity="0.16" d="M417.041 377.357H386.107C384.201 377.355 382.332 377.875 380.7 378.861C379.068 379.847 377.736 381.262 376.848 382.953C338.782 455.837 330.205 570.176 330.205 570.176H378.213L390.054 525.071L439.426 535.284C439.774 531.499 440.175 527.648 440.644 523.85L439.56 511.772C439.56 511.772 429.445 501.103 426.26 498.432C423.076 495.762 425.19 490.944 424.655 470.129C424.119 449.315 405.494 434.352 398.564 421.536C391.633 408.72 402.297 400.708 411.877 387.892C415.288 383.262 416.68 379.853 417.041 377.357Z" fill="black"/>
</g>
<path d="M376.848 382.953C377.736 381.262 379.068 379.847 380.7 378.861C382.332 377.875 384.201 377.355 386.107 377.357H475.351C475.351 377.357 481.801 377.357 479.874 389.65C477.947 401.942 451.481 477.001 445.086 499.694C438.69 522.387 437.339 570.216 437.339 570.216H330.299C330.299 570.216 338.782 455.837 376.848 382.953Z" stroke="#263238" stroke-linecap="round" stroke-linejoin="round"/>
<path d="M459.871 398.708C450.853 419.818 431.773 503.384 428.669 570.176H437.286C437.286 570.176 438.624 522.293 445.033 499.653C451.442 477.014 477.934 401.942 479.821 389.609C481.707 377.276 475.298 377.317 475.298 377.317C475.298 377.317 467.11 381.786 459.871 398.708Z" fill="#263238" stroke="#263238" stroke-linecap="round" stroke-linejoin="round"/>
<path d="M303.097 356.516C303.097 356.516 288.861 348.142 283.469 333.38C278.076 318.618 325.682 294.972 346.355 293.495C367.027 292.019 372.86 297.427 385.157 318.604C397.453 339.781 405.775 368.822 399.393 383.101C393.011 397.38 382.213 400.829 390.027 412.625C397.841 424.421 419.971 457.917 418.499 473.672C417.028 489.427 401.815 503.196 379.697 504.699C357.58 506.202 328.144 492.876 303.605 471.149C279.067 449.422 285.435 417.469 294.239 407.136C303.043 396.803 316.33 392.857 317.307 382.524C318.283 372.19 303.097 356.516 303.097 356.516Z" fill="#263238" stroke="#263238" stroke-linecap="round" stroke-linejoin="round"/>
<path d="M363.775 333.151C371.335 347.269 380.795 366.178 383.752 377.599C388.916 397.594 362.344 410.182 369.716 419.804" stroke="white" stroke-linecap="round" stroke-linejoin="round"/>
<path d="M353.473 314.659C353.473 314.659 356.416 319.691 360.484 327.099" stroke="white" stroke-linecap="round" stroke-linejoin="round"/>
<path d="M393.131 350.181C394.003 352.827 394.569 355.565 394.817 358.341" stroke="white" stroke-linecap="round" stroke-linejoin="round"/>
<path d="M358.584 307.318C358.584 307.318 381.838 324.549 391.124 345.176" stroke="white" stroke-linecap="round" stroke-linejoin="round"/>
<path d="M326.311 320.241C309.707 324.912 285.823 332.494 287.763 336.869" stroke="white" stroke-linecap="round" stroke-linejoin="round"/>
<path d="M341.658 316.135C341.658 316.135 338.112 317.021 332.827 318.443" stroke="white" stroke-linecap="round" stroke-linejoin="round"/>
<path d="M321.12 307.439C330.631 304.432 340.593 303.115 350.556 303.547" stroke="white" stroke-linecap="round" stroke-linejoin="round"/>
<path d="M314.35 310.217C315.853 309.431 317.409 308.749 319.006 308.177" stroke="white" stroke-linecap="round" stroke-linejoin="round"/>
<path d="M182.958 339.177C180.705 335.038 178.91 330.664 177.606 326.133C178.904 330.666 180.699 335.041 182.958 339.177ZM177.459 325.368C177.459 325.448 177.459 325.542 177.459 325.663C177.486 325.542 177.472 325.448 177.459 325.368ZM182.958 339.164C187.962 348.67 194.188 357.477 201.476 365.36C219.151 384.564 270.209 434.795 275.066 438.244C279.923 441.692 278.505 451.529 275.066 461.38C271.627 471.23 258.863 485.536 259.358 501.264C259.853 516.992 264.71 541.148 264.268 546.073C263.827 550.998 251.544 567.747 251.544 567.747H378.199C378.199 567.747 362.411 547.617 362.411 540.732C362.411 533.848 384.086 445.638 385.063 439.237C386.04 432.835 382.12 428.407 374.265 427.91C366.411 427.414 336.467 421.012 334.995 416.087C333.523 411.162 342.849 392.454 342.849 392.454L313.413 393.931C313.413 393.931 311.941 406.733 309.975 409.203C308.008 411.672 305.064 406.733 298.187 403.298C291.309 399.862 278.117 396.897 273.153 392.951C268.189 389.006 221.118 344.639 221.118 344.639" fill="white"/>
<mask id="mask2_106_298" style="mask-type:luminance" maskUnits="userSpaceOnUse" x="177" y="325" width="209" height="243">
<path d="M182.958 339.177C180.705 335.038 178.91 330.664 177.606 326.133C178.904 330.666 180.699 335.041 182.958 339.177ZM177.459 325.368C177.459 325.448 177.459 325.542 177.459 325.663C177.486 325.542 177.472 325.448 177.459 325.368ZM182.958 339.164C187.962 348.67 194.188 357.477 201.476 365.36C219.151 384.564 270.209 434.795 275.066 438.244C279.923 441.692 278.505 451.529 275.066 461.38C271.627 471.23 258.863 485.536 259.358 501.264C259.853 516.992 264.71 541.148 264.268 546.073C263.827 550.998 251.544 567.747 251.544 567.747H378.199C378.199 567.747 362.411 547.617 362.411 540.732C362.411 533.848 384.086 445.638 385.063 439.237C386.04 432.835 382.12 428.407 374.265 427.91C366.411 427.414 336.467 421.012 334.995 416.087C333.523 411.162 342.849 392.454 342.849 392.454L313.413 393.931C313.413 393.931 311.941 406.733 309.975 409.203C308.008 411.672 305.064 406.733 298.187 403.298C291.309 399.862 278.117 396.897 273.153 392.951C268.189 389.006 221.118 344.639 221.118 344.639" fill="white"/>
</mask>
<g mask="url(#mask2_106_298)">
<path d="M280.673 396.749C283.121 401.043 285.57 404.922 285.57 404.922C285.57 404.922 293.825 409.578 295.886 409.578C297.946 409.578 310.336 416.288 310.336 416.288C310.336 416.288 320.666 413.698 317.026 404.895C315.878 402.641 314.429 400.555 312.718 398.695C312.102 402.6 311.112 407.713 309.948 409.176C307.981 411.632 305.038 406.707 298.16 403.271C293.705 401.043 286.493 399.003 280.673 396.749Z" fill="#92E3A9"/>
<path d="M255.464 376.82C240.305 362.743 221.118 344.693 221.118 344.693L209.959 343.082L208.621 343.834C208.621 343.834 240.118 371.788 246.821 374.901C249.533 376.151 252.48 376.806 255.464 376.82Z" fill="#92E3A9"/>
<path d="M271.347 391.394L270.143 390.321C270.758 391.341 271.106 391.985 271.106 391.985L271.347 391.394Z" fill="#92E3A9"/>
<g opacity="0.5">
<path d="M280.673 396.749C283.121 401.043 285.57 404.922 285.57 404.922C285.57 404.922 293.825 409.578 295.886 409.578C297.946 409.578 310.336 416.288 310.336 416.288C310.336 416.288 320.666 413.698 317.026 404.895C315.878 402.641 314.429 400.555 312.718 398.695C312.102 402.6 311.112 407.713 309.948 409.176C307.981 411.632 305.038 406.707 298.16 403.271C293.705 401.043 286.493 399.003 280.673 396.749Z" fill="white"/>
<path d="M255.464 376.82C240.305 362.743 221.118 344.693 221.118 344.693L209.959 343.082L208.621 343.834C208.621 343.834 240.118 371.788 246.821 374.901C249.533 376.151 252.48 376.806 255.464 376.82Z" fill="white"/>
<path d="M271.347 391.394L270.143 390.321C270.758 391.341 271.106 391.985 271.106 391.985L271.347 391.394Z" fill="white"/>
</g>
</g>
<path d="M177.432 325.006C177.426 325.099 177.426 325.194 177.432 325.287M177.606 326.133C178.91 330.664 180.705 335.038 182.958 339.177C180.699 335.041 178.904 330.666 177.606 326.133ZM177.606 326.133C177.569 326.005 177.542 325.875 177.526 325.744M182.958 339.164C187.962 348.67 194.188 357.477 201.476 365.36C219.151 384.564 270.209 434.795 275.066 438.244C279.923 441.692 278.505 451.529 275.066 461.38C271.627 471.23 258.863 485.536 259.358 501.264C259.853 516.992 264.71 541.148 264.268 546.073C263.827 550.998 251.544 567.747 251.544 567.747H378.199C378.199 567.747 362.411 547.617 362.411 540.732C362.411 533.848 384.086 445.638 385.063 439.237C386.04 432.835 382.12 428.407 374.265 427.91C366.411 427.414 336.467 421.012 334.995 416.087C333.523 411.162 342.849 392.454 342.849 392.454L313.413 393.931C313.413 393.931 311.941 406.733 309.975 409.203C308.008 411.672 305.064 406.733 298.187 403.298C291.309 399.862 278.117 396.897 273.153 392.951C268.189 389.006 221.118 344.639 221.118 344.639M177.459 325.368C177.459 325.448 177.459 325.542 177.459 325.663C177.486 325.542 177.472 325.448 177.459 325.368Z" stroke="#263238" stroke-linecap="round" stroke-linejoin="round"/>
<path d="M221.118 344.693C221.118 344.693 205.437 344.988 196.687 337.755" stroke="#263238" stroke-linecap="round" stroke-linejoin="round"/>
<path d="M335.008 416.087C333.536 411.175 342.862 392.454 342.862 392.454L313.426 393.931C313.426 393.931 311.954 406.733 309.988 409.203C308.021 411.672 305.077 406.733 298.2 403.298C297.678 403.029 297.103 402.774 296.514 402.519L294.734 430.581C294.734 430.581 297.317 457.756 328.278 452.589C340.815 450.496 354.195 439.277 365.742 426.662C353.861 424.475 336.132 419.858 335.008 416.087Z" fill="white"/>
<mask id="mask3_106_298" style="mask-type:luminance" maskUnits="userSpaceOnUse" x="294" y="392" width="72" height="62">
<path d="M335.008 416.087C333.536 411.175 342.862 392.454 342.862 392.454L313.426 393.931C313.426 393.931 311.954 406.733 309.988 409.203C308.021 411.672 305.077 406.733 298.2 403.298C297.678 403.029 297.103 402.774 296.514 402.519L294.734 430.581C294.734 430.581 297.317 457.756 328.278 452.589C340.815 450.496 354.195 439.277 365.742 426.662C353.861 424.475 336.132 419.858 335.008 416.087Z" fill="white"/>
</mask>
<g mask="url(#mask3_106_298)">
<path d="M334.178 396.172C334.178 396.172 332.399 406.183 330.967 417.255C329.536 428.326 328.479 436.566 328.479 436.566L335.008 416.087L342.367 394.387C342.367 394.387 335.249 394.387 334.178 396.172Z" fill="#92E3A9"/>
<path opacity="0.5" d="M334.178 396.172C334.178 396.172 332.399 406.183 330.967 417.255C329.536 428.326 328.479 436.566 328.479 436.566L335.008 416.087L342.367 394.387C342.367 394.387 335.249 394.387 334.178 396.172Z" fill="white"/>
</g>
<path d="M335.008 416.087C333.536 411.175 342.862 392.454 342.862 392.454L313.426 393.931C313.426 393.931 311.954 406.733 309.988 409.203C308.021 411.672 305.077 406.733 298.2 403.298C297.678 403.029 297.103 402.774 296.514 402.519L294.734 430.581C294.734 430.581 297.317 457.756 328.278 452.589C340.815 450.496 354.195 439.277 365.742 426.662C353.861 424.475 336.132 419.858 335.008 416.087Z" stroke="#263238" stroke-linecap="round" stroke-linejoin="round"/>
<path d="M309.975 409.203C308.008 411.658 305.064 406.733 298.187 403.298C293.852 401.11 286.948 399.124 281.235 396.977C279.616 393.125 277.475 388.106 276.097 385.073C273.648 379.705 269.715 383.101 269.715 383.101C267.662 380.76 266.004 378.099 264.804 375.223C262.356 369.855 258.422 370.298 253.03 369.318C247.638 368.339 236.331 357.992 236.331 357.992C236.331 357.992 231.046 353.966 228.865 351.966C226.323 356.985 220.235 365.816 207.069 371.331C228.063 393.327 270.651 435.117 275.12 438.257C280.03 441.692 278.559 451.543 275.12 461.393C271.681 471.243 258.917 485.549 259.412 501.277C259.907 517.005 264.764 541.161 264.322 546.087C263.881 550.475 254.087 564.23 251.959 567.183L256.95 567.746H282.934C282.787 554.541 282.8 500.646 291.805 479.174C302.121 454.495 309.975 409.203 309.975 409.203Z" fill="#92E3A9"/>
<mask id="mask4_106_298" style="mask-type:luminance" maskUnits="userSpaceOnUse" x="207" y="351" width="103" height="217">
<path d="M309.975 409.203C308.008 411.658 305.064 406.733 298.187 403.298C293.852 401.11 286.948 399.124 281.235 396.977C279.616 393.125 277.475 388.106 276.097 385.073C273.648 379.705 269.715 383.101 269.715 383.101C267.662 380.76 266.004 378.099 264.804 375.223C262.356 369.855 258.422 370.298 253.03 369.318C247.638 368.339 236.331 357.992 236.331 357.992C236.331 357.992 231.046 353.966 228.865 351.966C226.323 356.985 220.235 365.816 207.069 371.331C228.063 393.327 270.651 435.117 275.12 438.257C280.03 441.692 278.559 451.543 275.12 461.393C271.681 471.243 258.917 485.549 259.412 501.277C259.907 517.005 264.764 541.161 264.322 546.087C263.881 550.475 254.087 564.23 251.959 567.183L256.95 567.746H282.934C282.787 554.541 282.8 500.646 291.805 479.174C302.121 454.495 309.975 409.203 309.975 409.203Z" fill="white"/>
</mask>
<g mask="url(#mask4_106_298)">
<path opacity="0.16" d="M298.188 403.298C293.852 401.11 286.948 399.124 281.235 396.977C279.616 393.125 277.475 388.106 276.097 385.073C273.649 379.705 269.715 383.101 269.715 383.101C267.663 380.76 266.004 378.099 264.805 375.223C262.356 369.855 258.422 370.298 253.03 369.318C247.638 368.339 236.332 357.992 236.332 357.992C236.332 357.992 231.047 353.966 228.866 351.966C227.778 354.097 226.482 356.116 224.999 357.992C233.776 365.44 243.463 373.331 246.849 374.901C253.539 378.001 255.104 375.411 260.229 378.524C265.353 381.638 271.066 391.944 271.066 391.944C271.066 391.944 274.171 383.651 276.753 389.354C279.335 395.058 285.53 404.881 285.53 404.881C285.53 404.881 293.786 409.538 295.846 409.538C297.465 409.538 305.399 413.671 308.771 415.456C309.52 411.524 309.935 409.162 309.935 409.162C308.009 411.659 305.065 406.733 298.188 403.298Z" fill="black"/>
</g>
<path d="M309.975 409.203C308.008 411.658 305.064 406.733 298.187 403.298C293.852 401.11 286.948 399.124 281.235 396.977C279.616 393.125 277.475 388.106 276.097 385.073C273.648 379.705 269.715 383.101 269.715 383.101C267.662 380.76 266.004 378.099 264.804 375.223C262.356 369.855 258.422 370.298 253.03 369.318C247.638 368.339 236.331 357.992 236.331 357.992C236.331 357.992 231.046 353.966 228.865 351.966C226.323 356.985 220.235 365.816 207.069 371.331C228.063 393.327 270.651 435.117 275.12 438.257C280.03 441.692 278.559 451.543 275.12 461.393C271.681 471.243 258.917 485.549 259.412 501.277C259.907 517.005 264.764 541.161 264.322 546.087C263.881 550.475 254.087 564.23 251.959 567.183L256.95 567.746H282.934C282.787 554.541 282.8 500.646 291.805 479.174C302.121 454.495 309.975 409.203 309.975 409.203Z" stroke="#263238" stroke-linecap="round" stroke-linejoin="round"/>
<path d="M310.322 407.485C310.322 407.485 304.221 405.606 300.461 408.907C296.701 412.209 291.095 429.145 287.79 447.517C285.753 458.212 287.159 469.28 291.804 479.121C291.804 479.121 299.524 458.816 301.866 448.926C304.207 439.035 310.322 407.485 310.322 407.485Z" fill="#92E3A9"/>
<mask id="mask5_106_298" style="mask-type:luminance" maskUnits="userSpaceOnUse" x="286" y="406" width="25" height="74">
<path d="M310.322 407.485C310.322 407.485 304.221 405.606 300.461 408.907C296.701 412.209 291.095 429.145 287.79 447.517C285.753 458.212 287.159 469.28 291.804 479.121C291.804 479.121 299.524 458.816 301.866 448.926C304.207 439.035 310.322 407.485 310.322 407.485Z" fill="white"/>
</mask>
<g mask="url(#mask5_106_298)">
<path opacity="0.16" d="M298.614 410.477C298.614 410.477 303.03 409.404 304.849 410.021C306.382 410.68 307.814 411.552 309.104 412.611L310.322 407.485C308.495 406.549 306.424 406.206 304.394 406.505C301.357 407.123 298.614 410.477 298.614 410.477Z" fill="black"/>
</g>
<path d="M310.322 407.485C310.322 407.485 304.221 405.606 300.461 408.907C296.701 412.209 291.095 429.145 287.79 447.517C285.753 458.212 287.159 469.28 291.804 479.121C291.804 479.121 299.524 458.816 301.866 448.926C304.207 439.035 310.322 407.485 310.322 407.485Z" stroke="#263238" stroke-linecap="round" stroke-linejoin="round"/>
<path d="M269.232 409.095L277.086 441.102L259.411 400.721" stroke="#263238" stroke-linecap="round" stroke-linejoin="round"/>
<path d="M320.973 567.747H378.212C378.212 567.747 362.424 547.617 362.424 540.732C362.424 533.848 384.1 445.638 385.076 439.237C386.053 432.835 382.133 428.407 374.279 427.91C366.425 427.414 336.48 421.012 335.008 416.087C335.008 416.087 323.716 455.971 319.795 483.053C316.423 506.283 319.916 554.488 320.973 567.747Z" fill="#92E3A9"/>
<mask id="mask6_106_298" style="mask-type:luminance" maskUnits="userSpaceOnUse" x="318" y="416" width="68" height="152">
<path d="M320.973 567.747H378.212C378.212 567.747 362.424 547.617 362.424 540.732C362.424 533.848 384.1 445.638 385.076 439.237C386.053 432.835 382.133 428.407 374.279 427.91C366.425 427.414 336.48 421.012 335.008 416.087C335.008 416.087 323.716 455.971 319.795 483.053C316.423 506.283 319.916 554.488 320.973 567.747Z" fill="white"/>
</mask>
<g mask="url(#mask6_106_298)">
<path opacity="0.16" d="M374.279 427.91C367.843 427.508 346.582 423.133 338.3 418.865L341.31 425.843C346.765 428.746 352.631 430.792 358.704 431.909C368.672 433.694 377.945 433.345 384.006 442.283L384.3 442.726C384.675 441.008 384.929 439.8 385.009 439.237C386.066 432.835 382.133 428.407 374.279 427.91Z" fill="black"/>
</g>
<path d="M320.973 567.747H378.212C378.212 567.747 362.424 547.617 362.424 540.732C362.424 533.848 384.1 445.638 385.076 439.237C386.053 432.835 382.133 428.407 374.279 427.91C366.425 427.414 336.48 421.012 335.008 416.087C335.008 416.087 323.716 455.971 319.795 483.053C316.423 506.283 319.916 554.488 320.973 567.747Z" stroke="#263238" stroke-linecap="round" stroke-linejoin="round"/>
<path d="M335.009 416.087C335.009 416.087 319.863 464.399 319.796 483.053C319.796 483.053 341.311 456.924 344.121 438.566C346.931 420.207 335.009 416.087 335.009 416.087Z" fill="#92E3A9"/>
<mask id="mask7_106_298" style="mask-type:luminance" maskUnits="userSpaceOnUse" x="319" y="416" width="26" height="68">
<path d="M335.009 416.087C335.009 416.087 319.863 464.399 319.796 483.053C319.796 483.053 341.311 456.924 344.121 438.566C346.931 420.207 335.009 416.087 335.009 416.087Z" fill="white"/>
</mask>
<g mask="url(#mask7_106_298)">
<path opacity="0.16" d="M332.399 422.26C334.675 422.184 336.935 422.664 338.985 423.66C341.034 424.656 342.81 426.138 344.16 427.977C344.16 427.977 341.19 419.214 335.009 416.087L332.399 422.26Z" fill="black"/>
</g>
<path d="M335.009 416.087C335.009 416.087 319.863 464.399 319.796 483.053C319.796 483.053 341.311 456.924 344.121 438.566C346.931 420.207 335.009 416.087 335.009 416.087Z" stroke="#263238" stroke-linecap="round" stroke-linejoin="round"/>
<path d="M496.706 558.661C496.706 558.661 507.798 559.117 515.063 560.164C519.909 560.823 524.786 561.213 529.674 561.332C529.674 561.332 525.66 553.199 521.379 550.904C517.097 548.61 509.337 544.503 502.834 545.416C496.331 546.328 487.032 552.904 487.808 554.997C488.584 557.091 492.05 558.03 496.706 558.661Z" fill="white"/>
<mask id="mask8_106_298" style="mask-type:luminance" maskUnits="userSpaceOnUse" x="487" y="545" width="43" height="17">
<path d="M496.706 558.661C496.706 558.661 507.798 559.117 515.063 560.164C519.909 560.823 524.786 561.213 529.674 561.332C529.674 561.332 525.66 553.199 521.379 550.904C517.097 548.61 509.337 544.503 502.834 545.416C496.331 546.328 487.032 552.904 487.808 554.997C488.584 557.091 492.05 558.03 496.706 558.661Z" fill="white"/>
</mask>
<g mask="url(#mask8_106_298)">
<path d="M496.706 558.661C496.706 558.661 507.798 559.117 515.063 560.164C519.909 560.823 524.786 561.213 529.674 561.332C529.674 561.332 525.66 553.199 521.379 550.904C517.097 548.61 509.337 544.503 502.834 545.416C496.331 546.328 487.032 552.904 487.808 554.997C488.584 557.091 492.05 558.03 496.706 558.661Z" fill="#92E3A9"/>
<path opacity="0.5" d="M496.706 558.661C496.706 558.661 507.798 559.117 515.063 560.164C519.909 560.823 524.786 561.213 529.674 561.332C529.674 561.332 525.66 553.199 521.379 550.904C517.097 548.61 509.337 544.503 502.834 545.416C496.331 546.328 487.032 552.904 487.808 554.997C488.584 557.091 492.05 558.03 496.706 558.661Z" fill="white"/>
</g>
<path d="M496.706 558.661C496.706 558.661 507.798 559.117 515.063 560.164C519.909 560.823 524.786 561.213 529.674 561.332C529.674 561.332 525.66 553.199 521.379 550.904C517.097 548.61 509.337 544.503 502.834 545.416C496.331 546.328 487.032 552.904 487.808 554.997C488.584 557.091 492.05 558.03 496.706 558.661Z" stroke="#263238" stroke-linecap="round" stroke-linejoin="round"/>
<path d="M515.13 555.333C515.13 555.333 523.921 550.757 526.115 550.824C528.309 550.891 542.893 560.782 542.171 562.365C541.68 563.099 540.972 563.66 540.146 563.969C539.32 564.277 538.418 564.317 537.568 564.083C535.949 563.318 526.128 559.131 526.128 559.131L519.706 560.647L515.13 555.333Z" fill="white"/>
<mask id="mask9_106_298" style="mask-type:luminance" maskUnits="userSpaceOnUse" x="515" y="550" width="28" height="15">
<path d="M515.13 555.333C515.13 555.333 523.921 550.757 526.115 550.824C528.309 550.891 542.893 560.782 542.171 562.365C541.68 563.099 540.972 563.66 540.146 563.969C539.32 564.277 538.418 564.317 537.568 564.083C535.949 563.318 526.128 559.131 526.128 559.131L519.706 560.647L515.13 555.333Z" fill="white"/>
</mask>
<g mask="url(#mask9_106_298)">
<path d="M515.13 555.333C515.13 555.333 523.921 550.757 526.115 550.824C528.309 550.891 542.893 560.782 542.171 562.365C541.448 563.949 537.996 565.237 537.568 564.083C537.14 562.929 526.128 559.131 526.128 559.131L519.706 560.647L515.13 555.333Z" fill="#92E3A9"/>
<path opacity="0.5" d="M515.13 555.333C515.13 555.333 523.921 550.757 526.115 550.824C528.309 550.891 542.893 560.782 542.171 562.365C541.448 563.949 537.996 565.237 537.568 564.083C537.14 562.929 526.128 559.131 526.128 559.131L519.706 560.647L515.13 555.333Z" fill="white"/>
</g>
<path d="M515.13 555.333C515.13 555.333 523.921 550.757 526.115 550.824C528.309 550.891 542.893 560.782 542.171 562.365C541.68 563.099 540.972 563.66 540.146 563.969C539.32 564.277 538.418 564.317 537.568 564.083C535.949 563.318 526.128 559.131 526.128 559.131L519.706 560.647L515.13 555.333Z" stroke="#263238" stroke-linecap="round" stroke-linejoin="round"/>
<path d="M508.854 547.804C508.854 547.804 520.575 547.429 522.903 548.61C525.232 549.791 535.748 567.881 534.169 569.196C532.591 570.511 528.229 570.122 528.363 568.659C528.496 567.196 518.675 557.507 518.675 557.507L511.035 555.83L508.854 547.804Z" fill="white"/>
<mask id="mask10_106_298" style="mask-type:luminance" maskUnits="userSpaceOnUse" x="508" y="547" width="27" height="23">
<path d="M508.854 547.804C508.854 547.804 520.575 547.429 522.903 548.61C525.232 549.791 535.748 567.881 534.169 569.196C532.591 570.511 528.229 570.122 528.363 568.659C528.496 567.196 518.675 557.507 518.675 557.507L511.035 555.83L508.854 547.804Z" fill="white"/>
</mask>
<g mask="url(#mask10_106_298)">
<path d="M508.854 547.804C508.854 547.804 520.575 547.429 522.903 548.61C525.232 549.791 535.748 567.881 534.169 569.196C532.591 570.511 528.229 570.122 528.363 568.659C528.496 567.196 518.675 557.507 518.675 557.507L511.035 555.83L508.854 547.804Z" fill="#92E3A9"/>
<path opacity="0.5" d="M508.854 547.804C508.854 547.804 520.575 547.429 522.903 548.61C525.232 549.791 535.748 567.881 534.169 569.196C532.591 570.511 528.229 570.122 528.363 568.659C528.496 567.196 518.675 557.507 518.675 557.507L511.035 555.83L508.854 547.804Z" fill="white"/>
</g>
<path d="M508.854 547.804C508.854 547.804 520.575 547.429 522.903 548.61C525.232 549.791 535.748 567.881 534.169 569.196C532.591 570.511 528.229 570.122 528.363 568.659C528.496 567.196 518.675 557.507 518.675 557.507L511.035 555.83L508.854 547.804Z" stroke="#263238" stroke-linecap="round" stroke-linejoin="round"/>
<path d="M501.911 545.375C501.911 545.375 513.779 544.986 516.134 546.194C518.489 547.402 529.139 565.693 527.534 567.035C525.928 568.377 521.54 567.961 521.673 566.485C521.807 565.009 511.866 555.199 511.866 555.199L504.132 553.494L501.911 545.375Z" fill="white"/>
<mask id="mask11_106_298" style="mask-type:luminance" maskUnits="userSpaceOnUse" x="501" y="545" width="27" height="23">
<path d="M501.911 545.375C501.911 545.375 513.779 544.986 516.134 546.194C518.489 547.402 529.139 565.693 527.534 567.035C525.928 568.377 521.54 567.961 521.673 566.485C521.807 565.009 511.866 555.199 511.866 555.199L504.132 553.494L501.911 545.375Z" fill="white"/>
</mask>
<g mask="url(#mask11_106_298)">
<path d="M501.911 545.375C501.911 545.375 513.779 544.986 516.134 546.194C518.489 547.402 529.139 565.693 527.534 567.035C525.928 568.377 521.54 567.961 521.673 566.485C521.807 565.009 511.866 555.199 511.866 555.199L504.132 553.494L501.911 545.375Z" fill="#92E3A9"/>
<path opacity="0.5" d="M501.911 545.375C501.911 545.375 513.779 544.986 516.134 546.194C518.489 547.402 529.139 565.693 527.534 567.035C525.928 568.377 521.54 567.961 521.673 566.485C521.807 565.009 511.866 555.199 511.866 555.199L504.132 553.494L501.911 545.375Z" fill="white"/>
</g>
<path d="M501.911 545.375C501.911 545.375 513.779 544.986 516.134 546.194C518.489 547.402 529.139 565.693 527.534 567.035C525.928 568.377 521.54 567.961 521.673 566.485C521.807 565.009 511.866 555.199 511.866 555.199L504.132 553.494L501.911 545.375Z" stroke="#263238" stroke-linecap="round" stroke-linejoin="round"/>
<path d="M366.973 477.175C375.563 490.447 392.81 524.078 397.841 527.862C405.695 533.767 458.198 548.1 463.256 552.018C468.313 555.937 467.965 559.869 472.755 561.305C477.545 562.741 495.501 566.861 502.352 567.505C509.202 568.149 506.138 563.895 506.138 563.895L494.458 555.843L504.64 553.32C504.64 553.32 514.849 565.64 516.762 566.311C518.675 566.982 522.047 566.311 521.833 564.794C521.459 562.365 510.567 542.49 506.7 541.645C502.834 540.799 479.365 544.06 479.365 544.06C479.365 544.06 430.14 510.765 429.257 509.584C429.257 509.584 426.313 501.21 423.905 497.761C421.497 494.312 419.971 495.305 419.971 495.305C419.971 495.305 420.961 490.863 419.49 489.387L411.635 481.51L411.355 481.885C410.017 479.201 408.678 476.142 407.207 472.652C403.099 462.95 388.555 435.721 386.106 431.788C384.273 428.849 368.913 426.743 361.126 425.857" fill="#92E3A9"/>
<mask id="mask12_106_298" style="mask-type:luminance" maskUnits="userSpaceOnUse" x="361" y="425" width="161" height="143">
<path d="M366.973 477.175C375.563 490.447 392.81 524.078 397.841 527.862C405.695 533.767 458.198 548.1 463.256 552.018C468.313 555.937 467.965 559.869 472.755 561.305C477.545 562.741 495.501 566.861 502.352 567.505C509.202 568.149 506.138 563.895 506.138 563.895L494.458 555.843L504.64 553.32C504.64 553.32 514.849 565.64 516.762 566.311C518.675 566.982 522.047 566.311 521.833 564.794C521.459 562.365 510.567 542.49 506.7 541.645C502.834 540.799 479.365 544.06 479.365 544.06C479.365 544.06 430.14 510.765 429.257 509.584C429.257 509.584 426.313 501.21 423.905 497.761C421.497 494.312 419.971 495.305 419.971 495.305C419.971 495.305 420.961 490.863 419.49 489.387L411.635 481.51L411.355 481.885C410.017 479.201 408.678 476.142 407.207 472.652C403.099 462.95 388.555 435.721 386.106 431.788C384.273 428.849 368.913 426.743 361.126 425.857" fill="white"/>
</mask>
<g mask="url(#mask12_106_298)">
<path opacity="0.16" d="M401.172 478.02C407.595 483.737 405.454 483.737 404.022 488.756C402.591 493.775 405.093 486.972 411.154 487.334C417.215 487.696 415.436 495.547 414.713 496.983C413.99 498.419 422.206 500.204 420.774 503.411C419.342 506.618 411.154 511.275 406.524 515.932C401.895 520.589 418.633 508.417 424.333 508.068C426.073 507.947 427.504 508.175 428.708 508.148C427.445 504.557 425.822 501.104 423.865 497.842C421.403 494.393 419.931 495.386 419.931 495.386C419.931 495.386 420.921 490.944 419.449 489.468L411.595 481.59L411.314 481.966C409.976 479.282 408.638 476.222 407.167 472.733C403.059 463.03 388.515 435.801 386.066 431.869C384.233 428.93 368.873 426.823 361.086 425.937L361.795 432.151L361.969 432.285C361.969 432.285 371.589 434.07 374.8 434.432C378.012 434.795 381.932 437.64 381.571 439.8C381.209 441.961 371.95 451.596 374.8 452.321C377.65 453.046 380.862 445.168 384.073 446.242C387.284 447.315 394.71 472.303 401.172 478.02Z" fill="black"/>
</g>
<path d="M366.973 477.175C375.563 490.447 392.81 524.078 397.841 527.862C405.695 533.767 458.198 548.1 463.256 552.018C468.313 555.937 467.965 559.869 472.755 561.305C477.545 562.741 495.501 566.861 502.352 567.505C509.202 568.149 506.138 563.895 506.138 563.895L494.458 555.843L504.64 553.32C504.64 553.32 514.849 565.64 516.762 566.311C518.675 566.982 522.047 566.311 521.833 564.794C521.459 562.365 510.567 542.49 506.7 541.645C502.834 540.799 479.365 544.06 479.365 544.06C479.365 544.06 430.14 510.765 429.257 509.584C429.257 509.584 426.313 501.21 423.905 497.761C421.497 494.312 419.971 495.305 419.971 495.305C419.971 495.305 420.961 490.863 419.49 489.387L411.635 481.51L411.355 481.885C410.017 479.201 408.678 476.142 407.207 472.652C403.099 462.95 388.555 435.721 386.106 431.788C384.273 428.849 368.913 426.743 361.126 425.857" stroke="#263238" stroke-linecap="round" stroke-linejoin="round"/>
<path d="M367.107 458.964C366.746 460.172 366.438 461.38 366.197 462.614" stroke="#263238" stroke-linecap="round" stroke-linejoin="round"/>
<path d="M380.113 436.754C375.908 441.561 372.363 446.909 369.569 452.657" stroke="#263238" stroke-linecap="round" stroke-linejoin="round"/>
<path d="M399.768 512.953C403.38 507.585 409.134 500.781 415.476 498.835" stroke="#263238" stroke-linecap="round" stroke-linejoin="round"/>
<path d="M395.768 519.555C395.768 519.555 396.41 518.294 397.56 516.388" stroke="#263238" stroke-linecap="round" stroke-linejoin="round"/>
<path d="M395.768 511.074C395.768 511.074 402.337 494.594 408.907 490.353C415.476 486.113 411.717 494.594 411.717 494.594" stroke="#263238" stroke-linecap="round" stroke-linejoin="round"/>
<path d="M463.256 552.032C468.327 555.964 467.965 559.882 472.755 561.318C477.545 562.754 495.501 566.874 502.352 567.518C509.203 568.163 506.139 563.908 506.139 563.908L494.458 555.856L504.64 553.333C504.64 553.333 514.849 565.653 516.762 566.324C518.676 566.995 522.315 567.237 521.833 564.808C520.897 560.111 510.567 542.503 506.701 541.658C502.834 540.813 479.365 544.074 479.365 544.074C479.365 544.074 434.529 513.208 429.618 509.866C410.579 511.705 401.52 521.702 397.707 527.701L397.841 527.809C405.695 533.767 458.198 548.1 463.256 552.032Z" fill="white"/>
<mask id="mask13_106_298" style="mask-type:luminance" maskUnits="userSpaceOnUse" x="397" y="509" width="125" height="59">
<path d="M463.256 552.032C468.327 555.964 467.965 559.882 472.755 561.318C477.545 562.754 495.501 566.874 502.352 567.518C509.203 568.163 506.139 563.908 506.139 563.908L494.458 555.856L504.64 553.333C504.64 553.333 514.849 565.653 516.762 566.324C518.676 566.995 522.315 567.237 521.833 564.808C520.897 560.111 510.567 542.503 506.701 541.658C502.834 540.813 479.365 544.074 479.365 544.074C479.365 544.074 434.529 513.208 429.618 509.866C410.579 511.705 401.52 521.702 397.707 527.701L397.841 527.809C405.695 533.767 458.198 548.1 463.256 552.032Z" fill="white"/>
</mask>
<g mask="url(#mask13_106_298)">
<path d="M521.82 564.861C519.384 558.889 510.554 542.557 506.687 541.712C502.82 540.866 479.351 544.127 479.351 544.127C479.351 544.127 434.515 513.261 429.605 509.92C424.607 510.356 419.704 511.546 415.061 513.449C422.139 517.475 469.316 544.315 475.271 545.51C481.586 546.852 502.659 543.376 506.366 545.872C508.721 547.455 515.732 558.607 520.468 566.525C521.82 566.324 522.315 566.069 521.82 564.861Z" fill="#92E3A9"/>
<path opacity="0.5" d="M521.82 564.861C518.02 556.313 510.554 542.557 506.687 541.712C502.82 540.866 479.351 544.127 479.351 544.127C479.351 544.127 434.515 513.261 429.605 509.92C424.607 510.356 419.704 511.546 415.061 513.449C422.139 517.475 469.316 544.315 475.271 545.51C481.586 546.852 502.659 543.376 506.366 545.872C508.721 547.455 515.732 558.607 520.468 566.525C521.82 566.324 522.355 566.056 521.82 564.861Z" fill="white"/>
</g>
<path d="M463.256 552.032C468.327 555.964 467.965 559.882 472.755 561.318C477.545 562.754 495.501 566.874 502.352 567.518C509.203 568.163 506.139 563.908 506.139 563.908L494.458 555.856L504.64 553.333C504.64 553.333 514.849 565.653 516.762 566.324C518.676 566.995 522.315 567.237 521.833 564.808C520.897 560.111 510.567 542.503 506.701 541.658C502.834 540.813 479.365 544.074 479.365 544.074C479.365 544.074 434.529 513.208 429.618 509.866C410.579 511.705 401.52 521.702 397.707 527.701L397.841 527.809C405.695 533.767 458.198 548.1 463.256 552.032Z" stroke="#263238" stroke-linecap="round" stroke-linejoin="round"/>
<path d="M345.003 317.692L304.703 334.561C304.214 341.665 302.46 348.623 299.524 355.107C294.761 365.212 297.544 384.335 302.12 394.655C306.696 404.975 326.86 400.936 334.232 399.648C339.232 398.694 344.13 397.26 348.857 395.367C351.009 396.199 353.337 396.468 355.621 396.148C357.906 395.829 360.072 394.932 361.915 393.541C361.915 393.541 340.347 332.816 345.003 317.692Z" fill="white"/>
<mask id="mask14_106_298" style="mask-type:luminance" maskUnits="userSpaceOnUse" x="297" y="317" width="65" height="85">
<path d="M345.003 317.692L304.703 334.561C304.214 341.665 302.46 348.623 299.524 355.107C294.761 365.212 297.544 384.335 302.12 394.655C306.696 404.975 326.86 400.936 334.232 399.648C339.232 398.694 344.13 397.26 348.857 395.367C351.009 396.199 353.337 396.468 355.621 396.148C357.906 395.829 360.072 394.932 361.915 393.541C361.915 393.541 340.347 332.816 345.003 317.692Z" fill="white"/>
</mask>
<g mask="url(#mask14_106_298)">
<path d="M345.003 317.692L304.703 334.561C304.214 341.665 302.46 348.623 299.524 355.107C294.761 365.212 297.544 384.335 302.12 394.655C302.886 396.315 304.118 397.714 305.666 398.681V397.903C305.666 397.903 298.186 379.316 299.605 368.594C301.023 357.871 307.098 352.49 307.807 345.713C308.516 338.935 308.155 335.715 321.709 330.709C335.262 325.703 340.949 321.06 342.367 326.052C343.786 331.045 349.499 363.95 353.419 371.815C357.339 379.679 356.978 387.919 350.93 391.475C344.818 395.155 338.268 398.05 331.436 400.09L334.286 399.594C339.286 398.64 344.183 397.206 348.91 395.313C351.062 396.145 353.39 396.414 355.675 396.095C357.959 395.775 360.125 394.878 361.969 393.488C361.969 393.488 340.347 332.816 345.003 317.692Z" fill="#92E3A9"/>
<path opacity="0.5" d="M345.003 317.692L304.703 334.561C304.214 341.665 302.46 348.623 299.524 355.107C294.761 365.212 297.544 384.335 302.12 394.655C302.886 396.315 304.118 397.714 305.666 398.681V397.903C305.666 397.903 298.186 379.316 299.605 368.594C301.023 357.871 307.098 352.49 307.807 345.713C308.516 338.935 308.155 335.715 321.709 330.709C335.262 325.703 340.949 321.06 342.367 326.052C343.786 331.045 349.499 363.95 353.419 371.815C357.339 379.679 356.978 387.919 350.93 391.475C344.818 395.155 338.268 398.05 331.436 400.09L334.286 399.594C339.286 398.64 344.183 397.206 348.91 395.313C351.062 396.145 353.39 396.414 355.675 396.095C357.959 395.775 360.125 394.878 361.969 393.488C361.969 393.488 340.347 332.816 345.003 317.692Z" fill="white"/>
</g>
<path d="M345.003 317.692L304.703 334.561C304.214 341.665 302.46 348.623 299.524 355.107C294.761 365.212 297.544 384.335 302.12 394.655C306.696 404.975 326.86 400.936 334.232 399.648C339.232 398.694 344.13 397.26 348.857 395.367C351.009 396.199 353.337 396.468 355.621 396.148C357.906 395.829 360.072 394.932 361.915 393.541C361.915 393.541 340.347 332.816 345.003 317.692Z" stroke="#263238" stroke-linecap="round" stroke-linejoin="round"/>
<path d="M324.639 344.142C324.748 346.519 324.454 348.897 323.769 351.175C322.699 353.859 312.597 364.407 312.904 365.547C313.212 366.688 314.122 370.352 315.915 370.701" stroke="#263238" stroke-linecap="round" stroke-linejoin="round"/>
<path d="M335.838 353.577C337.243 350.759 341.859 353.51 341.792 359.857" stroke="#263238" stroke-linecap="round" stroke-linejoin="round"/>
<path d="M312.958 345.283C312.958 345.283 316.892 343.552 320.411 349.94" stroke="#263238" stroke-linecap="round" stroke-linejoin="round"/>
<path d="M330.245 362.877C334.791 363.106 339.113 364.925 342.461 368.017" stroke="#263238" stroke-width="0.5" stroke-linecap="round" stroke-linejoin="round"/>
<path d="M308.208 354.489C310.558 354.804 312.854 355.441 315.032 356.382" stroke="#263238" stroke-width="0.5" stroke-linecap="round" stroke-linejoin="round"/>
<path d="M324.198 338.184C323.159 337.633 322.007 337.332 320.832 337.304C319.657 337.276 318.492 337.522 317.428 338.023C313.829 339.754 311.621 341.66 311.862 339.445C312.102 337.231 316.331 334.789 317.602 334.467C318.873 334.145 324.559 333.259 324.198 338.184Z" fill="#263238"/>
<path d="M334.286 333.178C338.037 336.222 341.017 340.112 342.983 344.532C345.659 351.242 347.773 343.914 345.659 339.526C343.545 335.138 337.43 330.468 334.286 333.178Z" fill="#263238"/>
<path d="M362.504 405.016C362.504 408.142 360.738 410.679 358.571 410.679C356.403 410.679 354.65 408.142 354.65 405.016C354.65 401.889 356.403 393.931 358.571 393.931C360.738 393.931 362.504 401.889 362.504 405.016Z" fill="#92E3A9" stroke="#263238" stroke-linecap="round" stroke-linejoin="round"/>
<path d="M336.186 352.356C336.032 352.766 335.912 353.188 335.825 353.617C335.437 355.603 335.049 359.75 335.825 359.924C336.601 360.099 338.501 356.22 338.836 354.234C338.911 353.845 338.956 353.45 338.969 353.053C338.056 352.766 337.127 352.533 336.186 352.356Z" fill="#263238"/>
<path d="M313.359 344.894C313.24 345.245 313.146 345.603 313.078 345.968C312.677 347.954 312.69 352.315 313.533 352.476C314.376 352.637 315.754 348.558 316.142 346.572C316.239 346.09 316.293 345.6 316.303 345.109C315.345 344.845 314.345 344.772 313.359 344.894Z" fill="#263238"/>
<path d="M335.838 353.644L337.176 351.148C339.297 351.562 341.219 352.677 342.635 354.315" stroke="#263238" stroke-width="0.75" stroke-linecap="round" stroke-linejoin="round"/>
<path d="M313.359 344.894L314.697 343.324C314.697 343.324 315.273 343.042 318.43 344.478" stroke="#263238" stroke-width="0.75" stroke-linecap="round" stroke-linejoin="round"/>
<path d="M308.289 381.289C308.289 381.289 310.537 377.142 313.547 377.142C316.558 377.142 318.806 383.919 318.806 383.919" stroke="#263238" stroke-linecap="round" stroke-linejoin="round"/>
<path d="M211.404 560.124C208.495 559.979 205.637 559.296 202.975 558.111C202.604 557.973 202.264 557.761 201.977 557.488C201.69 557.214 201.462 556.885 201.306 556.52C201.15 556.156 201.07 555.763 201.07 555.366C201.07 554.969 201.151 554.576 201.307 554.211C201.463 553.847 201.692 553.518 201.979 553.244C202.266 552.971 202.606 552.76 202.977 552.622C203.349 552.485 203.744 552.425 204.139 552.445C204.534 552.466 204.921 552.567 205.276 552.743C207.952 553.884 211.418 554.595 212.341 554.192C214.04 552.287 216.649 540.772 213.278 535.216C212.515 533.982 211.806 533.754 211.337 533.7C209.424 533.432 206.588 535.404 205.584 536.384C205.305 536.648 204.976 536.855 204.617 536.992C204.258 537.129 203.876 537.194 203.492 537.182C203.108 537.171 202.73 537.084 202.38 536.927C202.029 536.769 201.713 536.543 201.45 536.263C201.186 535.983 200.98 535.653 200.844 535.293C200.707 534.933 200.642 534.55 200.654 534.165C200.665 533.78 200.751 533.401 200.909 533.049C201.066 532.698 201.291 532.381 201.57 532.116C202.092 531.606 206.922 527.245 212.073 527.943C213.351 528.13 214.568 528.61 215.631 529.345C216.694 530.081 217.573 531.052 218.201 532.184C223.165 540.303 219.767 555.749 215.954 558.809C214.628 559.749 213.025 560.213 211.404 560.124Z" fill="white"/>
<mask id="mask15_106_298" style="mask-type:luminance" maskUnits="userSpaceOnUse" x="200" y="527" width="21" height="34">
<path d="M211.404 560.124C208.495 559.979 205.637 559.296 202.975 558.111C202.604 557.973 202.264 557.761 201.977 557.488C201.69 557.214 201.462 556.885 201.306 556.52C201.15 556.156 201.07 555.763 201.07 555.366C201.07 554.969 201.151 554.576 201.307 554.211C201.463 553.847 201.692 553.518 201.979 553.244C202.266 552.971 202.606 552.76 202.977 552.622C203.349 552.485 203.744 552.425 204.139 552.445C204.534 552.466 204.921 552.567 205.276 552.743C207.952 553.884 211.418 554.595 212.341 554.192C214.04 552.287 216.649 540.772 213.278 535.216C212.515 533.982 211.806 533.754 211.337 533.7C209.424 533.432 206.588 535.404 205.584 536.384C205.305 536.648 204.976 536.855 204.617 536.992C204.258 537.129 203.876 537.194 203.492 537.182C203.108 537.171 202.73 537.084 202.38 536.927C202.029 536.769 201.713 536.543 201.45 536.263C201.186 535.983 200.98 535.653 200.844 535.293C200.707 534.933 200.642 534.55 200.654 534.165C200.665 533.78 200.751 533.401 200.909 533.049C201.066 532.698 201.291 532.381 201.57 532.116C202.092 531.606 206.922 527.245 212.073 527.943C213.351 528.13 214.568 528.61 215.631 529.345C216.694 530.081 217.573 531.052 218.201 532.184C223.165 540.303 219.767 555.749 215.954 558.809C214.628 559.749 213.025 560.213 211.404 560.124Z" fill="white"/>
</mask>
<g mask="url(#mask15_106_298)">
<path d="M215.325 534.331C214.974 533.497 214.424 532.763 213.725 532.192C213.025 531.621 212.196 531.231 211.311 531.056C207.966 530.519 204.822 533.888 204.474 534.264C204.154 534.65 203.956 535.123 203.906 535.623C203.856 536.123 203.956 536.626 204.193 537.068C204.719 536.962 205.205 536.711 205.598 536.344C206.601 535.404 209.438 533.432 211.351 533.66C211.819 533.66 212.528 533.942 213.291 535.176C216.663 540.678 214.054 552.246 212.354 554.152C211.431 554.555 207.979 553.843 205.29 552.703C204.959 552.563 204.605 552.486 204.246 552.475C204.271 552.842 204.386 553.198 204.582 553.51C204.779 553.822 205.049 554.079 205.37 554.259C207.062 555.166 208.928 555.697 210.843 555.816C211.935 555.869 213.005 555.493 213.826 554.769C216.342 552.448 218.563 540.571 215.325 534.331Z" fill="#92E3A9"/>
<path opacity="0.5" d="M215.325 534.331C214.974 533.497 214.424 532.763 213.725 532.192C213.025 531.621 212.196 531.231 211.311 531.056C207.966 530.519 204.822 533.888 204.474 534.264C204.154 534.65 203.956 535.123 203.906 535.623C203.856 536.123 203.956 536.626 204.193 537.068C204.719 536.962 205.205 536.711 205.598 536.344C206.601 535.404 209.438 533.432 211.351 533.66C211.819 533.66 212.528 533.942 213.291 535.176C216.663 540.678 214.054 552.246 212.354 554.152C211.431 554.555 207.979 553.843 205.29 552.703C204.959 552.563 204.605 552.486 204.246 552.475C204.271 552.842 204.386 553.198 204.582 553.51C204.779 553.822 205.049 554.079 205.37 554.259C207.062 555.166 208.928 555.697 210.843 555.816C211.935 555.869 213.005 555.493 213.826 554.769C216.342 552.448 218.563 540.571 215.325 534.331Z" fill="white"/>
</g>
<path d="M211.404 560.124C208.495 559.979 205.637 559.296 202.975 558.111C202.604 557.973 202.264 557.761 201.977 557.488C201.69 557.214 201.462 556.885 201.306 556.52C201.15 556.156 201.07 555.763 201.07 555.366C201.07 554.969 201.151 554.576 201.307 554.211C201.463 553.847 201.692 553.518 201.979 553.244C202.266 552.971 202.606 552.76 202.977 552.622C203.349 552.485 203.744 552.425 204.139 552.445C204.534 552.466 204.921 552.567 205.276 552.743C207.952 553.884 211.418 554.595 212.341 554.192C214.04 552.287 216.649 540.772 213.278 535.216C212.515 533.982 211.806 533.754 211.337 533.7C209.424 533.432 206.588 535.404 205.584 536.384C205.305 536.648 204.976 536.855 204.617 536.992C204.258 537.129 203.876 537.194 203.492 537.182C203.108 537.171 202.73 537.084 202.38 536.927C202.029 536.769 201.713 536.543 201.45 536.263C201.186 535.983 200.98 535.653 200.844 535.293C200.707 534.933 200.642 534.55 200.654 534.165C200.665 533.78 200.751 533.401 200.909 533.049C201.066 532.698 201.291 532.381 201.57 532.116C202.092 531.606 206.922 527.245 212.073 527.943C213.351 528.13 214.568 528.61 215.631 529.345C216.694 530.081 217.573 531.052 218.201 532.184C223.165 540.303 219.767 555.749 215.954 558.809C214.628 559.749 213.025 560.213 211.404 560.124Z" stroke="#263238" stroke-linecap="round" stroke-linejoin="round"/>
<path d="M206.293 525.5H174.114V568.337H206.293V525.5Z" fill="white"/>
<mask id="mask16_106_298" style="mask-type:luminance" maskUnits="userSpaceOnUse" x="174" y="525" width="33" height="44">
<path d="M206.293 525.5H174.114V568.337H206.293V525.5Z" fill="white"/>
</mask>
<g mask="url(#mask16_106_298)">
<path d="M187.294 525.5H174.114V568.337H187.294V525.5Z" fill="#92E3A9"/>
<path opacity="0.5" d="M187.294 525.5H174.114V568.337H187.294V525.5Z" fill="white"/>
</g>
<path d="M206.293 525.5H174.114V568.337H206.293V525.5Z" stroke="#263238" stroke-linecap="round" stroke-linejoin="round"/>
<path d="M383.123 567.747H245.657L241.174 491.95C241.051 491.215 241.087 490.462 241.282 489.743C241.476 489.024 241.824 488.355 242.301 487.784C242.778 487.212 243.373 486.751 244.044 486.432C244.716 486.114 245.449 485.945 246.192 485.938H382.534C383.282 485.938 384.021 486.1 384.699 486.416C385.377 486.731 385.979 487.191 386.462 487.763C386.945 488.336 387.297 489.007 387.495 489.73C387.692 490.453 387.73 491.211 387.605 491.95L383.123 567.747Z" fill="#263238" stroke="#263238" stroke-linecap="round" stroke-linejoin="round"/>
<path d="M252.427 487.75H381.544C382.273 487.742 382.995 487.895 383.66 488.197C384.324 488.499 384.915 488.942 385.39 489.497C385.866 490.052 386.214 490.705 386.412 491.409C386.61 492.113 386.652 492.852 386.535 493.574" stroke="white" stroke-linecap="round" stroke-linejoin="round"/>
<path d="M242.178 492.38C242.285 491.111 242.866 489.93 243.803 489.072C244.741 488.214 245.966 487.742 247.235 487.75" stroke="white" stroke-linecap="round" stroke-linejoin="round"/>
<path d="M383.698 560.366H245.081V567.747H383.698V560.366Z" fill="white" stroke="#263238" stroke-linecap="round" stroke-linejoin="round"/>
<path d="M313.895 533.042C319.319 533.042 323.716 530.399 323.716 527.138C323.716 523.876 319.319 521.233 313.895 521.233C308.471 521.233 304.074 523.876 304.074 527.138C304.074 530.399 308.471 533.042 313.895 533.042Z" fill="white" stroke="#263238" stroke-linecap="round" stroke-linejoin="round"/>
<path d="M592.774 566.874H76.4932V579.449H592.774V566.874Z" fill="#263238"/>
<path d="M458.908 100.65H210.535C202.162 100.65 195.375 107.457 195.375 115.855V258.791C195.375 267.189 202.162 273.996 210.535 273.996H458.908C467.28 273.996 474.067 267.189 474.067 258.791V115.855C474.067 107.457 467.28 100.65 458.908 100.65Z" fill="#92E3A9"/>
<path d="M341.275 200.267C363.805 196.635 379.134 175.373 375.513 152.775C371.892 130.178 350.693 114.803 328.163 118.435C305.633 122.067 290.304 143.329 293.925 165.927C297.546 188.524 318.745 203.899 341.275 200.267Z" fill="#263238"/>
<path d="M334.407 167.012L320.639 184.74C320.17 185.478 319.527 186.087 318.765 186.514C318.004 186.94 317.149 187.17 316.277 187.182C315.081 187.199 313.926 186.74 313.065 185.907C312.628 185.505 312.282 185.012 312.051 184.463C311.82 183.914 311.71 183.322 311.727 182.727C311.771 181.393 312.24 180.109 313.065 179.063L328.76 159.591L314.042 140.105C313.358 139.19 312.983 138.081 312.972 136.938C312.968 136.256 313.106 135.581 313.375 134.955C313.644 134.329 314.04 133.766 314.537 133.301C315.004 132.812 315.565 132.423 316.186 132.158C316.807 131.893 317.475 131.756 318.15 131.758C319.014 131.772 319.861 132.002 320.614 132.429C321.366 132.856 322 133.465 322.458 134.2L335.758 151.767L349.138 134.495C349.616 133.689 350.285 133.014 351.086 132.53C351.886 132.045 352.794 131.766 353.727 131.717C354.307 131.716 354.88 131.834 355.412 132.065C355.944 132.296 356.423 132.635 356.818 133.059C357.24 133.457 357.576 133.938 357.806 134.471C358.036 135.004 358.155 135.578 358.156 136.159C358.142 137.199 357.784 138.204 357.139 139.018L341.391 159.228L356.604 179.358C357.323 180.258 357.723 181.372 357.741 182.525C357.746 183.192 357.605 183.852 357.331 184.459C357.056 185.066 356.653 185.606 356.149 186.041C355.167 186.988 353.858 187.517 352.496 187.518C351.628 187.507 350.776 187.278 350.018 186.851C349.261 186.424 348.622 185.814 348.161 185.075L334.407 167.012Z" fill="white"/>
<path d="M413.442 243.976H255.946C252.753 243.976 249.69 242.703 247.431 240.438C245.173 238.173 243.904 235.101 243.904 231.898C243.904 228.694 245.173 225.622 247.431 223.357C249.69 221.092 252.753 219.82 255.946 219.82H413.442C416.636 219.82 419.699 221.092 421.957 223.357C424.216 225.622 425.484 228.694 425.484 231.898C425.484 235.101 424.216 238.173 421.957 240.438C419.699 242.703 416.636 243.976 413.442 243.976Z" fill="white"/>
<path d="M277.528 235.789C277.423 235.789 277.319 235.768 277.222 235.726C277.126 235.685 277.039 235.624 276.966 235.548C276.887 235.469 276.825 235.375 276.783 235.271C276.742 235.167 276.722 235.056 276.725 234.944C276.725 234.755 276.776 234.569 276.872 234.407L278.077 232.528H275.615C275.501 232.534 275.387 232.516 275.281 232.474C275.175 232.432 275.079 232.369 274.999 232.287C274.862 232.126 274.786 231.921 274.786 231.71C274.786 231.498 274.862 231.293 274.999 231.133C275.079 231.051 275.175 230.987 275.281 230.945C275.387 230.904 275.501 230.885 275.615 230.891L278.037 230.958L276.966 229.214C276.859 229.035 276.799 228.832 276.792 228.623C276.789 228.511 276.809 228.4 276.85 228.296C276.892 228.192 276.954 228.098 277.033 228.019C277.108 227.943 277.198 227.882 277.296 227.84C277.395 227.799 277.501 227.777 277.608 227.778C277.758 227.775 277.905 227.818 278.031 227.899C278.158 227.98 278.257 228.096 278.318 228.234L279.495 230.341L280.619 228.328C280.69 228.171 280.802 228.037 280.944 227.94C281.085 227.843 281.25 227.787 281.422 227.778C281.527 227.778 281.631 227.799 281.727 227.841C281.824 227.882 281.911 227.943 281.984 228.019C282.062 228.093 282.124 228.182 282.166 228.282C282.207 228.381 282.227 228.489 282.224 228.596C282.223 228.787 282.167 228.973 282.064 229.133L280.886 231.025L283.335 230.958C283.449 230.951 283.563 230.97 283.669 231.011C283.775 231.053 283.871 231.117 283.951 231.2C284.088 231.36 284.164 231.565 284.164 231.777C284.164 231.989 284.088 232.193 283.951 232.354C283.871 232.436 283.775 232.501 283.669 232.542C283.563 232.584 283.449 232.602 283.335 232.595H280.86L281.957 234.313C282.081 234.521 282.15 234.756 282.158 234.998C282.161 235.106 282.143 235.215 282.104 235.316C282.065 235.418 282.006 235.51 281.93 235.588C281.86 235.663 281.775 235.724 281.68 235.765C281.586 235.807 281.485 235.829 281.382 235.83C281.216 235.826 281.055 235.774 280.917 235.681C280.78 235.589 280.672 235.459 280.606 235.306L279.495 233.334L278.384 235.306C278.304 235.462 278.18 235.59 278.028 235.676C277.876 235.762 277.702 235.801 277.528 235.789Z" fill="black"/>
<path d="M289.811 235.789C289.706 235.789 289.602 235.768 289.506 235.727C289.409 235.685 289.322 235.624 289.249 235.548C289.17 235.469 289.108 235.375 289.067 235.271C289.025 235.167 289.005 235.056 289.008 234.944C289.008 234.755 289.059 234.57 289.156 234.407L290.36 232.528H287.898C287.784 232.534 287.67 232.516 287.564 232.474C287.458 232.432 287.362 232.369 287.282 232.287C287.145 232.126 287.069 231.921 287.069 231.71C287.069 231.498 287.145 231.293 287.282 231.133C287.362 231.051 287.458 230.987 287.564 230.945C287.67 230.904 287.784 230.885 287.898 230.891L290.32 230.958L289.182 229.147C289.075 228.968 289.015 228.765 289.008 228.556C289.005 228.444 289.025 228.333 289.067 228.229C289.108 228.125 289.17 228.031 289.249 227.952C289.324 227.875 289.414 227.815 289.513 227.773C289.611 227.732 289.718 227.71 289.825 227.711C289.974 227.708 290.122 227.75 290.248 227.832C290.374 227.913 290.473 228.029 290.534 228.167L291.711 230.274L292.835 228.261C292.906 228.104 293.018 227.97 293.16 227.873C293.301 227.776 293.467 227.72 293.638 227.711C293.743 227.711 293.847 227.732 293.944 227.774C294.04 227.815 294.127 227.876 294.2 227.952C294.278 228.026 294.34 228.115 294.382 228.215C294.423 228.314 294.443 228.421 294.441 228.529C294.439 228.72 294.383 228.906 294.28 229.066L293.103 230.958L295.551 230.891C295.665 230.884 295.779 230.903 295.885 230.944C295.992 230.986 296.088 231.05 296.167 231.133C296.304 231.293 296.38 231.498 296.38 231.71C296.38 231.921 296.304 232.126 296.167 232.287C296.088 232.369 295.992 232.434 295.885 232.475C295.779 232.517 295.665 232.535 295.551 232.528H293.076L294.173 234.246C294.297 234.453 294.366 234.689 294.374 234.931C294.378 235.039 294.36 235.148 294.32 235.249C294.281 235.351 294.222 235.443 294.146 235.521C294.076 235.596 293.991 235.657 293.897 235.698C293.802 235.74 293.701 235.762 293.598 235.763C293.432 235.76 293.27 235.709 293.132 235.617C292.995 235.524 292.887 235.393 292.822 235.239L291.711 233.266L290.601 235.239C290.535 235.397 290.426 235.532 290.286 235.629C290.146 235.727 289.981 235.782 289.811 235.789Z" fill="black"/>
<path d="M302.094 235.789C301.988 235.789 301.884 235.768 301.788 235.727C301.691 235.685 301.604 235.624 301.532 235.548C301.452 235.469 301.39 235.375 301.349 235.271C301.307 235.167 301.288 235.056 301.291 234.944C301.291 234.755 301.341 234.57 301.438 234.407L302.642 232.528H300.18C300.066 232.534 299.953 232.516 299.847 232.474C299.74 232.432 299.644 232.369 299.565 232.287C299.427 232.126 299.352 231.921 299.352 231.71C299.352 231.498 299.427 231.293 299.565 231.133C299.644 231.051 299.74 230.987 299.847 230.945C299.953 230.904 300.066 230.885 300.18 230.891L302.602 230.958L301.465 229.147C301.357 228.968 301.297 228.765 301.291 228.556C301.288 228.444 301.307 228.333 301.349 228.229C301.39 228.125 301.452 228.031 301.532 227.952C301.607 227.875 301.696 227.815 301.795 227.773C301.894 227.732 302 227.71 302.107 227.711C302.257 227.708 302.404 227.75 302.53 227.832C302.656 227.913 302.756 228.029 302.816 228.167L303.993 230.274L305.117 228.261C305.188 228.104 305.3 227.97 305.442 227.873C305.584 227.776 305.749 227.72 305.92 227.711C306.025 227.711 306.129 227.732 306.226 227.774C306.323 227.815 306.41 227.876 306.482 227.952C306.561 228.026 306.623 228.115 306.664 228.215C306.706 228.314 306.726 228.421 306.723 228.529C306.721 228.72 306.666 228.906 306.562 229.066L305.385 230.958L307.834 230.891C307.947 230.884 308.061 230.903 308.168 230.944C308.274 230.986 308.37 231.05 308.449 231.133C308.587 231.293 308.662 231.498 308.662 231.71C308.662 231.921 308.587 232.126 308.449 232.287C308.37 232.369 308.274 232.434 308.168 232.475C308.061 232.517 307.947 232.535 307.834 232.528H305.358L306.455 234.246C306.579 234.453 306.648 234.689 306.656 234.931C306.66 235.039 306.642 235.148 306.603 235.249C306.564 235.351 306.504 235.443 306.429 235.521C306.358 235.596 306.273 235.657 306.179 235.698C306.085 235.74 305.983 235.762 305.88 235.763C305.714 235.76 305.552 235.709 305.415 235.617C305.277 235.524 305.169 235.393 305.104 235.239L303.993 233.266L302.883 235.239C302.817 235.397 302.708 235.532 302.568 235.629C302.428 235.727 302.264 235.782 302.094 235.789Z" fill="black"/>
<path d="M314.43 235.789C314.325 235.789 314.221 235.768 314.125 235.727C314.028 235.685 313.941 235.624 313.868 235.548C313.789 235.469 313.727 235.375 313.686 235.271C313.644 235.167 313.625 235.056 313.628 234.944C313.627 234.755 313.678 234.57 313.775 234.407L314.979 232.528H312.517C312.403 232.534 312.29 232.516 312.183 232.474C312.077 232.432 311.981 232.369 311.902 232.287C311.764 232.126 311.688 231.921 311.688 231.71C311.688 231.498 311.764 231.293 311.902 231.133C311.981 231.051 312.077 230.987 312.183 230.945C312.29 230.904 312.403 230.885 312.517 230.891L314.939 230.958L313.802 229.147C313.694 228.968 313.634 228.765 313.628 228.556C313.625 228.444 313.644 228.333 313.686 228.229C313.727 228.125 313.789 228.031 313.868 227.952C313.943 227.875 314.033 227.815 314.132 227.773C314.231 227.732 314.337 227.71 314.444 227.711C314.594 227.708 314.741 227.75 314.867 227.832C314.993 227.913 315.093 228.029 315.153 228.167L316.33 230.274L317.454 228.261C317.525 228.104 317.637 227.97 317.779 227.873C317.921 227.776 318.086 227.72 318.257 227.711C318.362 227.711 318.466 227.732 318.563 227.774C318.659 227.815 318.747 227.876 318.819 227.952C318.898 228.026 318.96 228.115 319.001 228.215C319.043 228.314 319.063 228.421 319.06 228.529C319.058 228.72 319.002 228.906 318.899 229.066L317.722 230.958L320.17 230.891C320.284 230.884 320.398 230.903 320.505 230.944C320.611 230.986 320.707 231.05 320.786 231.133C320.923 231.293 320.999 231.498 320.999 231.71C320.999 231.921 320.923 232.126 320.786 232.287C320.707 232.369 320.611 232.434 320.505 232.475C320.398 232.517 320.284 232.535 320.17 232.528H317.695L318.792 234.246C318.916 234.453 318.985 234.689 318.993 234.931C318.997 235.039 318.979 235.148 318.94 235.249C318.9 235.351 318.841 235.443 318.766 235.521C318.695 235.596 318.61 235.657 318.516 235.698C318.422 235.74 318.32 235.762 318.217 235.763C318.051 235.759 317.89 235.707 317.753 235.614C317.615 235.522 317.507 235.392 317.441 235.239L316.33 233.266L315.22 235.239C315.154 235.397 315.045 235.532 314.905 235.629C314.765 235.727 314.601 235.782 314.43 235.789Z" fill="black"/>
<path d="M326.66 235.789C326.555 235.789 326.451 235.768 326.354 235.727C326.258 235.685 326.17 235.624 326.098 235.548C326.019 235.469 325.957 235.375 325.915 235.271C325.874 235.167 325.854 235.056 325.857 234.944C325.863 234.756 325.914 234.572 326.004 234.407L327.209 232.528H324.747C324.633 232.534 324.519 232.516 324.413 232.474C324.307 232.432 324.211 232.369 324.131 232.287C323.994 232.126 323.918 231.921 323.918 231.71C323.918 231.498 323.994 231.293 324.131 231.133C324.211 231.051 324.307 230.987 324.413 230.945C324.519 230.904 324.633 230.885 324.747 230.891L327.168 230.958L326.031 229.147C325.924 228.968 325.864 228.765 325.857 228.556C325.854 228.444 325.874 228.333 325.915 228.229C325.957 228.125 326.019 228.031 326.098 227.952C326.173 227.875 326.262 227.815 326.361 227.773C326.46 227.732 326.566 227.71 326.673 227.711C326.823 227.708 326.97 227.75 327.096 227.832C327.223 227.913 327.322 228.029 327.382 228.167L328.56 230.274L329.684 228.261C329.755 228.104 329.867 227.97 330.008 227.873C330.15 227.776 330.315 227.72 330.487 227.711C330.592 227.709 330.696 227.73 330.793 227.771C330.89 227.813 330.977 227.875 331.049 227.952C331.127 228.026 331.189 228.115 331.231 228.215C331.272 228.314 331.292 228.421 331.289 228.529C331.288 228.72 331.232 228.906 331.129 229.066L329.951 230.958L332.4 230.891C332.514 230.884 332.628 230.903 332.734 230.944C332.84 230.986 332.936 231.05 333.015 231.133C333.153 231.293 333.229 231.498 333.229 231.71C333.229 231.921 333.153 232.126 333.015 232.287C332.936 232.369 332.84 232.434 332.734 232.475C332.628 232.517 332.514 232.535 332.4 232.528H329.925L331.022 234.246C331.146 234.453 331.215 234.689 331.223 234.931C331.226 235.039 331.208 235.148 331.169 235.249C331.13 235.351 331.071 235.443 330.995 235.521C330.925 235.596 330.84 235.657 330.745 235.698C330.651 235.74 330.549 235.762 330.446 235.763C330.281 235.759 330.12 235.707 329.982 235.614C329.845 235.522 329.737 235.392 329.67 235.239L328.56 233.266L327.449 235.239C327.383 235.397 327.274 235.532 327.134 235.629C326.995 235.727 326.83 235.782 326.66 235.789Z" fill="black"/>
<path d="M338.942 235.789C338.837 235.789 338.733 235.768 338.636 235.727C338.54 235.685 338.453 235.624 338.38 235.548C338.301 235.469 338.239 235.375 338.197 235.271C338.156 235.167 338.136 235.056 338.139 234.944C338.146 234.756 338.196 234.572 338.287 234.407L339.491 232.528H337.042C336.926 232.535 336.81 232.517 336.702 232.476C336.593 232.434 336.495 232.37 336.413 232.287C336.276 232.126 336.2 231.921 336.2 231.71C336.2 231.498 336.276 231.293 336.413 231.133C336.495 231.05 336.593 230.985 336.702 230.944C336.81 230.902 336.926 230.884 337.042 230.891L339.451 230.958L338.313 229.147C338.206 228.968 338.146 228.765 338.139 228.556C338.136 228.444 338.156 228.333 338.197 228.229C338.239 228.125 338.301 228.031 338.38 227.952C338.455 227.875 338.545 227.815 338.644 227.773C338.742 227.732 338.848 227.71 338.956 227.711C339.105 227.708 339.253 227.75 339.379 227.832C339.505 227.913 339.604 228.029 339.665 228.167L340.842 230.274L341.966 228.261C342.037 228.104 342.149 227.97 342.291 227.873C342.432 227.776 342.598 227.72 342.769 227.711C342.874 227.709 342.979 227.73 343.075 227.771C343.172 227.813 343.259 227.875 343.331 227.952C343.409 228.026 343.471 228.115 343.513 228.215C343.554 228.314 343.574 228.421 343.572 228.529C343.57 228.72 343.514 228.906 343.411 229.066L342.234 230.958L344.682 230.891C344.796 230.884 344.91 230.903 345.016 230.944C345.123 230.986 345.219 231.05 345.298 231.133C345.435 231.293 345.511 231.498 345.511 231.71C345.511 231.921 345.435 232.126 345.298 232.287C345.219 232.369 345.123 232.434 345.016 232.475C344.91 232.517 344.796 232.535 344.682 232.528H342.207L343.304 234.246C343.428 234.453 343.497 234.689 343.505 234.931C343.509 235.039 343.49 235.148 343.451 235.249C343.412 235.351 343.353 235.443 343.277 235.521C343.207 235.596 343.122 235.657 343.028 235.698C342.933 235.74 342.832 235.762 342.729 235.763C342.563 235.759 342.402 235.707 342.265 235.614C342.127 235.522 342.019 235.392 341.953 235.239L340.842 233.266L339.732 235.239C339.666 235.397 339.556 235.532 339.417 235.629C339.277 235.727 339.112 235.782 338.942 235.789Z" fill="black"/>
<path d="M351.225 235.789C351.12 235.789 351.016 235.768 350.92 235.726C350.823 235.685 350.736 235.624 350.663 235.548C350.584 235.469 350.522 235.375 350.481 235.271C350.439 235.167 350.419 235.056 350.423 234.944C350.422 234.755 350.473 234.569 350.57 234.407L351.774 232.528H349.312C349.198 232.534 349.084 232.516 348.978 232.474C348.872 232.432 348.776 232.369 348.697 232.287C348.559 232.126 348.483 231.921 348.483 231.71C348.483 231.498 348.559 231.293 348.697 231.133C348.776 231.051 348.872 230.987 348.978 230.945C349.084 230.904 349.198 230.885 349.312 230.891L351.734 230.958L350.556 229.214C350.449 229.035 350.389 228.832 350.382 228.623C350.379 228.511 350.399 228.4 350.44 228.296C350.482 228.192 350.544 228.098 350.623 228.019C350.698 227.943 350.788 227.882 350.887 227.84C350.985 227.799 351.091 227.777 351.199 227.778C351.348 227.775 351.496 227.818 351.622 227.899C351.748 227.98 351.847 228.096 351.908 228.234L353.085 230.341L354.209 228.328C354.28 228.171 354.392 228.037 354.534 227.94C354.675 227.843 354.841 227.787 355.012 227.778C355.117 227.776 355.222 227.797 355.319 227.838C355.415 227.88 355.502 227.942 355.574 228.019C355.652 228.093 355.714 228.183 355.756 228.282C355.797 228.381 355.817 228.489 355.815 228.596C355.813 228.787 355.757 228.973 355.654 229.133L354.477 231.025L356.925 230.958C357.039 230.951 357.153 230.97 357.259 231.011C357.366 231.053 357.462 231.117 357.541 231.2C357.678 231.36 357.754 231.565 357.754 231.777C357.754 231.989 357.678 232.193 357.541 232.354C357.462 232.436 357.366 232.501 357.259 232.542C357.153 232.584 357.039 232.602 356.925 232.595H354.45L355.547 234.313C355.671 234.521 355.74 234.756 355.748 234.998C355.752 235.106 355.733 235.215 355.694 235.316C355.655 235.418 355.596 235.51 355.52 235.588C355.45 235.663 355.365 235.724 355.271 235.765C355.176 235.807 355.075 235.829 354.972 235.83C354.806 235.826 354.645 235.774 354.508 235.682C354.37 235.589 354.262 235.459 354.196 235.306L353.085 233.334L351.975 235.306C351.903 235.445 351.795 235.563 351.664 235.648C351.533 235.733 351.381 235.781 351.225 235.789Z" fill="black"/>
<path d="M363.508 235.789C363.403 235.789 363.299 235.768 363.202 235.726C363.106 235.685 363.018 235.624 362.946 235.548C362.867 235.469 362.805 235.375 362.763 235.271C362.722 235.167 362.702 235.056 362.705 234.944C362.711 234.756 362.762 234.572 362.852 234.407L364.057 232.528H361.608C361.494 232.537 361.379 232.52 361.273 232.478C361.166 232.436 361.07 232.371 360.992 232.287C360.847 232.13 360.766 231.924 360.766 231.71C360.766 231.496 360.847 231.289 360.992 231.133C361.07 231.049 361.166 230.983 361.273 230.942C361.379 230.9 361.494 230.883 361.608 230.891L364.016 230.958L362.879 229.147C362.772 228.968 362.712 228.765 362.705 228.556C362.702 228.446 362.72 228.337 362.759 228.235C362.799 228.132 362.858 228.039 362.935 227.96C363.011 227.881 363.102 227.818 363.203 227.775C363.303 227.733 363.412 227.711 363.521 227.711C363.671 227.708 363.818 227.75 363.944 227.832C364.071 227.913 364.17 228.029 364.23 228.167L365.408 230.274L366.532 228.261C366.603 228.104 366.715 227.97 366.856 227.873C366.998 227.776 367.163 227.72 367.335 227.711C367.44 227.707 367.545 227.727 367.642 227.769C367.739 227.811 367.826 227.873 367.897 227.952C367.975 228.026 368.037 228.115 368.079 228.215C368.12 228.314 368.14 228.421 368.137 228.529C368.136 228.72 368.08 228.906 367.977 229.066L366.799 230.958L369.248 230.891C369.362 230.884 369.476 230.902 369.582 230.944C369.688 230.986 369.784 231.05 369.863 231.133C370.001 231.293 370.077 231.498 370.077 231.71C370.077 231.921 370.001 232.126 369.863 232.287C369.784 232.369 369.688 232.434 369.582 232.475C369.476 232.517 369.362 232.535 369.248 232.528H366.773L367.87 234.246C367.994 234.453 368.063 234.689 368.071 234.931C368.074 235.036 368.057 235.142 368.02 235.241C367.983 235.34 367.927 235.431 367.854 235.508C367.782 235.585 367.696 235.647 367.6 235.691C367.504 235.735 367.4 235.759 367.295 235.763C367.129 235.759 366.968 235.707 366.83 235.614C366.693 235.522 366.585 235.392 366.518 235.239L365.408 233.266L364.297 235.239C364.231 235.397 364.122 235.532 363.982 235.629C363.843 235.727 363.678 235.782 363.508 235.789Z" fill="black"/>
<path d="M375.791 235.789C375.686 235.789 375.582 235.768 375.485 235.726C375.389 235.685 375.302 235.624 375.229 235.548C375.15 235.469 375.088 235.375 375.046 235.271C375.005 235.167 374.985 235.056 374.988 234.944C374.995 234.756 375.045 234.572 375.136 234.407L376.34 232.528H373.878C373.766 232.535 373.654 232.517 373.55 232.475C373.446 232.433 373.352 232.369 373.276 232.287C373.13 232.13 373.049 231.924 373.049 231.71C373.049 231.496 373.13 231.289 373.276 231.133C373.352 231.051 373.446 230.986 373.55 230.945C373.654 230.903 373.766 230.885 373.878 230.891L376.3 230.958L375.162 229.147C375.055 228.968 374.995 228.765 374.988 228.556C374.985 228.446 375.003 228.337 375.043 228.235C375.082 228.132 375.142 228.039 375.218 227.96C375.294 227.881 375.385 227.818 375.486 227.775C375.587 227.733 375.695 227.711 375.805 227.711C375.954 227.708 376.102 227.75 376.228 227.832C376.354 227.913 376.453 228.029 376.514 228.167L377.691 230.274L378.815 228.261C378.886 228.104 378.998 227.97 379.14 227.873C379.281 227.776 379.447 227.72 379.618 227.711C379.723 227.707 379.828 227.727 379.926 227.769C380.023 227.811 380.109 227.873 380.18 227.952C380.258 228.026 380.32 228.115 380.362 228.215C380.403 228.314 380.423 228.421 380.421 228.529C380.419 228.72 380.363 228.906 380.26 229.066L379.083 230.958L381.531 230.891C381.645 230.884 381.759 230.902 381.865 230.944C381.972 230.986 382.068 231.05 382.147 231.133C382.284 231.293 382.36 231.498 382.36 231.71C382.36 231.921 382.284 232.126 382.147 232.287C382.068 232.369 381.972 232.434 381.865 232.475C381.759 232.517 381.645 232.535 381.531 232.528H379.056L380.153 234.246C380.277 234.453 380.346 234.689 380.354 234.931C380.357 235.036 380.34 235.142 380.303 235.241C380.266 235.34 380.21 235.431 380.138 235.508C380.066 235.585 379.979 235.647 379.883 235.691C379.787 235.735 379.683 235.759 379.578 235.763C379.412 235.759 379.251 235.707 379.114 235.614C378.976 235.522 378.868 235.392 378.802 235.239L377.691 233.266L376.581 235.239C376.515 235.397 376.405 235.532 376.266 235.629C376.126 235.727 375.961 235.782 375.791 235.789Z" fill="black"/>
<path d="M388.021 235.789C387.916 235.789 387.812 235.768 387.715 235.726C387.618 235.685 387.531 235.624 387.459 235.548C387.38 235.469 387.317 235.375 387.276 235.271C387.234 235.167 387.215 235.056 387.218 234.944C387.224 234.756 387.274 234.572 387.365 234.407L388.569 232.528H386.107C385.995 232.535 385.883 232.517 385.779 232.475C385.675 232.433 385.582 232.369 385.505 232.287C385.359 232.13 385.278 231.924 385.278 231.71C385.278 231.496 385.359 231.289 385.505 231.133C385.582 231.051 385.675 230.986 385.779 230.945C385.883 230.903 385.995 230.885 386.107 230.891L388.529 230.958L387.392 229.147C387.284 228.968 387.225 228.765 387.218 228.556C387.215 228.444 387.234 228.333 387.276 228.229C387.317 228.125 387.38 228.031 387.459 227.952C387.534 227.875 387.623 227.815 387.722 227.773C387.821 227.732 387.927 227.71 388.034 227.711C388.184 227.708 388.331 227.75 388.457 227.832C388.583 227.913 388.683 228.029 388.743 228.167L389.921 230.274L391.045 228.261C391.115 228.104 391.228 227.97 391.369 227.873C391.511 227.776 391.676 227.72 391.847 227.711C391.953 227.707 392.058 227.727 392.155 227.769C392.252 227.811 392.339 227.873 392.409 227.952C392.488 228.026 392.55 228.115 392.591 228.215C392.633 228.314 392.653 228.421 392.65 228.529C392.648 228.72 392.593 228.906 392.49 229.066L391.312 230.958L393.761 230.891C393.875 230.884 393.989 230.902 394.095 230.944C394.201 230.986 394.297 231.05 394.376 231.133C394.514 231.293 394.589 231.498 394.589 231.71C394.589 231.921 394.514 232.126 394.376 232.287C394.297 232.369 394.201 232.434 394.095 232.475C393.989 232.517 393.875 232.535 393.761 232.528H391.285L392.383 234.246C392.506 234.453 392.575 234.689 392.583 234.931C392.587 235.039 392.569 235.148 392.53 235.249C392.491 235.351 392.431 235.443 392.356 235.521C392.285 235.596 392.2 235.657 392.106 235.698C392.012 235.74 391.91 235.762 391.807 235.763C391.642 235.759 391.481 235.707 391.343 235.614C391.206 235.522 391.097 235.392 391.031 235.239L389.921 233.266L388.81 235.239C388.744 235.397 388.635 235.532 388.495 235.629C388.355 235.727 388.191 235.782 388.021 235.789Z" fill="black"/>
<path d="M430.113 265.474H446.477" stroke="white" stroke-width="3" stroke-linecap="round" stroke-linejoin="round"/>
<path d="M203.148 144.627V253.638C203.148 256.795 204.399 259.823 206.625 262.055C208.85 264.287 211.869 265.542 215.016 265.542H414.579" stroke="white" stroke-width="3" stroke-linecap="round" stroke-linejoin="round"/>
<path d="M203.148 115.721V132.066" stroke="white" stroke-width="3" stroke-linecap="round" stroke-linejoin="round"/>
</svg>
