<svg width="229" height="37" viewBox="0 0 229 37" fill="none" xmlns="http://www.w3.org/2000/svg">
<path d="M44.2217 14.2471C44.2217 14.2959 42.708 17.5755 39.6807 24.0859C36.6045 30.7266 34.8467 34.4619 34.4072 35.292C34.2607 35.585 34.1712 35.7477 34.1387 35.7803C34.0736 35.8617 33.9189 35.9349 33.6748 36C33.2679 36.0977 32.1123 36.1465 30.208 36.1465C28.4339 36.1465 27.3516 36.0977 26.9609 36C26.6354 35.9186 26.4401 35.8535 26.375 35.8047C26.3099 35.7559 26.2041 35.6012 26.0576 35.3408C25.96 35.1618 25.4961 34.0143 24.666 31.8984L22.0049 25.1113L19.2949 31.9717C19.0182 32.7529 18.5625 33.876 17.9277 35.3408C17.765 35.6175 17.651 35.7884 17.5859 35.8535C17.5208 35.9023 17.3337 35.9512 17.0244 36C16.471 36.0977 15.4049 36.1465 13.8262 36.1465C11.873 36.1465 10.7012 36.0977 10.3105 36C10.0339 35.9349 9.80599 35.6989 9.62695 35.292C3.24674 22.1898 0.0566406 15.1748 0.0566406 14.2471C0.0566406 12.945 0.0973307 11 0.178711 8.41211C0.276367 5.80794 0.325195 3.85482 0.325195 2.55273C0.325195 2.01562 0.487956 1.74707 0.813477 1.74707C1.74121 1.74707 3.14095 1.78776 5.0127 1.86914C6.90072 1.95052 8.31673 1.99121 9.26074 1.99121C9.63509 1.99121 9.82227 2.14583 9.82227 2.45508C9.82227 3.75716 9.75716 5.72656 9.62695 8.36328C9.51302 10.9837 9.45605 12.945 9.45605 14.2471C9.45605 14.7354 10.0501 16.2897 11.2383 18.9102C12.3125 21.2539 13.0938 22.8408 13.582 23.6709C13.8262 24.0941 13.9889 24.3057 14.0703 24.3057C14.2005 24.3057 14.5342 23.5244 15.0713 21.9619C16.6012 17.5837 17.3825 14.9958 17.415 14.1982C17.4801 12.7008 17.4883 10.7965 17.4395 8.48535C17.3906 5.14876 17.3662 3.23633 17.3662 2.74805C17.3662 2.4388 17.3906 2.25977 17.4395 2.21094C17.4883 2.14583 17.6673 2.08887 17.9766 2.04004C18.8066 1.94238 20.2389 1.89355 22.2734 1.89355C25.3822 1.89355 26.9365 2.11328 26.9365 2.55273C26.9365 3.64323 26.8958 5.33594 26.8145 7.63086C26.7331 9.86068 26.7005 11.5534 26.7168 12.709V13.9541C26.7168 14.7842 27.555 17.429 29.2314 21.8887C29.8011 23.4349 30.1429 24.208 30.2568 24.208C30.3382 24.208 30.501 23.9964 30.7451 23.5732C31.2008 22.7757 31.9333 21.1969 32.9424 18.8369C34.0654 16.2653 34.627 14.7354 34.627 14.2471C34.627 12.9287 34.5618 10.9593 34.4316 8.33887C34.3177 5.70215 34.2607 3.73275 34.2607 2.43066C34.2607 2.1377 34.4479 1.99121 34.8223 1.99121C35.7826 1.99121 37.223 1.95052 39.1436 1.86914C41.0804 1.78776 42.529 1.74707 43.4893 1.74707C43.7985 1.74707 43.9531 2.07259 43.9531 2.72363C43.9531 4.00944 43.9938 5.93815 44.0752 8.50977C44.1729 11.0651 44.2217 12.9775 44.2217 14.2471ZM69.0273 22.7432C69.0273 24.387 68.4984 25.3229 67.4404 25.5508C67.2614 25.5833 65.5768 25.7624 62.3867 26.0879C60.4661 26.2995 57.6016 26.5518 53.793 26.8447C54.0208 27.9027 54.7126 28.7083 55.8682 29.2617C56.8122 29.7174 57.8864 29.9453 59.0908 29.9453C60.5394 29.9453 61.9961 29.5547 63.4609 28.7734C64.0794 28.3828 64.6979 27.9922 65.3164 27.6016C65.6582 27.7643 66.2279 28.5944 67.0254 30.0918C67.8392 31.5892 68.2461 32.5413 68.2461 32.9482C68.2461 33.0622 68.124 33.2493 67.8799 33.5098C65.8942 35.6419 62.8099 36.708 58.627 36.708C54.7533 36.708 51.6283 35.5768 49.252 33.3145C46.8105 31.0195 45.5898 27.9515 45.5898 24.1104C45.5898 20.3669 46.6803 17.2988 48.8613 14.9062C51.1074 12.4323 54.0859 11.1953 57.7969 11.1953C60.9219 11.1953 63.5749 12.3346 65.7559 14.6133C67.9368 16.8919 69.0273 19.6019 69.0273 22.7432ZM60.4824 21.2539C60.4824 20.2448 60.1243 19.3577 59.4082 18.5928C58.6921 17.8278 57.8376 17.4453 56.8447 17.4453C55.8193 17.4453 54.973 17.8766 54.3057 18.7393C53.6872 19.5368 53.3779 20.4727 53.3779 21.5469C53.3779 21.9863 53.6058 22.2061 54.0615 22.2061C55.266 22.2061 57.1377 22.0189 59.6768 21.6445C60.2139 21.5632 60.4824 21.4329 60.4824 21.2539ZM97.1777 24.0615C97.1777 27.4795 96.2012 30.3359 94.248 32.6309C92.1647 35.0723 89.4466 36.293 86.0938 36.293C83.6523 36.293 81.6829 35.5931 80.1855 34.1934C80.0716 34.0957 79.974 34.0469 79.8926 34.0469C79.7298 34.0469 79.5752 34.348 79.4287 34.9502C79.2985 35.5524 79.1357 35.8861 78.9404 35.9512C78.6637 36.0326 76.3444 36.0732 71.9824 36.0732C70.957 36.0732 70.4443 35.8861 70.4443 35.5117C70.4443 35.4629 70.4606 35.3408 70.4932 35.1455C70.8187 32.5576 70.9814 27.626 70.9814 20.3506C70.9814 13.4007 70.7373 7.35417 70.249 2.21094L70.2246 1.94238C70.2246 1.68197 70.4769 1.53548 70.9814 1.50293C71.3395 1.48665 72.7555 1.36458 75.2295 1.13672C76.971 0.973958 78.387 0.892578 79.4775 0.892578C79.7868 0.892578 79.9414 1.16113 79.9414 1.69824C79.9414 2.33301 79.9007 3.17122 79.8193 4.21289C79.7217 5.4987 79.6647 6.34505 79.6484 6.75195C79.5671 8.36328 79.5264 10.5605 79.5264 13.3438C79.5264 13.8483 79.6566 14.1006 79.917 14.1006C80.0472 14.1006 80.1693 14.0355 80.2832 13.9053C81.748 12.3428 83.6686 11.5615 86.0449 11.5615C89.6094 11.5615 92.3926 12.7741 94.3945 15.1992C96.25 17.4453 97.1777 20.3994 97.1777 24.0615ZM88.3398 23.793C88.3398 22.4421 87.9248 21.3027 87.0947 20.375C86.2646 19.431 85.1823 18.959 83.8477 18.959C82.4805 18.959 81.3981 19.431 80.6006 20.375C79.8193 21.3027 79.4287 22.4583 79.4287 23.8418C79.4287 25.2741 79.8112 26.4297 80.5762 27.3086C81.39 28.2363 82.4967 28.7002 83.8965 28.7002C85.2799 28.7002 86.3786 28.2201 87.1924 27.2598C87.9574 26.3646 88.3398 25.209 88.3398 23.793Z" fill="black"/>
<path d="M131.993 2.50391C131.993 4.35938 131.912 7.15072 131.749 10.8779C131.603 14.5889 131.529 17.3802 131.529 19.252V35.3408C131.529 35.7803 131.293 36 130.821 36C130.431 36 129.837 36.0163 129.039 36.0488C128.258 36.0814 127.672 36.0977 127.281 36.0977C126.858 36.0977 126.223 36.0651 125.377 36C124.531 35.9349 123.896 35.9023 123.473 35.9023C123.18 35.9023 122.83 35.6338 122.423 35.0967C121.251 33.5179 118.614 30.0186 114.513 24.5986C113.39 23.085 111.681 20.8551 109.386 17.9092C109.321 17.8115 109.199 17.7139 109.02 17.6162C108.889 17.7301 108.824 17.9092 108.824 18.1533C108.824 20.0413 108.873 22.8734 108.971 26.6494C109.085 30.4255 109.142 33.2575 109.142 35.1455C109.142 35.7152 108.922 36 108.482 36H100.035C99.5632 36 99.3271 35.7477 99.3271 35.2432C99.3271 33.4854 99.4085 30.8324 99.5713 27.2842C99.7503 23.736 99.8398 21.0749 99.8398 19.3008C99.8398 17.429 99.7585 14.6296 99.5957 10.9023C99.4492 7.17513 99.376 4.38379 99.376 2.52832C99.376 2.17025 99.6934 1.99121 100.328 1.99121C101.272 1.99121 102.436 1.92611 103.819 1.7959C104.145 1.76335 104.788 1.65755 105.748 1.47852C106.562 1.33203 107.205 1.25879 107.677 1.25879C107.872 1.25879 108.173 1.53548 108.58 2.08887L117.687 14.5645C118.5 15.6875 119.729 17.3314 121.373 19.4961C121.78 20.0007 122.13 20.2529 122.423 20.2529C122.634 20.2529 122.74 19.6182 122.74 18.3486C122.74 16.6396 122.643 14.068 122.447 10.6338C122.268 7.19954 122.179 4.61979 122.179 2.89453C122.179 2.29232 122.35 1.99121 122.691 1.99121C123.668 1.99121 125.141 1.95052 127.11 1.86914C129.08 1.78776 130.553 1.74707 131.529 1.74707C131.839 1.74707 131.993 1.99935 131.993 2.50391ZM159.899 23.793C159.899 25.0462 159.973 26.9098 160.119 29.3838C160.266 31.8577 160.339 33.7132 160.339 34.9502C160.339 35.6012 160.054 35.9512 159.484 36C157.466 36.1465 155.155 36.2197 152.551 36.2197C152.242 36.2197 152.03 35.7559 151.916 34.8281C151.818 33.8841 151.696 33.404 151.55 33.3877C151.42 33.4528 151.249 33.5911 151.037 33.8027C149.214 35.6419 147.261 36.5615 145.178 36.5615C142.004 36.5615 139.375 35.3083 137.292 32.8018C135.323 30.458 134.338 27.6585 134.338 24.4033C134.338 20.6436 135.355 17.6162 137.39 15.3213C139.506 12.945 142.403 11.7568 146.081 11.7568C148.636 11.7568 150.655 12.652 152.136 14.4424C152.201 14.5238 152.258 14.5645 152.307 14.5645C152.453 14.5645 152.616 14.1738 152.795 13.3926C152.99 12.5951 153.218 12.1963 153.479 12.1963C154.081 12.1963 155.228 12.3672 156.921 12.709C158.532 13.0345 159.688 13.3112 160.388 13.5391C160.632 13.6367 160.754 13.7669 160.754 13.9297C160.754 13.9948 160.729 14.1657 160.681 14.4424C160.16 17.3883 159.899 20.5052 159.899 23.793ZM152.038 23.9395C152.038 22.556 151.599 21.4167 150.72 20.5215C149.857 19.61 148.726 19.1543 147.326 19.1543C145.926 19.1543 144.795 19.6019 143.933 20.4971C143.07 21.3923 142.639 22.5397 142.639 23.9395C142.639 25.2578 143.094 26.389 144.006 27.333C144.917 28.277 146.024 28.749 147.326 28.749C148.71 28.749 149.841 28.3014 150.72 27.4062C151.599 26.4948 152.038 25.3392 152.038 23.9395ZM202.771 35.0967C202.771 35.6663 202.527 35.9837 202.039 36.0488C201.551 36.1139 200.346 36.1465 198.426 36.1465C196.44 36.1465 195.203 36.0977 194.715 36C194.227 35.9023 193.982 35.5036 193.982 34.8037C193.982 34.055 194.007 32.9401 194.056 31.459C194.104 29.9616 194.129 28.8385 194.129 28.0898C194.129 25.2415 194.096 23.2152 194.031 22.0107C193.934 20.0739 193.014 19.1055 191.272 19.1055C190.507 19.1055 189.743 19.431 188.978 20.082C188.229 20.7168 187.814 21.4248 187.732 22.2061C187.667 22.8896 187.635 24.8916 187.635 28.2119C187.635 28.9769 187.659 30.1406 187.708 31.7031C187.757 33.2493 187.781 34.4131 187.781 35.1943C187.781 35.7314 187.545 36 187.073 36H179.676C179.22 36 178.992 35.6663 178.992 34.999C178.992 34.234 179.017 33.0866 179.065 31.5566C179.114 30.0267 179.139 28.8711 179.139 28.0898C179.139 27.4876 179.122 26.5762 179.09 25.3555C179.057 24.1348 179.041 23.2152 179.041 22.5967C179.041 20.2692 178.154 19.1055 176.38 19.1055C175.664 19.1055 174.891 19.3822 174.061 19.9355C173.149 20.5378 172.693 21.1725 172.693 21.8398C172.693 23.321 172.701 25.5345 172.718 28.4805C172.734 31.4264 172.742 33.6318 172.742 35.0967C172.742 35.5036 172.693 35.7559 172.596 35.8535C172.498 35.9512 172.246 36.0163 171.839 36.0488C171.106 36.1139 169.951 36.1465 168.372 36.1465C167.347 36.1465 166.183 36.0977 164.881 36C164.49 35.9674 164.254 35.9105 164.173 35.8291C164.108 35.7477 164.075 35.5036 164.075 35.0967C164.075 33.7946 164.083 31.8496 164.1 29.2617C164.116 26.6576 164.124 24.7044 164.124 23.4023C164.124 20.7331 163.929 17.7301 163.538 14.3936C163.506 14.1982 163.489 14.0518 163.489 13.9541C163.489 13.6774 163.603 13.4902 163.831 13.3926C164.189 13.2461 164.865 13.124 165.857 13.0264C167.078 12.9124 167.802 12.8392 168.03 12.8066C168.193 12.7741 168.836 12.6032 169.959 12.2939C170.757 12.0661 171.399 11.9521 171.888 11.9521C172.197 11.9521 172.36 12.5218 172.376 13.6611C172.392 14.7842 172.457 15.3457 172.571 15.3457C172.734 15.2806 172.921 15.1667 173.133 15.0039C174.598 13.8646 175.753 13.0833 176.6 12.6602C177.853 12.0579 179.212 11.7568 180.677 11.7568C182.174 11.7568 183.509 12.0905 184.681 12.7578C185.999 13.5065 186.854 14.5563 187.244 15.9072C188.107 14.7354 189.295 13.7507 190.809 12.9531C192.322 12.1556 193.795 11.7568 195.228 11.7568C197.376 11.7568 199.126 12.2533 200.477 13.2461C202.007 14.3691 202.771 15.9723 202.771 18.0557C202.771 18.9183 202.747 20.2204 202.698 21.9619C202.649 23.6872 202.625 24.9811 202.625 25.8438C202.625 26.8691 202.649 28.4154 202.698 30.4824C202.747 32.5332 202.771 34.0713 202.771 35.0967ZM228.773 22.7432C228.773 24.387 228.244 25.3229 227.187 25.5508C227.007 25.5833 225.323 25.7624 222.133 26.0879C220.212 26.2995 217.348 26.5518 213.539 26.8447C213.767 27.9027 214.459 28.7083 215.614 29.2617C216.558 29.7174 217.632 29.9453 218.837 29.9453C220.285 29.9453 221.742 29.5547 223.207 28.7734C223.826 28.3828 224.444 27.9922 225.062 27.6016C225.404 27.7643 225.974 28.5944 226.771 30.0918C227.585 31.5892 227.992 32.5413 227.992 32.9482C227.992 33.0622 227.87 33.2493 227.626 33.5098C225.64 35.6419 222.556 36.708 218.373 36.708C214.499 36.708 211.374 35.5768 208.998 33.3145C206.557 31.0195 205.336 27.9515 205.336 24.1104C205.336 20.3669 206.426 17.2988 208.607 14.9062C210.854 12.4323 213.832 11.1953 217.543 11.1953C220.668 11.1953 223.321 12.3346 225.502 14.6133C227.683 16.8919 228.773 19.6019 228.773 22.7432ZM220.229 21.2539C220.229 20.2448 219.87 19.3577 219.154 18.5928C218.438 17.8278 217.584 17.4453 216.591 17.4453C215.565 17.4453 214.719 17.8766 214.052 18.7393C213.433 19.5368 213.124 20.4727 213.124 21.5469C213.124 21.9863 213.352 22.2061 213.808 22.2061C215.012 22.2061 216.884 22.0189 219.423 21.6445C219.96 21.5632 220.229 21.4329 220.229 21.2539Z" fill="#92E3A9"/>
</svg>
