<svg width="225" height="40" viewBox="0 0 225 40" fill="none" xmlns="http://www.w3.org/2000/svg">
<path d="M30.7334 36.6074C30.3428 36.8841 29.6429 37.2666 28.6338 37.7549C27.641 38.2269 26.2656 38.6501 24.5078 39.0244C22.75 39.3988 20.5446 39.5859 17.8916 39.5859C14.3271 39.5859 11.251 39 8.66309 37.8281C6.09147 36.64 4.11393 34.7275 2.73047 32.0908C1.34701 29.4378 0.655273 25.9303 0.655273 21.5684C0.655273 15.7578 2.14453 11.2819 5.12305 8.14062C8.10156 4.98307 12.252 3.4043 17.5742 3.4043C20.1133 3.4043 22.1396 3.64844 23.6533 4.13672C25.167 4.625 26.3145 5.19466 27.0957 5.8457C27.877 6.49674 28.4222 7.06641 28.7314 7.55469C28.8454 7.73372 28.9268 7.89648 28.9756 8.04297C29.0244 8.17318 29.057 8.38477 29.0732 8.67773C29.1221 9.06836 29.1302 9.63802 29.0977 10.3867C29.0814 11.1354 29.0244 11.7946 28.9268 12.3643C28.8617 12.7223 28.7559 12.9583 28.6094 13.0723C28.5443 13.1374 28.4303 13.1943 28.2676 13.2432C28.1048 13.292 27.8607 13.3164 27.5352 13.3164C27.0143 13.3164 26.404 13.3001 25.7041 13.2676C25.0205 13.2188 24.516 13.1699 24.1904 13.1211C23.7998 13.056 23.515 12.9665 23.3359 12.8525C23.1732 12.7223 22.9941 12.527 22.7988 12.2666C22.6035 12.0062 22.335 11.7051 21.9932 11.3633C21.6514 11.0052 21.1305 10.6878 20.4307 10.4111C19.7471 10.1344 18.7949 9.99609 17.5742 9.99609C14.8887 9.99609 12.7809 10.9727 11.251 12.9258C9.72103 14.8626 8.95605 17.654 8.95605 21.2998C8.95605 25.1247 9.74544 28.0299 11.3242 30.0156C12.9193 32.0013 15.2061 32.9941 18.1846 32.9941C19.682 32.9941 20.7806 32.8883 21.4805 32.6768C22.1966 32.4489 22.6523 32.278 22.8477 32.1641V24.5713C22.8477 24.0993 22.929 23.7412 23.0918 23.4971C23.8242 22.4229 24.8496 21.2917 26.168 20.1035C26.4121 19.9082 26.6237 19.8105 26.8027 19.8105C26.998 19.8105 27.2015 19.9082 27.4131 20.1035C28.1292 20.722 28.7314 21.3161 29.2197 21.8857C29.708 22.4391 30.1312 22.9762 30.4893 23.4971C30.652 23.7575 30.7334 24.1156 30.7334 24.5713V36.6074ZM43.4297 18.6387H43.5273C44.748 15.2533 46.9453 13.5605 50.1191 13.5605C50.526 13.5605 50.8597 13.585 51.1201 13.6338C51.3805 13.6663 51.5596 13.6989 51.6572 13.7314C51.9014 13.8128 52.0234 14 52.0234 14.293V20.1768C52.0234 20.6813 51.7305 20.8197 51.1445 20.5918C50.9492 20.5104 50.6644 20.429 50.29 20.3477C49.932 20.25 49.4274 20.2012 48.7764 20.2012C47.0999 20.2012 45.7897 20.8197 44.8457 22.0566C43.9017 23.2773 43.4297 24.9456 43.4297 27.0615V37.7061C43.4297 38.1943 43.3239 38.5361 43.1123 38.7314C42.917 38.9105 42.5752 39 42.0869 39H37.0576C36.5693 39 36.2194 38.9105 36.0078 38.7314C35.8125 38.5361 35.7148 38.1943 35.7148 37.7061V17.2471C35.7148 16.8564 35.7962 16.5553 35.959 16.3438C36.3008 15.888 36.7077 15.4242 37.1797 14.9521C37.668 14.4801 38.262 13.9756 38.9619 13.4385C39.0921 13.3408 39.2223 13.2757 39.3525 13.2432C39.4827 13.2106 39.5967 13.1943 39.6943 13.1943C39.9222 13.1943 40.1501 13.2757 40.3779 13.4385C41.7288 14.4964 42.6729 15.3997 43.21 16.1484C43.3564 16.3438 43.4297 16.5716 43.4297 16.832V18.6387ZM66.6729 39.6104C62.5713 39.6104 59.3242 38.5199 56.9316 36.3389C54.5391 34.1579 53.3428 30.9108 53.3428 26.5977C53.3428 22.1706 54.5798 18.8665 57.0537 16.6855C59.5439 14.4883 62.8643 13.3896 67.0146 13.3896C71.0186 13.3896 74.2249 14.472 76.6338 16.6367C79.0426 18.7852 80.2471 21.959 80.2471 26.1582C80.2471 30.5365 79.0426 33.873 76.6338 36.168C74.2249 38.4629 70.9046 39.6104 66.6729 39.6104ZM66.917 33.7021C68.7074 33.7021 70.0583 33.1488 70.9697 32.042C71.8812 30.9189 72.3369 29.0065 72.3369 26.3047C72.3369 23.7331 71.873 21.9264 70.9453 20.8848C70.0339 19.8268 68.6748 19.2979 66.8682 19.2979C65.1266 19.2979 63.7513 19.8675 62.7422 21.0068C61.7493 22.1299 61.2529 23.9609 61.2529 26.5C61.2529 29.153 61.7249 31.0166 62.6689 32.0908C63.6292 33.165 65.0452 33.7021 66.917 33.7021ZM88.8662 37.2178C88.3942 36.4854 87.8896 35.4681 87.3525 34.166C86.8154 32.8477 86.2865 31.391 85.7656 29.7959C85.2448 28.1846 84.7646 26.5814 84.3252 24.9863C83.902 23.375 83.5602 21.902 83.2998 20.5674C83.0394 19.2165 82.9092 18.1585 82.9092 17.3936C82.9092 17.068 82.9987 16.7995 83.1777 16.5879C83.9264 15.6602 84.9925 14.6917 86.376 13.6826C86.6201 13.5199 86.8398 13.4385 87.0352 13.4385C87.2467 13.4385 87.4665 13.5199 87.6943 13.6826C88.443 14.2197 89.0697 14.7243 89.5742 15.1963C90.0951 15.6683 90.5345 16.1322 90.8926 16.5879C91.0716 16.7995 91.1611 17.1006 91.1611 17.4912V17.3691C91.1611 18.3783 91.2181 19.542 91.332 20.8604C91.4622 22.1787 91.6413 23.5378 91.8691 24.9375C92.097 26.3372 92.3656 27.6719 92.6748 28.9414C93.0003 30.2109 93.3584 31.3014 93.749 32.2129H93.8955C94.3187 31.3014 94.7663 30.1133 95.2383 28.6484C95.7103 27.1836 96.1579 25.6374 96.5811 24.0098C97.0205 22.3659 97.4111 20.8197 97.7529 19.3711C98.0947 17.9225 98.3389 16.7751 98.4854 15.9287C98.5993 15.2939 98.8516 14.8708 99.2422 14.6592C99.6491 14.4476 100.211 14.3418 100.927 14.3418H103.759C104.573 14.3418 105.15 14.4639 105.492 14.708C105.85 14.9521 106.07 15.359 106.151 15.9287C106.282 16.8076 106.518 17.9958 106.859 19.4932C107.201 20.9743 107.584 22.5449 108.007 24.2051C108.446 25.8652 108.886 27.4196 109.325 28.8682C109.765 30.3167 110.139 31.4316 110.448 32.2129H110.619C111.107 31.1387 111.571 29.7552 112.011 28.0625C112.45 26.3535 112.808 24.555 113.085 22.667C113.362 20.779 113.5 19.0212 113.5 17.3936V17.4912C113.5 17.1006 113.581 16.7995 113.744 16.5879C114.118 16.1322 114.558 15.6683 115.062 15.1963C115.567 14.7243 116.177 14.2197 116.894 13.6826C117.121 13.5199 117.333 13.4385 117.528 13.4385C117.756 13.4385 117.968 13.5199 118.163 13.6826C118.896 14.2197 119.514 14.7243 120.019 15.1963C120.523 15.6683 120.954 16.1322 121.312 16.5879C121.475 16.7995 121.557 17.0843 121.557 17.4424C121.54 18.2399 121.386 19.306 121.093 20.6406C120.8 21.959 120.409 23.4076 119.921 24.9863C119.449 26.5651 118.92 28.1439 118.334 29.7227C117.764 31.3014 117.178 32.75 116.576 34.0684C115.99 35.3867 115.445 36.4365 114.94 37.2178C114.615 37.7223 114.33 38.1048 114.086 38.3652C113.842 38.6257 113.541 38.7965 113.183 38.8779C112.841 38.9593 112.328 39 111.645 39H108.886C108.121 39 107.519 38.8942 107.079 38.6826C106.656 38.4548 106.257 37.9665 105.883 37.2178C105.655 36.7783 105.378 36.0459 105.053 35.0205C104.727 33.9788 104.394 32.8477 104.052 31.627C103.71 30.39 103.409 29.2344 103.148 28.1602C102.888 27.0859 102.717 26.2965 102.636 25.792C102.554 25.3037 102.465 24.7096 102.367 24.0098C102.286 23.3099 102.229 22.7565 102.196 22.3496H102.074C102.058 22.7565 102.001 23.3099 101.903 24.0098C101.822 24.6934 101.732 25.2956 101.635 25.8164C101.537 26.2721 101.358 26.9801 101.098 27.9404C100.837 28.8844 100.52 29.9342 100.146 31.0898C99.7874 32.2292 99.4049 33.3441 98.998 34.4346C98.6074 35.5251 98.2331 36.4528 97.875 37.2178C97.5169 37.9665 97.1019 38.4548 96.6299 38.6826C96.1742 38.8942 95.4417 39 94.4326 39H91.6006C90.8031 39 90.2578 38.8779 89.9648 38.6338C89.6882 38.3896 89.3219 37.9176 88.8662 37.2178ZM82.9092 17.3447V17.3936C82.9092 17.4261 82.9092 17.4587 82.9092 17.4912V17.3447ZM121.557 17.3936V17.4912V17.4424C121.557 17.4261 121.557 17.4098 121.557 17.3936Z" fill="black"/>
<path d="M139.453 27.3057C139.03 27.3057 138.672 27.1999 138.379 26.9883C138.07 26.7767 137.703 26.4756 137.28 26.085C136.857 25.6943 136.385 25.2142 135.864 24.6445C135.669 24.4167 135.571 24.2132 135.571 24.0342C135.571 23.8551 135.669 23.6517 135.864 23.4238C136.873 22.2845 137.793 21.4463 138.623 20.9092C138.818 20.779 139.095 20.7139 139.453 20.7139C140.56 20.7139 141.512 20.2988 142.31 19.4688C143.123 18.6387 143.514 17.2959 143.481 15.4404C143.465 13.4385 142.969 12.0387 141.992 11.2412C141.032 10.4437 139.714 10.0449 138.037 10.0449H136.865C135.791 10.0449 135.059 10.2728 134.668 10.7285C134.277 11.1842 134.082 11.9655 134.082 13.0723V37.7061C134.082 38.1943 133.976 38.5361 133.765 38.7314C133.569 38.9105 133.228 39 132.739 39H127.539C127.051 39 126.701 38.9105 126.489 38.7314C126.294 38.5361 126.196 38.1943 126.196 37.7061V10.5332C126.196 8.9056 126.343 7.61979 126.636 6.67578C126.945 5.71549 127.531 5.0319 128.394 4.625C129.272 4.20182 130.55 3.99023 132.227 3.99023H138.037C142.708 3.99023 146.167 4.90983 148.413 6.74902C150.659 8.57194 151.782 11.3714 151.782 15.1475C151.782 17.9795 151.188 20.2907 150 22.0811C148.828 23.8714 147.298 25.1898 145.41 26.0361C143.538 26.8825 141.553 27.3057 139.453 27.3057ZM160.548 39.6104C158.155 39.6104 156.251 38.943 154.835 37.6084C153.435 36.2575 152.735 34.402 152.735 32.042C152.735 30.8213 152.955 29.6901 153.395 28.6484C153.85 27.5905 154.632 26.6628 155.738 25.8652C156.861 25.0514 158.424 24.4004 160.426 23.9121C162.444 23.4238 165.016 23.139 168.141 23.0576C168.141 21.5765 167.766 20.5104 167.018 19.8594C166.285 19.2083 165.178 18.8828 163.697 18.8828C162.363 18.8828 161.272 19.1107 160.426 19.5664C159.579 20.0221 159.05 20.3314 158.839 20.4941C158.611 20.6895 158.334 20.7627 158.009 20.7139C157.569 20.6488 157.097 20.5348 156.593 20.3721C156.104 20.2093 155.576 20.0221 155.006 19.8105C154.924 19.778 154.835 19.7292 154.737 19.6641C154.64 19.5827 154.583 19.4688 154.566 19.3223C154.566 19.2409 154.575 19.1432 154.591 19.0293C154.607 18.8991 154.648 18.6712 154.713 18.3457C154.778 18.0202 154.876 17.6214 155.006 17.1494C155.136 16.6611 155.258 16.2868 155.372 16.0264C155.519 15.7497 155.763 15.4893 156.104 15.2451C156.381 15.0173 157.219 14.651 158.619 14.1465C160.019 13.6419 162.045 13.3896 164.698 13.3896C172.006 13.3896 175.66 16.946 175.66 24.0586V37.877C175.66 38.1862 175.571 38.4548 175.392 38.6826C175.229 38.8942 174.944 39 174.537 39H170.875C170.615 39 170.379 38.9674 170.167 38.9023C169.972 38.821 169.785 38.6745 169.605 38.4629L168.092 36.5098H167.921C167.172 37.6003 166.163 38.3896 164.894 38.8779C163.64 39.3662 162.192 39.6104 160.548 39.6104ZM163.233 33.9463C164.731 33.9463 165.862 33.5638 166.627 32.7988C167.392 32.0339 167.88 31.2445 168.092 30.4307V27.7207C165.829 27.7207 164.129 27.8997 162.989 28.2578C161.866 28.5996 161.118 29.0553 160.743 29.625C160.369 30.1784 160.182 30.7806 160.182 31.4316C160.182 32.3757 160.475 33.0348 161.061 33.4092C161.646 33.7673 162.371 33.9463 163.233 33.9463ZM190.651 39.6104C185.215 39.6104 182.497 36.7865 182.497 31.1387V19.6885H179.738C179.25 19.6885 178.908 19.5908 178.713 19.3955C178.534 19.1839 178.444 18.834 178.444 18.3457V15.3428C178.444 14.8545 178.534 14.5127 178.713 14.3174C178.908 14.1058 179.25 14 179.738 14H182.497V10.0693C182.497 9.67871 182.578 9.3776 182.741 9.16602C183.425 8.27083 184.426 7.30241 185.744 6.26074C185.972 6.09798 186.175 6.0166 186.354 6.0166C186.55 6.0166 186.745 6.09798 186.94 6.26074C187.64 6.79785 188.226 7.30241 188.698 7.77441C189.187 8.24642 189.602 8.71029 189.943 9.16602C190.106 9.3776 190.188 9.67871 190.188 10.0693V14H194.509C194.997 14 195.331 14.1058 195.51 14.3174C195.705 14.5127 195.803 14.8545 195.803 15.3428V18.3457C195.803 18.834 195.705 19.1839 195.51 19.3955C195.331 19.5908 194.997 19.6885 194.509 19.6885H190.188V29.7959C190.188 32.4001 191.132 33.7021 193.02 33.7021C193.312 33.7021 193.581 33.6777 193.825 33.6289C194.069 33.5638 194.281 33.4987 194.46 33.4336C194.802 33.3034 195.038 33.2546 195.168 33.2871C195.314 33.3197 195.445 33.4987 195.559 33.8242L196.975 37.6084C197.121 38.0153 197.023 38.3083 196.682 38.4873C196.438 38.6012 195.843 38.8128 194.899 39.1221C193.972 39.4476 192.556 39.6104 190.651 39.6104ZM207.791 37.7061C207.791 38.1943 207.685 38.5361 207.474 38.7314C207.278 38.9105 206.937 39 206.448 39H201.419C200.931 39 200.581 38.9105 200.369 38.7314C200.174 38.5361 200.076 38.1943 200.076 37.7061V4.67383C200.076 4.2832 200.158 3.9821 200.32 3.77051C201.004 2.87533 202.005 1.9069 203.323 0.865234C203.551 0.702474 203.755 0.621094 203.934 0.621094C204.145 0.621094 204.349 0.702474 204.544 0.865234C205.244 1.40234 205.83 1.9069 206.302 2.37891C206.79 2.85091 207.205 3.31478 207.547 3.77051C207.71 3.9821 207.791 4.2832 207.791 4.67383V16.5146H207.889C208.247 16.0426 208.711 15.5706 209.28 15.0986C209.85 14.6104 210.607 14.2035 211.551 13.8779C212.511 13.5524 213.732 13.3896 215.213 13.3896C216.71 13.3896 218.151 13.6989 219.534 14.3174C220.918 14.9359 222.049 15.9775 222.928 17.4424C223.807 18.9072 224.246 20.9092 224.246 23.4482V37.7061C224.246 38.1943 224.14 38.5361 223.929 38.7314C223.733 38.9105 223.392 39 222.903 39H217.874C217.386 39 217.036 38.9105 216.824 38.7314C216.629 38.5361 216.531 38.1943 216.531 37.7061V24.791C216.531 22.9844 216.157 21.6742 215.408 20.8604C214.66 20.0303 213.642 19.6152 212.356 19.6152C211.087 19.6152 210.102 19.8919 209.402 20.4453C208.702 20.9987 208.165 21.6986 207.791 22.5449V37.7061Z" fill="#92E3A9"/>
</svg>
