<svg width="80" height="80" viewBox="0 0 80 80" fill="none" xmlns="http://www.w3.org/2000/svg">
<path d="M10.0078 6C10.0078 2.68629 12.6941 0 16.0078 0H47.2734L70.0024 23.6364V74C70.0024 77.3137 67.3161 80 64.0024 80H16.0078C12.6941 80 10.0078 77.3137 10.0078 74V6Z" fill="#FF464B"/>
<path d="M47.2734 23.6364V0L70.0007 23.6364H47.2734Z" fill="#FF8689"/>
<path d="M27.6543 47.969C29.2832 47.969 30.502 48.3235 31.3105 49.0325C32.125 49.7415 32.5322 50.7493 32.5322 52.0559C32.5322 52.6418 32.4473 53.2043 32.2773 53.7434C32.1133 54.2825 31.8408 54.7629 31.46 55.1848C31.085 55.6067 30.584 55.9407 29.957 56.1868C29.3359 56.4329 28.5684 56.5559 27.6543 56.5559H26.6787V60.8186H23.207V47.969H27.6543ZM27.5752 50.7727H26.6787V53.7258H27.3643C27.6631 53.7258 27.9414 53.676 28.1992 53.5764C28.457 53.4709 28.6621 53.304 28.8145 53.0754C28.9727 52.8411 29.0518 52.5305 29.0518 52.1438C29.0518 51.7395 28.9316 51.4114 28.6914 51.1594C28.4512 50.9016 28.0791 50.7727 27.5752 50.7727ZM45.1273 54.1213C45.1273 55.6155 44.849 56.8577 44.2923 57.8479C43.7357 58.8381 42.9505 59.5823 41.9369 60.0803C40.9291 60.5725 39.7425 60.8186 38.3773 60.8186H34.2201V47.969H38.6673C40.0502 47.969 41.222 48.2063 42.183 48.6809C43.1439 49.1555 43.8734 49.8499 44.3714 50.7639C44.8754 51.678 45.1273 52.7971 45.1273 54.1213ZM41.5238 54.2444C41.5238 53.4651 41.4183 52.8206 41.2074 52.3108C41.0023 51.7952 40.6918 51.4114 40.2757 51.1594C39.8597 50.9016 39.3353 50.7727 38.7025 50.7727H37.6918V57.9709H38.4652C39.5199 57.9709 40.2933 57.6663 40.7855 57.0569C41.2777 56.4417 41.5238 55.5042 41.5238 54.2444ZM50.4978 60.8186H47.0788V47.969H54.6726V50.7551H50.4978V53.2073H54.3474V55.9934H50.4978V60.8186Z" fill="#F9F9F9"/>
</svg>
