


<svg width="50" height="50" viewBox="0 0 50 50" fill="none" xmlns="http://www.w3.org/2000/svg">
<path d="M45.0846 25C45.0846 36.0917 36.093 45.0833 25.0013 45.0833C13.9096 45.0833 4.91797 36.0917 4.91797 25C4.91797 13.9082 13.9096 4.91663 25.0013 4.91663C36.093 4.91663 45.0846 13.9082 45.0846 25Z" stroke="#92E3A9" stroke-width="1.5"/>
<path d="M32.5846 19.5537C32.5846 23.7418 29.1895 27.137 25.0013 27.137C20.8131 27.137 17.418 23.7418 17.418 19.5537C17.418 15.3655 20.8131 11.9703 25.0013 11.9703C29.1895 11.9703 32.5846 15.3655 32.5846 19.5537Z" stroke="#92E3A9" stroke-width="1.5"/>
<path d="M38.7826 38.5417C35.7826 34.1401 30.7292 31.25 25.0007 31.25C19.2722 31.25 14.2187 34.1401 11.2188 38.5417" stroke="#92E3A9" stroke-width="1.5"/>
</svg>

