
<svg width="50" height="50" viewBox="0 0 50 50" fill="none" xmlns="http://www.w3.org/2000/svg">
<path d="M44.5 21.6498L44.5 20.8998L43 20.8998L43 21.6498L44.5 21.6498ZM43 31.1C43 31.5142 43.3358 31.85 43.75 31.85C44.1642 31.85 44.5 31.5142 44.5 31.1L43 31.1ZM43 21.6498L43 31.1L44.5 31.1L44.5 21.6498L43 21.6498Z" fill="#92E3A9"/>
<path d="M12.5 23.5398V37.2816V37.2816C19.8265 43.0747 30.1735 43.0747 37.5 37.2816V37.2816V23.5398" stroke="#92E3A9" stroke-width="1.5"/>
<path d="M22.4988 12.135C24.0698 11.4071 25.9302 11.4071 27.5012 12.135L46.1983 20.7985L27.5012 29.4619C25.9302 30.1898 24.0698 30.1898 22.4988 29.4619L3.80167 20.7985L22.4988 12.135ZM46.6549 20.5869L46.6546 20.587L46.6549 20.5869ZM3.34509 20.5869C3.34519 20.5869 3.3453 20.587 3.34541 20.587L3.34509 20.5869Z" stroke="#92E3A9" stroke-width="1.5"/>
</svg>
