
<svg width="686" height="646" viewBox="0 0 686 646" fill="none" xmlns="http://www.w3.org/2000/svg">
<path d="M134.689 405.21C198.13 473.686 262.189 482.355 352.233 498.583C442.278 514.81 508.394 503.596 557.114 462.239C613.366 414.435 611.143 304.925 525.064 265.932C498.173 253.723 466.15 250.028 442.593 232.857C397.605 200.092 361.22 149.11 288.998 139.536C216.776 129.962 168.084 175.583 168.084 175.583C108.772 236.746 71.2477 336.682 134.689 405.21Z" fill="#92E3A9"/>
<path opacity="0.7" d="M134.689 405.21C198.13 473.686 262.189 482.355 352.233 498.583C442.278 514.81 508.394 503.596 557.114 462.239C613.366 414.435 611.143 304.925 525.064 265.932C498.173 253.723 466.15 250.028 442.593 232.857C397.605 200.092 361.22 149.11 288.998 139.536C216.776 129.962 168.084 175.583 168.084 175.583C108.772 236.746 71.2477 336.682 134.689 405.21Z" fill="white"/>
<path d="M618.704 514.707H83.6235V535.379H618.704V514.707Z" fill="#92E3A9"/>
<path opacity="0.5" d="M618.704 514.707H83.6235V535.379H618.704V514.707Z" fill="white"/>
<path d="M209.806 292.367C207.189 293.171 204.62 294.107 202.109 295.17C203.481 294.227 204.853 293.245 206.225 292.25C212.334 287.624 218.147 282.663 223.636 277.392C217.195 283.284 210.318 288.737 203.056 293.71C204.057 292.072 204.937 290.372 205.69 288.62C207.062 285.403 207.309 282.16 204.058 280.441C200.038 278.323 195.181 281.488 196.457 286.901C197.235 289.924 198.753 292.733 200.888 295.106C196.149 298.195 191.199 300.988 186.071 303.465L185.59 303.697C186.675 301.929 187.633 300.095 188.458 298.206C189.748 295.002 190.077 291.747 186.812 290.041C182.792 287.909 177.935 291.088 179.224 296.501C179.99 299.483 181.473 302.259 183.56 304.615C177.4 307.47 171.034 309.899 164.695 312.535L163.776 312.922C165.013 311.671 166.163 310.346 167.219 308.956C169.277 306.114 170.389 303.039 167.645 300.648C164.27 297.703 158.74 299.718 158.658 305.3C158.662 308.38 159.422 311.418 160.881 314.176C154.949 316.785 149.314 319.954 144.06 323.633L143.895 323.762C144.606 322.702 145.256 321.606 145.844 320.481C147.394 317.367 147.97 314.163 144.842 312.212C144.206 311.8 143.48 311.53 142.717 311.42C141.955 311.311 141.175 311.366 140.439 311.581C139.702 311.796 139.026 312.166 138.463 312.662C137.9 313.159 137.463 313.769 137.186 314.447C136.774 313.841 136.214 313.336 135.554 312.974C132.412 311.269 129.325 313.116 126.677 315.726C125.991 316.411 125.305 317.147 124.715 317.871C126.757 312.532 129.325 307.385 132.384 302.496C135.298 303.694 138.439 304.323 141.618 304.343C147.874 304.343 150.508 299.434 147.435 296.385C144.938 293.917 141.426 294.86 138.106 296.669C137.012 297.269 135.954 297.925 134.936 298.633C138.117 294.122 141.726 289.893 145.72 285.997C148.337 287.991 151.378 289.431 154.638 290.222C160.716 291.63 164.53 287.483 162.335 283.827C160.551 280.855 156.847 280.971 153.211 281.966C151.471 282.456 149.766 283.052 148.107 283.749C149.768 282.224 151.483 280.765 153.225 279.317C155.502 277.483 157.862 275.713 160.263 273.981C162.845 275.921 165.832 277.326 169.03 278.103C175.108 279.511 178.923 275.364 176.727 271.708C174.944 268.736 171.239 268.852 167.59 269.847C166.739 270.08 165.875 270.364 165.038 270.661C168.207 268.529 171.418 266.449 174.642 264.382L177.619 262.457C180.302 264.573 183.451 266.1 186.839 266.927C192.917 268.335 196.745 264.188 194.55 260.532C192.752 257.56 189.062 257.676 185.412 258.671C183.976 259.085 182.563 259.563 181.173 260.105L183.011 258.813C184.136 258.051 185.261 257.276 186.359 256.462C187.731 255.493 189.034 254.421 190.365 253.387C191.133 252.819 191.86 252.211 192.588 251.591C195.281 253.73 198.451 255.271 201.862 256.1C207.94 257.509 211.754 253.361 209.559 249.705C207.776 246.733 204.071 246.85 200.435 247.844C198.397 248.438 196.399 249.15 194.454 249.976C196.937 247.806 199.338 245.545 201.615 243.193C201.766 243.025 201.904 242.857 202.068 242.702C203.042 241.682 204.003 240.648 204.936 239.576C205.869 238.503 207.076 237.095 208.091 235.803C212.26 230.65 215.692 225.002 218.299 219.007C215.567 224.931 212.02 230.491 207.748 235.545C203.523 240.619 198.806 245.312 193.658 249.563L193.095 250.015C194.265 248.139 195.301 246.193 196.196 244.188C197.499 240.984 197.815 237.728 194.55 236.023C190.543 233.891 185.673 237.069 186.962 242.483C187.791 245.688 189.445 248.652 191.778 251.113L190.571 252.095L189.199 253.206C188.403 253.813 187.58 254.395 186.757 254.976C186.318 255.286 185.892 255.609 185.385 255.919C184.218 256.733 183.038 257.521 181.845 258.297L180.13 259.395L178.182 260.687C179.32 258.857 180.32 256.953 181.173 254.989C182.476 251.772 182.792 248.529 179.54 246.824C175.52 244.692 170.649 247.87 171.939 253.284C172.734 256.393 174.311 259.278 176.535 261.695L175.163 262.573L169.826 265.868L168.77 266.514L165.792 268.387L164.503 269.201C163.131 270.093 161.759 270.997 160.387 271.927C161.489 270.068 162.452 268.138 163.268 266.152C164.64 262.948 164.887 259.692 161.635 257.987C157.615 255.855 152.758 259.033 154.048 264.447C154.854 267.598 156.465 270.516 158.74 272.948C156.408 274.563 154.103 276.217 151.88 277.948C150.248 279.24 148.642 280.532 147.065 281.927C147.752 280.73 148.366 279.496 148.903 278.232C150.193 275.015 150.522 271.772 147.257 270.067C143.237 267.935 138.38 271.113 139.67 276.527C140.435 279.508 141.919 282.285 144.005 284.64C139.562 288.799 135.559 293.355 132.055 298.245C132.453 296.835 132.755 295.402 132.961 293.956C133.4 290.545 132.878 287.341 129.27 286.411C124.825 285.261 120.928 289.447 123.576 294.434C125.099 297.179 127.279 299.554 129.942 301.372C126.486 306.688 123.6 312.314 121.326 318.168C121.267 316.944 121.138 315.723 120.942 314.512C120.324 311.114 118.87 308.181 115.125 308.245C110.515 308.336 108.031 313.413 112.079 317.47C114.237 319.589 116.872 321.227 119.789 322.264C118.229 326.783 116.96 331.386 115.989 336.049C115.824 336.786 115.701 337.522 115.55 338.258C115.385 338.401 115.221 338.543 115.07 338.698C114.905 338.065 114.713 337.406 114.493 336.799C113.341 333.543 111.42 330.842 107.729 331.463C103.202 332.212 101.569 337.561 106.234 341.01C108.605 342.715 111.338 343.918 114.246 344.538C114.246 344.667 114.356 344.783 114.425 344.912C113.917 348.414 113.533 351.941 113.3 355.481C113.121 358.065 113.025 360.765 112.97 363.414C109.047 363.414 106.275 367.471 108.978 371.863C110.118 373.685 111.58 375.31 113.3 376.67C113.629 381.644 114.15 386.618 114.85 391.553C114.295 391.07 113.616 390.732 112.88 390.571C112.144 390.41 111.376 390.432 110.652 390.636C108.182 391.269 107.071 393.143 106.673 395.442C105.794 396.299 105.302 397.443 105.301 398.634C103.463 396.05 101.72 393.466 100.033 390.74C102.609 388.88 104.744 386.534 106.303 383.853C109.252 378.685 105.918 374.15 101.624 375.248C98.1117 376.153 97.3434 379.512 97.508 383.117C97.5629 384.484 97.7003 385.847 97.9196 387.199L96.1086 384.202C94.5994 381.618 93.3646 379.034 91.8828 376.45C91.5261 375.817 91.2105 375.158 90.9224 374.512C93.8129 373.141 96.3687 371.218 98.4273 368.866C102.365 364.292 99.9913 359.266 95.5461 359.589C91.924 359.861 90.4834 363.026 89.8797 366.592C89.6444 368.147 89.4979 369.712 89.4407 371.282L88.151 368.478C85.4042 362.118 83.1437 355.581 81.387 348.917C84.6588 347.826 87.6305 346.06 90.0855 343.749C94.4896 339.55 92.6649 334.344 88.2059 334.24C84.5838 334.163 82.8139 337.173 81.8261 340.7C81.3419 342.573 80.9799 344.471 80.7422 346.385C79.7818 342.561 78.9586 338.685 78.2726 334.757C77.8061 332.354 77.5043 329.912 77.1887 327.483C80.7054 326.827 84.0176 325.426 86.875 323.388C91.8142 319.77 90.7303 314.344 86.3125 313.736C82.7316 313.207 80.5638 315.984 79.1095 319.331C78.258 321.441 77.5433 323.599 76.9692 325.791C76.6948 322.974 76.3792 320.145 76.242 317.315C75.8304 311.473 75.8304 305.612 76.242 299.77C75.6157 305.607 75.4003 311.477 75.5972 317.341C75.5972 320.041 75.8441 322.729 76.0225 325.429C75.2387 323.593 74.3219 321.81 73.2785 320.093C71.4126 317.134 68.9155 314.925 65.4581 316.217C61.1912 317.871 60.8207 323.426 66.1715 325.855C69.3099 327.213 72.7524 327.829 76.2009 327.651C76.4478 330.067 76.6673 332.47 77.0515 334.861C77.5866 338.737 78.2726 342.457 79.0821 346.217C78.2041 344.777 77.2279 343.391 76.1597 342.07C73.8959 339.37 71.1245 337.457 67.9277 339.202C63.9352 341.359 64.3193 346.954 69.9583 348.672C73.1491 349.606 76.5286 349.818 79.8229 349.292C81.3883 356.029 83.4466 362.655 85.9832 369.124L86.7927 371.062C86.0668 370.157 85.2833 369.294 84.4466 368.478C81.9084 365.998 78.9586 364.357 75.899 366.411C72.1535 368.995 73.155 374.422 78.9174 375.636C82.0977 376.242 85.3831 376.154 88.5214 375.378C88.8095 376.037 89.0977 376.67 89.4407 377.341C90.8127 380.003 92.0337 382.729 93.4743 385.339L94.668 387.6C93.9545 387.019 93.2137 386.463 92.4453 385.946C89.4544 383.969 86.2165 382.884 83.6371 385.429C80.4541 388.569 82.5121 393.789 88.4391 393.957C91.5248 394.024 94.5884 393.451 97.412 392.277C99.1133 395.171 100.856 398.026 102.749 400.83C103.449 401.902 104.121 402.962 104.917 404.021C103.84 403.095 102.704 402.232 101.514 401.437C98.5233 399.461 95.2854 398.375 92.6923 400.92C89.523 404.06 91.581 409.28 97.508 409.448C100.896 409.486 104.244 408.764 107.277 407.342C108.265 408.634 109.28 409.926 110.323 411.218C108.114 413.634 108.841 417.678 113.327 419.525C115.506 420.38 117.829 420.866 120.187 420.959C120.462 421.166 120.736 421.373 121.038 421.567L121.175 421.67C124.01 431.644 127.372 441.472 131.259 451.153C132.906 455.275 134.676 459.358 136.5 463.415H120.036V524.552H170.348V463.363H143.566C141.275 458.647 139.066 453.88 137.008 449.06C133.647 441.153 130.601 433.117 127.953 424.965C128.403 425.09 128.861 425.189 129.325 425.262C129.934 425.378 130.559 425.404 131.177 425.339L130.463 421.089H129.983C129.697 421.051 129.413 420.999 129.133 420.934C128.499 420.763 127.88 420.547 127.28 420.288L126.567 419.977C129.215 419.109 131.674 417.795 133.825 416.101C138.586 412.225 137.241 406.928 132.796 406.476C129.201 406.101 127.171 408.97 125.936 412.368C125.565 413.337 125.264 414.344 125.003 415.326C124.742 414.422 124.482 413.517 124.235 412.613C123.507 409.939 122.863 407.238 122.204 404.538C125.078 403.694 127.748 402.329 130.066 400.52C134.826 396.644 133.468 391.36 129.037 390.907C125.428 390.533 123.411 393.401 122.177 396.799C121.806 397.781 121.491 398.802 121.216 399.809C120.805 397.846 120.407 395.869 120.036 393.892C119.776 392.432 119.529 390.959 119.295 389.486C119.213 387.393 119.172 385.3 119.199 383.194C119.199 382.044 119.199 380.895 119.309 379.745C121.999 380.545 124.82 380.882 127.637 380.739C133.893 380.352 136.198 375.313 132.933 372.458C130.271 370.119 126.828 371.282 123.631 373.272C122.197 374.189 120.823 375.185 119.515 376.256C119.9 371.339 120.694 366.457 121.888 361.657C122.589 358.829 123.464 356.042 124.509 353.31C127.378 354.241 130.411 354.641 133.441 354.486C139.697 354.111 142.002 349.073 138.737 346.204C136.089 343.879 132.631 345.029 129.434 347.031C128.319 347.753 127.247 348.534 126.224 349.37C127.43 346.697 128.833 344.107 130.422 341.618C133.574 336.596 137.525 332.06 142.139 328.168C144.53 330.245 147.358 331.825 150.44 332.806C156.394 334.641 160.524 330.765 158.672 326.966C157.121 323.879 153.472 323.736 149.713 324.473C148.264 324.764 146.835 325.135 145.432 325.584L145.528 325.506C150.648 321.745 156.165 318.489 161.992 315.791C164.048 318.325 166.659 320.414 169.648 321.915C175.218 324.615 179.951 321.411 178.717 317.38C177.715 314.098 174.134 313.413 170.306 313.504C168.803 313.581 167.305 313.736 165.82 313.969C172.008 311.217 178.319 308.62 184.411 305.584H184.548C187.275 307.801 190.511 309.393 194.001 310.235C200.079 311.656 203.893 307.496 201.698 303.775C199.914 300.803 196.21 300.933 192.574 301.915C191.545 302.199 190.516 302.548 189.514 302.909C193.582 300.683 197.525 298.259 201.327 295.648L201.643 295.971V295.803C204.397 298.04 207.659 299.653 211.178 300.519C217.242 301.927 221.07 297.78 218.875 294.059C217.146 291.256 213.497 291.372 209.806 292.367ZM113.876 409.435C112.627 408.065 111.448 406.631 110.295 405.184C110.569 404.952 110.871 404.693 111.173 404.409C112.888 404.912 114.662 405.211 116.455 405.3V405.572L117.292 405.404C117.731 407.445 118.184 409.474 118.664 411.502C118.107 410.815 117.379 410.267 116.544 409.906C115.709 409.546 114.793 409.384 113.876 409.435ZM118.349 360.791C117.923 362.316 117.567 363.84 117.224 365.378L117.018 365.106C117.018 361.954 117.068 358.81 117.169 355.675C117.265 353.478 117.429 351.295 117.635 349.098C118.764 350.181 120.005 351.155 121.34 352.005C120.178 354.881 119.185 357.814 118.362 360.791H118.349ZM123.974 346.321C124.056 345.752 124.125 345.171 124.152 344.602V343.737C124.646 343.594 125.154 343.427 125.648 343.233C125.099 344.253 124.523 345.287 123.988 346.321H123.974ZM131.122 335.403C130.885 334.892 130.54 334.432 130.109 334.05C129.677 333.668 129.168 333.372 128.611 333.181C125.222 331.889 122.478 334.215 120.297 337.186L120.187 337.328H119.968C119.738 337.279 119.504 337.249 119.268 337.238C119.252 337.056 119.285 336.874 119.364 336.708C120.233 332.041 121.406 327.428 122.876 322.897C126.026 323.273 129.224 323.04 132.275 322.212C134.159 321.746 135.799 320.648 136.884 319.124C137.488 321.729 138.641 324.194 140.273 326.372C136.898 329.076 133.835 332.107 131.136 335.416L131.122 335.403Z" fill="#92E3A9"/>
<path opacity="0.3" d="M209.806 292.367C207.189 293.171 204.62 294.107 202.109 295.17C203.481 294.227 204.853 293.245 206.225 292.25C212.334 287.624 218.147 282.663 223.636 277.392C217.195 283.284 210.318 288.737 203.056 293.71C204.057 292.072 204.937 290.372 205.69 288.62C207.062 285.403 207.309 282.16 204.058 280.441C200.038 278.323 195.181 281.488 196.457 286.901C197.235 289.924 198.753 292.733 200.888 295.106C196.149 298.195 191.199 300.988 186.071 303.465L185.59 303.697C186.675 301.929 187.633 300.095 188.458 298.206C189.748 295.002 190.077 291.747 186.812 290.041C182.792 287.909 177.935 291.088 179.224 296.501C179.99 299.483 181.473 302.259 183.56 304.615C177.4 307.47 171.034 309.899 164.695 312.535L163.776 312.922C165.013 311.671 166.163 310.346 167.219 308.956C169.277 306.114 170.389 303.039 167.645 300.648C164.27 297.703 158.74 299.718 158.658 305.3C158.662 308.38 159.422 311.418 160.881 314.176C154.949 316.785 149.314 319.954 144.06 323.633L143.895 323.762C144.606 322.702 145.256 321.606 145.844 320.481C147.394 317.367 147.97 314.163 144.842 312.212C144.206 311.8 143.48 311.53 142.717 311.42C141.955 311.311 141.175 311.366 140.439 311.581C139.702 311.796 139.026 312.166 138.463 312.662C137.9 313.159 137.463 313.769 137.186 314.447C136.774 313.841 136.214 313.336 135.554 312.974C132.412 311.269 129.325 313.116 126.677 315.726C125.991 316.411 125.305 317.147 124.715 317.871C126.757 312.532 129.325 307.385 132.384 302.496C135.298 303.694 138.439 304.323 141.618 304.343C147.874 304.343 150.508 299.434 147.435 296.385C144.938 293.917 141.426 294.86 138.106 296.669C137.012 297.269 135.954 297.925 134.936 298.633C138.117 294.122 141.726 289.893 145.72 285.997C148.337 287.991 151.378 289.431 154.638 290.222C160.716 291.63 164.53 287.483 162.335 283.827C160.551 280.855 156.847 280.971 153.211 281.966C151.471 282.456 149.766 283.052 148.107 283.749C149.768 282.224 151.483 280.765 153.225 279.317C155.502 277.483 157.862 275.713 160.263 273.981C162.845 275.921 165.832 277.326 169.03 278.103C175.108 279.511 178.923 275.364 176.727 271.708C174.944 268.736 171.239 268.852 167.59 269.847C166.739 270.08 165.875 270.364 165.038 270.661C168.207 268.529 171.418 266.449 174.642 264.382L177.619 262.457C180.302 264.573 183.451 266.1 186.839 266.927C192.917 268.335 196.745 264.188 194.55 260.532C192.752 257.56 189.062 257.676 185.412 258.671C183.976 259.085 182.563 259.563 181.173 260.105L183.011 258.813C184.136 258.051 185.261 257.276 186.359 256.462C187.731 255.493 189.034 254.421 190.365 253.387C191.133 252.819 191.86 252.211 192.588 251.591C195.281 253.73 198.451 255.271 201.862 256.1C207.94 257.509 211.754 253.361 209.559 249.705C207.776 246.733 204.071 246.85 200.435 247.844C198.397 248.438 196.399 249.15 194.454 249.976C196.937 247.806 199.338 245.545 201.615 243.193C201.766 243.025 201.904 242.857 202.068 242.702C203.042 241.682 204.003 240.648 204.936 239.576C205.869 238.503 207.076 237.095 208.091 235.803C212.26 230.65 215.692 225.002 218.299 219.007C215.567 224.931 212.02 230.491 207.748 235.545C203.523 240.619 198.806 245.312 193.658 249.563L193.095 250.015C194.265 248.139 195.301 246.193 196.196 244.188C197.499 240.984 197.815 237.728 194.55 236.023C190.543 233.891 185.673 237.069 186.962 242.483C187.791 245.688 189.445 248.652 191.778 251.113L190.571 252.095L189.199 253.206C188.403 253.813 187.58 254.395 186.757 254.976C186.318 255.286 185.892 255.609 185.385 255.919C184.218 256.733 183.038 257.521 181.845 258.297L180.13 259.395L178.182 260.687C179.32 258.857 180.32 256.953 181.173 254.989C182.476 251.772 182.792 248.529 179.54 246.824C175.52 244.692 170.649 247.87 171.939 253.284C172.734 256.393 174.311 259.278 176.535 261.695L175.163 262.573L169.826 265.868L168.77 266.514L165.792 268.387L164.503 269.201C163.131 270.093 161.759 270.997 160.387 271.927C161.489 270.068 162.452 268.138 163.268 266.152C164.64 262.948 164.887 259.692 161.635 257.987C157.615 255.855 152.758 259.033 154.048 264.447C154.854 267.598 156.465 270.516 158.74 272.948C156.408 274.563 154.103 276.217 151.88 277.948C150.248 279.24 148.642 280.532 147.065 281.927C147.752 280.73 148.366 279.496 148.903 278.232C150.193 275.015 150.522 271.772 147.257 270.067C143.237 267.935 138.38 271.113 139.67 276.527C140.435 279.508 141.919 282.285 144.005 284.64C139.562 288.799 135.559 293.355 132.055 298.245C132.453 296.835 132.755 295.402 132.961 293.956C133.4 290.545 132.878 287.341 129.27 286.411C124.825 285.261 120.928 289.447 123.576 294.434C125.099 297.179 127.279 299.554 129.942 301.372C126.486 306.688 123.6 312.314 121.326 318.168C121.267 316.944 121.138 315.723 120.942 314.512C120.324 311.114 118.87 308.181 115.125 308.245C110.515 308.336 108.031 313.413 112.079 317.47C114.237 319.589 116.872 321.227 119.789 322.264C118.229 326.783 116.96 331.386 115.989 336.049C115.824 336.786 115.701 337.522 115.55 338.258C115.385 338.401 115.221 338.543 115.07 338.698C114.905 338.065 114.713 337.406 114.493 336.799C113.341 333.543 111.42 330.842 107.729 331.463C103.202 332.212 101.569 337.561 106.234 341.01C108.605 342.715 111.338 343.918 114.246 344.538C114.246 344.667 114.356 344.783 114.425 344.912C113.917 348.414 113.533 351.941 113.3 355.481C113.121 358.065 113.025 360.765 112.97 363.414C109.047 363.414 106.275 367.471 108.978 371.863C110.118 373.685 111.58 375.31 113.3 376.67C113.629 381.644 114.15 386.618 114.85 391.553C114.295 391.07 113.616 390.732 112.88 390.571C112.144 390.41 111.376 390.432 110.652 390.636C108.182 391.269 107.071 393.143 106.673 395.442C105.794 396.299 105.302 397.443 105.301 398.634C103.463 396.05 101.72 393.466 100.033 390.74C102.609 388.88 104.744 386.534 106.303 383.853C109.252 378.685 105.918 374.15 101.624 375.248C98.1117 376.153 97.3434 379.512 97.508 383.117C97.5629 384.484 97.7003 385.847 97.9196 387.199L96.1086 384.202C94.5994 381.618 93.3646 379.034 91.8828 376.45C91.5261 375.817 91.2105 375.158 90.9224 374.512C93.8129 373.141 96.3687 371.218 98.4273 368.866C102.365 364.292 99.9913 359.266 95.5461 359.589C91.924 359.861 90.4834 363.026 89.8797 366.592C89.6444 368.147 89.4979 369.712 89.4407 371.282L88.151 368.478C85.4042 362.118 83.1437 355.581 81.387 348.917C84.6588 347.826 87.6305 346.06 90.0855 343.749C94.4896 339.55 92.6649 334.344 88.2059 334.24C84.5838 334.163 82.8139 337.173 81.8261 340.7C81.3419 342.573 80.9799 344.471 80.7422 346.385C79.7818 342.561 78.9586 338.685 78.2726 334.757C77.8061 332.354 77.5043 329.912 77.1887 327.483C80.7054 326.827 84.0176 325.426 86.875 323.388C91.8142 319.77 90.7303 314.344 86.3125 313.736C82.7316 313.207 80.5638 315.984 79.1095 319.331C78.258 321.441 77.5433 323.599 76.9692 325.791C76.6948 322.974 76.3792 320.145 76.242 317.315C75.8304 311.473 75.8304 305.612 76.242 299.77C75.6157 305.607 75.4003 311.477 75.5972 317.341C75.5972 320.041 75.8441 322.729 76.0225 325.429C75.2387 323.593 74.3219 321.81 73.2785 320.093C71.4126 317.134 68.9155 314.925 65.4581 316.217C61.1912 317.871 60.8207 323.426 66.1715 325.855C69.3099 327.213 72.7524 327.829 76.2009 327.651C76.4478 330.067 76.6673 332.47 77.0515 334.861C77.5866 338.737 78.2726 342.457 79.0821 346.217C78.2041 344.777 77.2279 343.391 76.1597 342.07C73.8959 339.37 71.1245 337.457 67.9277 339.202C63.9352 341.359 64.3193 346.954 69.9583 348.672C73.1491 349.606 76.5286 349.818 79.8229 349.292C81.3883 356.029 83.4466 362.655 85.9832 369.124L86.7927 371.062C86.0668 370.157 85.2833 369.294 84.4466 368.478C81.9084 365.998 78.9586 364.357 75.899 366.411C72.1535 368.995 73.155 374.422 78.9174 375.636C82.0977 376.242 85.3831 376.154 88.5214 375.378C88.8095 376.037 89.0977 376.67 89.4407 377.341C90.8127 380.003 92.0337 382.729 93.4743 385.339L94.668 387.6C93.9545 387.019 93.2137 386.463 92.4453 385.946C89.4544 383.969 86.2165 382.884 83.6371 385.429C80.4541 388.569 82.5121 393.789 88.4391 393.957C91.5248 394.024 94.5884 393.451 97.412 392.277C99.1133 395.171 100.856 398.026 102.749 400.83C103.449 401.902 104.121 402.962 104.917 404.021C103.84 403.095 102.704 402.232 101.514 401.437C98.5233 399.461 95.2854 398.375 92.6923 400.92C89.523 404.06 91.581 409.28 97.508 409.448C100.896 409.486 104.244 408.764 107.277 407.342C108.265 408.634 109.28 409.926 110.323 411.218C108.114 413.634 108.841 417.678 113.327 419.525C115.506 420.38 117.829 420.866 120.187 420.959C120.462 421.166 120.736 421.373 121.038 421.567L121.175 421.67C124.01 431.644 127.372 441.472 131.259 451.153C132.906 455.275 134.676 459.358 136.5 463.415H120.036V524.552H170.348V463.363H143.566C141.275 458.647 139.066 453.88 137.008 449.06C133.647 441.153 130.601 433.117 127.953 424.965C128.403 425.09 128.861 425.189 129.325 425.262C129.934 425.378 130.559 425.404 131.177 425.339L130.463 421.089H129.983C129.697 421.051 129.413 420.999 129.133 420.934C128.499 420.763 127.88 420.547 127.28 420.288L126.567 419.977C129.215 419.109 131.674 417.795 133.825 416.101C138.586 412.225 137.241 406.928 132.796 406.476C129.201 406.101 127.171 408.97 125.936 412.368C125.565 413.337 125.264 414.344 125.003 415.326C124.742 414.422 124.482 413.517 124.235 412.613C123.507 409.939 122.863 407.238 122.204 404.538C125.078 403.694 127.748 402.329 130.066 400.52C134.826 396.644 133.468 391.36 129.037 390.907C125.428 390.533 123.411 393.401 122.177 396.799C121.806 397.781 121.491 398.802 121.216 399.809C120.805 397.846 120.407 395.869 120.036 393.892C119.776 392.432 119.529 390.959 119.295 389.486C119.213 387.393 119.172 385.3 119.199 383.194C119.199 382.044 119.199 380.895 119.309 379.745C121.999 380.545 124.82 380.882 127.637 380.739C133.893 380.352 136.198 375.313 132.933 372.458C130.271 370.119 126.828 371.282 123.631 373.272C122.197 374.189 120.823 375.185 119.515 376.256C119.9 371.339 120.694 366.457 121.888 361.657C122.589 358.829 123.464 356.042 124.509 353.31C127.378 354.241 130.411 354.641 133.441 354.486C139.697 354.111 142.002 349.073 138.737 346.204C136.089 343.879 132.631 345.029 129.434 347.031C128.319 347.753 127.247 348.534 126.224 349.37C127.43 346.697 128.833 344.107 130.422 341.618C133.574 336.596 137.525 332.06 142.139 328.168C144.53 330.245 147.358 331.825 150.44 332.806C156.394 334.641 160.524 330.765 158.672 326.966C157.121 323.879 153.472 323.736 149.713 324.473C148.264 324.764 146.835 325.135 145.432 325.584L145.528 325.506C150.648 321.745 156.165 318.489 161.992 315.791C164.048 318.325 166.659 320.414 169.648 321.915C175.218 324.615 179.951 321.411 178.717 317.38C177.715 314.098 174.134 313.413 170.306 313.504C168.803 313.581 167.305 313.736 165.82 313.969C172.008 311.217 178.319 308.62 184.411 305.584H184.548C187.275 307.801 190.511 309.393 194.001 310.235C200.079 311.656 203.893 307.496 201.698 303.775C199.914 300.803 196.21 300.933 192.574 301.915C191.545 302.199 190.516 302.548 189.514 302.909C193.582 300.683 197.525 298.259 201.327 295.648L201.643 295.971V295.803C204.397 298.04 207.659 299.653 211.178 300.519C217.242 301.927 221.07 297.78 218.875 294.059C217.146 291.256 213.497 291.372 209.806 292.367ZM113.876 409.435C112.627 408.065 111.448 406.631 110.295 405.184C110.569 404.952 110.871 404.693 111.173 404.409C112.888 404.912 114.662 405.211 116.455 405.3V405.572L117.292 405.404C117.731 407.445 118.184 409.474 118.664 411.502C118.107 410.815 117.379 410.267 116.544 409.906C115.709 409.546 114.793 409.384 113.876 409.435ZM118.349 360.791C117.923 362.316 117.567 363.84 117.224 365.378L117.018 365.106C117.018 361.954 117.068 358.81 117.169 355.675C117.265 353.478 117.429 351.295 117.635 349.098C118.764 350.181 120.005 351.155 121.34 352.005C120.178 354.881 119.185 357.814 118.362 360.791H118.349ZM123.974 346.321C124.056 345.752 124.125 345.171 124.152 344.602V343.737C124.646 343.594 125.154 343.427 125.648 343.233C125.099 344.253 124.523 345.287 123.988 346.321H123.974ZM131.122 335.403C130.885 334.892 130.54 334.432 130.109 334.05C129.677 333.668 129.168 333.372 128.611 333.181C125.222 331.889 122.478 334.215 120.297 337.186L120.187 337.328H119.968C119.738 337.279 119.504 337.249 119.268 337.238C119.252 337.056 119.285 336.874 119.364 336.708C120.233 332.041 121.406 327.428 122.876 322.897C126.026 323.273 129.224 323.04 132.275 322.212C134.159 321.746 135.799 320.648 136.884 319.124C137.488 321.729 138.641 324.194 140.273 326.372C136.898 329.076 133.835 332.107 131.136 335.416L131.122 335.403Z" fill="white"/>
<path d="M548.1 468.182C548.1 468.182 541.46 454.216 539.868 452.781C538.276 451.347 525.558 447.006 522.032 435.985C518.506 424.965 511.811 395.546 528.686 397.471C545.562 399.396 541.46 430.21 547.592 429.241C553.725 428.272 542.489 379.189 553.218 372.393C563.947 365.597 581.33 371.915 579.286 397.91C577.241 423.905 573.153 438.815 576.734 437.381C580.315 435.947 590.536 430.637 590.536 441.709C590.536 452.781 580.822 460.482 575.197 460.96C569.572 461.438 566.965 461.929 566.965 461.929V469.138L548.1 468.182Z" fill="#2E353A" stroke="#2E353A" stroke-linecap="round" stroke-linejoin="round"/>
<path d="M542.695 441.115C538.839 437.678 535.3 434.345 533.667 431.282C530.429 425.171 527.987 408.026 527.987 408.026" stroke="white" stroke-width="0.5" stroke-linecap="round" stroke-linejoin="round"/>
<path d="M522.238 416.399C524.79 426.412 525.147 433.957 532.858 442.743C536.974 447.497 547.867 451.528 549.088 455.727C550.181 460.78 551 465.881 551.544 471.012L557.636 471.399C557.636 471.399 558.871 461.451 555.386 454.358" stroke="white" stroke-width="0.5" stroke-linecap="round" stroke-linejoin="round"/>
<path d="M523.939 400.339C523.939 400.339 519.384 403.634 521.003 411.747" stroke="white" stroke-width="0.5" stroke-linecap="round" stroke-linejoin="round"/>
<path d="M553.122 429.887L550.707 433.569" stroke="white" stroke-width="0.5" stroke-linecap="round" stroke-linejoin="round"/>
<path d="M553.959 428.608L553.122 429.887" stroke="white" stroke-width="0.5" stroke-linecap="round" stroke-linejoin="round"/>
<path d="M562.067 373.595C562.067 373.595 552.738 373.22 552.738 381.618C552.738 388.711 555.043 412.923 554.549 423.996" stroke="white" stroke-width="0.5" stroke-linecap="round" stroke-linejoin="round"/>
<path d="M569.38 442.394C569.161 445.275 569.023 447.316 569.023 448.091C569.023 452.29 580.37 436.244 585.652 435.869C585.652 435.869 590.921 435.481 588.89 444.655C588.151 448.06 586.44 451.211 583.94 453.767C581.44 456.324 578.246 458.19 574.704 459.164C570.231 460.314 566.581 458.402 565.772 460.314C565.126 462.561 564.717 464.864 564.551 467.187" stroke="white" stroke-width="0.5" stroke-linecap="round" stroke-linejoin="round"/>
<path d="M572.028 381.566C572.733 384.337 573.065 387.18 573.016 390.029C573.016 398.97 571.205 420.055 569.998 434.293" stroke="white" stroke-width="0.5" stroke-linecap="round" stroke-linejoin="round"/>
<path d="M567.336 374.37C568.554 375.027 569.542 376.007 570.176 377.186" stroke="white" stroke-width="0.5" stroke-linecap="round" stroke-linejoin="round"/>
<path d="M560.736 440.068L560.448 445.417" stroke="white" stroke-width="0.5" stroke-linecap="round" stroke-linejoin="round"/>
<path d="M562.877 378.944C562.877 378.944 560.448 379.706 561.258 387.729C561.93 394.357 561.258 424.448 560.942 434.719" stroke="white" stroke-width="0.5" stroke-linecap="round" stroke-linejoin="round"/>
<path d="M588.437 438.156C584.958 444.288 579.384 449.135 572.618 451.916C561.642 456.115 561.258 454.203 561.258 458.376C561.258 462.549 560.846 470.223 560.846 470.223" stroke="white" stroke-width="0.5" stroke-linecap="round" stroke-linejoin="round"/>
<path d="M573.222 524.513H537.769L530.182 476.154H580.809L573.222 524.513Z" fill="#92E3A9" stroke="#2E353A" stroke-linecap="round" stroke-linejoin="round"/>
<path d="M585.158 468.531H525.833V481.477H585.158V468.531Z" fill="#92E3A9" stroke="#2E353A" stroke-linecap="round" stroke-linejoin="round"/>
<path d="M378.562 491.955V465.701H296.462V491.955C296.448 500.507 293.374 508.804 287.736 515.508L284.141 519.772H390.883L387.288 515.508C381.65 508.804 378.575 500.507 378.562 491.955Z" fill="white" stroke="#2E353A" stroke-linecap="round" stroke-linejoin="round"/>
<path d="M291.413 510.34H383.611C380.301 504.713 378.564 498.387 378.562 491.955V465.701H296.462V491.955C296.46 498.387 294.723 504.713 291.413 510.34Z" fill="#92E3A9"/>
<path d="M490.86 240.919H184.15C177.724 240.919 172.515 245.824 172.515 251.875V463.027C172.515 469.078 177.724 473.983 184.15 473.983H490.86C497.286 473.983 502.495 469.078 502.495 463.027V251.875C502.495 245.824 497.286 240.919 490.86 240.919Z" fill="#2E353A" stroke="#2E353A" stroke-linecap="round" stroke-linejoin="round"/>
<path d="M172.515 437.755H502.509V463.014C502.509 465.92 501.283 468.707 499.101 470.761C496.919 472.816 493.96 473.97 490.874 473.97H184.163C181.078 473.97 178.118 472.816 175.937 470.761C173.755 468.707 172.529 465.92 172.529 463.014V437.755H172.515Z" fill="white" stroke="#2E353A" stroke-linecap="round" stroke-linejoin="round"/>
<path d="M485.907 255.428H189.116V420.081H485.907V255.428Z" fill="white" stroke="#2E353A" stroke-linecap="round" stroke-linejoin="round"/>
<path d="M343.603 455.869C343.603 454.735 343.246 453.626 342.577 452.682C341.907 451.739 340.956 451.004 339.843 450.569C338.73 450.135 337.505 450.022 336.323 450.243C335.142 450.464 334.056 451.011 333.204 451.813C332.352 452.615 331.772 453.637 331.537 454.75C331.302 455.863 331.423 457.016 331.884 458.065C332.345 459.113 333.125 460.009 334.127 460.639C335.129 461.269 336.307 461.606 337.512 461.606C339.127 461.606 340.677 461.001 341.819 459.926C342.961 458.85 343.603 457.391 343.603 455.869Z" fill="#2E353A" stroke="#2E353A" stroke-linecap="round" stroke-linejoin="round"/>
<path d="M390.896 519.823H284.141V524.513H390.896V519.823Z" fill="white" stroke="#2E353A" stroke-linecap="round" stroke-linejoin="round"/>
<path d="M483.122 267.031H191.449V281.462H483.122V267.031Z" fill="white" stroke="#2E353A" stroke-linecap="round" stroke-linejoin="round"/>
<path d="M239.578 281.462L236.08 272.547H191.449V281.462V293.284V413.065H483.122V281.462H239.578Z" fill="#92E3A9" stroke="#2E353A" stroke-linecap="round" stroke-linejoin="round"/>
<path d="M269.955 346.721H406.716" stroke="#2E353A" stroke-width="2" stroke-linecap="round" stroke-linejoin="round"/>
<path d="M269.955 359.383H406.716" stroke="#2E353A" stroke-width="2" stroke-linecap="round" stroke-linejoin="round"/>
<path d="M269.955 372.044H406.716" stroke="#2E353A" stroke-width="2" stroke-linecap="round" stroke-linejoin="round"/>
<path d="M269.955 384.719H406.716" stroke="#2E353A" stroke-width="2" stroke-linecap="round" stroke-linejoin="round"/>
<path d="M399.485 312.961H275.552C274.277 312.963 273.013 312.728 271.834 312.27C270.655 311.812 269.583 311.139 268.68 310.291C267.776 309.443 267.059 308.435 266.569 307.326C266.08 306.217 265.827 305.028 265.825 303.827C265.823 302.625 266.072 301.436 266.559 300.325C267.045 299.215 267.759 298.205 268.66 297.355C269.561 296.504 270.631 295.829 271.809 295.368C272.986 294.906 274.249 294.668 275.525 294.666H399.485C400.763 294.665 402.029 294.901 403.21 295.36C404.391 295.82 405.464 296.495 406.367 297.346C407.271 298.197 407.987 299.207 408.476 300.319C408.964 301.431 409.214 302.623 409.212 303.827C409.211 305.028 408.958 306.217 408.468 307.326C407.978 308.435 407.261 309.443 406.358 310.291C405.454 311.139 404.383 311.812 403.203 312.27C402.024 312.728 400.761 312.963 399.485 312.961Z" fill="white" stroke="#2E353A" stroke-linecap="round" stroke-linejoin="round"/>
<path d="M399.485 312.961H382.555V294.641H399.485C400.763 294.639 402.029 294.875 403.21 295.334C404.391 295.794 405.464 296.469 406.368 297.32C407.271 298.171 407.988 299.181 408.476 300.293C408.964 301.406 409.214 302.597 409.213 303.801C409.214 305.004 408.964 306.196 408.476 307.308C407.988 308.421 407.271 309.431 406.368 310.282C405.464 311.133 404.391 311.808 403.21 312.267C402.029 312.727 400.763 312.963 399.485 312.961Z" fill="#2E353A" stroke="#2E353A" stroke-linecap="round" stroke-linejoin="round"/>
<path d="M395.712 296.966C394.906 296.255 393.894 295.785 392.804 295.615C391.714 295.446 390.595 295.585 389.589 296.014C388.583 296.443 387.735 297.144 387.152 298.028C386.568 298.911 386.277 299.938 386.313 300.977C386.35 302.017 386.713 303.023 387.357 303.868C388 304.714 388.896 305.36 389.93 305.726C390.964 306.092 392.09 306.161 393.166 305.924C394.241 305.687 395.218 305.155 395.973 304.395C396.475 303.894 396.868 303.304 397.128 302.659C397.387 302.015 397.509 301.328 397.486 300.639C397.463 299.95 397.296 299.272 396.994 298.643C396.692 298.015 396.261 297.45 395.726 296.979L395.712 296.966ZM395.163 303.685C394.557 304.29 393.774 304.713 392.913 304.9C392.052 305.088 391.152 305.03 390.325 304.736C389.499 304.442 388.784 303.923 388.27 303.247C387.756 302.57 387.466 301.765 387.437 300.933C387.409 300.101 387.642 299.28 388.108 298.574C388.575 297.867 389.253 297.306 390.057 296.962C390.862 296.618 391.757 296.505 392.629 296.64C393.501 296.774 394.311 297.148 394.957 297.716C395.825 298.482 396.334 299.541 396.372 300.66C396.411 301.779 395.976 302.867 395.163 303.685Z" fill="white"/>
<path d="M399.91 306.307C399.788 306.195 399.633 306.118 399.465 306.086C399.297 306.054 399.123 306.068 398.964 306.126L396.947 304.344C396.844 304.249 396.706 304.196 396.563 304.196C396.419 304.196 396.281 304.249 396.179 304.344L396 304.524C395.902 304.625 395.847 304.756 395.847 304.893C395.847 305.029 395.902 305.161 396 305.261L397.99 307.018C397.931 307.178 397.921 307.35 397.963 307.515C398.004 307.68 398.094 307.83 398.223 307.948L401.653 311.114C401.879 311.325 402.185 311.444 402.503 311.444C402.822 311.444 403.128 311.325 403.354 311.114C403.579 310.901 403.705 310.613 403.705 310.313C403.705 310.012 403.579 309.725 403.354 309.512L399.91 306.307Z" fill="white"/>
<path d="M435.335 368.22C435.736 369.156 436.332 370.006 437.089 370.721C437.845 371.436 438.747 372 439.739 372.38C441.29 372.975 443.362 372.845 445.749 374.112C451.141 376.967 464.6 374.422 474.355 375.404C484.11 376.385 497.254 366.217 497.254 366.217L535.958 368.22V332.044C535.958 332.044 495.566 333.633 486.813 330.455C478.059 327.277 468.304 320.636 463.928 320.946C459.551 321.256 423.536 325.067 423.536 325.067L435.322 368.22H435.335Z" fill="white" stroke="#2E353A" stroke-linecap="round" stroke-linejoin="round"/>
<path d="M425.32 222.353C417.328 223.186 409.779 226.232 403.625 231.106C397.472 235.979 392.992 242.462 390.751 249.733C388.51 257.005 388.609 264.738 391.036 271.957C393.463 279.175 398.108 285.554 404.384 290.286C410.66 295.018 418.286 297.892 426.297 298.543C434.307 299.194 442.343 297.594 449.387 293.944C456.432 290.295 462.169 284.76 465.873 278.04C469.578 271.32 471.083 263.716 470.198 256.191C469.614 251.193 467.99 246.352 465.417 241.946C462.845 237.539 459.376 233.654 455.208 230.511C451.04 227.368 446.255 225.03 441.126 223.63C435.998 222.231 430.627 221.797 425.32 222.353ZM433.387 290.933C426.977 291.603 420.499 290.469 414.773 287.672C409.047 284.876 404.33 280.544 401.219 275.223C398.107 269.903 396.742 263.833 397.294 257.781C397.846 251.729 400.291 245.968 404.32 241.225C408.35 236.482 413.782 232.97 419.931 231.135C426.079 229.299 432.667 229.222 438.863 230.912C445.058 232.602 450.582 235.985 454.736 240.632C458.889 245.278 461.487 250.981 462.199 257.018C462.672 261.026 462.302 265.083 461.11 268.957C459.918 272.83 457.928 276.445 455.252 279.594C452.577 282.744 449.269 285.366 445.517 287.311C441.766 289.257 437.644 290.487 433.387 290.933Z" fill="white" stroke="#2E353A" stroke-linecap="round" stroke-linejoin="round"/>
<path d="M425.1 220.17C417.109 221.003 409.559 224.049 403.406 228.922C397.253 233.796 392.772 240.278 390.531 247.55C388.29 254.821 388.389 262.555 390.816 269.773C393.243 276.992 397.888 283.37 404.164 288.103C410.441 292.835 418.066 295.708 426.077 296.359C434.087 297.011 442.123 295.41 449.168 291.761C456.212 288.111 461.949 282.576 465.654 275.856C469.358 269.136 470.863 261.533 469.978 254.007C468.789 243.917 463.393 234.685 454.978 228.34C446.562 221.995 435.816 219.056 425.1 220.17ZM433.168 288.749C426.757 289.42 420.279 288.285 414.553 285.489C408.827 282.693 404.11 278.36 400.999 273.04C397.888 267.719 396.522 261.649 397.074 255.597C397.626 249.546 400.071 243.784 404.101 239.041C408.13 234.298 413.562 230.787 419.711 228.951C425.859 227.116 432.448 227.038 438.643 228.729C444.838 230.419 450.362 233.801 454.516 238.448C458.67 243.095 461.267 248.797 461.98 254.834C462.453 258.843 462.083 262.899 460.891 266.773C459.699 270.647 457.708 274.262 455.033 277.411C452.357 280.56 449.049 283.182 445.298 285.128C441.546 287.073 437.424 288.304 433.168 288.749Z" fill="white" stroke="#2E353A" stroke-linecap="round" stroke-linejoin="round"/>
<path d="M435.385 296.979L433.462 297.18C431.293 297.406 429.729 299.245 429.97 301.288L433.09 327.818C433.33 329.861 435.283 331.333 437.452 331.107L439.375 330.907C441.544 330.68 443.108 328.841 442.867 326.799L439.747 300.268C439.507 298.226 437.554 296.753 435.385 296.979Z" fill="#92E3A9" stroke="#2E353A" stroke-linecap="round" stroke-linejoin="round"/>
<path d="M434.759 319.124L438.875 318.71C440.645 318.532 442.419 319.018 443.811 320.063C445.203 321.108 446.101 322.627 446.311 324.292L452.472 376.76C452.722 378.905 452.058 381.056 450.625 382.739C449.192 384.423 447.107 385.502 444.83 385.739H444.555C443.427 385.858 442.285 385.766 441.195 385.468C440.105 385.17 439.088 384.673 438.202 384.004C437.316 383.336 436.579 382.509 436.033 381.572C435.487 380.635 435.143 379.606 435.02 378.543L428.86 326.088C428.76 325.257 428.836 324.416 429.083 323.613C429.329 322.81 429.741 322.061 430.296 321.408C430.85 320.755 431.536 320.212 432.313 319.809C433.091 319.406 433.946 319.151 434.828 319.059L434.759 319.124Z" fill="#2E353A" stroke="#2E353A" stroke-linecap="round" stroke-linejoin="round"/>
<path d="M440.741 362.845C440.741 362.845 430.986 363.181 429.614 364.77C428.242 366.36 428.489 371.889 431.137 372.522C437.887 374.189 452.238 373.22 452.801 372.083C453.363 370.946 454.516 364.331 451.552 363.62C447.975 363.104 444.36 362.845 440.741 362.845Z" fill="white" stroke="#2E353A" stroke-linecap="round" stroke-linejoin="round"/>
<path d="M437.929 350.029C437.929 350.029 426.582 349.628 424.812 351.553C423.043 353.478 422.7 360.675 425.69 361.76C433.319 364.512 450.483 363.44 451.265 362.018C452.047 360.597 453.748 353.22 450.386 352.031C447.025 350.843 437.929 350.029 437.929 350.029Z" fill="white" stroke="#2E353A" stroke-linecap="round" stroke-linejoin="round"/>
<path d="M436.296 335.558C436.296 335.558 424.167 335.119 422.274 337.186C420.381 339.253 420.01 346.928 423.207 348.091C431.439 351.036 449.275 351.036 450.112 349.512C450.949 347.987 453.199 338.969 449.604 337.69C446.009 336.411 436.296 335.558 436.296 335.558Z" fill="white" stroke="#2E353A" stroke-linecap="round" stroke-linejoin="round"/>
<path d="M429.299 322.018C429.299 322.018 417.17 321.592 415.277 323.646C413.383 325.7 412.931 333.62 416.21 334.55C419.489 335.481 442.278 337.496 443.115 335.985C443.952 334.473 446.202 325.429 442.607 324.15C439.012 322.871 429.299 322.018 429.299 322.018Z" fill="white" stroke="#2E353A" stroke-linecap="round" stroke-linejoin="round"/>
<path d="M469.018 360.016C466.841 359.452 464.778 358.553 462.913 357.354C453.158 351.011 453.487 336.437 453.487 336.437L451.141 335.804C449.203 335.109 447.386 334.147 445.749 332.948C446.535 335.959 446.994 339.037 447.121 342.135C447.086 343.837 446.38 345.466 445.14 346.706C443.9 347.945 442.215 348.706 440.412 348.84C437.38 349.163 436.035 349.473 435.02 345.675C434.005 341.876 428.97 326.656 428.627 324.434C428.325 322.419 431.919 318.827 437.641 317.974C446.435 318.646 455.106 320.959 463.969 320.959C467.053 321.231 470.008 322.255 472.544 323.93" fill="white"/>
<path d="M469.018 360.016C466.841 359.452 464.778 358.553 462.913 357.354C453.158 351.011 453.487 336.437 453.487 336.437L451.141 335.804C449.203 335.109 447.386 334.147 445.749 332.948C446.535 335.959 446.994 339.037 447.121 342.135C447.086 343.837 446.38 345.466 445.14 346.706C443.9 347.945 442.215 348.706 440.412 348.84C437.38 349.163 436.035 349.473 435.02 345.675C434.005 341.876 428.97 326.656 428.627 324.434C428.325 322.419 431.919 318.827 437.641 317.974C446.435 318.646 455.106 320.959 463.969 320.959C467.053 321.231 470.008 322.255 472.544 323.93" stroke="#2E353A" stroke-linecap="round" stroke-linejoin="round"/>
<path d="M478.293 360.817C477.224 360.868 476.152 360.868 475.083 360.817H478.293Z" fill="white"/>
<path d="M478.293 360.817C477.224 360.868 476.152 360.868 475.083 360.817" stroke="#2E353A" stroke-linecap="round" stroke-linejoin="round"/>
<path d="M485.469 359.564C483.139 360.258 480.73 360.692 478.293 360.856L485.469 359.564Z" fill="white"/>
<path d="M485.469 359.564C483.139 360.258 480.73 360.692 478.293 360.856" stroke="#2E353A" stroke-linecap="round" stroke-linejoin="round"/>
<path d="M497.583 355.455H509.698" stroke="#2E353A" stroke-linecap="round" stroke-linejoin="round"/>
<path d="M498.599 358.62H503.648" stroke="#2E353A" stroke-linecap="round" stroke-linejoin="round"/>
<path d="M453.487 336.437C453.487 336.437 460.183 336.437 464.573 332.677" stroke="#2E353A" stroke-linecap="round" stroke-linejoin="round"/>
<path d="M445.598 332.535C445.405 330.814 445.024 329.117 444.459 327.47" stroke="#2E353A" stroke-linecap="round" stroke-linejoin="round"/>
<path d="M434.924 344.008C434.924 344.008 433.648 340.675 435.198 339.473C436.749 338.271 440.865 336.54 441.578 337.871C442.292 339.202 443.842 345.339 443.417 346.54L442.991 347.742" stroke="#2E353A" stroke-width="0.5" stroke-linecap="round" stroke-linejoin="round"/>
<path d="M620.899 384.435H504.896V330.739H620.899" fill="#92E3A9"/>
<path d="M620.899 384.435H504.896V330.739H620.899" stroke="#2E353A" stroke-linecap="round" stroke-linejoin="round"/>
<path d="M513.402 380.843C514.842 380.843 516.009 379.744 516.009 378.388C516.009 377.032 514.842 375.933 513.402 375.933C511.963 375.933 510.795 377.032 510.795 378.388C510.795 379.744 511.963 380.843 513.402 380.843Z" fill="white" stroke="#2E353A" stroke-linecap="round" stroke-linejoin="round"/>
<path d="M329.047 279.602C330.041 279.224 330.944 278.663 331.703 277.95C332.462 277.238 333.061 276.389 333.465 275.454C334.096 273.994 333.945 272.056 335.303 269.795C338.321 264.731 335.632 252.056 336.675 242.857C337.718 233.658 326.906 221.307 326.906 221.307L329.006 184.859H290.59C290.59 184.859 292.263 222.896 288.902 231.126C285.541 239.356 278.475 248.568 278.804 252.689C279.133 256.811 283.208 290.7 283.208 290.7L328.978 279.602H329.047Z" fill="white" stroke="#2E353A" stroke-linecap="round" stroke-linejoin="round"/>
<path d="M174.244 289.007C175.122 296.534 178.352 303.646 183.523 309.444C188.694 315.242 195.574 319.466 203.295 321.581C211.015 323.697 219.228 323.609 226.895 321.329C234.563 319.048 241.34 314.678 246.369 308.771C251.399 302.863 254.455 295.684 255.152 288.141C255.849 280.598 254.154 273.029 250.283 266.393C246.412 259.757 240.538 254.35 233.404 250.858C226.27 247.365 218.196 245.943 210.204 246.772H210.108C199.409 247.905 189.625 252.988 182.902 260.906C176.178 268.824 173.065 278.93 174.244 289.007ZM246.96 281.398C247.674 287.437 246.471 293.54 243.503 298.935C240.534 304.33 235.933 308.775 230.282 311.708C224.631 314.641 218.183 315.93 211.753 315.412C205.324 314.894 199.203 312.592 194.162 308.798C189.122 305.004 185.39 299.888 183.437 294.096C181.485 288.305 181.4 282.098 183.194 276.261C184.987 270.424 188.578 265.219 193.513 261.304C198.448 257.388 204.504 254.939 210.917 254.266C219.517 253.366 228.144 255.718 234.903 260.806C241.661 265.893 245.998 273.3 246.96 281.398Z" fill="white" stroke="#2E353A" stroke-linecap="round" stroke-linejoin="round"/>
<path d="M171.87 289.24C172.757 296.762 175.992 303.867 181.167 309.657C186.341 315.448 193.222 319.663 200.941 321.771C208.659 323.879 216.868 323.785 224.529 321.5C232.191 319.216 238.961 314.843 243.984 308.936C249.007 303.028 252.057 295.851 252.749 288.311C253.44 280.771 251.743 273.208 247.87 266.576C243.998 259.945 238.124 254.544 230.993 251.056C223.861 247.567 215.791 246.149 207.803 246.979C202.496 247.53 197.357 249.061 192.678 251.484C188 253.906 183.875 257.173 180.538 261.098C177.201 265.023 174.718 269.528 173.23 274.357C171.743 279.186 171.281 284.243 171.87 289.24ZM244.696 281.656C245.408 287.693 244.203 293.793 241.234 299.185C238.265 304.577 233.664 309.019 228.014 311.949C222.364 314.879 215.918 316.165 209.492 315.645C203.065 315.125 196.947 312.822 191.91 309.028C186.874 305.234 183.145 300.118 181.196 294.328C179.246 288.538 179.164 282.334 180.959 276.5C182.754 270.666 186.346 265.464 191.281 261.552C196.215 257.641 202.27 255.195 208.681 254.524C212.938 254.079 217.246 254.427 221.359 255.549C225.473 256.672 229.312 258.546 232.656 261.066C236 263.585 238.785 266.7 240.851 270.233C242.916 273.766 244.223 277.648 244.696 281.656Z" fill="white" stroke="#2E353A" stroke-linecap="round" stroke-linejoin="round"/>
<path d="M285.111 272.529L256.938 275.467C254.769 275.694 253.205 277.533 253.446 279.575L253.659 281.386C253.899 283.428 255.852 284.901 258.021 284.675L286.194 281.736C288.363 281.51 289.927 279.671 289.687 277.628L289.474 275.818C289.233 273.775 287.28 272.303 285.111 272.529Z" fill="#92E3A9" stroke="#2E353A" stroke-linecap="round" stroke-linejoin="round"/>
<path d="M276.952 280.157L276.499 276.281C276.303 274.602 276.823 272.919 277.945 271.6C279.066 270.282 280.698 269.438 282.481 269.253L338.184 263.452C339.317 263.328 340.465 263.416 341.562 263.711C342.658 264.006 343.682 264.502 344.575 265.17C345.467 265.839 346.21 266.667 346.762 267.607C347.313 268.547 347.662 269.581 347.788 270.648V270.907C347.92 271.973 347.827 273.054 347.513 274.087C347.2 275.12 346.673 276.084 345.963 276.924C345.253 277.765 344.374 278.465 343.375 278.984C342.377 279.503 341.28 279.832 340.146 279.951L284.443 285.752C282.663 285.941 280.875 285.459 279.472 284.41C278.068 283.362 277.162 281.833 276.952 280.157Z" fill="#2E353A" stroke="#2E353A" stroke-linecap="round" stroke-linejoin="round"/>
<path d="M323.367 274.524C323.367 274.524 323.737 283.697 325.411 284.989C327.085 286.281 332.984 286.049 333.643 283.555C335.427 277.212 334.384 263.684 333.176 263.167C331.969 262.651 324.945 261.54 324.204 264.343C323.651 267.712 323.371 271.115 323.367 274.524Z" fill="white" stroke="#2E353A" stroke-linecap="round" stroke-linejoin="round"/>
<path d="M309.77 277.16C309.77 277.16 309.331 287.845 311.375 289.511C313.42 291.178 321.062 291.514 322.214 288.684C325.15 281.501 323.998 265.338 322.489 264.615C320.979 263.891 313.145 262.276 311.883 265.441C310.621 268.607 309.77 277.16 309.77 277.16Z" fill="white" stroke="#2E353A" stroke-linecap="round" stroke-linejoin="round"/>
<path d="M294.404 278.723C294.404 278.723 293.937 290.144 296.119 291.927C298.3 293.71 306.477 294.059 307.712 291.036C310.84 283.361 310.84 266.488 309.221 265.713C307.602 264.937 298.012 262.806 296.667 266.191C295.323 269.576 294.404 278.723 294.404 278.723Z" fill="white" stroke="#2E353A" stroke-linecap="round" stroke-linejoin="round"/>
<path d="M280.025 285.299C280.025 285.299 279.558 296.721 281.754 298.504C283.949 300.287 292.345 300.713 293.333 297.612C294.321 294.511 296.461 273.064 294.842 272.276C293.224 271.488 283.647 269.382 282.289 272.767C280.93 276.152 280.025 285.299 280.025 285.299Z" fill="white" stroke="#2E353A" stroke-linecap="round" stroke-linejoin="round"/>
<path d="M321.212 239.123C321.772 244.213 320.475 249.33 317.536 253.633C310.813 262.832 295.323 262.509 295.323 262.509L294.651 264.731C293.919 266.554 292.896 268.262 291.618 269.795C294.82 269.056 298.093 268.623 301.387 268.503C303.189 268.553 304.907 269.228 306.212 270.399C307.516 271.57 308.315 273.155 308.453 274.847C308.796 277.702 309.125 278.969 305.091 279.912C301.058 280.855 284.896 285.622 282.536 285.945C280.395 286.23 276.581 282.845 275.676 277.457C276.403 269.175 278.859 260.997 278.859 252.664C279.146 249.755 280.234 246.967 282.014 244.576" fill="white"/>
<path d="M321.212 239.123C321.772 244.213 320.475 249.33 317.536 253.633C310.813 262.832 295.323 262.509 295.323 262.509L294.651 264.731C293.919 266.554 292.896 268.262 291.618 269.795C294.82 269.056 298.093 268.623 301.387 268.503C303.189 268.553 304.907 269.228 306.212 270.399C307.516 271.57 308.315 273.155 308.453 274.847C308.796 277.702 309.125 278.969 305.091 279.912C301.058 280.855 284.896 285.622 282.536 285.945C280.395 286.23 276.581 282.845 275.676 277.457C276.403 269.175 278.859 260.997 278.859 252.664C279.146 249.755 280.234 246.967 282.014 244.576" stroke="#2E353A" stroke-linecap="round" stroke-linejoin="round"/>
<path d="M319.896 232.405C320.302 233.614 320.613 234.849 320.828 236.1L319.896 232.405Z" fill="white"/>
<path d="M319.896 232.405C320.302 233.614 320.613 234.849 320.828 236.1" stroke="#2E353A" stroke-linecap="round" stroke-linejoin="round"/>
<path d="M315.519 220.984V209.575" stroke="#2E353A" stroke-linecap="round" stroke-linejoin="round"/>
<path d="M318.88 220.04V215.286" stroke="#2E353A" stroke-linecap="round" stroke-linejoin="round"/>
<path d="M295.323 262.509C295.323 262.509 295.323 256.204 291.331 252.069" stroke="#2E353A" stroke-linecap="round" stroke-linejoin="round"/>
<path d="M291.193 269.95C289.366 270.128 287.564 270.483 285.815 271.01" stroke="#2E353A" stroke-linecap="round" stroke-linejoin="round"/>
<path d="M303.377 279.951C303.377 279.951 299.837 281.152 298.561 279.679C297.285 278.206 295.446 274.343 296.86 273.684C298.273 273.025 304.79 271.553 306.066 271.953L307.342 272.341" stroke="#2E353A" stroke-width="0.5" stroke-linecap="round" stroke-linejoin="round"/>
<path d="M346.307 104.859V214.097H289.272V104.859" fill="#92E3A9"/>
<path d="M346.307 104.859V214.097H289.272V104.859" stroke="#2E353A" stroke-linecap="round" stroke-linejoin="round"/>
<path d="M339.872 208.542C341.312 208.542 342.479 207.443 342.479 206.087C342.479 204.731 341.312 203.632 339.872 203.632C338.432 203.632 337.265 204.731 337.265 206.087C337.265 207.443 338.432 208.542 339.872 208.542Z" fill="white" stroke="#2E353A" stroke-linecap="round" stroke-linejoin="round"/>
<path d="M271.656 474.164C271.257 475.101 270.661 475.953 269.905 476.667C269.148 477.382 268.245 477.946 267.252 478.324C265.701 478.932 263.643 478.789 261.242 480.056C255.864 482.911 242.405 480.379 232.636 481.348C222.867 482.317 209.751 472.161 209.751 472.161L171.006 474.164V437.988C171.006 437.988 211.398 439.577 220.151 436.412C228.904 433.246 238.659 426.58 243.036 426.903C247.413 427.226 283.428 431.024 283.428 431.024L271.656 474.164Z" fill="white" stroke="#2E353A" stroke-linecap="round" stroke-linejoin="round"/>
<path d="M281.603 328.375C289.594 329.208 297.144 332.254 303.297 337.127C309.451 342.001 313.931 348.483 316.172 355.755C318.413 363.026 318.314 370.76 315.887 377.978C313.46 385.197 308.815 391.575 302.539 396.308C296.262 401.04 288.637 403.913 280.626 404.564C272.616 405.216 264.58 403.615 257.536 399.966C250.491 396.316 244.754 390.781 241.049 384.061C237.345 377.341 235.84 369.738 236.725 362.212C237.911 352.124 243.304 342.893 251.718 336.55C260.132 330.207 270.877 327.271 281.589 328.388L281.603 328.375ZM273.536 396.954C279.949 397.627 286.43 396.494 292.159 393.699C297.888 390.903 302.608 386.57 305.723 381.249C308.837 375.927 310.206 369.855 309.656 363.801C309.106 357.746 306.662 351.982 302.633 347.235C298.604 342.489 293.171 338.974 287.021 337.136C280.87 335.297 274.279 335.217 268.081 336.906C261.882 338.595 256.355 341.977 252.197 346.624C248.04 351.271 245.439 356.974 244.724 363.013C243.768 371.111 246.266 379.236 251.669 385.6C257.072 391.964 264.937 396.048 273.536 396.954Z" fill="white" stroke="#2E353A" stroke-linecap="round" stroke-linejoin="round"/>
<path d="M281.85 326.191C289.838 327.027 297.383 330.074 303.532 334.947C309.681 339.821 314.157 346.302 316.395 353.571C318.633 360.84 318.532 368.57 316.104 375.785C313.677 383 309.032 389.375 302.758 394.104C296.483 398.833 288.86 401.704 280.853 402.354C272.846 403.004 264.814 401.403 257.772 397.755C250.731 394.106 244.997 388.573 241.294 381.856C237.592 375.139 236.088 367.538 236.972 360.016C237.559 355.02 239.186 350.181 241.759 345.777C244.333 341.373 247.802 337.49 251.97 334.349C256.137 331.208 260.921 328.87 266.048 327.471C271.175 326.071 276.545 325.636 281.85 326.191ZM273.783 394.771C280.196 395.443 286.676 394.311 292.406 391.515C298.135 388.719 302.855 384.387 305.97 379.065C309.084 373.743 310.453 367.671 309.903 361.617C309.353 355.563 306.909 349.798 302.88 345.052C298.851 340.305 293.418 336.791 287.268 334.952C281.117 333.114 274.526 333.034 268.328 334.723C262.129 336.411 256.602 339.793 252.444 344.44C248.287 349.087 245.686 354.791 244.971 360.83C244.019 368.924 246.519 377.044 251.922 383.403C257.325 389.763 265.187 393.842 273.783 394.745V394.771Z" fill="white" stroke="#2E353A" stroke-linecap="round" stroke-linejoin="round"/>
<path d="M267.194 406.291L264.074 432.821C263.833 434.864 265.397 436.703 267.566 436.929L269.489 437.13C271.658 437.356 273.611 435.884 273.851 433.841L276.971 407.311C277.212 405.268 275.648 403.429 273.479 403.203L271.556 403.002C269.387 402.776 267.434 404.248 267.194 406.291Z" fill="#92E3A9" stroke="#2E353A" stroke-linecap="round" stroke-linejoin="round"/>
<path d="M262.422 491.813H262.148C261.014 491.696 259.915 491.368 258.916 490.849C257.917 490.33 257.037 489.63 256.326 488.79C255.616 487.949 255.089 486.984 254.777 485.951C254.464 484.917 254.372 483.836 254.506 482.769L260.666 430.313C260.762 429.481 261.031 428.675 261.458 427.942C261.885 427.208 262.462 426.561 263.156 426.037C263.849 425.514 264.645 425.125 265.499 424.892C266.353 424.659 267.247 424.587 268.13 424.68L272.246 425.107C274.029 425.292 275.66 426.136 276.782 427.454C277.904 428.773 278.424 430.456 278.228 432.135L272.067 484.655C271.939 485.722 271.589 486.754 271.037 487.694C270.485 488.633 269.742 489.46 268.85 490.129C267.958 490.797 266.935 491.293 265.839 491.589C264.743 491.885 263.596 491.974 262.463 491.851L262.422 491.813Z" fill="#2E353A" stroke="#2E353A" stroke-linecap="round" stroke-linejoin="round"/>
<path d="M266.168 468.854C266.168 468.854 275.909 469.203 277.281 470.779C278.653 472.355 278.406 477.898 275.758 478.531C269.021 480.211 254.657 479.229 254.108 478.092C253.559 476.955 252.379 470.34 255.356 469.629C258.934 469.113 262.548 468.854 266.168 468.854Z" fill="white" stroke="#2E353A" stroke-linecap="round" stroke-linejoin="round"/>
<path d="M269.022 456.076C269.022 456.076 280.368 455.663 282.138 457.588C283.908 459.513 284.265 466.709 281.26 467.794C273.632 470.546 256.468 469.474 255.7 468.053C254.931 466.632 253.216 459.254 256.578 458.066C259.939 456.877 269.022 456.076 269.022 456.076Z" fill="white" stroke="#2E353A" stroke-linecap="round" stroke-linejoin="round"/>
<path d="M270.682 441.567C270.682 441.567 282.81 441.14 284.703 443.195C286.597 445.249 286.967 452.949 283.77 454.099C275.538 457.058 257.702 457.045 256.866 455.533C256.029 454.022 253.779 444.978 257.373 443.699C260.968 442.42 270.682 441.567 270.682 441.567Z" fill="white" stroke="#2E353A" stroke-linecap="round" stroke-linejoin="round"/>
<path d="M277.665 428.04C277.665 428.04 289.794 427.6 291.687 429.655C293.58 431.709 294.033 439.642 290.74 440.572C287.448 441.502 264.672 443.505 263.835 441.993C262.999 440.482 260.762 431.438 264.357 430.171C267.951 428.905 277.665 428.04 277.665 428.04Z" fill="white" stroke="#2E353A" stroke-linecap="round" stroke-linejoin="round"/>
<path d="M230.496 466.89C235.281 467.067 240.005 465.834 244.01 463.363C253.779 457.019 253.436 442.445 253.436 442.445L255.796 441.812C257.732 441.123 259.545 440.16 261.174 438.957C260.388 441.968 259.929 445.045 259.802 448.143C259.854 449.841 260.571 451.461 261.814 452.692C263.058 453.922 264.74 454.677 266.539 454.81C269.571 455.12 270.915 455.443 271.93 451.632C272.946 447.82 277.981 432.613 278.324 430.404C278.667 428.195 275.031 424.784 269.31 423.944C260.515 424.629 251.831 426.941 242.981 426.941C239.895 427.213 236.936 428.232 234.393 429.9" fill="white"/>
<path d="M230.496 466.89C235.281 467.067 240.005 465.834 244.01 463.363C253.779 457.019 253.436 442.445 253.436 442.445L255.796 441.812C257.732 441.123 259.545 440.16 261.174 438.957C260.388 441.968 259.929 445.045 259.802 448.143C259.854 449.841 260.571 451.461 261.814 452.692C263.058 453.922 264.74 454.677 266.539 454.81C269.571 455.12 270.915 455.443 271.93 451.632C272.946 447.82 277.981 432.613 278.324 430.404C278.667 428.195 275.031 424.784 269.31 423.944C260.515 424.629 251.831 426.941 242.981 426.941C239.895 427.213 236.936 428.232 234.393 429.9" stroke="#2E353A" stroke-linecap="round" stroke-linejoin="round"/>
<path d="M221.496 465.585C223.414 466.14 225.385 466.517 227.381 466.709L221.496 465.585Z" fill="white"/>
<path d="M221.496 465.585C223.414 466.14 225.385 466.517 227.381 466.709" stroke="#2E353A" stroke-linecap="round" stroke-linejoin="round"/>
<path d="M209.367 461.464H197.252" stroke="#2E353A" stroke-linecap="round" stroke-linejoin="round"/>
<path d="M208.365 464.629H203.316" stroke="#2E353A" stroke-linecap="round" stroke-linejoin="round"/>
<path d="M253.463 442.445C253.463 442.445 246.768 442.445 242.377 438.686" stroke="#2E353A" stroke-linecap="round" stroke-linejoin="round"/>
<path d="M261.366 438.543C261.554 436.823 261.931 435.126 262.491 433.479" stroke="#2E353A" stroke-linecap="round" stroke-linejoin="round"/>
<path d="M271.985 450.016C271.985 450.016 273.261 446.683 271.697 445.482C270.133 444.28 266.031 442.549 265.331 443.879C264.631 445.21 263.067 451.36 263.493 452.549L263.918 453.75" stroke="#2E353A" stroke-width="0.5" stroke-linecap="round" stroke-linejoin="round"/>
<path d="M86.0518 490.456H202.054V436.748H86.0518" fill="#92E3A9"/>
<path d="M86.0518 490.456H202.054V436.748H86.0518" stroke="#2E353A" stroke-linecap="round" stroke-linejoin="round"/>
<path d="M190.941 484.397C190.941 484.882 191.094 485.357 191.38 485.76C191.667 486.164 192.074 486.479 192.55 486.665C193.026 486.85 193.551 486.899 194.056 486.804C194.562 486.71 195.026 486.476 195.391 486.132C195.756 485.789 196.004 485.352 196.104 484.876C196.205 484.399 196.153 483.906 195.956 483.457C195.759 483.009 195.425 482.625 194.996 482.356C194.567 482.086 194.063 481.942 193.548 481.942C192.856 481.942 192.193 482.2 191.704 482.661C191.216 483.121 190.941 483.746 190.941 484.397Z" fill="white" stroke="#2E353A" stroke-linecap="round" stroke-linejoin="round"/>
</svg>