<svg width="579" height="528" viewBox="0 0 579 528" fill="none" xmlns="http://www.w3.org/2000/svg">
<path d="M86.6179 235.224C86.6179 235.224 79.5425 307.148 138.728 361.395C197.913 415.642 288.342 428.029 361.296 439.835C434.25 451.641 495.797 419.232 512.021 362.609C528.244 305.987 474.282 283.599 452.546 215.213C430.81 146.826 436.403 125.59 377.276 78.9888C318.148 32.3875 213.871 47.161 151.698 110.88C89.5245 174.599 86.6179 235.224 86.6179 235.224Z" fill="#92E3A9"/>
<path opacity="0.7" d="M86.6179 235.224C86.6179 235.224 79.5425 307.148 138.728 361.395C197.913 415.642 288.342 428.029 361.296 439.835C434.25 451.641 495.797 419.232 512.021 362.609C528.244 305.987 474.282 283.599 452.546 215.213C430.81 146.826 436.403 125.59 377.276 78.9888C318.148 32.3875 213.871 47.161 151.698 110.88C89.5245 174.599 86.6179 235.224 86.6179 235.224Z" fill="white"/>
<path d="M530.364 456.973C530.364 459.645 426.144 461.82 297.606 461.82C169.068 461.82 64.8477 459.645 64.8477 456.973C64.8477 454.302 169.068 452.126 297.606 452.126C426.144 452.126 530.364 454.291 530.364 456.973Z" fill="#92E3A9"/>
<path opacity="0.6" d="M530.364 456.973C530.364 459.645 426.144 461.82 297.606 461.82C169.068 461.82 64.8477 459.645 64.8477 456.973C64.8477 454.302 169.068 452.126 297.606 452.126C426.144 452.126 530.364 454.291 530.364 456.973Z" fill="white"/>
<path d="M446.617 288.193C446.548 288.193 447.393 284.37 447.474 284.127C448.447 281.403 452.106 276.64 455.58 276.651C456.165 276.667 456.74 276.795 457.267 277.026C457.794 277.258 458.262 277.588 458.64 277.996C459.018 278.403 459.297 278.878 459.461 279.391C459.624 279.903 459.667 280.441 459.587 280.97C459.332 283.23 457.109 285.194 455.094 286.25C452.778 287.57 446.617 288.193 446.617 288.193Z" fill="#92E3A9"/>
<path d="M439.785 262.437C443.109 263.493 444.753 269.122 444.649 271.941C444.649 272.184 444.012 276.049 443.954 276.028H443.885C444.163 276.904 444.429 277.855 444.707 278.9C445.205 280.822 445.749 283.008 446.166 285.416C446.651 288.012 446.964 290.632 447.104 293.262C447.287 296.204 447.178 299.155 446.78 302.079C446.784 302.115 446.784 302.15 446.78 302.185C447.22 301.33 448.517 299.017 448.644 298.806C450.37 296.398 455.256 292.692 458.649 293.526C459.209 293.682 459.727 293.943 460.169 294.293C460.611 294.644 460.967 295.075 461.214 295.559C461.461 296.043 461.593 296.57 461.602 297.104C461.611 297.637 461.497 298.167 461.266 298.658C460.375 300.77 457.665 302.101 455.407 302.681C452.859 303.347 447.174 302.565 446.722 302.502C446.235 305.466 445.535 308.397 444.626 311.277C444.105 312.956 443.526 314.635 442.912 316.314C443.317 315.586 443.676 314.942 443.746 314.857C445.471 312.46 450.358 308.743 453.751 309.577C454.311 309.733 454.829 309.994 455.271 310.345C455.713 310.695 456.069 311.126 456.316 311.61C456.562 312.095 456.695 312.621 456.704 313.155C456.713 313.689 456.598 314.218 456.368 314.709C455.465 316.821 452.767 318.152 450.509 318.733C448.25 319.313 443.352 318.733 442.067 318.585L441.349 320.507C440.191 323.58 439.033 326.642 437.956 329.673C437.585 330.729 437.261 331.785 436.937 332.841C437.284 332.197 437.597 331.647 437.655 331.574C439.38 329.176 444.267 325.459 447.66 326.294C448.22 326.449 448.738 326.711 449.18 327.061C449.622 327.411 449.978 327.843 450.224 328.327C450.471 328.811 450.604 329.337 450.613 329.871C450.622 330.405 450.507 330.935 450.277 331.426C449.374 333.538 446.676 334.868 444.417 335.449C442.159 336.03 437.736 335.523 436.207 335.333C435.906 336.389 435.605 337.529 435.374 338.606C435.223 339.346 435.038 340.053 434.933 340.803C434.829 341.553 434.702 342.271 434.598 342.999C434.436 344.404 434.262 345.851 434.146 347.223C434.053 348.184 433.984 349.093 433.914 350.011C434.273 348.955 435.072 346.843 435.072 346.706C436.316 344.447 438.174 342.516 440.469 341.099C440.596 340.845 440.748 340.601 440.92 340.37C441.239 339.921 441.658 339.539 442.15 339.248C442.641 338.957 443.195 338.764 443.774 338.681C444.353 338.598 444.945 338.628 445.511 338.768C446.077 338.908 446.604 339.155 447.058 339.494C449.721 341.606 449.061 347.361 447.834 350.001C447.764 350.159 446.768 351.775 446.12 352.778C446.595 352.239 447.058 351.722 447.556 351.162C448.54 350.106 449.547 349.05 450.636 347.857L452.28 346.22C452.825 345.661 453.438 345.164 454.064 344.594C455.476 343.348 456.97 342.155 458.51 340.972C457.457 340.191 453.774 337.36 452.72 335.428C451.667 333.495 450.914 330.803 452.014 328.775C452.253 328.287 452.603 327.851 453.041 327.495C453.478 327.139 453.993 326.872 454.552 326.71C455.111 326.549 455.701 326.497 456.283 326.558C456.866 326.619 457.427 326.791 457.931 327.064C460.919 328.765 461.22 334.562 460.444 337.339C460.444 337.519 459.599 339.451 459.136 340.507C460.062 339.8 460.988 339.103 461.95 338.395C464.74 336.431 467.624 334.53 470.496 332.608C471.376 332.028 472.244 331.426 473.124 330.834C472.742 330.56 468.284 327.276 467.103 325.121C466.049 323.21 465.296 320.496 466.396 318.458C466.639 317.972 466.99 317.538 467.428 317.184C467.866 316.83 468.38 316.564 468.938 316.403C469.496 316.242 470.084 316.189 470.666 316.248C471.247 316.308 471.809 316.478 472.314 316.747C475.301 318.458 475.602 324.255 474.827 327.033C474.769 327.244 473.611 330.032 473.275 330.729C475.197 329.43 477.096 328.11 478.914 326.748C481.365 324.909 483.686 322.93 485.862 320.823C485.677 320.697 481.022 317.286 479.806 315.079C478.752 313.157 477.988 310.454 479.1 308.415C479.342 307.93 479.693 307.496 480.131 307.142C480.569 306.788 481.083 306.522 481.641 306.36C482.199 306.199 482.788 306.147 483.369 306.206C483.951 306.265 484.512 306.435 485.017 306.705C488.005 308.415 488.294 314.202 487.53 316.99C487.472 317.17 486.592 319.303 486.152 320.306L486.326 320.401C488.454 318.221 490.368 315.875 492.046 313.389C492.984 312.027 493.806 310.686 494.57 309.355C493.621 308.806 489.359 306.187 488.028 304.35C486.696 302.512 485.712 299.936 486.522 297.803C486.703 297.295 487 296.828 487.392 296.431C487.784 296.035 488.263 295.718 488.799 295.502C489.334 295.286 489.913 295.175 490.499 295.177C491.084 295.178 491.663 295.292 492.197 295.511C495.369 296.916 496.365 302.639 495.937 305.48C495.937 305.638 495.474 307.18 495.149 308.31C495.485 307.708 495.833 307.085 496.145 306.504C497.303 304.318 498.218 302.28 499.017 300.4C499.457 299.344 499.828 298.394 500.175 297.496C499.561 296.514 497.153 292.533 496.921 290.347C496.69 288.161 497.06 285.437 498.89 283.906C499.306 283.529 499.805 283.237 500.353 283.049C500.902 282.861 501.488 282.781 502.073 282.814C502.658 282.847 503.229 282.992 503.748 283.24C504.267 283.488 504.723 283.834 505.085 284.254C507.204 286.831 505.189 292.322 503.371 294.666C503.209 294.867 500.349 297.782 500.314 297.729V297.665C500.001 298.542 499.654 299.471 499.26 300.474C498.508 302.333 497.639 304.434 496.527 306.652C495.358 309.058 494.036 311.399 492.567 313.664C490.939 316.206 489.063 318.609 486.962 320.845L486.881 320.929C487.761 320.433 490.274 319.123 490.483 319.049C493.366 317.909 499.689 317.275 502.005 319.694C502.378 320.105 502.652 320.583 502.809 321.097C502.966 321.611 503.003 322.15 502.917 322.678C502.83 323.206 502.623 323.712 502.308 324.162C501.994 324.612 501.579 324.996 501.09 325.29C499.052 326.61 496.006 326.346 493.76 325.702C491.235 324.974 486.962 321.478 486.627 321.172C484.428 323.404 482.068 325.5 479.563 327.445C478.115 328.585 476.61 329.694 475.093 330.792C475.869 330.38 476.564 330.021 476.668 329.99C479.563 328.849 485.932 328.215 488.248 330.634C488.62 331.046 488.894 331.524 489.05 332.039C489.206 332.554 489.242 333.093 489.154 333.621C489.067 334.149 488.859 334.654 488.543 335.104C488.227 335.553 487.811 335.937 487.321 336.23C485.283 337.55 482.238 337.286 479.991 336.642C477.745 335.998 474.016 333.052 473.043 332.27L471.306 333.696C468.481 335.671 465.644 337.624 462.934 339.631C461.973 340.338 461.058 341.056 460.143 341.743L461.51 341.046C464.405 339.916 470.774 339.272 473.09 341.701C473.462 342.112 473.736 342.591 473.892 343.106C474.048 343.621 474.084 344.16 473.996 344.688C473.909 345.216 473.7 345.721 473.385 346.171C473.069 346.62 472.653 347.004 472.163 347.297C470.137 348.607 467.08 348.353 464.845 347.699C462.61 347.044 459.217 344.404 458.07 343.475C457.155 344.235 456.229 345.006 455.384 345.787C454.816 346.326 454.226 346.843 453.693 347.392L452.083 349.061C451.099 350.117 450.08 351.268 449.154 352.356C448.494 353.105 447.891 353.834 447.278 354.563C448.216 353.855 450.103 352.503 450.265 352.451C452.94 350.93 459.078 349.43 461.776 351.5C462.212 351.858 462.561 352.295 462.8 352.783C463.039 353.272 463.162 353.801 463.162 354.336C463.162 354.87 463.039 355.399 462.8 355.888C462.561 356.376 462.212 356.813 461.776 357.171C459.993 358.744 456.935 358.913 454.608 358.575C452.049 358.216 447.417 355.46 446.838 355.122C445.83 356.326 444.858 357.519 443.966 358.649C440.851 362.578 438.419 365.957 436.752 368.343L436.589 368.586L434.436 367.636C434.54 367.478 434.656 367.33 434.771 367.161C436.508 364.785 439.044 361.427 442.287 357.519C443.306 356.284 444.429 354.985 445.587 353.654C444.386 352.459 443.268 351.197 442.24 349.874C439.762 350.761 434.609 350.803 433.938 350.803C433.833 352.324 433.741 353.802 433.683 355.196C433.451 360.043 433.474 364.077 433.521 366.907C433.521 367.023 433.521 367.129 433.521 367.235L431.147 366.179C431.147 363.37 431.263 359.579 431.575 355.091C431.679 353.538 431.83 351.923 431.992 350.201C431.344 350.054 425.971 348.797 423.956 347.318C421.941 345.84 420.181 343.813 420.25 341.542C420.245 341.004 420.365 340.472 420.602 339.979C420.839 339.487 421.188 339.046 421.626 338.686C422.063 338.326 422.58 338.054 423.141 337.889C423.703 337.725 424.296 337.67 424.882 337.73C428.356 338.142 431.309 343.285 431.888 346.104C431.888 346.273 432.073 348.121 432.143 349.272C432.212 348.586 432.27 347.91 432.351 347.16C432.513 345.756 432.71 344.351 432.919 342.852C433.046 342.123 433.185 341.394 433.312 340.655C433.44 339.916 433.648 339.156 433.81 338.406C434.239 336.653 434.76 334.91 435.327 333.126C433.984 332.999 429.201 332.482 427.152 331.405C425.102 330.327 422.844 328.458 422.52 326.209C422.426 325.682 422.456 325.142 422.606 324.626C422.756 324.11 423.024 323.628 423.393 323.213C423.761 322.797 424.221 322.457 424.743 322.215C425.265 321.972 425.837 321.833 426.422 321.806C429.896 321.732 433.694 326.41 434.737 329.113C434.806 329.282 435.304 331.31 435.559 332.418C435.906 331.362 436.254 330.306 436.647 329.25C437.805 326.209 439.044 323.157 440.272 320.116C440.654 319.187 441.025 318.247 441.43 317.318C440.944 317.318 435.246 316.779 432.953 315.575C430.915 314.519 428.646 312.629 428.321 310.38C428.228 309.852 428.257 309.313 428.408 308.797C428.558 308.28 428.826 307.799 429.194 307.383C429.562 306.968 430.023 306.628 430.545 306.385C431.067 306.143 431.639 306.003 432.224 305.976C435.698 305.892 439.496 310.58 440.538 313.284C440.619 313.495 441.337 316.399 441.476 317.149C442.298 315.1 443.086 313.041 443.792 310.992C444.743 308.225 445.49 305.402 446.027 302.544C445.807 302.544 439.855 302.027 437.504 300.791C435.466 299.735 433.196 297.845 432.872 295.596C432.779 295.068 432.808 294.529 432.959 294.013C433.109 293.496 433.377 293.015 433.745 292.599C434.113 292.184 434.574 291.844 435.095 291.601C435.617 291.359 436.19 291.219 436.775 291.192C440.307 291.118 444.058 295.796 445.089 298.5C445.159 298.679 445.714 300.897 445.946 301.953H446.154C446.613 299.065 446.792 296.146 446.687 293.23C446.687 291.625 446.513 290.062 446.351 288.594C445.193 288.594 440.121 288.594 437.863 287.718C435.605 286.841 433.231 285.215 432.652 283.008C432.497 282.494 432.462 281.955 432.549 281.428C432.637 280.9 432.845 280.396 433.161 279.946C433.477 279.497 433.892 279.113 434.381 278.82C434.87 278.527 435.421 278.332 435.999 278.246C439.473 277.813 443.781 282.089 445.147 284.677C445.217 284.814 445.796 286.324 446.201 287.433C446.108 286.757 446.039 286.06 445.934 285.426C445.575 283.008 445.089 280.822 444.638 278.89C444.371 277.834 444.105 276.778 443.85 275.891C442.692 275.373 438.326 273.261 436.809 271.561C435.292 269.861 433.961 267.337 434.551 265.225C434.681 264.722 434.922 264.248 435.259 263.832C435.596 263.416 436.023 263.067 436.512 262.807C437.002 262.546 437.544 262.379 438.107 262.315C438.67 262.252 439.241 262.293 439.785 262.437Z" fill="#92E3A9"/>
<path d="M503.522 311.995C500.766 311.89 495.254 309.313 495.254 309.313C495.254 309.313 498.218 306.515 498.427 306.367C500.893 304.572 506.799 302.438 509.74 304.255C510.218 304.564 510.618 304.961 510.917 305.421C511.216 305.88 511.405 306.391 511.474 306.921C511.543 307.452 511.489 307.989 511.316 308.499C511.143 309.009 510.855 309.481 510.47 309.883C508.884 311.594 505.873 312.08 503.522 311.995Z" fill="#92E3A9"/>
<g opacity="0.5">
<path d="M446.617 288.193C446.548 288.193 447.393 284.37 447.474 284.127C448.447 281.403 452.106 276.64 455.58 276.651C456.165 276.667 456.74 276.795 457.267 277.026C457.794 277.258 458.262 277.588 458.64 277.996C459.018 278.403 459.297 278.878 459.461 279.391C459.624 279.903 459.667 280.441 459.587 280.97C459.332 283.23 457.109 285.194 455.094 286.25C452.778 287.57 446.617 288.193 446.617 288.193Z" fill="white"/>
<path d="M439.785 262.437C443.109 263.493 444.753 269.122 444.649 271.941C444.649 272.184 444.012 276.049 443.954 276.028H443.885C444.163 276.904 444.429 277.855 444.707 278.9C445.205 280.822 445.749 283.008 446.166 285.416C446.651 288.012 446.964 290.632 447.104 293.262C447.287 296.204 447.178 299.155 446.78 302.079C446.784 302.115 446.784 302.15 446.78 302.185C447.22 301.33 448.517 299.017 448.644 298.806C450.37 296.398 455.256 292.692 458.649 293.526C459.209 293.682 459.727 293.943 460.169 294.293C460.611 294.644 460.967 295.075 461.214 295.559C461.461 296.043 461.593 296.57 461.602 297.104C461.611 297.637 461.497 298.167 461.266 298.658C460.375 300.77 457.665 302.101 455.407 302.681C452.859 303.347 447.174 302.565 446.722 302.502C446.235 305.466 445.535 308.397 444.626 311.277C444.105 312.956 443.526 314.635 442.912 316.314C443.317 315.586 443.676 314.942 443.746 314.857C445.471 312.46 450.358 308.743 453.751 309.577C454.311 309.733 454.829 309.994 455.271 310.345C455.713 310.695 456.069 311.126 456.316 311.61C456.562 312.095 456.695 312.621 456.704 313.155C456.713 313.689 456.598 314.218 456.368 314.709C455.465 316.821 452.767 318.152 450.509 318.733C448.25 319.313 443.352 318.733 442.067 318.585L441.349 320.507C440.191 323.58 439.033 326.642 437.956 329.673C437.585 330.729 437.261 331.785 436.937 332.841C437.284 332.197 437.597 331.647 437.655 331.574C439.38 329.176 444.267 325.459 447.66 326.294C448.22 326.449 448.738 326.711 449.18 327.061C449.622 327.411 449.978 327.843 450.224 328.327C450.471 328.811 450.604 329.337 450.613 329.871C450.622 330.405 450.507 330.935 450.277 331.426C449.374 333.538 446.676 334.868 444.417 335.449C442.159 336.03 437.736 335.523 436.207 335.333C435.906 336.389 435.605 337.529 435.374 338.606C435.223 339.346 435.038 340.053 434.933 340.803C434.829 341.553 434.702 342.271 434.598 342.999C434.436 344.404 434.262 345.851 434.146 347.223C434.053 348.184 433.984 349.093 433.914 350.011C434.273 348.955 435.072 346.843 435.072 346.706C436.316 344.447 438.174 342.516 440.469 341.099C440.596 340.845 440.748 340.601 440.92 340.37C441.239 339.921 441.658 339.539 442.15 339.248C442.641 338.957 443.195 338.764 443.774 338.681C444.353 338.598 444.945 338.628 445.511 338.768C446.077 338.908 446.604 339.155 447.058 339.494C449.721 341.606 449.061 347.361 447.834 350.001C447.764 350.159 446.768 351.775 446.12 352.778C446.595 352.239 447.058 351.722 447.556 351.162C448.54 350.106 449.547 349.05 450.636 347.857L452.28 346.22C452.825 345.661 453.438 345.164 454.064 344.594C455.476 343.348 456.97 342.155 458.51 340.972C457.457 340.191 453.774 337.36 452.72 335.428C451.667 333.495 450.914 330.803 452.014 328.775C452.253 328.287 452.603 327.851 453.041 327.495C453.478 327.139 453.993 326.872 454.552 326.71C455.111 326.549 455.701 326.497 456.283 326.558C456.866 326.619 457.427 326.791 457.931 327.064C460.919 328.765 461.22 334.562 460.444 337.339C460.444 337.519 459.599 339.451 459.136 340.507C460.062 339.8 460.988 339.103 461.95 338.395C464.74 336.431 467.624 334.53 470.496 332.608C471.376 332.028 472.244 331.426 473.124 330.834C472.742 330.56 468.284 327.276 467.103 325.121C466.049 323.21 465.296 320.496 466.396 318.458C466.639 317.972 466.99 317.538 467.428 317.184C467.866 316.83 468.38 316.564 468.938 316.403C469.496 316.242 470.084 316.189 470.666 316.248C471.247 316.308 471.809 316.478 472.314 316.747C475.301 318.458 475.602 324.255 474.827 327.033C474.769 327.244 473.611 330.032 473.275 330.729C475.197 329.43 477.096 328.11 478.914 326.748C481.365 324.909 483.686 322.93 485.862 320.823C485.677 320.697 481.022 317.286 479.806 315.079C478.752 313.157 477.988 310.454 479.1 308.415C479.342 307.93 479.693 307.496 480.131 307.142C480.569 306.788 481.083 306.522 481.641 306.36C482.199 306.199 482.788 306.147 483.369 306.206C483.951 306.265 484.512 306.435 485.017 306.705C488.005 308.415 488.294 314.202 487.53 316.99C487.472 317.17 486.592 319.303 486.152 320.306L486.326 320.401C488.454 318.221 490.368 315.875 492.046 313.389C492.984 312.027 493.806 310.686 494.57 309.355C493.621 308.806 489.359 306.187 488.028 304.35C486.696 302.512 485.712 299.936 486.522 297.803C486.703 297.295 487 296.828 487.392 296.431C487.784 296.035 488.263 295.718 488.799 295.502C489.334 295.286 489.913 295.175 490.499 295.177C491.084 295.178 491.663 295.292 492.197 295.511C495.369 296.916 496.365 302.639 495.937 305.48C495.937 305.638 495.474 307.18 495.149 308.31C495.485 307.708 495.833 307.085 496.145 306.504C497.303 304.318 498.218 302.28 499.017 300.4C499.457 299.344 499.828 298.394 500.175 297.496C499.561 296.514 497.153 292.533 496.921 290.347C496.69 288.161 497.06 285.437 498.89 283.906C499.306 283.529 499.805 283.237 500.353 283.049C500.902 282.861 501.488 282.781 502.073 282.814C502.658 282.847 503.229 282.992 503.748 283.24C504.267 283.488 504.723 283.834 505.085 284.254C507.204 286.831 505.189 292.322 503.371 294.666C503.209 294.867 500.349 297.782 500.314 297.729V297.665C500.001 298.542 499.654 299.471 499.26 300.474C498.508 302.333 497.639 304.434 496.527 306.652C495.358 309.058 494.036 311.399 492.567 313.664C490.939 316.206 489.063 318.609 486.962 320.845L486.881 320.929C487.761 320.433 490.274 319.123 490.483 319.049C493.366 317.909 499.689 317.275 502.005 319.694C502.378 320.105 502.652 320.583 502.809 321.097C502.966 321.611 503.003 322.15 502.917 322.678C502.83 323.206 502.623 323.712 502.308 324.162C501.994 324.612 501.579 324.996 501.09 325.29C499.052 326.61 496.006 326.346 493.76 325.702C491.235 324.974 486.962 321.478 486.627 321.172C484.428 323.404 482.068 325.5 479.563 327.445C478.115 328.585 476.61 329.694 475.093 330.792C475.869 330.38 476.564 330.021 476.668 329.99C479.563 328.849 485.932 328.215 488.248 330.634C488.62 331.046 488.894 331.524 489.05 332.039C489.206 332.554 489.242 333.093 489.154 333.621C489.067 334.149 488.859 334.654 488.543 335.104C488.227 335.553 487.811 335.937 487.321 336.23C485.283 337.55 482.238 337.286 479.991 336.642C477.745 335.998 474.016 333.052 473.043 332.27L471.306 333.696C468.481 335.671 465.644 337.624 462.934 339.631C461.973 340.338 461.058 341.056 460.143 341.743L461.51 341.046C464.405 339.916 470.774 339.272 473.09 341.701C473.462 342.112 473.736 342.591 473.892 343.106C474.048 343.621 474.084 344.16 473.996 344.688C473.909 345.216 473.7 345.721 473.385 346.171C473.069 346.62 472.653 347.004 472.163 347.297C470.137 348.607 467.08 348.353 464.845 347.699C462.61 347.044 459.217 344.404 458.07 343.475C457.155 344.235 456.229 345.006 455.384 345.787C454.816 346.326 454.226 346.843 453.693 347.392L452.083 349.061C451.099 350.117 450.08 351.268 449.154 352.356C448.494 353.105 447.891 353.834 447.278 354.563C448.216 353.855 450.103 352.503 450.265 352.451C452.94 350.93 459.078 349.43 461.776 351.5C462.212 351.858 462.561 352.295 462.8 352.783C463.039 353.272 463.162 353.801 463.162 354.336C463.162 354.87 463.039 355.399 462.8 355.888C462.561 356.376 462.212 356.813 461.776 357.171C459.993 358.744 456.935 358.913 454.608 358.575C452.049 358.216 447.417 355.46 446.838 355.122C445.83 356.326 444.858 357.519 443.966 358.649C440.851 362.578 438.419 365.957 436.752 368.343L436.589 368.586L434.436 367.636C434.54 367.478 434.656 367.33 434.771 367.161C436.508 364.785 439.044 361.427 442.287 357.519C443.306 356.284 444.429 354.985 445.587 353.654C444.386 352.459 443.268 351.197 442.24 349.874C439.762 350.761 434.609 350.803 433.938 350.803C433.833 352.324 433.741 353.802 433.683 355.196C433.451 360.043 433.474 364.077 433.521 366.907C433.521 367.023 433.521 367.129 433.521 367.235L431.147 366.179C431.147 363.37 431.263 359.579 431.575 355.091C431.679 353.538 431.83 351.923 431.992 350.201C431.344 350.054 425.971 348.797 423.956 347.318C421.941 345.84 420.181 343.813 420.25 341.542C420.245 341.004 420.365 340.472 420.602 339.979C420.839 339.487 421.188 339.046 421.626 338.686C422.063 338.326 422.58 338.054 423.141 337.889C423.703 337.725 424.296 337.67 424.882 337.73C428.356 338.142 431.309 343.285 431.888 346.104C431.888 346.273 432.073 348.121 432.143 349.272C432.212 348.586 432.27 347.91 432.351 347.16C432.513 345.756 432.71 344.351 432.919 342.852C433.046 342.123 433.185 341.394 433.312 340.655C433.44 339.916 433.648 339.156 433.81 338.406C434.239 336.653 434.76 334.91 435.327 333.126C433.984 332.999 429.201 332.482 427.152 331.405C425.102 330.327 422.844 328.458 422.52 326.209C422.426 325.682 422.456 325.142 422.606 324.626C422.756 324.11 423.024 323.628 423.393 323.213C423.761 322.797 424.221 322.457 424.743 322.215C425.265 321.972 425.837 321.833 426.422 321.806C429.896 321.732 433.694 326.41 434.737 329.113C434.806 329.282 435.304 331.31 435.559 332.418C435.906 331.362 436.254 330.306 436.647 329.25C437.805 326.209 439.044 323.157 440.272 320.116C440.654 319.187 441.025 318.247 441.43 317.318C440.944 317.318 435.246 316.779 432.953 315.575C430.915 314.519 428.646 312.629 428.321 310.38C428.228 309.852 428.257 309.313 428.408 308.797C428.558 308.28 428.826 307.799 429.194 307.383C429.562 306.968 430.023 306.628 430.545 306.385C431.067 306.143 431.639 306.003 432.224 305.976C435.698 305.892 439.496 310.58 440.538 313.284C440.619 313.495 441.337 316.399 441.476 317.149C442.298 315.1 443.086 313.041 443.792 310.992C444.743 308.225 445.49 305.402 446.027 302.544C445.807 302.544 439.855 302.027 437.504 300.791C435.466 299.735 433.196 297.845 432.872 295.596C432.779 295.068 432.808 294.529 432.959 294.013C433.109 293.496 433.377 293.015 433.745 292.599C434.113 292.184 434.574 291.844 435.095 291.601C435.617 291.359 436.19 291.219 436.775 291.192C440.307 291.118 444.058 295.796 445.089 298.5C445.159 298.679 445.714 300.897 445.946 301.953H446.154C446.613 299.065 446.792 296.146 446.687 293.23C446.687 291.625 446.513 290.062 446.351 288.594C445.193 288.594 440.121 288.594 437.863 287.718C435.605 286.841 433.231 285.215 432.652 283.008C432.497 282.494 432.462 281.955 432.549 281.428C432.637 280.9 432.845 280.396 433.161 279.946C433.477 279.497 433.892 279.113 434.381 278.82C434.87 278.527 435.421 278.332 435.999 278.246C439.473 277.813 443.781 282.089 445.147 284.677C445.217 284.814 445.796 286.324 446.201 287.433C446.108 286.757 446.039 286.06 445.934 285.426C445.575 283.008 445.089 280.822 444.638 278.89C444.371 277.834 444.105 276.778 443.85 275.891C442.692 275.373 438.326 273.261 436.809 271.561C435.292 269.861 433.961 267.337 434.551 265.225C434.681 264.722 434.922 264.248 435.259 263.832C435.596 263.416 436.023 263.067 436.512 262.807C437.002 262.546 437.544 262.379 438.107 262.315C438.67 262.252 439.241 262.293 439.785 262.437Z" fill="white"/>
<path d="M503.522 311.995C500.766 311.89 495.254 309.313 495.254 309.313C495.254 309.313 498.218 306.515 498.427 306.367C500.893 304.572 506.799 302.438 509.74 304.255C510.218 304.564 510.618 304.961 510.917 305.421C511.216 305.88 511.405 306.391 511.474 306.921C511.543 307.452 511.489 307.989 511.316 308.499C511.143 309.01 510.855 309.481 510.47 309.883C508.884 311.594 505.873 312.08 503.522 311.995Z" fill="white"/>
</g>
<path d="M471.306 374.88C471.306 374.88 454.585 338.131 445.228 339.726C435.871 341.32 461.278 398.313 461.278 398.313C461.278 398.313 431.934 347.741 411.854 347.741C391.775 347.741 419.208 403.709 444.603 422.305C444.603 422.305 404.49 382.895 381.098 391.417C357.706 399.939 427.893 439.877 427.893 439.877C427.893 439.877 387.108 428.166 391.798 437.216C396.488 446.266 409.168 447.871 409.168 447.871L363.033 449.983H523.497L487.391 446.815C487.391 446.815 524.829 429.771 514.801 422.844C504.772 415.916 482.713 430.848 482.713 430.848C482.713 430.848 520.822 392.494 513.469 378.122C506.116 363.75 473.356 404.216 473.356 404.216C473.356 404.216 500.094 352.556 494.744 343.496C489.394 334.435 471.306 374.88 471.306 374.88Z" fill="#92E3A9"/>
<path opacity="0.4" d="M471.306 374.88C471.306 374.88 454.585 338.131 445.228 339.726C435.871 341.32 461.278 398.313 461.278 398.313C461.278 398.313 431.934 347.741 411.854 347.741C391.775 347.741 419.208 403.709 444.603 422.305C444.603 422.305 404.49 382.895 381.098 391.417C357.706 399.939 427.893 439.877 427.893 439.877C427.893 439.877 387.108 428.166 391.798 437.216C396.488 446.266 409.168 447.871 409.168 447.871L363.033 449.983H523.497L487.391 446.815C487.391 446.815 524.829 429.771 514.801 422.844C504.772 415.916 482.713 430.848 482.713 430.848C482.713 430.848 520.822 392.494 513.469 378.122C506.116 363.75 473.356 404.216 473.356 404.216C473.356 404.216 500.094 352.556 494.744 343.496C489.394 334.435 471.306 374.88 471.306 374.88Z" fill="white"/>
<path d="M476.702 376.844C462.042 416.465 462.042 444.513 462.042 444.513C462.042 444.513 479.412 445.125 497.465 432.897" stroke="#263238" stroke-linecap="round" stroke-linejoin="round"/>
<path d="M469.349 398.175C466.315 386.327 462.289 374.709 457.306 363.422" stroke="#263238" stroke-linecap="round" stroke-linejoin="round"/>
<path d="M425.89 375.007L463.328 425.568C463.328 425.568 488.734 406.064 497.419 395.092" stroke="#263238" stroke-linecap="round" stroke-linejoin="round"/>
<path d="M462.656 437.807C462.656 437.807 423.215 420.732 407.165 410.985" stroke="#263238" stroke-linecap="round" stroke-linejoin="round"/>
<path d="M269.422 96.8198L260.609 84H183V96.8198V101.435V326.352H502.457V96.8198H269.422Z" fill="#263238"/>
<path d="M500.35 102.702H185.374V321.695H500.35V102.702Z" fill="white"/>
<mask id="mask0_265_419" style="mask-type:luminance" maskUnits="userSpaceOnUse" x="185" y="102" width="316" height="220">
<path d="M500.35 102.702H185.374V321.695H500.35V102.702Z" fill="white"/>
</mask>
<g mask="url(#mask0_265_419)">
<path opacity="0.17" d="M501.89 100.928H494.583V323.279H501.89V100.928Z" fill="black"/>
<path opacity="0.17" d="M501.89 228.376H494.583V321.558H501.89V228.376Z" fill="black"/>
<path d="M500.767 99.8928H184.123V123.357H500.767V99.8928Z" fill="#92E3A9"/>
<path d="M411.971 107.369H280.434V120.759H411.971V107.369Z" fill="white"/>
<path d="M265.762 107.369H245.104V120.759H265.762V107.369Z" fill="white"/>
<path opacity="0.3" d="M411.971 107.369H394.821V120.759H411.971V107.369Z" fill="black"/>
<path d="M401.596 116.187C403.674 116.187 405.359 114.65 405.359 112.755C405.359 110.859 403.674 109.323 401.596 109.323C399.517 109.323 397.832 110.859 397.832 112.755C397.832 114.65 399.517 116.187 401.596 116.187Z" stroke="white" stroke-miterlimit="10"/>
<path d="M404.271 115.184L407.791 118.383" stroke="white" stroke-linecap="round" stroke-linejoin="round"/>
<path opacity="0.3" d="M302.112 143.812H274.957V168.575H302.112V143.812Z" fill="black"/>
<path d="M308.771 147.55H330.796" stroke="#263238" stroke-width="2" stroke-linecap="round" stroke-linejoin="round"/>
<path opacity="0.3" d="M308.771 155.016H354.882" stroke="#263238" stroke-width="2" stroke-linecap="round" stroke-linejoin="round"/>
<path opacity="0.3" d="M308.771 159.462H374.348" stroke="#263238" stroke-width="2" stroke-linecap="round" stroke-linejoin="round"/>
<path d="M399.441 152.218H379.466V160.159H399.441V152.218Z" fill="#92E3A9"/>
<path opacity="0.3" d="M421.478 152.218H401.503V160.159H421.478V152.218Z" fill="black"/>
<path opacity="0.3" d="M302.112 178.85H274.957V203.613H302.112V178.85Z" fill="black"/>
<path d="M308.771 182.588H330.796" stroke="#263238" stroke-width="2" stroke-linecap="round" stroke-linejoin="round"/>
<path opacity="0.3" d="M308.771 190.065H354.882" stroke="#263238" stroke-width="2" stroke-linecap="round" stroke-linejoin="round"/>
<path opacity="0.3" d="M308.771 194.5H374.348" stroke="#263238" stroke-width="2" stroke-linecap="round" stroke-linejoin="round"/>
<path d="M399.441 187.256H379.466V195.197H399.441V187.256Z" fill="#92E3A9"/>
<path opacity="0.3" d="M421.478 187.256H401.503V195.197H421.478V187.256Z" fill="black"/>
<path opacity="0.3" d="M302.112 213.888H274.957V238.651H302.112V213.888Z" fill="black"/>
<path d="M308.771 217.626H330.796" stroke="#263238" stroke-width="2" stroke-linecap="round" stroke-linejoin="round"/>
<path opacity="0.3" d="M308.771 225.103H354.882" stroke="#263238" stroke-width="2" stroke-linecap="round" stroke-linejoin="round"/>
<path opacity="0.3" d="M308.771 229.538H374.348" stroke="#263238" stroke-width="2" stroke-linecap="round" stroke-linejoin="round"/>
<path d="M399.441 222.294H379.466V230.235H399.441V222.294Z" fill="#92E3A9"/>
<path opacity="0.3" d="M421.478 222.294H401.503V230.235H421.478V222.294Z" fill="black"/>
<path opacity="0.3" d="M302.112 248.926H274.957V273.689H302.112V248.926Z" fill="black"/>
<path d="M308.771 252.664H330.796" stroke="#263238" stroke-width="2" stroke-linecap="round" stroke-linejoin="round"/>
<path opacity="0.3" d="M308.771 260.141H354.882" stroke="#263238" stroke-width="2" stroke-linecap="round" stroke-linejoin="round"/>
<path opacity="0.3" d="M308.771 264.576H374.348" stroke="#263238" stroke-width="2" stroke-linecap="round" stroke-linejoin="round"/>
<path d="M399.441 257.332H379.466V265.273H399.441V257.332Z" fill="#92E3A9"/>
<path opacity="0.3" d="M421.478 257.332H401.503V265.273H421.478V257.332Z" fill="black"/>
<path opacity="0.3" d="M302.112 283.964H274.957V308.727H302.112V283.964Z" fill="black"/>
<path d="M308.771 287.702H330.796" stroke="#263238" stroke-width="2" stroke-linecap="round" stroke-linejoin="round"/>
<path opacity="0.3" d="M308.771 295.179H354.882" stroke="#263238" stroke-width="2" stroke-linecap="round" stroke-linejoin="round"/>
<path opacity="0.3" d="M308.771 299.614H374.348" stroke="#263238" stroke-width="2" stroke-linecap="round" stroke-linejoin="round"/>
<path d="M399.441 292.37H379.466V300.311H399.441V292.37Z" fill="#92E3A9"/>
<path opacity="0.3" d="M421.478 292.37H401.503V300.311H421.478V292.37Z" fill="black"/>
<path d="M279.971 132.84C281.365 132.84 282.495 131.809 282.495 130.538C282.495 129.267 281.365 128.236 279.971 128.236C278.577 128.236 277.446 129.267 277.446 130.538C277.446 131.809 278.577 132.84 279.971 132.84Z" stroke="#263238" stroke-miterlimit="10"/>
<path d="M281.766 132.164L284.128 134.318" stroke="#263238" stroke-linecap="round" stroke-linejoin="round"/>
<path d="M291.411 133.569H288.91L288.632 134.297C288.575 134.46 288.466 134.603 288.32 134.709C288.265 134.754 288.2 134.788 288.131 134.81C288.061 134.831 287.988 134.84 287.914 134.836C287.771 134.828 287.632 134.788 287.509 134.72C287.444 134.685 287.389 134.637 287.347 134.581C287.305 134.524 287.277 134.46 287.266 134.392C287.21 134.227 287.21 134.051 287.266 133.885L288.817 130.221C288.888 130.031 288.977 129.848 289.084 129.672C289.167 129.542 289.277 129.427 289.408 129.334C289.507 129.261 289.621 129.207 289.744 129.176C289.993 129.105 290.259 129.105 290.508 129.176C290.63 129.209 290.744 129.263 290.844 129.334C290.975 129.427 291.085 129.542 291.168 129.672C291.275 129.848 291.364 130.031 291.435 130.221L292.986 133.885C293.031 134.052 293.031 134.226 292.986 134.392C292.972 134.459 292.944 134.523 292.902 134.579C292.86 134.635 292.806 134.683 292.743 134.72C292.62 134.788 292.481 134.828 292.338 134.836C292.186 134.843 292.037 134.798 291.921 134.709C291.781 134.6 291.676 134.457 291.62 134.297L291.411 133.569ZM290.161 130.337L289.223 132.756H291.076L290.161 130.337Z" fill="#263238"/>
<path d="M294.063 134.646C293.947 134.456 293.895 134.239 293.913 134.023V130.042C293.895 129.825 293.947 129.608 294.063 129.419C294.12 129.349 294.196 129.294 294.283 129.259C294.371 129.224 294.466 129.21 294.561 129.218C294.661 129.21 294.762 129.224 294.854 129.259C294.947 129.294 295.029 129.349 295.094 129.419C295.217 129.606 295.274 129.824 295.256 130.042V134.023C295.274 134.241 295.217 134.458 295.094 134.646C295.029 134.716 294.947 134.77 294.854 134.805C294.762 134.84 294.661 134.854 294.561 134.846C294.466 134.855 294.371 134.841 294.283 134.806C294.196 134.77 294.12 134.715 294.063 134.646Z" fill="#263238"/>
<path d="M296.506 134.646C296.39 134.456 296.338 134.239 296.356 134.023V130.042C296.338 129.825 296.39 129.608 296.506 129.419C296.561 129.349 296.635 129.294 296.72 129.259C296.806 129.223 296.9 129.209 296.993 129.218C297.093 129.208 297.194 129.221 297.287 129.256C297.38 129.291 297.462 129.347 297.526 129.419C297.653 129.605 297.714 129.823 297.699 130.042V134.023C297.714 134.242 297.653 134.46 297.526 134.646C297.462 134.717 297.38 134.773 297.287 134.808C297.194 134.843 297.093 134.856 296.993 134.846C296.9 134.855 296.806 134.841 296.72 134.806C296.635 134.77 296.561 134.715 296.506 134.646Z" fill="#263238"/>
<path d="M301.498 134.635C301.342 134.472 301.263 134.26 301.278 134.044V129.957C301.272 129.85 301.294 129.744 301.342 129.646C301.39 129.549 301.464 129.464 301.556 129.397C301.753 129.264 301.994 129.197 302.239 129.207H303.953C304.196 129.196 304.44 129.196 304.683 129.207C304.903 129.228 305.121 129.271 305.331 129.334C305.523 129.385 305.704 129.467 305.864 129.577C306.01 129.691 306.128 129.831 306.211 129.989C306.299 130.179 306.342 130.384 306.339 130.591C306.339 131.33 305.887 131.773 304.972 131.911C305.161 131.927 305.348 131.962 305.528 132.016C305.669 132.062 305.793 132.143 305.887 132.249C305.989 132.352 306.064 132.475 306.107 132.608C306.16 132.784 306.199 132.964 306.223 133.146L306.304 133.664C306.366 133.955 306.33 134.257 306.2 134.53C306.136 134.623 306.044 134.697 305.935 134.744C305.827 134.791 305.705 134.808 305.586 134.794C305.477 134.801 305.368 134.784 305.267 134.746C305.167 134.707 305.077 134.648 305.007 134.572C304.854 134.354 304.77 134.102 304.764 133.843V133.336C304.754 133.104 304.66 132.881 304.497 132.703C304.398 132.628 304.284 132.571 304.16 132.537C304.037 132.502 303.908 132.491 303.779 132.502H302.899V133.991C302.909 134.1 302.894 134.209 302.856 134.312C302.819 134.416 302.758 134.511 302.679 134.593C302.606 134.661 302.517 134.714 302.419 134.749C302.321 134.783 302.217 134.799 302.112 134.794C302.003 134.812 301.891 134.807 301.785 134.78C301.678 134.753 301.58 134.703 301.498 134.635ZM303.513 131.636C303.667 131.648 303.822 131.648 303.976 131.636C304.115 131.614 304.251 131.579 304.382 131.531C304.507 131.481 304.616 131.401 304.694 131.298C304.768 131.175 304.804 131.037 304.798 130.897C304.812 130.806 304.812 130.714 304.798 130.622C304.773 130.549 304.738 130.478 304.694 130.411C304.647 130.355 304.588 130.308 304.52 130.274L304.312 130.189C304.231 130.181 304.15 130.181 304.069 130.189H303.803H302.853V131.742L303.513 131.636Z" fill="#263238"/>
<path d="M308.214 134.677C307.877 134.529 307.596 134.294 307.403 134.002C307.196 133.66 307.092 133.273 307.102 132.882C307.092 132.514 307.188 132.15 307.38 131.826C307.565 131.526 307.838 131.277 308.168 131.108C308.522 130.929 308.921 130.838 309.326 130.844C309.638 130.839 309.949 130.89 310.24 130.992C310.485 131.081 310.701 131.227 310.866 131.414C311.017 131.592 311.135 131.792 311.213 132.006C311.283 132.244 311.322 132.488 311.329 132.734C311.329 132.946 311.178 133.051 310.901 133.051H308.446C308.432 133.189 308.454 133.327 308.509 133.455C308.564 133.584 308.651 133.699 308.764 133.791C308.876 133.883 309.01 133.95 309.156 133.987C309.302 134.023 309.455 134.028 309.604 134.002C309.803 134.003 310 133.967 310.183 133.896C310.358 133.829 310.521 133.741 310.669 133.632C310.72 133.601 310.781 133.584 310.843 133.584C310.905 133.584 310.965 133.601 311.016 133.632C311.081 133.66 311.138 133.701 311.182 133.753C311.226 133.804 311.257 133.864 311.271 133.928C311.299 133.989 311.305 134.056 311.288 134.121C311.271 134.185 311.233 134.243 311.178 134.287C311.092 134.36 310.999 134.427 310.901 134.487C310.794 134.555 310.681 134.615 310.565 134.667C310.409 134.743 310.241 134.797 310.067 134.825C309.859 134.842 309.649 134.842 309.441 134.825C309.025 134.862 308.606 134.811 308.214 134.677ZM310.206 132.565C310.203 132.323 310.127 132.085 309.986 131.879C309.913 131.793 309.817 131.726 309.708 131.683C309.598 131.641 309.479 131.624 309.36 131.636C309.238 131.63 309.116 131.649 309.003 131.693C308.891 131.737 308.791 131.804 308.712 131.89C308.547 132.084 308.454 132.32 308.446 132.565H310.206Z" fill="#263238"/>
<path d="M312.187 134.424C312.113 134.379 312.06 134.312 312.036 134.234C312.013 134.162 312.013 134.085 312.036 134.012C312.062 133.938 312.106 133.869 312.163 133.812C312.222 133.757 312.3 133.724 312.383 133.717C312.485 133.71 312.586 133.732 312.673 133.78C312.729 133.8 312.784 133.824 312.835 133.854L313.055 133.959L313.333 134.044C313.456 134.055 313.58 134.055 313.704 134.044H313.981L314.271 133.991C314.354 133.975 314.43 133.939 314.491 133.885C314.549 133.828 314.582 133.753 314.584 133.674C314.58 133.633 314.566 133.593 314.541 133.558C314.517 133.523 314.484 133.494 314.445 133.474C314.336 133.398 314.209 133.347 314.074 133.326L313.484 133.178L312.962 133.03C312.822 132.988 312.687 132.935 312.557 132.872C312.436 132.821 312.329 132.745 312.244 132.65C312.168 132.565 312.11 132.469 312.071 132.365C312.022 132.232 311.998 132.093 312.001 131.953C312.005 131.777 312.056 131.605 312.151 131.452C312.246 131.299 312.382 131.17 312.546 131.077C312.978 130.855 313.478 130.766 313.97 130.823C314.137 130.824 314.304 130.842 314.468 130.876L314.815 130.971L315.139 131.098C315.233 131.133 315.31 131.197 315.359 131.277C315.386 131.349 315.386 131.427 315.359 131.499C315.35 131.574 315.322 131.646 315.278 131.71C315.257 131.743 315.229 131.771 315.195 131.793C315.161 131.815 315.122 131.83 315.082 131.837C314.983 131.862 314.879 131.862 314.78 131.837C314.505 131.741 314.217 131.678 313.924 131.647H313.599C313.49 131.649 313.383 131.674 313.287 131.721C313.243 131.734 313.205 131.759 313.178 131.794C313.151 131.828 313.136 131.869 313.136 131.911C313.137 131.952 313.148 131.992 313.168 132.028C313.188 132.065 313.217 132.097 313.252 132.122C313.366 132.187 313.491 132.233 313.622 132.259L314.213 132.386C314.413 132.436 314.61 132.496 314.804 132.565C314.963 132.616 315.112 132.691 315.244 132.787C315.371 132.871 315.471 132.984 315.533 133.115C315.606 133.26 315.642 133.419 315.637 133.579C315.651 133.84 315.565 134.098 315.394 134.308C315.223 134.512 314.989 134.666 314.723 134.751C314.409 134.842 314.078 134.878 313.75 134.857C313.193 134.856 312.65 134.705 312.187 134.424Z" fill="#263238"/>
<path d="M316.795 134.498C316.504 134.211 316.346 133.833 316.355 133.442V131.816C316.34 131.597 316.401 131.379 316.528 131.193C316.592 131.121 316.674 131.066 316.767 131.03C316.86 130.995 316.961 130.982 317.061 130.992C317.156 130.984 317.252 130.998 317.339 131.033C317.426 131.068 317.502 131.123 317.559 131.193C317.675 131.382 317.727 131.599 317.71 131.816V133.421C317.699 133.613 317.77 133.802 317.906 133.949C317.97 134.011 318.047 134.059 318.133 134.09C318.219 134.121 318.312 134.134 318.404 134.128C318.52 134.131 318.635 134.111 318.741 134.069C318.847 134.027 318.942 133.965 319.018 133.885C319.103 133.802 319.17 133.704 319.214 133.597C319.257 133.49 319.277 133.376 319.273 133.262V131.816C319.26 131.598 319.316 131.382 319.435 131.193C319.501 131.109 319.591 131.043 319.695 131.002C319.799 130.961 319.913 130.947 320.026 130.96C320.121 130.951 320.217 130.965 320.304 131C320.391 131.035 320.467 131.091 320.523 131.161C320.647 131.348 320.704 131.566 320.686 131.784V134.192C320.7 134.375 320.638 134.556 320.512 134.699C320.442 134.757 320.36 134.801 320.27 134.829C320.18 134.856 320.085 134.866 319.991 134.857C319.551 134.857 319.331 134.635 319.331 134.181C319.226 134.422 319.044 134.628 318.81 134.773C318.541 134.909 318.237 134.975 317.93 134.963C317.715 134.965 317.502 134.925 317.306 134.845C317.11 134.765 316.935 134.646 316.795 134.498Z" fill="#263238"/>
<path d="M321.867 134.646C321.751 134.456 321.698 134.239 321.716 134.023V130.042C321.698 129.825 321.751 129.608 321.867 129.419C321.921 129.349 321.995 129.294 322.08 129.259C322.166 129.223 322.26 129.209 322.353 129.218C322.455 129.21 322.557 129.224 322.652 129.259C322.746 129.294 322.83 129.348 322.897 129.419C323.021 129.606 323.078 129.824 323.06 130.042V134.023C323.078 134.241 323.021 134.458 322.897 134.646C322.83 134.716 322.746 134.771 322.652 134.805C322.557 134.84 322.455 134.854 322.353 134.846C322.26 134.855 322.166 134.841 322.08 134.806C321.995 134.77 321.921 134.715 321.867 134.646Z" fill="#263238"/>
<path d="M324.728 134.551C324.463 134.226 324.339 133.824 324.38 133.421V131.773H324.114C324.051 131.778 323.988 131.771 323.928 131.753C323.868 131.735 323.813 131.706 323.766 131.668C323.723 131.622 323.69 131.568 323.67 131.51C323.65 131.452 323.643 131.39 323.651 131.33C323.641 131.274 323.645 131.216 323.665 131.162C323.684 131.108 323.717 131.059 323.761 131.019C323.805 130.978 323.859 130.948 323.918 130.931C323.978 130.913 324.041 130.909 324.102 130.918H324.473L324.565 130.158C324.565 129.683 324.832 129.45 325.202 129.45C325.573 129.45 325.735 129.704 325.735 130.232V130.96H326.256C326.546 130.96 326.696 131.108 326.696 131.393C326.706 131.451 326.701 131.51 326.681 131.565C326.661 131.62 326.627 131.671 326.582 131.712C326.537 131.753 326.482 131.784 326.421 131.802C326.361 131.82 326.296 131.825 326.233 131.816H325.735V133.199C325.717 133.434 325.761 133.669 325.862 133.885C325.914 133.951 325.985 134.002 326.067 134.032C326.149 134.062 326.239 134.069 326.326 134.054H326.58C326.656 134.053 326.729 134.075 326.789 134.118C326.847 134.162 326.891 134.221 326.916 134.287C326.922 134.361 326.922 134.435 326.916 134.508C326.916 134.584 326.892 134.657 326.847 134.72C326.806 134.779 326.745 134.823 326.673 134.846C326.354 134.933 326.021 134.969 325.689 134.952C325.507 134.948 325.328 134.91 325.163 134.841C324.998 134.772 324.85 134.673 324.728 134.551Z" fill="#263238"/>
<path d="M327.622 134.424C327.552 134.376 327.5 134.31 327.472 134.234C327.448 134.162 327.448 134.085 327.472 134.012C327.498 133.938 327.541 133.869 327.599 133.812C327.658 133.757 327.736 133.724 327.819 133.717C327.921 133.708 328.022 133.73 328.109 133.78L328.271 133.854L328.491 133.959L328.769 134.044C328.892 134.055 329.016 134.055 329.139 134.044H329.429L329.707 133.991C329.789 133.975 329.866 133.939 329.927 133.885C329.96 133.861 329.988 133.829 330.007 133.794C330.025 133.758 330.035 133.719 330.035 133.68C330.035 133.64 330.025 133.601 330.007 133.565C329.988 133.53 329.96 133.498 329.927 133.474C329.812 133.4 329.682 133.349 329.545 133.326L328.966 133.178L328.433 133.03C328.294 132.986 328.158 132.933 328.028 132.872C327.906 132.821 327.799 132.745 327.715 132.65C327.639 132.565 327.58 132.469 327.541 132.365C327.515 132.229 327.515 132.089 327.541 131.953C327.537 131.777 327.584 131.603 327.677 131.449C327.771 131.295 327.908 131.166 328.074 131.077C328.51 130.853 329.014 130.764 329.51 130.823C329.674 130.824 329.837 130.841 329.996 130.876L330.355 130.971L330.668 131.098C330.761 131.133 330.839 131.197 330.888 131.277C330.934 131.343 330.954 131.421 330.946 131.499C330.94 131.573 330.916 131.645 330.876 131.71C330.827 131.775 330.753 131.821 330.668 131.837C330.573 131.862 330.473 131.862 330.378 131.837C330.098 131.741 329.807 131.678 329.51 131.647H329.186C329.076 131.649 328.969 131.674 328.873 131.721C328.831 131.736 328.796 131.762 328.771 131.796C328.746 131.83 328.733 131.87 328.734 131.911C328.732 131.952 328.742 131.993 328.762 132.03C328.782 132.067 328.812 132.099 328.85 132.122C328.962 132.189 329.088 132.236 329.22 132.259L329.799 132.386C330.004 132.435 330.205 132.495 330.401 132.565C330.556 132.618 330.701 132.693 330.83 132.787C330.957 132.873 331.061 132.985 331.131 133.115C331.195 133.262 331.226 133.42 331.224 133.579C331.245 133.841 331.158 134.101 330.98 134.308C330.811 134.515 330.577 134.669 330.309 134.751C329.995 134.843 329.665 134.879 329.336 134.857C328.729 134.882 328.129 134.73 327.622 134.424Z" fill="#263238"/>
<path opacity="0.3" d="M274.633 138.099H428.427" stroke="#263238" stroke-linecap="round" stroke-linejoin="round"/>
<path opacity="0.3" d="M267.962 125.427V309.372" stroke="#263238" stroke-linecap="round" stroke-linejoin="round"/>
<path opacity="0.3" d="M434.83 125.427V309.372" stroke="#263238" stroke-linecap="round" stroke-linejoin="round"/>
<path opacity="0.3" d="M264.72 137.75H197.66" stroke="#263238" stroke-linecap="round" stroke-linejoin="round"/>
<path opacity="0.3" d="M205.141 155.016H239.464" stroke="#263238" stroke-width="2" stroke-linecap="round" stroke-linejoin="round"/>
<path opacity="0.3" d="M205.141 159.462H253.95" stroke="#263238" stroke-width="2" stroke-linecap="round" stroke-linejoin="round"/>
<path opacity="0.3" d="M205.141 176.907H239.464" stroke="#263238" stroke-width="2" stroke-linecap="round" stroke-linejoin="round"/>
<path opacity="0.3" d="M205.141 181.353H253.95" stroke="#263238" stroke-width="2" stroke-linecap="round" stroke-linejoin="round"/>
<path opacity="0.3" d="M205.141 198.798H239.464" stroke="#263238" stroke-width="2" stroke-linecap="round" stroke-linejoin="round"/>
<path opacity="0.3" d="M205.141 203.244H253.95" stroke="#263238" stroke-width="2" stroke-linecap="round" stroke-linejoin="round"/>
<path opacity="0.3" d="M205.141 220.689H239.464" stroke="#263238" stroke-width="2" stroke-linecap="round" stroke-linejoin="round"/>
<path opacity="0.3" d="M205.141 225.134H253.95" stroke="#263238" stroke-width="2" stroke-linecap="round" stroke-linejoin="round"/>
<path opacity="0.3" d="M205.141 242.58H239.464" stroke="#263238" stroke-width="2" stroke-linecap="round" stroke-linejoin="round"/>
<path opacity="0.3" d="M205.141 247.025H253.95" stroke="#263238" stroke-width="2" stroke-linecap="round" stroke-linejoin="round"/>
<path opacity="0.3" d="M205.141 264.47H239.464" stroke="#263238" stroke-width="2" stroke-linecap="round" stroke-linejoin="round"/>
<path opacity="0.3" d="M205.141 268.916H253.95" stroke="#263238" stroke-width="2" stroke-linecap="round" stroke-linejoin="round"/>
<path opacity="0.3" d="M205.141 286.361H239.464" stroke="#263238" stroke-width="2" stroke-linecap="round" stroke-linejoin="round"/>
<path opacity="0.3" d="M205.141 290.807H253.95" stroke="#263238" stroke-width="2" stroke-linecap="round" stroke-linejoin="round"/>
</g>
<path d="M500.35 102.702H185.374V321.695H500.35V102.702Z" stroke="#263238" stroke-linecap="round" stroke-linejoin="round"/>
<path d="M108.284 446.35C108.284 446.35 107.74 448.578 101.522 451.535C95.3033 454.492 88.2742 458.684 91.7829 460.405C95.2917 462.127 107.74 458.188 111.26 455.231C114.781 452.274 118.822 450.542 118.822 448.082C118.822 445.621 115.58 444.132 112.882 444.132C111.96 444.04 111.029 444.202 110.21 444.597C109.39 444.993 108.719 445.603 108.284 446.35Z" fill="#263238" stroke="#263238" stroke-linecap="round" stroke-linejoin="round"/>
<path d="M113.692 434.523C112.071 438.958 107.74 441.419 107.74 442.654C107.826 443.896 108.008 445.131 108.284 446.35C110.227 447.366 112.322 448.117 114.503 448.578C117.479 449.064 118.822 448.082 118.822 448.082C118.822 448.082 122.076 445.864 122.887 445.125C123.697 444.386 125.863 443.15 125.585 440.679C125.307 438.208 124.23 437.226 125.319 435.009C126.407 432.791 149.382 398.767 149.382 398.767L130.46 392.103C130.46 392.103 115.314 430.077 113.692 434.523Z" fill="#263238" stroke="#263238" stroke-linecap="round" stroke-linejoin="round"/>
<path d="M204.271 450.3C204.271 450.3 221.305 457.449 221.583 459.18C221.861 460.912 209.679 461.145 204.271 460.659C198.863 460.173 195.354 455.97 195.354 455.97C195.354 455.97 197.242 449.56 204.271 450.3Z" fill="#263238" stroke="#263238" stroke-linecap="round" stroke-linejoin="round"/>
<path d="M179.397 392.6C179.397 392.6 186.427 432.548 189.136 440.194C191.846 447.839 188.314 447.089 189.669 449.317C191.385 451.658 193.285 453.881 195.355 455.97C195.355 455.97 200.218 452.021 202.384 451.746C204.549 451.472 206.17 451.25 206.17 451.25C206.17 451.25 205.082 446.318 204.271 445.336C203.461 444.354 202.916 440.901 202.106 438.187C201.295 435.473 199.952 390.593 199.952 390.593C199.952 390.593 185.072 393.096 179.397 392.6Z" fill="#263238" stroke="#263238" stroke-linecap="round" stroke-linejoin="round"/>
<path d="M151.003 225.171C147.295 227.579 143.77 230.215 140.454 233.059C133.969 238.487 123.153 246.375 122.609 248.107C122.065 249.839 129.916 282.132 132.892 292.459C135.868 302.787 136.679 350.402 132.892 366.675C130.444 376.931 127.098 386.992 122.887 396.76C131.217 401.968 141.18 404.563 151.269 404.152C168.037 403.403 175.587 399.221 183.995 399.928C192.402 400.636 201.839 400.414 206.17 395.24C210.501 390.065 215.087 388.091 217.75 384.88C219.387 382.876 220.327 380.47 220.448 377.974C220.448 377.974 218.017 369.589 209.088 343.211C200.16 316.832 200.172 281.561 198.551 274.169C196.929 266.777 193.143 244.337 189.356 238.17C185.569 232.003 170.226 227.388 162.629 226.164C155.033 224.939 153.713 223.935 151.003 225.171Z" fill="#92E3A9"/>
<mask id="mask1_265_419" style="mask-type:luminance" maskUnits="userSpaceOnUse" x="122" y="224" width="99" height="181">
<path d="M151.003 225.171C147.295 227.579 143.77 230.215 140.454 233.059C133.969 238.487 123.153 246.375 122.609 248.107C122.065 249.839 129.916 282.132 132.892 292.459C135.868 302.787 136.679 350.402 132.892 366.675C130.444 376.931 127.098 386.992 122.887 396.76C131.217 401.968 141.18 404.563 151.269 404.152C168.037 403.403 175.587 399.221 183.995 399.928C192.402 400.636 201.839 400.414 206.17 395.24C210.501 390.065 215.087 388.091 217.75 384.88C219.387 382.876 220.327 380.47 220.448 377.974C220.448 377.974 218.017 369.589 209.088 343.211C200.16 316.832 200.172 281.561 198.551 274.169C196.929 266.777 193.143 244.337 189.356 238.17C185.569 232.003 170.226 227.388 162.629 226.164C155.033 224.939 153.713 223.935 151.003 225.171Z" fill="white"/>
</mask>
<g mask="url(#mask1_265_419)">
<path opacity="0.15" d="M129.627 223.693H125.527V409.612H129.627V223.693Z" fill="black"/>
<path opacity="0.15" d="M143.731 223.693H139.632V409.612H143.731V223.693Z" fill="black"/>
<path opacity="0.15" d="M157.847 223.693H153.748V409.612H157.847V223.693Z" fill="black"/>
<path opacity="0.15" d="M171.964 223.693H167.864V409.612H171.964V223.693Z" fill="black"/>
<path opacity="0.15" d="M186.068 223.693H181.969V409.612H186.068V223.693Z" fill="black"/>
<path opacity="0.15" d="M200.183 223.693H196.084V409.612H200.183V223.693Z" fill="black"/>
<path opacity="0.15" d="M214.3 223.693H210.2V409.612H214.3V223.693Z" fill="black"/>
<path d="M117.225 227.895C152.625 228.128 187.237 228.128 222.684 228.022" stroke="white" stroke-miterlimit="10"/>
<path d="M117.225 229.965C152.625 230.103 187.237 230.103 222.684 230.039" stroke="white" stroke-miterlimit="10"/>
<path d="M117.225 238.656C152.625 238.952 187.237 238.952 222.684 238.814" stroke="white" stroke-miterlimit="10"/>
<path d="M117.225 240.768C152.625 240.97 187.237 240.97 222.684 240.885" stroke="white" stroke-miterlimit="10"/>
<path d="M117.225 249.48C152.625 249.829 187.237 249.829 222.684 249.681" stroke="white" stroke-miterlimit="10"/>
<path d="M117.225 251.55C152.625 251.803 187.237 251.803 222.684 251.698" stroke="white" stroke-miterlimit="10"/>
<path d="M117.225 260.272C152.625 260.684 187.237 260.684 222.684 260.505" stroke="white" stroke-miterlimit="10"/>
<path d="M117.225 262.353C152.625 262.648 187.237 262.648 222.684 262.522" stroke="white" stroke-miterlimit="10"/>
<path d="M117.225 271.065C152.625 271.529 187.237 271.529 222.684 271.329" stroke="white" stroke-miterlimit="10"/>
<path d="M117.225 273.145C152.625 273.504 187.237 273.504 222.684 273.346" stroke="white" stroke-miterlimit="10"/>
<path d="M117.225 281.857C151.548 281.392 187.237 281.392 221.943 281.593" stroke="white" stroke-miterlimit="10"/>
<path d="M117.225 283.937C152.625 284.349 187.237 284.349 222.684 284.17" stroke="white" stroke-miterlimit="10"/>
<path d="M117.225 292.649C152.625 292.237 187.237 292.237 222.684 292.428" stroke="white" stroke-miterlimit="10"/>
<path d="M117.225 294.73C152.625 295.205 187.237 295.205 222.684 294.994" stroke="white" stroke-miterlimit="10"/>
<path d="M117.225 303.442C152.625 303.093 187.237 303.093 222.684 303.252" stroke="white" stroke-miterlimit="10"/>
<path d="M117.225 305.522C152.625 305.068 187.237 305.068 222.684 305.268" stroke="white" stroke-miterlimit="10"/>
<path d="M117.225 314.244C152.625 313.938 187.237 313.938 222.684 314.076" stroke="white" stroke-miterlimit="10"/>
<path d="M117.225 316.314C152.625 315.913 187.237 315.913 222.684 316.092" stroke="white" stroke-miterlimit="10"/>
<path d="M117.225 325.037C152.625 324.794 187.237 324.794 222.684 324.9" stroke="white" stroke-miterlimit="10"/>
<path d="M117.225 327.107C152.625 326.769 187.237 326.769 222.684 326.916" stroke="white" stroke-miterlimit="10"/>
<path d="M117.225 335.809C152.625 335.618 187.237 335.618 222.684 335.703" stroke="white" stroke-miterlimit="10"/>
<path d="M117.225 337.92C152.625 337.635 187.237 337.635 222.684 337.762" stroke="white" stroke-miterlimit="10"/>
<path d="M117.225 346.622C152.625 346.495 187.237 346.495 222.684 346.548" stroke="white" stroke-miterlimit="10"/>
<path d="M117.225 348.691C152.625 348.459 187.237 348.459 222.684 348.564" stroke="white" stroke-miterlimit="10"/>
<path d="M117.225 357.414C152.625 357.34 187.237 357.34 222.684 357.414" stroke="white" stroke-miterlimit="10"/>
<path d="M117.225 359.495C152.625 359.314 187.237 359.314 222.684 359.389" stroke="white" stroke-miterlimit="10"/>
<path d="M117.225 368.206C152.625 368.206 187.237 368.206 222.684 368.206" stroke="white" stroke-miterlimit="10"/>
<path d="M117.225 370.287C152.625 370.16 187.237 370.16 222.684 370.213" stroke="white" stroke-miterlimit="10"/>
<path d="M117.225 378.998C152.625 378.998 187.237 378.998 222.684 378.998" stroke="white" stroke-miterlimit="10"/>
<path d="M117.225 381.079C152.625 381.015 187.237 381.015 222.684 381.079" stroke="white" stroke-miterlimit="10"/>
<path d="M117.225 389.791C152.625 389.886 187.237 389.886 222.684 389.844" stroke="white" stroke-miterlimit="10"/>
<path d="M117.225 391.871H222.684" stroke="white" stroke-miterlimit="10"/>
<path d="M117.225 400.583C152.625 400.742 187.237 400.742 222.684 400.668" stroke="white" stroke-miterlimit="10"/>
<path d="M117.225 402.663C152.625 402.663 187.237 402.663 222.684 402.663" stroke="white" stroke-miterlimit="10"/>
<path opacity="0.3" d="M158.391 288.288L159.121 292.227C159.121 292.227 144.333 292.565 141.091 292.565H136.042L137.489 312.291C137.489 312.291 139.284 326.42 141.091 345.819C142.897 365.218 136.459 392.832 136.459 396.127C136.459 399.421 132.857 403.033 141.507 404.67C150.158 406.307 161.703 405.99 163.509 401.713C165.316 397.436 172.53 362.588 171.083 370.149C169.635 377.71 162.433 404.015 167.481 405.324C172.53 406.634 185.87 401.713 194.521 402.04C203.171 402.368 210.733 399.738 211.462 396.454C212.192 393.17 207.131 362.916 207.131 362.916L217.947 390.203C217.947 390.203 219.395 391.85 212.157 399.707C204.92 407.563 172.507 410.267 155.195 410.267C137.883 410.267 116.622 398.767 116.622 398.767C116.622 398.767 135.37 370.487 131.757 346.822C128.144 323.157 128.515 281.35 128.515 281.35C128.515 281.35 138.254 283.98 145.097 283.98C151.941 283.98 158.391 288.288 158.391 288.288Z" fill="black"/>
<path opacity="0.3" d="M174.105 249.364L182.211 294.392C182.211 294.392 190.619 293.568 193.791 291.076C196.964 288.584 198.331 281.128 198.331 281.128L188.754 246.111L174.105 249.364Z" fill="black"/>
</g>
<path d="M151.003 225.171C147.295 227.579 143.77 230.215 140.454 233.059C133.969 238.487 123.153 246.375 122.609 248.107C122.065 249.839 129.916 282.132 132.892 292.459C135.868 302.787 136.679 350.402 132.892 366.675C130.444 376.931 127.098 386.992 122.887 396.76C131.217 401.968 141.18 404.563 151.269 404.152C168.037 403.403 175.587 399.221 183.995 399.928C192.402 400.636 201.839 400.414 206.17 395.24C210.501 390.065 215.087 388.091 217.75 384.88C219.387 382.876 220.327 380.47 220.448 377.974C220.448 377.974 218.017 369.589 209.088 343.211C200.16 316.832 200.172 281.561 198.551 274.169C196.929 266.777 193.143 244.337 189.356 238.17C185.569 232.003 170.226 227.388 162.629 226.164C155.033 224.939 153.713 223.935 151.003 225.171Z" stroke="#263238" stroke-linecap="round" stroke-linejoin="round"/>
<path d="M152.335 252.701L167.656 272.374L176.642 247.484C176.642 247.484 176.017 236.755 171.454 232.996C166.892 229.236 161.796 223.682 154.177 228.582C146.557 233.482 147.958 239.923 148.306 243.366C148.653 246.808 152.335 252.701 152.335 252.701Z" fill="white" stroke="#263238" stroke-miterlimit="10"/>
<path d="M157.975 244.96L162.468 249.691L161.437 264.19L167.655 272.374L171.801 261.983L166.266 249.691L166.961 242.13L161.437 237.716L157.975 244.96Z" fill="#263238" stroke="#263238" stroke-miterlimit="10"/>
<path d="M162.039 243.176L152.335 252.68C152.335 252.68 147.298 238.392 146.545 233.46C145.792 228.529 147.472 227.505 150.274 225.973C153.076 224.442 157.477 225.097 160.904 225.804C164.332 226.512 166.139 227.843 166.88 229.205C167.621 230.567 175.646 248.435 175.646 248.435L162.039 243.176Z" fill="white" stroke="#263238" stroke-miterlimit="10"/>
<path d="M167.725 269.28C174.105 299.028 181.841 349.937 174.615 400.076" stroke="#263238" stroke-miterlimit="10"/>
<path d="M173.307 281.899C174.196 281.899 174.917 281.242 174.917 280.431C174.917 279.621 174.196 278.964 173.307 278.964C172.418 278.964 171.697 279.621 171.697 280.431C171.697 281.242 172.418 281.899 173.307 281.899Z" fill="#263238"/>
<path d="M177.927 315.153C178.816 315.153 179.537 314.495 179.537 313.685C179.537 312.874 178.816 312.217 177.927 312.217C177.038 312.217 176.317 312.874 176.317 313.685C176.317 314.495 177.038 315.153 177.927 315.153Z" fill="#263238"/>
<path d="M145.456 218.434C145.456 218.434 148.34 223.956 148.618 227.346C148.896 230.736 157.986 243.038 161.147 243.038C164.309 243.038 164.181 233.746 163.764 229.606C163.347 225.467 164.586 223.196 165.003 222.7C165.42 222.204 159.213 220.693 155.369 218.053C151.524 215.413 148.34 215.033 146.823 215.54C145.306 216.047 145.456 218.434 145.456 218.434Z" fill="white"/>
<mask id="mask2_265_419" style="mask-type:luminance" maskUnits="userSpaceOnUse" x="145" y="215" width="21" height="29">
<path d="M145.456 218.434C145.456 218.434 148.34 223.956 148.618 227.346C148.896 230.736 157.986 243.038 161.147 243.038C164.309 243.038 164.181 233.746 163.764 229.606C163.347 225.467 164.586 223.196 165.003 222.7C165.42 222.204 159.213 220.693 155.369 218.053C151.524 215.413 148.34 215.033 146.823 215.54C145.306 216.047 145.456 218.434 145.456 218.434Z" fill="white"/>
</mask>
<g mask="url(#mask2_265_419)">
<path d="M155.369 218.053C151.513 215.413 148.34 215.033 146.823 215.54C145.306 216.047 145.456 218.434 145.456 218.434C145.456 218.434 148.34 223.956 148.618 227.346C148.613 227.385 148.613 227.424 148.618 227.462C151.206 228.304 153.911 228.813 156.654 228.972C159.01 229.158 161.383 228.998 163.683 228.497C163.567 225.065 164.61 223.154 164.98 222.7C165.351 222.246 159.225 220.704 155.369 218.053Z" fill="#92E3A9"/>
<path opacity="0.5" d="M155.369 218.053C151.513 215.413 148.34 215.033 146.823 215.54C145.306 216.047 145.456 218.434 145.456 218.434C145.456 218.434 148.34 223.956 148.618 227.346C148.613 227.385 148.613 227.424 148.618 227.462C151.206 228.304 153.911 228.813 156.654 228.972C159.01 229.158 161.383 228.998 163.683 228.497C163.567 225.065 164.61 223.154 164.98 222.7C165.351 222.246 159.225 220.704 155.369 218.053Z" fill="white"/>
</g>
<path d="M145.456 218.434C145.456 218.434 148.34 223.956 148.618 227.346C148.896 230.736 157.986 243.038 161.147 243.038C164.309 243.038 164.181 233.746 163.764 229.606C163.347 225.467 164.586 223.196 165.003 222.7C165.42 222.204 159.213 220.693 155.369 218.053C151.524 215.413 148.34 215.033 146.823 215.54C145.306 216.047 145.456 218.434 145.456 218.434Z" stroke="#263238" stroke-linecap="round" stroke-linejoin="round"/>
<path d="M139.122 215.033C139.122 215.033 143.661 219.31 146.14 219.806C148.618 220.303 150.413 218.55 149.44 216.797C148.467 215.044 149.035 212.404 151.918 212.773C154.801 213.143 157.152 210.894 156.191 207.884C155.23 204.875 153.713 201.981 150.135 202.604C146.556 203.227 135.671 209.384 139.122 215.033Z" fill="#263238" stroke="#263238" stroke-linecap="round" stroke-linejoin="round"/>
<path d="M169.137 198.338C169.137 198.338 171.337 202.731 173.399 204.494C175.46 206.258 177.255 205.867 176.572 207.251C175.888 208.634 172.854 210.419 172.854 210.419C172.854 210.419 173.132 216.691 172.854 219.701C172.576 222.71 172.854 223.597 169.82 224.104C165.656 224.587 161.425 224.145 157.488 222.816C154.82 222.033 152.564 220.378 151.153 218.17C149.855 218.211 148.556 218.083 147.297 217.789C144.68 217.293 142.48 212.267 143.997 210.397C144.655 209.634 145.617 209.139 146.673 209.02C147.73 208.901 148.795 209.169 149.637 209.764C150.609 210.82 151.709 211.77 152.532 211.77C153.354 211.77 155.01 211.147 154.048 209.51C153.087 207.874 151.976 206.501 153.493 205.371C155.01 204.241 166.659 198.211 169.137 198.338Z" fill="white"/>
<mask id="mask3_265_419" style="mask-type:luminance" maskUnits="userSpaceOnUse" x="143" y="198" width="34" height="27">
<path d="M169.137 198.338C169.137 198.338 171.337 202.731 173.399 204.494C175.46 206.258 177.255 205.867 176.572 207.251C175.888 208.634 172.854 210.419 172.854 210.419C172.854 210.419 173.132 216.691 172.854 219.701C172.576 222.71 172.854 223.597 169.82 224.104C165.656 224.587 161.425 224.145 157.488 222.816C154.82 222.033 152.564 220.378 151.153 218.17C149.855 218.211 148.556 218.083 147.297 217.789C144.68 217.293 142.48 212.267 143.997 210.397C144.655 209.634 145.617 209.139 146.673 209.02C147.73 208.901 148.795 209.169 149.637 209.764C150.609 210.82 151.709 211.77 152.532 211.77C153.354 211.77 155.01 211.147 154.048 209.51C153.087 207.874 151.976 206.501 153.493 205.371C155.01 204.241 166.659 198.211 169.137 198.338Z" fill="white"/>
</mask>
<g mask="url(#mask3_265_419)">
<path d="M169.137 198.338C166.659 198.211 154.952 204.241 153.435 205.371C151.918 206.501 153.03 207.884 153.991 209.51C154.952 211.137 153.296 211.77 152.474 211.77C151.652 211.77 150.552 210.767 149.579 209.764C148.738 209.169 147.673 208.901 146.616 209.02C145.559 209.139 144.597 209.634 143.939 210.397C142.422 212.277 144.623 217.304 147.24 217.789C147.541 217.853 147.83 217.895 148.097 217.937C155.341 212.044 163.39 207.028 172.044 203.016C170.943 201.528 169.971 199.964 169.137 198.338Z" fill="#92E3A9"/>
<path opacity="0.5" d="M169.137 198.338C166.659 198.211 154.952 204.241 153.435 205.371C151.918 206.501 153.03 207.884 153.991 209.51C154.952 211.137 153.296 211.77 152.474 211.77C151.652 211.77 150.552 210.767 149.579 209.764C148.738 209.169 147.673 208.901 146.616 209.02C145.559 209.139 144.597 209.634 143.939 210.397C142.422 212.277 144.623 217.304 147.24 217.789C147.541 217.853 147.83 217.895 148.097 217.937C155.341 212.044 163.39 207.028 172.044 203.016C170.943 201.528 169.971 199.964 169.137 198.338Z" fill="white"/>
</g>
<path d="M169.137 198.338C169.137 198.338 171.337 202.731 173.399 204.494C175.46 206.258 177.255 205.867 176.572 207.251C175.888 208.634 172.854 210.419 172.854 210.419C172.854 210.419 173.132 216.691 172.854 219.701C172.576 222.71 172.854 223.597 169.82 224.104C165.656 224.587 161.425 224.145 157.488 222.816C154.82 222.033 152.564 220.378 151.153 218.17C149.855 218.211 148.556 218.083 147.297 217.789C144.68 217.293 142.48 212.267 143.997 210.397C144.655 209.634 145.617 209.139 146.673 209.02C147.73 208.901 148.795 209.169 149.637 209.764C150.609 210.82 151.709 211.77 152.532 211.77C153.354 211.77 155.01 211.147 154.048 209.51C153.087 207.874 151.976 206.501 153.493 205.371C155.01 204.241 166.659 198.211 169.137 198.338Z" stroke="#263238" stroke-linecap="round" stroke-linejoin="round"/>
<path d="M172.855 210.397C171.614 210.623 170.436 211.072 169.388 211.717C168.341 212.363 167.444 213.192 166.752 214.157C164.575 217.325 166.752 217.863 168.107 217.114C169.462 216.364 171.893 214.653 173.248 213.946C174.603 213.238 174.939 210.144 172.855 210.397Z" fill="#263238" stroke="#263238" stroke-linecap="round" stroke-linejoin="round"/>
<path d="M167.114 206.74C167.538 206.593 167.578 205.744 167.202 204.845C166.827 203.946 166.178 203.336 165.754 203.484C165.329 203.631 165.29 204.48 165.665 205.379C166.041 206.278 166.689 206.888 167.114 206.74Z" fill="#263238"/>
<path d="M162.34 202.594C163.073 202.136 163.918 201.851 164.802 201.764C165.685 201.678 166.578 201.792 167.4 202.097" stroke="#263238" stroke-linecap="round" stroke-linejoin="round"/>
<path d="M134.328 224.453C137.149 219.257 140.872 214.511 145.352 210.397C152.926 203.364 181.25 196.078 182.802 194.072C184.354 192.065 169.717 195.328 169.717 195.328C169.717 195.328 161.182 185.909 148.792 185.275C136.401 184.642 132.823 196.955 132.684 203.111C132.545 209.268 135.984 216.417 135.984 216.417C135.984 216.417 132.093 225.456 134.328 224.453Z" fill="#92E3A9"/>
<mask id="mask4_265_419" style="mask-type:luminance" maskUnits="userSpaceOnUse" x="132" y="185" width="51" height="40">
<path d="M134.328 224.453C137.149 219.257 140.872 214.511 145.352 210.397C152.926 203.364 181.25 196.078 182.802 194.072C184.354 192.065 169.717 195.328 169.717 195.328C169.717 195.328 161.182 185.909 148.792 185.275C136.401 184.642 132.823 196.955 132.684 203.111C132.545 209.268 135.984 216.417 135.984 216.417C135.984 216.417 132.093 225.456 134.328 224.453Z" fill="white"/>
</mask>
<g mask="url(#mask4_265_419)">
<path opacity="0.15" d="M143.731 180.787H139.632V233.059H143.731V180.787Z" fill="black"/>
<path opacity="0.15" d="M157.847 180.787H153.748V233.059H157.847V180.787Z" fill="black"/>
<path opacity="0.15" d="M171.964 180.787H167.864V233.059H171.964V180.787Z" fill="black"/>
<path opacity="0.15" d="M186.067 180.787H181.968V233.059H186.067V180.787Z" fill="black"/>
<path d="M126.465 188.613C147.633 188.613 168.801 188.556 189.97 188.443" stroke="white" stroke-miterlimit="10"/>
<path d="M126.465 190.619C147.633 190.619 168.801 190.584 189.97 190.513" stroke="white" stroke-miterlimit="10"/>
<path d="M126.465 199.447C147.633 199.447 168.801 199.376 189.97 199.235" stroke="white" stroke-miterlimit="10"/>
<path d="M126.465 201.454C147.633 201.454 168.801 201.404 189.97 201.305" stroke="white" stroke-miterlimit="10"/>
<path d="M126.465 210.281C147.633 210.281 168.801 210.197 189.97 210.028" stroke="white" stroke-miterlimit="10"/>
<path d="M126.465 212.256C147.633 212.256 168.801 212.196 189.97 212.076" stroke="white" stroke-miterlimit="10"/>
<path d="M126.465 221.116C147.633 221.116 168.801 221.017 189.97 220.82" stroke="white" stroke-miterlimit="10"/>
<path d="M126.465 223.112C147.633 223.112 168.801 223.038 189.97 222.89" stroke="white" stroke-miterlimit="10"/>
</g>
<path d="M134.328 224.453C137.149 219.257 140.872 214.511 145.352 210.397C152.926 203.364 181.25 196.078 182.802 194.072C184.354 192.065 169.717 195.328 169.717 195.328C169.717 195.328 161.182 185.909 148.792 185.275C136.401 184.642 132.823 196.955 132.684 203.111C132.545 209.268 135.984 216.417 135.984 216.417C135.984 216.417 132.093 225.456 134.328 224.453Z" stroke="#263238" stroke-linecap="round" stroke-linejoin="round"/>
<path d="M135.95 216.417C135.95 216.417 132.093 225.456 134.294 224.453C137.115 219.257 140.837 214.511 145.318 210.397C152.891 203.364 181.216 196.078 182.767 194.072C184.319 192.065 169.682 195.328 169.682 195.328C169.682 195.328 159.909 199.975 151.791 204.832C146.201 208.328 140.906 212.2 135.95 216.417Z" fill="#92E3A9" stroke="#263238" stroke-linecap="round" stroke-linejoin="round"/>
<path d="M139.527 188.042C139.527 188.042 139.666 200.218 149.579 206.374" stroke="#263238" stroke-linecap="round" stroke-linejoin="round"/>
<path d="M136.274 305.184L140.489 306.24C140.489 306.24 147.773 301.604 148.595 301.467C149.417 301.33 156.307 304.92 158.496 306.515C160.684 308.109 163.44 309.83 162.711 310.358C161.981 310.886 160.395 310.221 159.364 309.693C158.334 309.165 152.092 306.377 152.092 306.377C152.092 306.377 156.724 309.165 158.345 310.358C159.966 311.552 162.271 312.217 161.692 312.882C161.554 313.089 161.372 313.268 161.155 313.408C160.939 313.547 160.693 313.645 160.434 313.695C160.174 313.744 159.906 313.744 159.647 313.696C159.387 313.647 159.141 313.55 158.924 313.41C157.477 312.745 150.054 308.901 150.054 308.901C150.054 308.901 156.307 312.745 157.477 313.674C158.646 314.604 158.635 315.934 157.326 315.934C156.018 315.934 152.381 314.202 151.073 313.548C149.764 312.893 145.978 311.15 145.978 311.15C147.605 312.781 149.11 314.51 150.482 316.325C151.362 317.793 152.671 319.651 151.212 319.651C149.753 319.651 147.738 316.599 146.707 315.533C145.677 314.466 141.902 313.273 141.902 313.273C140.135 314.033 138.283 314.614 136.378 315.005C133.9 315.396 128.955 310.622 128.955 310.622L136.274 305.184Z" fill="white" stroke="#263238" stroke-linecap="round" stroke-linejoin="round"/>
<path d="M140.489 306.282L136.888 310.232" stroke="#263238" stroke-linecap="round" stroke-linejoin="round"/>
<path d="M150.1 308.943L147.772 307.676" stroke="#263238" stroke-linecap="round" stroke-linejoin="round"/>
<path d="M152.139 306.42L149.521 305.11" stroke="#263238" stroke-linecap="round" stroke-linejoin="round"/>
<path d="M103.143 261.17C103.143 261.17 85.8427 274.243 85.5648 275.225C85.2869 276.207 129.372 313.452 129.372 313.452L137.478 305.311L113.415 275.964L131.804 265.404C131.804 265.404 133.425 257.273 130.727 252.585C129.892 251.195 128.734 249.989 127.333 249.052C125.933 248.114 124.324 247.467 122.621 247.157L103.143 261.17Z" fill="#92E3A9"/>
<mask id="mask5_265_419" style="mask-type:luminance" maskUnits="userSpaceOnUse" x="85" y="247" width="53" height="67">
<path d="M103.143 261.17C103.143 261.17 85.8427 274.243 85.5648 275.225C85.2869 276.207 129.372 313.452 129.372 313.452L137.478 305.311L113.415 275.964L131.804 265.404C131.804 265.404 133.425 257.273 130.727 252.585C129.892 251.195 128.734 249.989 127.333 249.052C125.933 248.114 124.324 247.467 122.621 247.157L103.143 261.17Z" fill="white"/>
</mask>
<g mask="url(#mask5_265_419)">
<path opacity="0.15" d="M87.2907 241.94H83.1914V321.341H87.2907V241.94Z" fill="black"/>
<path opacity="0.15" d="M101.395 241.94H97.2959V321.341H101.395V241.94Z" fill="black"/>
<path opacity="0.15" d="M115.51 241.94H111.411V321.341H115.51V241.94Z" fill="black"/>
<path opacity="0.15" d="M129.627 241.94H125.527V321.341H129.627V241.94Z" fill="black"/>
<path d="M74.1934 249.702C106.119 249.828 138.567 249.828 170.481 249.48" stroke="white" stroke-miterlimit="10"/>
<path d="M74.1934 251.708C106.119 251.803 138.567 251.803 170.481 251.55" stroke="white" stroke-miterlimit="10"/>
<path d="M74.1934 260.526C106.119 260.684 138.567 260.684 170.481 260.272" stroke="white" stroke-miterlimit="10"/>
<path d="M74.1934 262.543C106.119 262.648 138.567 262.648 170.481 262.353" stroke="white" stroke-miterlimit="10"/>
<path d="M74.1934 271.392C106.119 271.561 138.567 271.561 170.481 271.096" stroke="white" stroke-miterlimit="10"/>
<path d="M74.1934 273.367C106.119 273.504 138.567 273.504 170.481 273.145" stroke="white" stroke-miterlimit="10"/>
<path opacity="0.3" d="M94.2266 264.623C94.2266 264.623 102.877 269.555 106.478 270.875C110.08 272.195 117.294 275.151 117.294 275.151L125.585 271.202L106.119 256.735L94.2266 264.623Z" fill="black"/>
<path d="M74.1934 281.572C106.119 281.392 138.567 281.392 170.481 281.857" stroke="white" stroke-miterlimit="10"/>
<path d="M74.1934 284.201C106.119 284.349 138.567 284.349 170.481 283.937" stroke="white" stroke-miterlimit="10"/>
<path d="M74.1934 292.396C106.119 292.237 138.567 292.237 170.481 292.649" stroke="white" stroke-miterlimit="10"/>
<path d="M74.1934 295.025C106.119 295.205 138.567 295.205 170.481 294.73" stroke="white" stroke-miterlimit="10"/>
<path d="M74.1934 303.22C106.119 303.093 138.567 303.093 170.481 303.442" stroke="white" stroke-miterlimit="10"/>
<path d="M74.1934 305.237C106.119 305.068 138.567 305.068 170.481 305.522" stroke="white" stroke-miterlimit="10"/>
<path d="M74.1934 314.054C106.119 313.938 138.567 313.938 170.481 314.244" stroke="white" stroke-miterlimit="10"/>
</g>
<path d="M103.143 261.17C103.143 261.17 85.8427 274.243 85.5648 275.225C85.2869 276.207 129.372 313.452 129.372 313.452L137.478 305.311L113.415 275.964L131.804 265.404C131.804 265.404 133.425 257.273 130.727 252.585C129.892 251.195 128.734 249.989 127.333 249.052C125.933 248.114 124.324 247.467 122.621 247.157L103.143 261.17Z" stroke="#263238" stroke-linecap="round" stroke-linejoin="round"/>
<path d="M224.015 260.642C224.015 260.642 207.143 251.877 200.149 245.647C193.154 239.416 190.259 236.491 189.53 238.878C188.8 241.264 195.644 272.67 196.953 273.24C198.261 273.81 225.903 282.797 231.438 283.061C236.973 283.325 240.702 283.726 241.339 281.477C241.976 279.227 237.865 272.321 232.746 266.872C227.628 261.423 224.015 260.642 224.015 260.642Z" fill="#92E3A9"/>
<mask id="mask6_265_419" style="mask-type:luminance" maskUnits="userSpaceOnUse" x="189" y="238" width="53" height="46">
<path d="M224.015 260.642C224.015 260.642 207.143 251.877 200.149 245.647C193.154 239.416 190.259 236.491 189.53 238.878C188.8 241.264 195.644 272.67 196.953 273.24C198.261 273.81 225.903 282.797 231.438 283.061C236.973 283.325 240.702 283.726 241.339 281.477C241.976 279.227 237.865 272.321 232.746 266.872C227.628 261.423 224.015 260.642 224.015 260.642Z" fill="white"/>
</mask>
<g mask="url(#mask6_265_419)">
<path opacity="0.15" d="M200.183 248.35H196.084V290.273H200.183V248.35Z" fill="black"/>
<path opacity="0.15" d="M214.3 248.35H210.2V290.273H214.3V248.35Z" fill="black"/>
<path opacity="0.15" d="M228.404 248.35H224.305V290.273H228.404V248.35Z" fill="black"/>
<path opacity="0.15" d="M242.519 248.35H238.42V290.273H242.519V248.35Z" fill="black"/>
<path d="M183.948 251.55C204.02 251.747 224.061 251.786 244.072 251.666" stroke="white" stroke-miterlimit="10"/>
<path d="M183.948 260.272C204.02 260.603 224.061 260.663 244.072 260.452" stroke="white" stroke-miterlimit="10"/>
<path d="M183.948 262.353C204.02 262.592 224.061 262.634 244.072 262.479" stroke="white" stroke-miterlimit="10"/>
<path d="M183.948 271.065C204.02 271.438 224.061 271.508 244.072 271.276" stroke="white" stroke-miterlimit="10"/>
<path d="M183.948 273.145C204.02 273.426 224.061 273.479 244.072 273.303" stroke="white" stroke-miterlimit="10"/>
<path opacity="0.3" d="M206.703 279.418C206.703 279.418 217.878 276.133 221.491 270.875C225.104 265.616 223.656 262.321 220.402 258.709C218.518 256.57 215.817 255.16 212.84 254.76C212.84 254.76 211.034 266.925 206.703 269.227C203.581 271.021 200.681 273.117 198.053 275.479L206.703 279.418Z" fill="black"/>
<path d="M183.948 281.857C204.02 281.484 224.061 281.417 244.072 281.656" stroke="white" stroke-miterlimit="10"/>
</g>
<path d="M224.015 260.642C224.015 260.642 207.143 251.877 200.149 245.647C193.154 239.416 190.259 236.491 189.53 238.878C188.8 241.264 195.644 272.67 196.953 273.24C198.261 273.81 225.903 282.797 231.438 283.061C236.973 283.325 240.702 283.726 241.339 281.477C241.976 279.227 237.865 272.321 232.746 266.872C227.628 261.423 224.015 260.642 224.015 260.642Z" stroke="#263238" stroke-linecap="round" stroke-linejoin="round"/>
<path d="M147.217 228.381C147.217 228.381 154.79 249.586 158.032 264.137C161.275 278.689 162.664 292.237 162.664 292.237C162.664 292.237 158.032 289.534 145.63 288.541C133.228 287.549 127.519 285.828 122.111 276.461C116.703 267.094 113.183 267.833 107.775 266.355C102.367 264.876 100.746 262.131 100.746 262.131C100.746 262.131 145.329 228.096 147.217 228.381ZM164.355 226.533C168.365 233.855 171.629 241.497 174.105 249.364C178.321 262.627 184.296 291.604 184.296 291.604C184.296 291.604 194.625 290.548 197.682 284.571C200.739 278.594 200.878 276.334 205.788 274.75C210.698 273.166 217.438 269.84 218.017 265.595C218.443 262.727 219.074 259.887 219.904 257.094C219.904 257.094 192.703 236.533 188.476 233.862C184.249 231.19 165.525 225.477 164.355 226.533Z" fill="#92E3A9"/>
<mask id="mask7_265_419" style="mask-type:luminance" maskUnits="userSpaceOnUse" x="100" y="226" width="120" height="67">
<path d="M147.217 228.381C147.217 228.381 154.79 249.586 158.032 264.137C161.275 278.689 162.664 292.237 162.664 292.237C162.664 292.237 158.032 289.534 145.63 288.541C133.228 287.549 127.519 285.828 122.111 276.461C116.703 267.094 113.183 267.833 107.775 266.355C102.367 264.876 100.746 262.131 100.746 262.131C100.746 262.131 145.329 228.096 147.217 228.381ZM164.355 226.533C168.365 233.855 171.629 241.497 174.105 249.364C178.321 262.627 184.296 291.604 184.296 291.604C184.296 291.604 194.625 290.548 197.682 284.571C200.739 278.594 200.878 276.334 205.788 274.75C210.698 273.166 217.438 269.84 218.017 265.595C218.443 262.727 219.074 259.887 219.904 257.094C219.904 257.094 192.703 236.533 188.476 233.862C184.249 231.19 165.525 225.477 164.355 226.533Z" fill="white"/>
</mask>
<g mask="url(#mask7_265_419)">
<path opacity="0.15" d="M101.394 241.359H97.2949V312.323H101.394V241.359Z" fill="black"/>
<path opacity="0.15" d="M115.51 241.359H111.411V312.323H115.51V241.359Z" fill="black"/>
<path opacity="0.15" d="M129.627 218.708H125.527V312.333H129.627V218.708Z" fill="black"/>
<path opacity="0.15" d="M143.731 218.708H139.632V312.333H143.731V218.708Z" fill="black"/>
<path opacity="0.15" d="M157.847 218.708H153.748V312.333H157.847V218.708Z" fill="black"/>
<path opacity="0.15" d="M171.964 218.708H167.864V312.333H171.964V218.708Z" fill="black"/>
<path opacity="0.15" d="M186.067 218.708H181.968V312.333H186.067V218.708Z" fill="black"/>
<path opacity="0.15" d="M200.183 218.708H196.084V312.333H200.183V218.708Z" fill="black"/>
<path opacity="0.15" d="M214.3 218.708H210.2V312.333H214.3V218.708Z" fill="black"/>
<path d="M119.065 227.895C152.647 228.128 186.16 228.128 219.279 228.033" stroke="white" stroke-miterlimit="10"/>
<path d="M119.065 229.965C152.647 230.103 186.16 230.103 219.279 230.05" stroke="white" stroke-miterlimit="10"/>
<path d="M119.065 238.656C152.647 238.952 186.16 238.952 219.279 238.836" stroke="white" stroke-miterlimit="10"/>
<path d="M119.065 240.768C152.647 240.97 186.16 240.97 219.279 240.885" stroke="white" stroke-miterlimit="10"/>
<path d="M79.0684 249.48C125.585 249.829 172.091 249.829 218.978 249.66" stroke="white" stroke-miterlimit="10"/>
<path d="M79.0684 251.55C125.585 251.803 172.091 251.803 218.978 251.677" stroke="white" stroke-miterlimit="10"/>
<path d="M79.0684 260.272C125.585 260.684 172.091 260.684 218.978 260.484" stroke="white" stroke-miterlimit="10"/>
<path d="M79.0684 262.353C125.585 262.648 172.091 262.648 218.978 262.501" stroke="white" stroke-miterlimit="10"/>
<path d="M79.0684 271.065C125.585 271.529 172.091 271.529 218.978 271.297" stroke="white" stroke-miterlimit="10"/>
<path d="M79.0684 273.145C125.585 273.504 172.091 273.504 218.978 273.325" stroke="white" stroke-miterlimit="10"/>
<path d="M79.0684 281.857C125.585 281.392 172.091 281.392 218.978 281.625" stroke="white" stroke-miterlimit="10"/>
<path d="M79.0684 283.937C125.585 284.349 172.091 284.349 218.978 284.148" stroke="white" stroke-miterlimit="10"/>
<path d="M79.0684 292.649C125.585 292.237 172.091 292.237 218.978 292.449" stroke="white" stroke-miterlimit="10"/>
</g>
<path d="M147.217 228.381C147.217 228.381 154.79 249.586 158.032 264.137C161.275 278.689 162.664 292.237 162.664 292.237C162.664 292.237 158.032 289.534 145.63 288.541C133.228 287.549 127.519 285.828 122.111 276.461C116.703 267.094 113.183 267.833 107.775 266.355C102.367 264.876 100.746 262.131 100.746 262.131C100.746 262.131 145.329 228.096 147.217 228.381ZM164.355 226.533C168.365 233.855 171.629 241.497 174.105 249.364C178.321 262.627 184.296 291.604 184.296 291.604C184.296 291.604 194.625 290.548 197.682 284.571C200.739 278.594 200.878 276.334 205.788 274.75C210.698 273.166 217.438 269.84 218.017 265.595C218.443 262.727 219.074 259.887 219.904 257.094C219.904 257.094 192.703 236.533 188.476 233.862C184.249 231.19 165.525 225.477 164.355 226.533Z" stroke="#263238" stroke-linecap="round" stroke-linejoin="round"/>
<path d="M211.59 225.783C211.59 225.783 212.678 231.676 213.049 233.08C213.419 234.485 216.951 238.561 216.951 238.561L211.045 241.961C209.64 239.645 208.094 237.403 206.413 235.245C205.417 234.326 200.415 233.133 198.956 231.338C197.497 229.543 197.867 227.441 197.497 226.111C197.126 224.78 193.768 220.968 194.59 220.387C195.412 219.806 197.138 220.303 197.948 221.221C198.759 222.14 198.77 223.46 199.106 224.125C199.442 224.791 203.924 227.293 203.924 227.293C203.924 227.293 201.92 222.066 201.608 221.327C201.532 221.125 201.506 220.911 201.531 220.698C201.557 220.486 201.633 220.282 201.754 220.1C201.876 219.917 202.04 219.762 202.235 219.643C202.429 219.525 202.65 219.448 202.881 219.416C203.785 219.416 207.884 223.069 207.884 223.069L211.59 225.783Z" stroke="#263238" stroke-linecap="round" stroke-linejoin="round"/>
<path d="M194.372 215.684C197.936 214.06 198.193 207.939 194.945 202.012C191.698 196.086 186.176 192.598 182.612 194.222C179.048 195.846 178.791 201.967 182.038 207.893C185.286 213.82 190.807 217.308 194.372 215.684Z" fill="white" stroke="#263238" stroke-linecap="round" stroke-linejoin="round"/>
<path d="M192.93 214.279C195.378 213.163 195.136 208.194 192.389 203.18C189.642 198.167 185.43 195.007 182.981 196.123C180.533 197.238 180.775 202.207 183.522 207.221C186.269 212.234 190.481 215.394 192.93 214.279Z" fill="white" stroke="#263238" stroke-linecap="round" stroke-linejoin="round"/>
<path d="M194.023 215.266L204.248 229.205C204.377 229.384 204.546 229.537 204.743 229.655C204.94 229.773 205.162 229.852 205.394 229.889C205.626 229.926 205.864 229.918 206.093 229.868C206.322 229.817 206.538 229.725 206.726 229.596C206.911 229.47 207.066 229.312 207.184 229.131C207.301 228.949 207.377 228.749 207.409 228.54C207.44 228.332 207.425 228.12 207.366 227.917C207.306 227.714 207.203 227.523 207.062 227.357L195.702 214.157C195.639 214.075 195.558 214.006 195.465 213.954C195.372 213.902 195.268 213.867 195.16 213.852C195.052 213.837 194.941 213.843 194.835 213.868C194.729 213.893 194.63 213.937 194.544 213.998L194.162 214.231C193.996 214.353 193.888 214.529 193.863 214.723C193.837 214.916 193.894 215.11 194.023 215.266Z" fill="#263238" stroke="#263238" stroke-linecap="round" stroke-linejoin="round"/>
<path d="M201.492 217.219C201.492 217.219 198.458 218.93 198.597 219.859C198.736 220.788 199.176 221.169 200.045 221.169C200.913 221.169 203.218 219.986 204.086 219.595C204.955 219.204 204.33 216.174 201.492 217.219Z" fill="white" stroke="#263238" stroke-linecap="round" stroke-linejoin="round"/>
<path d="M202.65 220.387C201.566 221.701 200.594 223.088 199.743 224.537C199.651 225.118 204.92 229.817 205.834 229.817C206.749 229.817 211.752 226.998 211.567 225.836C211.381 224.675 206.286 221.19 205.383 220.356C204.48 219.521 203.669 219.226 202.65 220.387Z" fill="white" stroke="#263238" stroke-linecap="round" stroke-linejoin="round"/>
<path d="M201.307 226.195L206.217 220.884" stroke="#263238" stroke-linecap="round" stroke-linejoin="round"/>
<path d="M208.95 223.46L204.04 228.518" stroke="#263238" stroke-linecap="round" stroke-linejoin="round"/>
<path d="M223.575 269.797L208.591 241.138L219.65 235.858C219.65 235.858 231.438 248.329 236.244 256.978C241.05 265.626 243.192 279.407 241.339 281.53C239.486 283.652 230.998 282.184 226.783 279.798" fill="#92E3A9"/>
<mask id="mask8_265_419" style="mask-type:luminance" maskUnits="userSpaceOnUse" x="208" y="235" width="35" height="48">
<path d="M223.575 269.797L208.591 241.138L219.65 235.858C219.65 235.858 231.438 248.329 236.244 256.978C241.05 265.626 243.192 279.407 241.339 281.53C239.486 283.652 230.998 282.184 226.783 279.798" fill="white"/>
</mask>
<g mask="url(#mask8_265_419)">
<path opacity="0.15" d="M214.3 231.095H210.2V288.795H214.3V231.095Z" fill="black"/>
<path opacity="0.15" d="M228.404 231.095H224.305V288.795H228.404V231.095Z" fill="black"/>
<path opacity="0.15" d="M242.52 231.095H238.421V288.795H242.52V231.095Z" fill="black"/>
<path d="M197.891 238.656C217.577 238.952 238.073 238.952 257.539 238.656" stroke="white" stroke-miterlimit="10"/>
<path d="M197.891 240.768C217.577 240.97 238.073 240.97 257.539 240.768" stroke="white" stroke-miterlimit="10"/>
<path d="M197.891 249.48C217.577 249.828 238.073 249.828 257.539 249.48" stroke="white" stroke-miterlimit="10"/>
<path d="M197.891 251.55C217.577 251.803 238.073 251.803 257.539 251.55" stroke="white" stroke-miterlimit="10"/>
<path d="M197.891 260.272C217.577 260.684 238.073 260.684 257.539 260.272" stroke="white" stroke-miterlimit="10"/>
<path d="M197.891 262.353C217.577 262.648 238.073 262.648 257.539 262.353" stroke="white" stroke-miterlimit="10"/>
<path d="M197.891 271.065C217.577 271.529 238.073 271.529 257.539 271.065" stroke="white" stroke-miterlimit="10"/>
<path d="M197.891 273.145C217.577 273.504 238.073 273.504 257.539 273.145" stroke="white" stroke-miterlimit="10"/>
<path d="M197.891 281.857C217.577 281.392 238.073 281.392 257.539 281.857" stroke="white" stroke-miterlimit="10"/>
</g>
<path d="M223.575 269.797L208.591 241.138L219.65 235.858C219.65 235.858 231.438 248.329 236.244 256.978C241.05 265.626 243.192 279.407 241.339 281.53C239.486 283.652 230.998 282.184 226.783 279.798" stroke="#263238" stroke-linecap="round" stroke-linejoin="round"/>
</svg>
