<svg width="627" height="554" viewBox="0 0 627 554" fill="none" xmlns="http://www.w3.org/2000/svg">
<path d="M598.998 255.486C592.427 227.12 580.89 199.428 567.172 173.973C543.521 130.056 504.773 93.5882 455.202 71.9398C333.564 18.815 245.784 40.9503 198.132 84.1143C150.48 127.278 164.274 201.432 112.86 233.528C61.4461 265.624 25.0801 280.012 22.5721 338.671C20.0641 397.329 52.6681 441.6 105.336 455.988C158.004 470.376 237.006 516.86 395.01 490.298C553.014 463.735 591.888 389.582 601.92 336.457C606.936 309.729 605.206 282.303 598.998 255.486Z" fill="#92E3A9"/>
<path opacity="0.7" d="M598.998 255.486C592.427 227.12 580.89 199.428 567.172 173.973C543.521 130.056 504.773 93.5882 455.202 71.9398C333.564 18.815 245.784 40.9503 198.132 84.1143C150.48 127.278 164.274 201.432 112.86 233.528C61.4461 265.624 25.0801 280.012 22.5721 338.671C20.0641 397.329 52.6681 441.6 105.336 455.988C158.004 470.376 237.006 516.86 395.01 490.298C553.014 463.735 591.888 389.582 601.92 336.457C606.936 309.729 605.206 282.303 598.998 255.486Z" fill="white"/>
<path d="M228.629 93.5439H217.268V137.981H228.629V93.5439Z" fill="#C9C9C9" stroke="#263238" stroke-linecap="round" stroke-linejoin="round"/>
<path d="M228.629 100.229H217.268V104.567H228.629V100.229Z" fill="white" stroke="#263238" stroke-linecap="round" stroke-linejoin="round"/>
<path d="M228.629 127.798H217.268V132.137H228.629V127.798Z" fill="white" stroke="#263238" stroke-linecap="round" stroke-linejoin="round"/>
<path d="M241.884 93.5439H225.983V137.981H241.884V93.5439Z" fill="#878787" stroke="#263238" stroke-linecap="round" stroke-linejoin="round"/>
<path d="M240.756 93.5439H229.394V137.981H240.756V93.5439Z" fill="#C9C9C9" stroke="#263238" stroke-linecap="round" stroke-linejoin="round"/>
<path d="M240.756 100.229H229.394V104.567H240.756V100.229Z" fill="white" stroke="#263238" stroke-linecap="round" stroke-linejoin="round"/>
<path d="M240.756 127.798H229.394V132.137H240.756V127.798Z" fill="white" stroke="#263238" stroke-linecap="round" stroke-linejoin="round"/>
<path d="M253.998 93.5439H238.097V137.981H253.998V93.5439Z" fill="#878787" stroke="#263238" stroke-linecap="round" stroke-linejoin="round"/>
<path d="M252.869 93.5439H241.508V137.981H252.869V93.5439Z" fill="#C9C9C9" stroke="#263238" stroke-linecap="round" stroke-linejoin="round"/>
<path d="M252.869 100.229H241.508V104.567H252.869V100.229Z" fill="white" stroke="#263238" stroke-linecap="round" stroke-linejoin="round"/>
<path d="M252.869 127.798H241.508V132.137H252.869V127.798Z" fill="white" stroke="#263238" stroke-linecap="round" stroke-linejoin="round"/>
<path d="M266.111 93.5439H250.211V137.981H266.111V93.5439Z" fill="#C9C9C9" stroke="#263238" stroke-linecap="round" stroke-linejoin="round"/>
<path d="M276.469 138.434H303.155L310.252 132.768H276.469V138.434Z" fill="white" stroke="#263238" stroke-linecap="round" stroke-linejoin="round"/>
<path d="M307.23 138.722L306.377 137.427L275.918 137.372L276.796 138.722H307.23Z" fill="white" stroke="#263238" stroke-linecap="round" stroke-linejoin="round"/>
<path d="M261.02 94.4692L251.185 99.4889L276.389 137.957L286.224 132.937L261.02 94.4692Z" fill="#C9C9C9" stroke="#263238" stroke-linecap="round" stroke-linejoin="round"/>
<path d="M264.815 100.241L254.979 105.26L257.44 109.016L267.275 103.996L264.815 100.241Z" fill="white" stroke="#263238" stroke-linecap="round" stroke-linejoin="round"/>
<path d="M280.462 124.104L270.627 129.124L273.088 132.88L282.923 127.86L280.462 124.104Z" fill="white" stroke="#263238" stroke-linecap="round" stroke-linejoin="round"/>
<path d="M310.077 133.155L285.962 133.1L260.757 94.6285L284.871 94.6839L310.077 133.155Z" fill="#C9C9C9" stroke="#263238" stroke-linecap="round" stroke-linejoin="round"/>
<path d="M323.219 115.934C323.219 115.934 318.83 114.55 317.576 108.463C316.322 102.376 314.127 93.7985 316.635 91.8616C319.143 89.9248 323.846 88.818 324.473 92.6917C325.1 96.5654 324.159 104.036 325.1 105.696C326.04 107.356 329.175 106.25 329.175 102.929C329.175 97.4619 326.667 91.8616 327.557 86.3278C328.811 78.6801 337.589 77.8389 338.53 86.3278C339.057 91.0205 339.207 95.8128 339.207 100.528C339.207 102.464 342.969 103.571 342.656 98.8675C342.43 95.5472 345.164 91.6735 348.926 92.7803C352.688 93.887 349.553 108.552 348.299 111.042C347.045 113.532 339.207 113.997 339.207 113.997V120.361L329.802 120.638L329.489 114.274C327.574 115.251 325.427 115.819 323.219 115.934Z" fill="#92E3A9" stroke="#263238" stroke-linecap="round" stroke-linejoin="round"/>
<path d="M331.683 103.804C331.796 105.187 331.871 106.017 331.871 106.017" stroke="#263238" stroke-linecap="round" stroke-linejoin="round"/>
<path d="M332.31 82.3435C332.31 82.3435 330.254 83.6052 330.404 87.3904C330.504 89.6924 331.006 96.0674 331.395 100.727" stroke="#263238" stroke-linecap="round" stroke-linejoin="round"/>
<path d="M335.846 95.3922L336.172 104.656" stroke="#263238" stroke-linecap="round" stroke-linejoin="round"/>
<path d="M340.436 110.677C339.71 110.776 338.976 110.832 338.241 110.843" stroke="#263238" stroke-linecap="round" stroke-linejoin="round"/>
<path d="M346.982 95.1156C346.258 96.3271 345.875 97.6748 345.866 99.0446C345.866 101.258 346.029 107.467 344.436 109.149C344.048 109.527 343.573 109.829 343.044 110.035" stroke="#263238" stroke-linecap="round" stroke-linejoin="round"/>
<path d="M319.77 107.567C320.147 109.231 321.051 110.766 322.378 111.994C323.163 112.548 324.132 112.861 325.137 112.885C326.142 112.909 327.128 112.643 327.946 112.127" stroke="#263238" stroke-linecap="round" stroke-linejoin="round"/>
<path d="M319.469 92.5922C319.469 92.5922 316.297 92.5922 317.4 97.4951C317.877 99.5648 318.316 102.11 318.88 104.512" stroke="#263238" stroke-linecap="round" stroke-linejoin="round"/>
<path d="M331.395 111.252L332.034 117.284" stroke="#263238" stroke-linecap="round" stroke-linejoin="round"/>
<path d="M347.671 117.871L346.53 126.127L345.753 131.75L344.85 138.291H322.291L321.388 131.75L320.61 126.127L319.469 117.871H347.671Z" fill="white" stroke="#263238" stroke-linecap="round" stroke-linejoin="round"/>
<path d="M346.531 126.127L345.753 131.75H321.388L320.61 126.127H346.531Z" fill="#92E3A9" stroke="#263238" stroke-linecap="round" stroke-linejoin="round"/>
<path d="M360.061 138.291H215.262V146.757H360.061V138.291Z" fill="white" stroke="#263238" stroke-linecap="round" stroke-linejoin="round"/>
<path d="M360.061 138.291H326.68V146.757H360.061V138.291Z" fill="white" stroke="#263238" stroke-linecap="round" stroke-linejoin="round"/>
<path d="M323.432 146.791C338.944 151.837 336.147 161.378 336.147 161.378H350.832V146.791H323.432Z" fill="#919191" stroke="#263238" stroke-linecap="round" stroke-linejoin="round"/>
<path d="M328.385 146.791C343.884 151.837 341.088 161.378 341.088 161.378H355.785V146.791H328.385Z" fill="white" stroke="#263238" stroke-linecap="round" stroke-linejoin="round"/>
<path d="M224.052 146.791C239.564 151.837 236.768 161.378 236.768 161.378H251.452V146.791H224.052Z" fill="#919191" stroke="#263238" stroke-linecap="round" stroke-linejoin="round"/>
<path d="M229.006 146.791C244.505 151.837 241.709 161.378 241.709 161.378H256.406V146.791H229.006Z" fill="white" stroke="#263238" stroke-linecap="round" stroke-linejoin="round"/>
<path d="M561.842 95.1266H431.978V254.235H561.842V95.1266Z" fill="#919191" stroke="#263238" stroke-linecap="round" stroke-linejoin="round"/>
<path d="M556.212 102.033H437.621V247.329H556.212V102.033Z" fill="#92E3A9"/>
<path opacity="0.5" d="M556.212 102.033H437.621V247.329H556.212V102.033Z" fill="white"/>
<path d="M463.692 236.295C460.512 240.576 456.495 244.323 451.829 247.362H556.212V102.033H536.975L534.467 102.73C515.657 107.965 496.22 123.117 485.198 150.653" stroke="#263238" stroke-linecap="round" stroke-linejoin="round"/>
<path d="M483.367 155.479C478.988 168.611 476.568 182.191 476.169 195.876C475.479 212.3 471.517 224.109 466.225 232.598" stroke="#263238" stroke-linecap="round" stroke-linejoin="round"/>
<path d="M544.612 138.91C527.37 147.764 507.293 162.639 499.794 185.45C495.769 197.624 499.544 208.603 507.005 218" stroke="#263238" stroke-linecap="round" stroke-linejoin="round"/>
<path d="M511.043 222.582C521.388 233.273 536.123 241.685 548.048 247.34H556.212V133.542C553.879 134.505 551.396 135.59 548.813 136.863" stroke="#263238" stroke-linecap="round" stroke-linejoin="round"/>
<path d="M457.334 139.917C466.413 123.582 467.366 110.621 466.325 102.033H437.646V168.505C441.885 163.182 447.076 156.065 453.346 146.525C453.735 145.938 454.098 145.418 454.462 144.798" stroke="#263238" stroke-linecap="round" stroke-linejoin="round"/>
<path d="M468.57 202.837C467.178 210.883 462.99 216.727 458.049 216.727C451.967 216.727 447.026 207.873 447.026 196.916C447.026 185.959 451.967 177.105 458.049 177.105C464.131 177.105 469.071 185.959 469.071 196.916" stroke="#263238" stroke-linecap="round" stroke-linejoin="round"/>
<path d="M473.799 156.253C473.799 160.47 471.692 163.901 469.071 163.901C466.45 163.901 464.356 160.47 464.356 156.253C464.356 152.037 466.463 148.606 469.071 148.606C471.68 148.606 473.799 152.025 473.799 156.253Z" stroke="#263238" stroke-linecap="round" stroke-linejoin="round"/>
<path d="M533.966 188.56C538.518 190.475 541.49 193.817 541.49 197.613C541.49 203.557 534.091 208.382 524.95 208.382C515.808 208.382 508.422 203.557 508.422 197.613C508.422 191.67 515.82 186.833 524.95 186.833C526.406 186.832 527.86 186.958 529.288 187.21" stroke="#263238" stroke-linecap="round" stroke-linejoin="round"/>
<path d="M531.922 197.613C531.922 200.103 528.824 202.129 524.987 202.129C521.15 202.129 518.052 200.103 518.052 197.613C518.052 195.123 521.162 193.087 524.987 193.087C528.812 193.087 531.922 195.112 531.922 197.613Z" stroke="#263238" stroke-linecap="round" stroke-linejoin="round"/>
<path d="M543.107 170.154C543.107 173.607 539.233 176.408 534.442 176.408C529.652 176.408 525.777 173.607 525.777 170.154C525.777 166.701 529.652 163.901 534.442 163.901C539.233 163.901 543.107 166.701 543.107 170.154Z" stroke="#263238" stroke-linecap="round" stroke-linejoin="round"/>
<path d="M480.495 135.402C483.757 135.402 486.402 129.644 486.402 122.541C486.402 115.438 483.757 109.681 480.495 109.681C477.233 109.681 474.589 115.438 474.589 122.541C474.589 129.644 477.233 135.402 480.495 135.402Z" stroke="#263238" stroke-linecap="round" stroke-linejoin="round"/>
<path d="M496.647 233.063C496.647 234.508 496.161 235.92 495.252 237.121C494.343 238.322 493.05 239.259 491.538 239.812C490.025 240.364 488.361 240.509 486.756 240.227C485.15 239.945 483.676 239.25 482.518 238.228C481.361 237.207 480.572 235.905 480.253 234.488C479.934 233.071 480.098 231.602 480.724 230.268C481.35 228.933 482.411 227.792 483.772 226.989C485.133 226.187 486.734 225.758 488.37 225.758C490.565 225.758 492.671 226.528 494.223 227.898C495.775 229.268 496.647 231.126 496.647 233.063Z" stroke="#263238" stroke-linecap="round" stroke-linejoin="round"/>
<path d="M535.232 124.622C535.235 125.518 534.936 126.395 534.373 127.141C533.811 127.887 533.01 128.469 532.072 128.813C531.134 129.157 530.102 129.248 529.106 129.073C528.11 128.899 527.195 128.468 526.477 127.834C525.759 127.2 525.27 126.393 525.073 125.513C524.875 124.634 524.978 123.723 525.367 122.896C525.757 122.068 526.416 121.361 527.262 120.865C528.107 120.368 529.101 120.104 530.116 120.106C531.472 120.109 532.771 120.586 533.73 121.432C534.689 122.278 535.229 123.425 535.232 124.622Z" stroke="#263238" stroke-linecap="round" stroke-linejoin="round"/>
<path d="M502.942 156.596C502.944 157.078 502.785 157.55 502.483 157.952C502.181 158.354 501.751 158.668 501.248 158.854C500.744 159.04 500.189 159.09 499.653 158.997C499.117 158.904 498.624 158.673 498.237 158.333C497.85 157.993 497.586 157.559 497.478 157.087C497.371 156.614 497.425 156.124 497.633 155.678C497.842 155.233 498.195 154.852 498.649 154.584C499.103 154.316 499.637 154.173 500.183 154.173C500.545 154.171 500.903 154.233 501.238 154.354C501.573 154.475 501.877 154.653 502.133 154.879C502.389 155.104 502.593 155.372 502.732 155.666C502.87 155.961 502.942 156.277 502.942 156.596Z" stroke="#263238" stroke-linecap="round" stroke-linejoin="round"/>
<path d="M556.212 102.033H437.621V247.329H556.212V102.033Z" stroke="#263238" stroke-linecap="round" stroke-linejoin="round"/>
<path d="M362.393 309.22H330.178V319.922H362.393V309.22Z" fill="#263238" stroke="#263238" stroke-linecap="round" stroke-linejoin="round"/>
<path d="M405.619 310.836H277.397L283.467 223.113H411.701L405.619 310.836Z" fill="#919191" stroke="#263238" stroke-linecap="round" stroke-linejoin="round"/>
<path d="M401.945 310.836H273.723L279.793 223.113H408.014L401.945 310.836Z" fill="#263238" stroke="#263238" stroke-linecap="round" stroke-linejoin="round"/>
<path d="M395.16 305.955H281.184L286.577 227.983H400.553L395.16 305.955Z" fill="white" stroke="#263238" stroke-linecap="round" stroke-linejoin="round"/>
<path d="M362.005 294.334H284.583L288.734 234.247H366.168L362.005 294.334Z" fill="#919191" stroke="#263238" stroke-linecap="round" stroke-linejoin="round"/>
<path d="M315.13 268.524C315.13 268.524 299.004 274.157 298.903 275.673C298.803 277.19 295.643 294.334 295.643 294.334H343.596L339.558 274.589L321.814 268.081L315.13 268.524Z" fill="white" stroke="#263238" stroke-linecap="round" stroke-linejoin="round"/>
<path d="M315.607 265.049C314.393 265.331 313.266 265.849 312.309 266.565C311.055 267.672 309.525 271.335 309.525 271.335L309.462 275.674L315.82 272.641L322.278 272.265L328.322 277.256L329.1 269.664C329.1 269.664 328.172 265.325 326.216 265.104C324.259 264.883 315.607 265.049 315.607 265.049Z" fill="white" stroke="#263238" stroke-linecap="round" stroke-linejoin="round"/>
<path d="M315.406 260.931L315.13 268.524L318.93 273.947L325.212 268.302L326.19 261.363L315.406 260.931Z" fill="white" stroke="#263238" stroke-linecap="round" stroke-linejoin="round"/>
<path d="M330.906 252.055C330.454 258.419 325.664 266.133 320.41 266.133C315.155 266.133 311.431 258.386 311.87 252.055C312.309 245.724 316.886 240.534 322.178 240.534C327.47 240.534 331.344 245.702 330.906 252.055Z" fill="white" stroke="#263238" stroke-linecap="round" stroke-linejoin="round"/>
<path d="M311.782 252.896C311.782 252.896 310.089 249 309.387 252.033C308.685 255.066 312.146 258.319 312.146 258.319L311.782 252.896Z" fill="white" stroke="#263238" stroke-linecap="round" stroke-linejoin="round"/>
<path d="M330.906 252.055C330.906 252.055 335.056 250.517 333.84 253.771C333.531 254.691 332.992 255.539 332.263 256.252C331.534 256.964 330.633 257.523 329.626 257.888L330.906 252.055Z" fill="white" stroke="#263238" stroke-linecap="round" stroke-linejoin="round"/>
<path d="M319.896 252.896C319.929 252.506 319.869 252.113 319.721 251.744C319.573 251.374 319.339 251.036 319.035 250.751C318.73 250.466 318.362 250.239 317.953 250.087C317.544 249.934 317.104 249.858 316.66 249.864C315.736 249.885 314.853 250.206 314.18 250.766C313.507 251.325 313.091 252.083 313.011 252.896C312.978 253.287 313.037 253.681 313.186 254.05C313.334 254.42 313.567 254.759 313.871 255.045C314.175 255.331 314.544 255.559 314.952 255.713C315.361 255.867 315.802 255.944 316.246 255.94C317.173 255.918 318.057 255.596 318.73 255.034C319.404 254.472 319.819 253.711 319.896 252.896Z" fill="white" stroke="#263238" stroke-linecap="round" stroke-linejoin="round"/>
<path d="M328.247 252.896L331.997 252.033" stroke="#263238" stroke-linecap="round" stroke-linejoin="round"/>
<path d="M328.247 252.896C328.28 252.506 328.221 252.115 328.074 251.746C327.926 251.378 327.694 251.04 327.391 250.755C327.088 250.47 326.721 250.243 326.314 250.09C325.906 249.937 325.467 249.86 325.024 249.864C324.098 249.882 323.212 250.202 322.536 250.762C321.861 251.321 321.443 252.081 321.363 252.896C321.33 253.287 321.389 253.681 321.537 254.05C321.685 254.42 321.919 254.759 322.223 255.045C322.527 255.331 322.895 255.559 323.304 255.713C323.713 255.867 324.153 255.944 324.598 255.94C325.524 255.918 326.409 255.596 327.082 255.034C327.755 254.472 328.17 253.711 328.247 252.896Z" fill="white" stroke="#263238" stroke-linecap="round" stroke-linejoin="round"/>
<path d="M321.325 239.228C321.325 239.228 317.563 237.501 314.741 238.586C311.92 239.67 309.838 245.525 309.976 247.042C310.418 249.029 311.022 250.985 311.782 252.896L314.766 245.304L322.591 242.271L321.325 239.228Z" fill="#263238" stroke="#263238" stroke-linecap="round" stroke-linejoin="round"/>
<path d="M317.538 240.755C317.538 240.755 323.733 236.417 328.749 238.541C330.284 239.13 331.553 240.154 332.355 241.451C333.156 242.748 333.445 244.244 333.175 245.702C333.1 246.809 333 251.767 333 251.767L330.015 252.21L328.548 248.126C326.853 247.534 325.202 246.847 323.607 246.068C323.607 246.068 316.974 245.304 317.538 240.755Z" fill="#263238" stroke="#263238" stroke-linecap="round" stroke-linejoin="round"/>
<path d="M319.895 252.896L319.457 259.194H321.175" fill="white"/>
<path d="M319.895 252.896L319.457 259.194H321.175" stroke="#263238" stroke-linecap="round" stroke-linejoin="round"/>
<path d="M318.554 261.573H322.24" stroke="#263238" stroke-linecap="round" stroke-linejoin="round"/>
<path d="M318.93 273.947L317.563 293.681" stroke="#263238" stroke-linecap="round" stroke-linejoin="round"/>
<path d="M339.533 274.589C339.533 274.589 334.404 284.793 334.254 286.963C334.103 289.132 333.526 293.902 333.526 293.902" stroke="#263238" stroke-linecap="round" stroke-linejoin="round"/>
<path d="M298.904 275.674C298.904 275.674 304.007 283.487 304.672 284.528C305.337 285.568 304.521 293.858 304.521 293.858" stroke="#263238" stroke-linecap="round" stroke-linejoin="round"/>
<path d="M342.957 281.971L344.649 275.242L347.534 272.641L350.255 268.734H351.484L349.979 272.862L353.791 270.903L356.249 267.439L357.679 268.081L354.167 276.116L348.6 278.496L347.634 281.75L342.957 281.971Z" fill="white" stroke="#263238" stroke-linecap="round" stroke-linejoin="round"/>
<path d="M347.722 294.334L348.186 280.886L342.593 280.012L338.179 294.334H347.722Z" fill="white" stroke="#263238" stroke-linecap="round" stroke-linejoin="round"/>
<path d="M361.666 299.325H284.232L284.583 294.334H362.005L361.666 299.325Z" fill="white" stroke="#263238" stroke-linecap="round" stroke-linejoin="round"/>
<path d="M287.392 296.293H358.431" stroke="#263238" stroke-linecap="round" stroke-linejoin="round"/>
<path d="M395.286 250.284H369.228L370.331 234.446H396.389L395.286 250.284Z" fill="#92E3A9" stroke="#263238" stroke-linecap="round" stroke-linejoin="round"/>
<path d="M395.286 250.284H369.228L369.416 247.683H395.474L395.286 250.284Z" fill="white" stroke="#263238" stroke-linecap="round" stroke-linejoin="round"/>
<path d="M386.872 241.441L380.1 237.866L379.611 245.016L386.872 241.441Z" fill="white" stroke="#263238" stroke-linecap="round" stroke-linejoin="round"/>
<path d="M393.593 274.799H367.535L368.626 258.972H394.684L393.593 274.799Z" fill="#92E3A9" stroke="#263238" stroke-linecap="round" stroke-linejoin="round"/>
<path d="M393.593 274.799H367.535L367.723 272.198H393.769L393.593 274.799Z" fill="white" stroke="#263238" stroke-linecap="round" stroke-linejoin="round"/>
<path d="M385.179 265.967L378.407 262.392L377.918 269.542L385.179 265.967Z" fill="white" stroke="#263238" stroke-linecap="round" stroke-linejoin="round"/>
<path d="M391.888 299.325H365.842L366.933 283.487H392.991L391.888 299.325Z" fill="#92E3A9" stroke="#263238" stroke-linecap="round" stroke-linejoin="round"/>
<path d="M391.888 299.325H365.842L366.018 296.724H392.076L391.888 299.325Z" fill="white" stroke="#263238" stroke-linecap="round" stroke-linejoin="round"/>
<path d="M383.473 290.482L376.714 286.907L376.213 294.057L383.473 290.482Z" fill="white" stroke="#263238" stroke-linecap="round" stroke-linejoin="round"/>
<path d="M369.303 252.896H394.609" stroke="#263238" stroke-linecap="round" stroke-linejoin="round"/>
<path d="M369.115 255.508H394.433" stroke="#263238" stroke-linecap="round" stroke-linejoin="round"/>
<path d="M367.585 277.633H392.903" stroke="#263238" stroke-linecap="round" stroke-linejoin="round"/>
<path d="M367.409 280.233H392.728" stroke="#263238" stroke-linecap="round" stroke-linejoin="round"/>
<path d="M356.362 319.922H337.326C337.326 318.246 338.08 316.639 339.423 315.453C340.766 314.268 342.587 313.602 344.486 313.602H349.176C351.075 313.602 352.897 314.268 354.239 315.453C355.582 316.639 356.337 318.246 356.337 319.922H356.362Z" fill="white" stroke="#263238" stroke-linecap="round" stroke-linejoin="round"/>
<path d="M328.26 316.48H235.188V319.922H328.26V316.48Z" fill="#919191" stroke="#263238" stroke-linecap="round" stroke-linejoin="round"/>
<path d="M328.235 316.48H304.847V319.922H328.235V316.48Z" fill="white" stroke="#263238" stroke-linecap="round" stroke-linejoin="round"/>
<path d="M197.041 151.218V85.8187" stroke="#263238" stroke-linecap="round" stroke-linejoin="round"/>
<path d="M197.041 478.522V157.725" stroke="#263238" stroke-linecap="round" stroke-linejoin="round"/>
<path d="M366.256 342.876L377.542 477.161C377.6 477.651 377.869 478.103 378.292 478.424C378.715 478.746 379.261 478.913 379.818 478.892C380.376 478.871 380.904 478.663 381.294 478.31C381.684 477.958 381.908 477.487 381.918 476.995L380.225 342.876H366.256Z" fill="#919191" stroke="#263238" stroke-linecap="round" stroke-linejoin="round"/>
<path d="M374.771 342.876L380.727 478.71C381.078 478.544 381.372 478.297 381.575 477.994C381.779 477.692 381.884 477.346 381.881 476.995L380.225 342.876H374.771Z" fill="white" stroke="#263238" stroke-linecap="round" stroke-linejoin="round"/>
<path d="M437.195 342.876L448.481 477.161C448.539 477.651 448.807 478.103 449.23 478.424C449.653 478.746 450.199 478.913 450.757 478.892C451.315 478.871 451.843 478.663 452.233 478.31C452.623 477.958 452.846 477.487 452.857 476.995L451.164 342.876H437.195Z" fill="#919191" stroke="#263238" stroke-linecap="round" stroke-linejoin="round"/>
<path d="M445.045 342.876L451.992 478.511C452.252 478.331 452.462 478.101 452.606 477.838C452.749 477.575 452.822 477.286 452.819 476.995L451.164 342.876H445.045Z" fill="white" stroke="#263238" stroke-linecap="round" stroke-linejoin="round"/>
<path d="M250.198 344.337L238.912 477.149C238.874 477.637 238.627 478.093 238.222 478.426C237.817 478.759 237.284 478.943 236.73 478.942C236.44 478.947 236.152 478.9 235.882 478.806C235.612 478.711 235.366 478.57 235.158 478.391C234.951 478.212 234.786 477.998 234.672 477.762C234.559 477.526 234.5 477.273 234.498 477.017L236.166 343.983L250.198 344.337Z" fill="#263238" stroke="#263238" stroke-linecap="round" stroke-linejoin="round"/>
<path d="M179.322 344.337L168.036 477.149C167.998 477.637 167.751 478.093 167.346 478.426C166.941 478.759 166.408 478.943 165.854 478.942C165.565 478.941 165.279 478.889 165.012 478.79C164.746 478.69 164.504 478.545 164.301 478.363C164.099 478.181 163.939 477.966 163.831 477.729C163.723 477.492 163.669 477.239 163.672 476.983L165.34 343.95L179.322 344.337Z" fill="#263238" stroke="#263238" stroke-linecap="round" stroke-linejoin="round"/>
<path d="M455.315 323.043H161.089V343.961H455.315V323.043Z" fill="#919191" stroke="#263238" stroke-linecap="round" stroke-linejoin="round"/>
<path d="M455.315 323.043H370.996V343.961H455.315V323.043Z" fill="white" stroke="#263238" stroke-linecap="round" stroke-linejoin="round"/>
<path d="M455.315 326.364H161.089V332.13H455.315V326.364Z" fill="#263238" stroke="#263238" stroke-linecap="round" stroke-linejoin="round"/>
<path d="M459.553 320.044H156.85V327.039H459.553V320.044Z" fill="#919191" stroke="#263238" stroke-linecap="round" stroke-linejoin="round"/>
<path d="M459.541 320.044H376.413V327.039H459.541V320.044Z" fill="white" stroke="#263238" stroke-linecap="round" stroke-linejoin="round"/>
<path d="M370.294 190.364H329.438C327.31 190.364 325.268 191.11 323.763 192.439C322.258 193.767 321.413 195.569 321.413 197.447V210.728C321.411 211.659 321.617 212.581 322.02 213.441C322.423 214.301 323.014 215.082 323.76 215.74C324.505 216.398 325.391 216.92 326.365 217.275C327.339 217.631 328.384 217.813 329.438 217.812H350.831L342.818 237.567L358.167 217.812H370.294C371.348 217.813 372.392 217.631 373.367 217.275C374.341 216.92 375.227 216.398 375.972 215.74C376.718 215.082 377.309 214.301 377.712 213.441C378.114 212.581 378.321 211.659 378.319 210.728V197.447C378.319 195.569 377.474 193.767 375.968 192.439C374.463 191.11 372.422 190.364 370.294 190.364Z" fill="white" stroke="#263238" stroke-linecap="round" stroke-linejoin="round"/>
<path d="M338.918 207.109C340.532 207.109 341.84 205.955 341.84 204.531C341.84 203.106 340.532 201.952 338.918 201.952C337.305 201.952 335.997 203.106 335.997 204.531C335.997 205.955 337.305 207.109 338.918 207.109Z" fill="#263238"/>
<path d="M349.866 207.109C351.48 207.109 352.788 205.955 352.788 204.531C352.788 203.106 351.48 201.952 349.866 201.952C348.252 201.952 346.944 203.106 346.944 204.531C346.944 205.955 348.252 207.109 349.866 207.109Z" fill="#263238"/>
<path d="M363.723 204.531C363.723 204.02 363.551 203.521 363.229 203.097C362.908 202.672 362.451 202.342 361.916 202.147C361.381 201.952 360.793 201.902 360.226 202.002C359.659 202.103 359.138 202.349 358.73 202.711C358.322 203.073 358.045 203.533 357.934 204.034C357.822 204.535 357.882 205.054 358.105 205.525C358.328 205.996 358.704 206.398 359.187 206.68C359.669 206.962 360.235 207.111 360.813 207.109C361.196 207.109 361.576 207.043 361.93 206.913C362.283 206.783 362.605 206.593 362.875 206.353C363.145 206.114 363.359 205.829 363.505 205.517C363.65 205.204 363.724 204.869 363.723 204.531Z" fill="#263238"/>
<path d="M564.3 479.23H598.158" stroke="#263238" stroke-linecap="round" stroke-linejoin="round"/>
<path d="M30.0959 479.23H546.744" stroke="#263238" stroke-linecap="round" stroke-linejoin="round"/>
<path d="M229.03 283.642C225.356 278.108 214.547 256.803 214.547 256.803C214.873 254.527 215.401 252.277 216.127 250.074C217.017 247.86 219.262 241.153 218.81 239.759C218.359 238.364 211.851 235.797 211.186 235.597C210.521 235.398 212.076 232.034 209.606 231.237C207.136 230.44 206.245 231.635 206.245 231.635L205.305 237.169L202.421 241.153C201.22 240.348 199.963 239.608 198.659 238.94C196.64 237.944 191.925 237.545 191.699 239.139C191.473 240.733 195.461 242.105 196.853 243.101C198.245 244.097 200 248.845 201.58 250.24C203.016 251.623 204.364 253.075 205.618 254.59L206.521 257.168C206.521 257.168 209.593 283.277 209.957 289.774C210.321 296.27 211.424 313.459 213.631 316.048C215.838 318.638 216.215 320.276 222.409 318.328C228.604 316.38 229.758 313.78 231.187 307.936C232.617 302.092 232.705 289.154 229.03 283.642Z" fill="white" stroke="#263238" stroke-linecap="round" stroke-linejoin="round"/>
<path d="M231.237 307.969C232.705 302.136 232.705 289.154 229.03 283.62C228.629 283.011 228.14 282.226 227.588 281.296C219.274 279.16 211.374 282.646 211.374 282.646L209.368 283.421C209.631 286.132 209.832 288.401 209.907 289.785C210.283 296.27 211.374 313.47 213.581 316.059C215.788 318.649 216.164 320.287 222.359 318.339C228.554 316.392 229.758 313.813 231.237 307.969Z" fill="#92E3A9" stroke="#263238" stroke-linecap="round" stroke-linejoin="round"/>
<path d="M202.22 195.898C203.126 198.834 203.631 201.854 203.725 204.896C203.725 209.223 202.22 211.891 204.49 213.219C206.76 214.547 208.641 214.558 208.252 217.225C208.103 218.698 207.442 220.093 206.358 221.221C206.358 221.221 205.606 234.878 204.853 236.217C204.101 237.557 194.282 235.885 192.012 235.542C189.743 235.199 183.335 237.877 179.172 230.551C175.008 223.224 178.419 212.223 185.968 206.556C191.161 202.744 196.586 199.186 202.22 195.898Z" fill="white" stroke="#263238" stroke-linecap="round" stroke-linejoin="round"/>
<path d="M203.725 204.841C203.725 204.841 201.681 203.49 200.602 205.859" stroke="#263238" stroke-linecap="round" stroke-linejoin="round"/>
<path d="M201.894 210.352C201.6 211.694 201.695 213.08 202.17 214.381" stroke="#263238" stroke-linecap="round" stroke-linejoin="round"/>
<path d="M205.656 226.002C205.321 226.097 204.967 226.128 204.617 226.095C204.267 226.061 203.929 225.963 203.625 225.806C203.321 225.649 203.058 225.438 202.853 225.186C202.647 224.934 202.504 224.646 202.433 224.342" stroke="#263238" stroke-linecap="round" stroke-linejoin="round"/>
<path d="M209.932 288.645C209.932 288.645 208.678 293.714 207.562 296.392C206.446 299.071 186.432 303.985 177.717 305.003C171.976 305.636 166.197 305.972 160.412 306.01L160.963 320.022C160.963 320.022 177.842 320.32 179.034 320.022C180.225 319.723 208.64 308.511 208.64 308.511L220.905 307.095C220.905 307.095 226.059 305.988 226.259 302.457C226.46 298.927 221.908 288.888 219.839 287.328C217.77 285.767 213.406 281.628 210.785 284.174C208.164 286.719 209.932 288.645 209.932 288.645Z" fill="white" stroke="#263238" stroke-linecap="round" stroke-linejoin="round"/>
<path d="M172.3 313.802C172.3 307.748 174.055 307.593 176.062 305.191C170.877 305.702 165.666 305.976 160.449 306.01L160.035 318.871C160.035 318.871 169.277 319.623 174.908 319.977C174.444 320.608 172.3 317.698 172.3 313.802Z" fill="#92E3A9" stroke="#263238" stroke-linecap="round" stroke-linejoin="round"/>
<path d="M226.798 341.028C220.121 334.406 211.634 329.403 202.145 326.496L180.124 334.786C178.414 331.08 176.145 327.596 173.378 324.427L169.265 320L171.911 307.305C171.911 307.305 187.761 297.72 189.805 293.57L189.881 293.437C193.066 297.787 206.885 316.613 209.481 318.439C212.415 320.52 221.218 320.774 225.03 317.664C228.842 314.554 230.611 312.485 229.733 307.825C229.733 307.825 223.864 296.68 220.629 291.755C217.393 286.83 210.358 269.221 206.835 263.776C204.327 259.88 203.286 257.135 201.505 255.298C200.269 253.418 198.81 251.66 197.154 250.052C193.63 246.732 183.937 245.902 181.88 245.127C179.824 244.352 179.535 244.086 167.798 240.987C156.06 237.889 142.843 236.062 133.451 242.537C133.451 242.537 120.835 255.752 115.895 277.511C110.954 299.27 110.603 321.294 110.026 325.179C109.449 329.064 104.446 347.979 102.978 358.858C101.511 369.738 114.377 380.661 122.303 384.048C130.228 387.435 164.274 387.933 184.238 384.048C204.201 380.163 235.902 362.544 235.902 362.544C235.902 362.544 237.069 351.653 226.798 341.028Z" fill="#92E3A9" stroke="#263238" stroke-linecap="round" stroke-linejoin="round"/>
<path d="M174.895 293.16L170.87 293.039" stroke="#263238" stroke-linecap="round" stroke-linejoin="round"/>
<path d="M173.378 287.505C179.017 289.182 184.507 291.224 189.805 293.614L179.472 293.304" stroke="#263238" stroke-linecap="round" stroke-linejoin="round"/>
<path d="M227.915 294.046C229.073 295.651 229.786 297.475 229.996 299.369C229.996 301.815 230.46 305.091 229.306 304.073C228.153 303.055 227.676 299.569 227.676 299.569L227.915 294.046Z" fill="white" stroke="#263238" stroke-linecap="round" stroke-linejoin="round"/>
<path d="M220.967 291.19C220.967 291.19 225.306 289.11 227.237 291.611C229.168 294.112 228.654 299.104 227.237 301.572C225.82 304.04 224.203 301.683 224.403 299.491C224.604 297.3 220.967 291.19 220.967 291.19Z" fill="white" stroke="#263238" stroke-linecap="round" stroke-linejoin="round"/>
<path d="M219.337 288.534C219.337 288.534 223.689 286.453 225.607 288.955C227.526 291.456 227.012 296.436 225.607 298.916C224.203 301.395 222.572 299.026 222.773 296.835C222.974 294.643 219.337 288.534 219.337 288.534Z" fill="white" stroke="#263238" stroke-linecap="round" stroke-linejoin="round"/>
<path d="M217.343 285.668C217.343 285.668 221.695 283.587 223.613 286.088C225.532 288.59 225.03 293.581 223.613 296.049C222.196 298.517 220.579 296.16 220.779 293.968C220.98 291.777 217.343 285.668 217.343 285.668Z" fill="white" stroke="#263238" stroke-linecap="round" stroke-linejoin="round"/>
<path d="M206.333 185.505C206.405 189.483 205.243 193.402 202.973 196.839C196.552 205.505 190.52 204.497 187.925 211.503C185.329 218.509 181.454 225.78 185.592 229.831C189.73 233.882 193.116 231.491 193.116 231.491C193.116 231.491 195.762 237.49 188.965 243.489C182.169 249.487 170.469 247.152 167.447 246.156C165.544 245.509 163.763 244.61 162.167 243.489C162.167 243.489 160.274 248.159 150.881 248.159C141.489 248.159 130.817 242.493 130.817 232.155C130.817 221.818 137.225 214.835 138.743 210.828C140.26 206.822 136.097 194.503 142.505 186.844C148.913 179.186 158.807 173.563 166.331 173.563C173.855 173.563 188.539 177.204 188.602 177.227C189.592 177.703 195.938 175.423 197.656 175.522C203.963 175.832 206.258 180.403 206.333 185.505Z" fill="#263238" stroke="#263238" stroke-linecap="round" stroke-linejoin="round"/>
<path d="M181.83 232.908C183.199 233.069 184.587 233.069 185.956 232.908" stroke="#919191" stroke-linecap="round" stroke-linejoin="round"/>
<path d="M200.891 191.316C200.295 194.283 199.056 197.12 197.242 199.672C191.373 207.807 184.702 210.74 176.714 218.487C171.585 223.501 172.55 228.503 176.714 231.126" stroke="#919191" stroke-linecap="round" stroke-linejoin="round"/>
<path d="M201.004 182.672C201.248 183.892 201.37 185.129 201.367 186.368" stroke="#919191" stroke-linecap="round" stroke-linejoin="round"/>
<path d="M193.116 190.43C193.116 190.43 191.862 201.885 186.42 208.537C180.977 215.189 170.118 218.498 170.506 225.537" stroke="#919191" stroke-linecap="round" stroke-linejoin="round"/>
<path d="M243.652 382.178C243.652 382.178 251.477 417.661 258.173 434.904C264.87 452.148 271.566 467.919 273.221 469.402C274.877 470.885 279.366 476.297 279.366 476.297C277.291 477.76 274.756 478.621 272.105 478.765C268.193 478.765 263.177 474.338 258.7 471.859C254.223 469.38 253.684 467.919 244.743 464.964C235.802 462.009 243.075 454.129 245.307 450.177C246.598 448.045 247.359 445.695 247.54 443.282C243.991 432.184 237.699 421.918 229.118 413.223C215.186 399.432 212.39 367.447 212.39 367.447L239.188 358.593L243.652 382.178Z" fill="white" stroke="#263238" stroke-linecap="round" stroke-linejoin="round"/>
<path d="M272.118 467.631L270.5 467.919C270.5 467.919 261.007 456.586 253.759 452.646C251.289 451.14 248.383 450.288 245.383 450.189C243.138 454.129 235.89 462.009 244.818 464.964C253.747 467.919 254.311 469.391 258.775 471.859C263.24 474.327 268.268 478.765 272.181 478.765C274.831 478.622 277.366 477.76 279.441 476.297C279.441 476.297 274.965 470.874 273.297 469.402C272.822 468.858 272.426 468.263 272.118 467.631Z" fill="#92E3A9" stroke="#263238" stroke-linecap="round" stroke-linejoin="round"/>
<path d="M267.616 477.36C263.202 474.67 259.214 468.694 252.029 464.964C245.496 461.577 242.135 461.444 240.743 461.699C241.084 462.489 241.632 463.197 242.343 463.765C243.053 464.332 243.906 464.743 244.831 464.964C253.772 467.919 254.324 469.391 258.788 471.859C261.609 473.453 264.719 475.91 267.616 477.36Z" fill="#92E3A9" stroke="#263238" stroke-linecap="round" stroke-linejoin="round"/>
<path d="M272.118 478.765C271.832 478.756 271.547 478.73 271.265 478.688C271.546 478.735 271.832 478.761 272.118 478.765Z" fill="#92E3A9" stroke="#263238" stroke-linecap="round" stroke-linejoin="round"/>
<path d="M193.894 328.71C193.894 328.71 220.729 320.321 223.237 325.854C225.745 331.388 237.232 352.029 233.043 360.507C228.855 368.985 199.411 336.158 195.223 335.45C191.034 334.742 193.404 331.189 193.894 328.71Z" fill="white" stroke="#263238" stroke-linecap="round" stroke-linejoin="round"/>
<path d="M220.19 339.523C220.19 339.523 250.7 337.309 256.556 342.113C262.412 346.916 242.348 404.457 231.476 422.531C214.434 450.797 219.588 458.202 219.588 458.202C219.588 458.202 220.842 462.629 229.206 469.646C237.57 476.662 240.078 477.758 237.144 478.865C234.21 479.972 221.682 478.865 220.428 478.123C219.174 477.382 209.982 470.752 201.618 468.539C193.254 466.325 194.508 464.842 198.27 458.202C202.032 451.561 201.618 457.095 205.794 445.662C210.8 431.573 214.754 417.209 217.632 402.664C219.851 390.811 223.237 377.795 222.284 365.742L220.19 339.523Z" fill="white" stroke="#263238" stroke-linecap="round" stroke-linejoin="round"/>
<path d="M242.536 357.541C239.341 350.738 233.845 344.972 226.798 341.028C213.456 333.513 202.145 326.496 202.145 326.496L180.125 334.786C180.125 334.786 185.492 342.821 157.904 346.883C136.661 350.004 117.161 345.477 106.64 340.021C105.173 346.451 103.643 353.601 102.878 358.836C101.411 369.716 114.327 380.595 122.252 383.971C130.178 387.346 194.031 394.33 211.224 384.579C242.536 366.904 242.536 357.541 242.536 357.541Z" fill="#263238" stroke="#263238" stroke-linecap="round" stroke-linejoin="round"/>
<path d="M177.629 340.884C174.682 343.02 168.939 345.311 157.904 346.894C136.661 350.015 117.161 345.488 106.64 340.032C106.264 341.681 105.888 343.352 105.511 345.068C112.722 348.897 127.87 355.383 144.95 353.535C165.327 351.332 174.381 346.418 177.629 340.884Z" fill="#92E3A9" stroke="#263238" stroke-linecap="round" stroke-linejoin="round"/>
<path d="M161.352 364.591C160.374 365.698 159.358 366.805 158.33 367.911" stroke="white" stroke-linecap="round" stroke-linejoin="round"/>
<path d="M176.714 343.585C172.854 349.848 168.549 355.888 163.823 361.669" stroke="white" stroke-linecap="round" stroke-linejoin="round"/>
<path d="M167.522 350.591C167.522 350.591 159.998 359.445 152.06 364.613" stroke="white" stroke-linecap="round" stroke-linejoin="round"/>
<path d="M229.206 469.623C220.842 462.629 219.588 458.201 219.588 458.201C219.308 457.972 219.086 457.693 218.936 457.382C218.372 457.903 216.666 458.888 212.49 457.471C208.866 456.242 205.43 454.151 201.806 452.745C200.941 454.106 200.101 454.959 198.27 458.201C194.508 464.842 193.254 466.325 201.618 468.539C209.982 470.752 219.174 477.393 220.428 478.123C221.682 478.854 234.222 479.972 237.144 478.865C240.066 477.758 237.57 476.629 229.206 469.623Z" fill="#92E3A9" stroke="#263238" stroke-linecap="round" stroke-linejoin="round"/>
<path d="M236.906 361.293L251.126 353.546" stroke="#263238" stroke-linecap="round" stroke-linejoin="round"/>
<path d="M67.0264 291.146C67.0264 291.146 112.321 286.143 141.263 293.36L145.665 390.545H77.7481C77.7481 390.545 82.1245 338.339 67.0264 291.146Z" fill="#919191" stroke="#263238" stroke-linecap="round" stroke-linejoin="round"/>
<path d="M141.263 293.36C112.321 286.143 67.0264 291.146 67.0264 291.146C71.8735 306.875 75.0927 322.959 76.6445 339.202C101.936 350.348 125.101 364.911 145.301 382.366L141.263 293.36Z" fill="#757575" stroke="#263238" stroke-linecap="round" stroke-linejoin="round"/>
<path d="M226.673 481.444C226.161 481.445 225.66 481.308 225.239 481.051C224.817 480.794 224.495 480.429 224.316 480.005C214.284 456.143 211.776 394.197 211.625 391.574C211.602 390.987 211.844 390.416 212.298 389.986C212.751 389.557 213.38 389.304 214.045 389.283C214.71 389.263 215.358 389.476 215.844 389.877C216.331 390.277 216.618 390.832 216.641 391.419C216.641 392.061 219.249 455.269 229.018 478.455C229.249 479.006 229.223 479.615 228.946 480.148C228.668 480.681 228.162 481.096 227.538 481.3C227.263 481.396 226.969 481.445 226.673 481.444Z" fill="white" stroke="#263238" stroke-linecap="round" stroke-linejoin="round"/>
<path d="M172.061 481.444C171.551 481.443 171.053 481.305 170.634 481.048C170.215 480.791 169.895 480.427 169.716 480.005C159.684 456.143 157.176 394.197 157.013 391.574C156.99 390.987 157.232 390.416 157.686 389.986C158.14 389.557 158.768 389.304 159.433 389.283C160.099 389.263 160.746 389.476 161.233 389.877C161.719 390.277 162.006 390.832 162.029 391.419C162.029 392.061 164.638 455.269 174.419 478.455C174.65 479.006 174.624 479.615 174.346 480.148C174.069 480.681 173.563 481.096 172.939 481.3C172.659 481.396 172.362 481.445 172.061 481.444Z" fill="white" stroke="#263238" stroke-linecap="round" stroke-linejoin="round"/>
<path d="M225.996 390.501H76.5566V386.073H221.005C222.335 386.073 223.611 386.54 224.552 387.37C225.492 388.2 226.021 389.326 226.021 390.501H225.996Z" fill="#919191" stroke="#263238" stroke-linecap="round" stroke-linejoin="round"/>
<path d="M225.983 389.427H76.5566V393.821H225.983V389.427Z" fill="white" stroke="#263238" stroke-linecap="round" stroke-linejoin="round"/>
<path d="M140.147 481.444C139.769 481.451 139.395 481.382 139.052 481.244C138.708 481.106 138.405 480.901 138.163 480.644C137.922 480.388 137.75 480.087 137.659 479.763C137.568 479.44 137.561 479.102 137.639 478.776C151.822 419.476 138.893 294.776 138.717 293.526C138.687 293.235 138.722 292.942 138.819 292.663C138.917 292.384 139.076 292.125 139.288 291.9C139.499 291.676 139.759 291.49 140.051 291.354C140.344 291.218 140.664 291.134 140.993 291.107C141.658 291.053 142.321 291.234 142.835 291.611C143.349 291.988 143.672 292.529 143.733 293.116C143.871 294.378 156.9 419.73 142.567 479.684C142.45 480.176 142.147 480.619 141.707 480.939C141.267 481.259 140.717 481.437 140.147 481.444Z" fill="white" stroke="#263238" stroke-linecap="round" stroke-linejoin="round"/>
<path d="M62.399 479.828C62.1653 479.83 61.9326 479.8 61.7093 479.739C61.0718 479.579 60.5319 479.203 60.2076 478.693C59.8834 478.183 59.8011 477.58 59.9788 477.017C92.5828 374.862 64.907 292.607 64.6311 291.788C64.4731 291.237 64.5611 290.654 64.877 290.159C65.1928 289.664 65.7123 289.295 66.3279 289.128C66.9435 288.962 67.608 289.011 68.1839 289.265C68.7597 289.519 69.2028 289.959 69.4214 290.493C69.7098 291.323 97.8621 374.751 64.8067 478.212C64.6593 478.676 64.3444 479.085 63.9099 479.376C63.4754 479.668 62.9449 479.826 62.399 479.828Z" fill="white" stroke="#263238" stroke-linecap="round" stroke-linejoin="round"/>
<path d="M520.886 297.333C520.886 297.333 505.475 289.774 504.334 306.906C503.193 324.039 500.346 435.391 500.346 435.391" stroke="#263238" stroke-width="2" stroke-linecap="round" stroke-linejoin="round"/>
<path d="M496.333 308.412C496.333 308.412 508.873 333.104 503.192 433.886" stroke="#263238" stroke-width="2" stroke-linecap="round" stroke-linejoin="round"/>
<path d="M508.685 300.786C508.685 300.786 502.779 304.106 499.43 300.299C496.082 296.492 501.7 289.497 496.747 286.509C491.794 283.52 483.229 288.08 483.229 288.08C483.229 288.08 489.812 289.785 489.599 292.961C489.386 296.138 486.213 297.333 485.837 295.949C485.461 294.566 482.263 287.571 476.921 290.482C475.377 291.285 474.034 292.356 472.974 293.631C471.913 294.905 471.157 296.357 470.751 297.897C470.751 297.897 483.204 296.724 483.956 300.852C484.708 304.981 478.852 300.133 473.711 299.867C468.569 299.602 463.88 300.266 464.218 303.011C464.332 305.439 464.169 307.872 463.729 310.271C466.544 308.208 470.102 307.101 473.761 307.15C479.417 307.449 479.203 310.625 474.062 310.36C468.921 310.094 464.507 314.41 464.507 314.41C464.507 314.41 469.196 321.483 475.153 324.98C481.109 328.477 483.254 327.193 483.931 324.526C484.608 321.859 483.028 314.919 486.627 315.108C490.226 315.296 480.671 327.083 485.26 327.78C489.85 328.477 493.549 327.304 494.753 324.637L496.007 321.969C496.007 321.969 494.402 315.052 495.104 312.363C495.806 309.673 496.647 312.44 497.462 315.683C498.277 318.926 498.791 326.673 500.358 326.297C501.926 325.921 506.954 320.276 508.133 318.052C509.312 315.827 501.512 309.065 501.6 307.703C501.688 306.342 507.707 308.932 508.647 310.348C509.33 311.424 509.946 312.533 510.491 313.669C510.491 313.669 514.253 311.588 514.152 305.213C514.052 298.838 508.685 300.786 508.685 300.786Z" fill="#92E3A9"/>
<path opacity="0.3" d="M508.685 300.786C508.685 300.786 502.779 304.106 499.43 300.299C496.082 296.492 501.7 289.497 496.747 286.509C491.794 283.52 483.229 288.08 483.229 288.08C483.229 288.08 489.812 289.785 489.599 292.961C489.386 296.138 486.213 297.333 485.837 295.949C485.461 294.566 482.263 287.571 476.921 290.482C475.377 291.285 474.034 292.356 472.974 293.631C471.913 294.905 471.157 296.357 470.751 297.897C470.751 297.897 483.204 296.724 483.956 300.852C484.708 304.981 478.852 300.133 473.711 299.867C468.569 299.602 463.88 300.266 464.218 303.011C464.332 305.439 464.169 307.872 463.729 310.271C466.544 308.208 470.102 307.101 473.761 307.15C479.417 307.449 479.203 310.625 474.062 310.36C468.921 310.094 464.507 314.41 464.507 314.41C464.507 314.41 469.196 321.483 475.153 324.98C481.109 328.477 483.254 327.193 483.931 324.526C484.608 321.859 483.028 314.919 486.627 315.108C490.226 315.296 480.671 327.083 485.26 327.78C489.85 328.477 493.549 327.304 494.753 324.637L496.007 321.969C496.007 321.969 494.402 315.052 495.104 312.363C495.806 309.673 496.647 312.44 497.462 315.683C498.277 318.926 498.791 326.673 500.358 326.297C501.926 325.921 506.954 320.276 508.133 318.052C509.312 315.827 501.512 309.065 501.6 307.703C501.688 306.342 507.707 308.932 508.647 310.348C509.33 311.424 509.946 312.533 510.491 313.669C510.491 313.669 514.253 311.588 514.152 305.213C514.052 298.838 508.685 300.786 508.685 300.786Z" fill="#263238"/>
<path d="M478.79 315.738C482.639 311.544 488.295 305.866 493.048 303.155" stroke="#263238" stroke-linecap="round" stroke-linejoin="round"/>
<path d="M474.338 320.841C474.338 320.841 475.316 319.634 476.921 317.819" stroke="#263238" stroke-linecap="round" stroke-linejoin="round"/>
<path d="M495.556 304.195C495.556 304.195 501.274 311.322 502.327 318.66" stroke="#263238" stroke-linecap="round" stroke-linejoin="round"/>
<path d="M489.06 308.412C489.06 308.412 490.665 307.581 490.063 316.657" stroke="#263238" stroke-linecap="round" stroke-linejoin="round"/>
<path d="M493.261 299.934C493.261 299.934 496.534 297.377 494.803 292.275" stroke="#263238" stroke-linecap="round" stroke-linejoin="round"/>
<path d="M488.847 304.306L486.514 300.542" stroke="#263238" stroke-linecap="round" stroke-linejoin="round"/>
<path d="M483.944 308.146C483.944 308.146 476.545 303.21 471.918 302.966" stroke="#263238" stroke-linecap="round" stroke-linejoin="round"/>
<path d="M529.702 287.339C529.702 287.339 529.464 294.821 522.843 295.186C516.221 295.551 512.133 285.811 505.362 288.158C498.59 290.504 497.938 301.173 497.938 301.173C497.938 301.173 504.359 296.514 507.82 298.86C511.281 301.207 510.478 304.837 508.61 304.261C506.741 303.686 496.684 301.705 496.333 308.412C496.193 310.324 496.492 312.241 497.214 314.048C497.936 315.855 499.066 317.514 500.534 318.926C500.534 318.926 507.694 307.117 512.911 309.264C518.128 311.411 508.61 313.292 504.797 317.653C500.985 322.014 498.527 326.607 501.901 328.19C504.734 329.737 507.381 331.536 509.801 333.557C509.801 333.557 508.898 327.382 513.086 322.589C517.275 317.797 520.723 320.143 516.924 324.504C513.124 328.865 515.005 335.716 515.005 335.716C515.005 335.716 526.216 336.391 534.241 333.502C542.267 330.613 542.317 327.869 539.734 325.423C537.151 322.977 528.222 319.679 530.881 316.568C533.539 313.458 540.411 329.994 544.336 326.408C548.261 322.822 549.44 318.76 547.233 315.871L545.026 312.994C545.026 312.994 536.097 309.673 533.514 307.238C530.931 304.804 534.655 305.932 538.881 307.416C543.107 308.899 552.249 313.735 552.901 312.086C553.553 310.437 550.556 302.125 548.851 299.602C547.145 297.078 534.129 299.325 532.649 298.318C531.169 297.311 538.204 293.758 540.449 293.891C542.132 294.014 543.806 294.217 545.465 294.5C545.465 294.5 545.665 289.763 538.367 285.502C531.069 281.24 529.702 287.339 529.702 287.339Z" fill="#92E3A9"/>
<path opacity="0.2" d="M529.702 287.339C529.702 287.339 529.464 294.821 522.843 295.186C516.221 295.551 512.133 285.811 505.362 288.158C498.59 290.504 497.938 301.173 497.938 301.173C497.938 301.173 504.359 296.514 507.82 298.86C511.281 301.207 510.478 304.837 508.61 304.261C506.741 303.686 496.684 301.705 496.333 308.412C496.193 310.324 496.492 312.241 497.214 314.048C497.936 315.855 499.066 317.514 500.534 318.926C500.534 318.926 507.694 307.117 512.911 309.264C518.128 311.411 508.61 313.292 504.797 317.653C500.985 322.014 498.527 326.607 501.901 328.19C504.734 329.737 507.381 331.536 509.801 333.557C509.801 333.557 508.898 327.382 513.086 322.589C517.275 317.797 520.723 320.143 516.924 324.504C513.124 328.865 515.005 335.716 515.005 335.716C515.005 335.716 526.216 336.391 534.241 333.502C542.267 330.613 542.317 327.869 539.734 325.423C537.151 322.977 528.222 319.679 530.881 316.568C533.539 313.458 540.411 329.994 544.336 326.408C548.261 322.822 549.44 318.76 547.233 315.871L545.026 312.994C545.026 312.994 536.097 309.673 533.514 307.238C530.931 304.804 534.655 305.932 538.881 307.416C543.107 308.899 552.249 313.735 552.901 312.086C553.553 310.437 550.556 302.125 548.851 299.602C547.145 297.078 534.129 299.325 532.649 298.318C531.169 297.311 538.204 293.758 540.449 293.891C542.132 294.014 543.806 294.217 545.465 294.5C545.465 294.5 545.665 289.763 538.367 285.502C531.069 281.24 529.702 287.339 529.702 287.339Z" fill="#263238"/>
<path d="M526.291 323.94C524.172 317.642 521.564 308.788 521.739 302.767" stroke="#263238" stroke-linecap="round" stroke-linejoin="round"/>
<path d="M529.037 331.366C529.037 331.366 528.335 329.662 527.37 327.016" stroke="#263238" stroke-linecap="round" stroke-linejoin="round"/>
<path d="M524.623 301.262C524.623 301.262 536.599 301.063 545.64 305.136" stroke="#263238" stroke-linecap="round" stroke-linejoin="round"/>
<path d="M525 309.895C525 309.895 525.15 307.914 535.032 314.632" stroke="#263238" stroke-linecap="round" stroke-linejoin="round"/>
<path d="M518.278 300.41C518.278 300.41 517.601 295.783 510.641 293.835" stroke="#263238" stroke-linecap="round" stroke-linejoin="round"/>
<path d="M520.172 307.261L514.315 306.751" stroke="#263238" stroke-linecap="round" stroke-linejoin="round"/>
<path d="M521.187 314.211C521.187 314.211 510.541 317.387 507.117 321.317" stroke="#263238" stroke-linecap="round" stroke-linejoin="round"/>
<path d="M458.663 337.143C458.663 337.143 492.345 356.788 491.781 432.879" stroke="#263238" stroke-width="2" stroke-linecap="round" stroke-linejoin="round"/>
<path d="M500.195 331.953C500.195 331.953 499.117 340.563 491.417 340.43C483.718 340.298 480.131 328.721 472.005 330.868C463.879 333.015 462.036 345.256 462.036 345.256C462.036 345.256 469.961 340.408 473.698 343.419C477.435 346.429 476.119 350.535 474.024 349.716C471.93 348.897 460.531 345.765 459.415 353.479C459.052 355.675 459.199 357.912 459.845 360.057C460.492 362.201 461.626 364.207 463.177 365.952C463.177 365.952 472.708 352.926 478.489 355.848C484.27 358.769 473.096 360.131 468.231 364.846C463.365 369.56 460.067 374.652 463.754 376.754C466.862 378.779 469.728 381.078 472.306 383.616C472.306 383.616 471.918 376.422 477.26 371.232C482.602 366.041 486.351 369.018 481.486 373.766C476.62 378.514 478.075 386.538 478.075 386.538C478.075 386.538 490.953 388.254 500.521 385.598C510.089 382.941 510.428 379.776 507.707 376.743C504.986 373.711 495.041 369.151 498.44 365.853C501.838 362.555 507.995 382.144 512.911 378.326C517.827 374.508 519.607 369.937 517.375 366.417L515.143 362.898C515.143 362.898 505.199 358.349 502.478 355.305C499.756 352.262 503.932 353.9 508.647 355.958C513.362 358.017 523.407 364.359 524.322 362.521C525.238 360.684 522.68 350.856 520.987 347.768C519.294 344.68 504.033 346.219 502.427 344.935C500.822 343.651 509.337 340.143 511.908 340.508C513.822 340.789 515.718 341.159 517.588 341.615C517.588 341.615 518.316 336.169 510.353 330.635C502.39 325.102 500.195 331.953 500.195 331.953Z" fill="#92E3A9"/>
<path opacity="0.3" d="M500.195 331.953C500.195 331.953 499.117 340.563 491.417 340.43C483.718 340.298 480.131 328.721 472.005 330.868C463.879 333.015 462.036 345.256 462.036 345.256C462.036 345.256 469.961 340.408 473.698 343.419C477.435 346.429 476.119 350.535 474.024 349.716C471.93 348.897 460.531 345.765 459.415 353.479C459.052 355.675 459.199 357.912 459.845 360.057C460.492 362.201 461.626 364.207 463.177 365.952C463.177 365.952 472.708 352.926 478.489 355.848C484.27 358.769 473.096 360.131 468.231 364.846C463.365 369.56 460.067 374.652 463.754 376.754C466.862 378.779 469.728 381.078 472.306 383.616C472.306 383.616 471.918 376.422 477.26 371.232C482.602 366.041 486.351 369.018 481.486 373.766C476.62 378.514 478.075 386.538 478.075 386.538C478.075 386.538 490.953 388.254 500.521 385.598C510.089 382.941 510.428 379.776 507.707 376.743C504.986 373.711 495.041 369.151 498.44 365.853C501.838 362.555 507.995 382.144 512.911 378.326C517.827 374.508 519.607 369.937 517.375 366.417L515.143 362.898C515.143 362.898 505.199 358.349 502.478 355.305C499.756 352.262 503.932 353.9 508.647 355.958C513.362 358.017 523.407 364.359 524.322 362.521C525.238 360.684 522.68 350.856 520.987 347.768C519.294 344.68 504.033 346.219 502.427 344.935C500.822 343.651 509.337 340.143 511.908 340.508C513.822 340.789 515.718 341.159 517.588 341.615C517.588 341.615 518.316 336.169 510.353 330.635C502.39 325.102 500.195 331.953 500.195 331.953Z" fill="#263238"/>
<path d="M492.345 373.899C490.54 366.506 488.521 356.047 489.348 349.085" stroke="#263238" stroke-linecap="round" stroke-linejoin="round"/>
<path d="M494.728 382.698C494.728 382.698 494.101 380.672 493.261 377.54" stroke="#263238" stroke-linecap="round" stroke-linejoin="round"/>
<path d="M492.822 347.591C492.822 347.591 506.616 348.366 516.648 353.811" stroke="#263238" stroke-linecap="round" stroke-linejoin="round"/>
<path d="M492.358 357.486C492.358 357.486 492.747 355.217 503.431 363.794" stroke="#263238" stroke-linecap="round" stroke-linejoin="round"/>
<path d="M485.611 346.086C485.611 346.086 485.323 340.685 477.51 337.852" stroke="#263238" stroke-linecap="round" stroke-linejoin="round"/>
<path d="M487.066 354.143L480.37 353.07" stroke="#263238" stroke-linecap="round" stroke-linejoin="round"/>
<path d="M487.505 362.245C487.505 362.245 474.877 365.034 470.501 369.273" stroke="#263238" stroke-linecap="round" stroke-linejoin="round"/>
<path d="M471.792 397.097C471.792 397.097 493.486 411.706 495.769 433.377L491.204 360.806" stroke="#263238" stroke-width="2" stroke-linecap="round" stroke-linejoin="round"/>
<path d="M524.31 386.516C495.769 381.978 495.769 433.377 495.769 433.377" stroke="#263238" stroke-width="2" stroke-linecap="round" stroke-linejoin="round"/>
<path d="M499.192 432.879C499.192 432.879 482.639 326.563 530.542 326.563" stroke="#263238" stroke-width="2" stroke-linecap="round" stroke-linejoin="round"/>
<path d="M513.438 383.461C509.538 379.588 501.249 379.588 496.383 389.482C491.518 399.377 495.894 397.661 495.894 397.661C495.894 397.661 505.149 395.071 511.005 393.356C516.861 391.641 524.649 387.335 525.138 389.914C525.627 392.493 521.238 395.071 515.871 395.935C510.503 396.798 496.383 400.24 497.838 402.863C499.293 405.486 502.716 413.189 502.716 413.189C506.879 410.067 511.274 407.194 515.871 404.59C522.216 401.148 526.116 402.431 522.705 406.305C519.294 410.179 509.538 414.473 511.494 419.642C513.45 424.81 525.138 431.252 525.138 431.252C525.138 431.252 526.605 420.505 530.016 417.063C533.427 413.621 533.427 417.495 532.448 423.515C531.959 426.08 531.633 428.666 531.47 431.263L545.114 435.568C547.345 432.57 549.787 429.698 552.425 426.969L554.933 424.755C554.933 424.755 544.211 416.587 543.722 411.474C543.233 406.361 551.033 411.474 553.465 412.337C555.898 413.2 559.798 419.221 559.798 419.221C559.798 419.221 562.243 409.327 562.733 405.885L563.222 402.443C563.222 402.443 552.976 399.001 549.076 399.001C545.177 399.001 543.233 401.579 543.233 398.148C543.233 394.717 547.133 392.548 551.522 392.98C555.493 393.566 559.405 394.428 563.222 395.558C563.222 395.558 566.143 393.411 565.165 386.959C564.187 380.506 561.754 380.506 555.911 382.222C550.067 383.937 546.155 387.822 541.766 387.822C537.377 387.822 539.822 383.085 542.744 381.801C545.666 380.517 552.976 377.928 554.444 377.496C555.911 377.064 546.644 371.044 541.766 370.18C536.888 369.317 530.58 372.394 531.044 376.633C531.959 385.609 517.338 387.368 513.438 383.461Z" fill="#92E3A9"/>
<path d="M544.813 427.754C544.963 429.046 545.064 430.34 545.114 431.639" stroke="#263238" stroke-linecap="round" stroke-linejoin="round"/>
<path d="M535.019 396.875C539.315 405.393 542.411 414.343 544.236 423.526" stroke="#263238" stroke-linecap="round" stroke-linejoin="round"/>
<path d="M533.263 393.422C530.856 388.84 529.037 386.04 529.037 386.04C531.697 384.934 533.908 383.134 535.37 380.883C536.51 378.844 538.182 377.073 540.248 375.714" stroke="#263238" stroke-linecap="round" stroke-linejoin="round"/>
<path d="M511.983 400.65C511.983 400.65 529.539 394.197 529.539 395.481" stroke="#263238" stroke-linecap="round" stroke-linejoin="round"/>
<path d="M539.22 392.493C539.22 392.493 547.02 389.051 553.842 389.051" stroke="#263238" stroke-linecap="round" stroke-linejoin="round"/>
<path d="M536.348 402.863C532.965 405.317 529.862 408.056 527.081 411.042C524.238 414.003 521.936 417.337 520.26 420.926" stroke="#263238" stroke-linecap="round" stroke-linejoin="round"/>
<path d="M541.728 404.545C541.728 404.545 551.973 401.956 557.328 406.261" stroke="#263238" stroke-linecap="round" stroke-linejoin="round"/>
<path d="M560.249 346.418C554.945 343.651 549.076 343.585 546.192 340.663C543.308 337.741 548.963 336.236 551.986 337.343C555.008 338.449 562.018 341.626 563.334 342.312C564.651 342.998 563.748 332.893 561.29 329.031C558.832 325.168 552.098 322.999 548.75 326.12C541.665 332.683 530.605 324.072 531.357 318.937C532.11 313.802 526.68 308.279 515.055 311.511C503.431 314.742 507.744 316.546 507.744 316.546C507.744 316.546 516.021 321.029 521.338 323.796C526.655 326.563 535.433 328.942 533.539 330.957C531.646 332.971 526.567 331.742 522.316 328.743C518.065 325.744 505.863 318.572 504.609 321.239C503.355 323.906 498.966 331.255 498.966 331.255C504.369 331.986 509.71 333.032 514.955 334.388C522.053 336.358 523.507 339.8 517.965 340.065C512.422 340.331 502.34 336.656 499.155 341.338C495.969 346.02 498.164 358.039 498.164 358.039C498.164 358.039 508.321 351.974 513.5 351.985C518.679 351.996 515.369 354.542 509.575 357.84C507.063 359.194 504.638 360.672 502.315 362.267L507.581 374.187C511.61 373.705 515.668 373.447 519.733 373.412L523.169 373.633C523.169 373.633 523.169 361.127 527.232 357.419C531.295 353.712 532.022 362.289 532.887 364.48C533.752 366.672 531.157 373.213 531.157 373.213C531.157 373.213 541.189 368.354 544.474 366.417L547.747 364.492C547.747 364.492 543.985 355.405 541.414 352.815C538.844 350.225 535.383 350.602 538.317 348.388C541.251 346.175 545.665 347.281 548.173 350.535C550.276 353.563 552.1 356.735 553.628 360.02C553.628 360.02 557.39 360.563 562.268 355.682C567.146 350.801 565.554 349.185 560.249 346.418ZM514.14 360.186C510.24 358.46 519.494 355.018 519.494 355.018C522.918 354.597 518.027 361.913 514.14 360.186ZM520.698 344.127C519.043 343.397 524.021 341.914 524.021 341.914C531.219 343.098 522.354 344.858 520.686 344.127H520.698Z" fill="#92E3A9"/>
<path d="M514.015 368.952C513.011 369.893 511.958 370.811 510.892 371.697" stroke="#263238" stroke-linecap="round" stroke-linejoin="round"/>
<path d="M534.016 342.179C529.537 350.619 523.897 358.54 517.225 365.764" stroke="#263238" stroke-linecap="round" stroke-linejoin="round"/>
<path d="M535.822 338.748C538.167 334.133 539.358 331.089 539.358 331.089C542.053 332.133 545.046 332.426 547.935 331.93C550.424 331.35 553.033 331.301 555.547 331.787" stroke="#263238" stroke-linecap="round" stroke-linejoin="round"/>
<path d="M531.583 337.619C532.686 336.767 515.67 329.307 515.67 329.307" stroke="#263238" stroke-linecap="round" stroke-linejoin="round"/>
<path d="M540.549 342.135C540.549 342.135 548.612 345.079 553.089 349.628" stroke="#263238" stroke-linecap="round" stroke-linejoin="round"/>
<path d="M529.802 346.96C525.487 346.314 521.111 346.04 516.736 346.141C512.334 346.19 507.968 346.843 503.794 348.078" stroke="#263238" stroke-linecap="round" stroke-linejoin="round"/>
<path d="M531.846 351.664C531.846 351.664 540.762 356.788 540.624 363.186" stroke="#263238" stroke-linecap="round" stroke-linejoin="round"/>
<path d="M484.508 406.017C480.244 403.804 475.517 403.749 473.222 401.391C470.927 399.034 475.441 397.849 477.874 398.735C480.307 399.62 485.95 402.188 487.016 402.741C488.082 403.295 487.342 395.149 485.36 392.083C483.379 389.017 477.962 387.236 475.266 389.737C469.56 395.027 460.657 388.088 461.271 383.96C461.886 379.831 457.509 375.382 448.117 377.983C438.724 380.584 442.235 382.034 442.235 382.034C442.235 382.034 448.894 385.642 453.17 387.866C457.446 390.091 464.519 392.017 462.989 393.633C461.459 395.249 457.384 394.275 453.96 391.851C450.537 389.427 440.718 383.661 439.715 385.808C438.712 387.955 435.175 393.865 435.175 393.865C439.522 394.457 443.82 395.3 448.041 396.389C453.747 397.971 454.913 400.738 450.449 400.948C445.985 401.159 437.909 398.204 435.401 401.978C432.893 405.752 434.599 415.425 434.599 415.425C434.599 415.425 442.775 410.533 446.938 410.544C451.101 410.555 448.443 412.603 443.79 415.259C441.768 416.349 439.817 417.539 437.947 418.823L442.173 428.407C445.415 428.023 448.682 427.82 451.954 427.799L454.725 427.965C454.725 427.965 454.725 417.904 457.998 414.916C461.271 411.928 461.848 418.834 462.538 420.605C463.227 422.375 461.146 427.633 461.146 427.633C461.146 427.633 469.247 423.715 471.867 422.165L474.501 420.605C474.501 420.605 471.466 413.3 469.41 411.208C467.353 409.116 464.544 409.437 466.902 407.622C469.259 405.807 472.808 406.759 474.827 409.338C476.52 411.777 477.992 414.33 479.228 416.974C479.228 416.974 482.251 417.406 486.176 413.488C490.101 409.57 488.784 408.253 484.508 406.017ZM447.389 417.085C444.254 415.702 451.703 412.935 451.703 412.935C454.449 412.603 450.524 418.491 447.389 417.096V417.085ZM452.694 404.18C451.352 403.583 455.365 402.409 455.365 402.409C461.146 403.394 454.011 404.767 452.694 404.18Z" fill="#92E3A9"/>
<path d="M447.314 424.157C446.499 424.91 445.659 425.651 444.806 426.371" stroke="#263238" stroke-linecap="round" stroke-linejoin="round"/>
<path d="M463.403 402.609C459.802 409.401 455.266 415.776 449.897 421.59" stroke="#263238" stroke-linecap="round" stroke-linejoin="round"/>
<path d="M464.858 399.842C466.739 396.134 467.704 393.688 467.704 393.688C469.872 394.525 472.278 394.761 474.601 394.363C476.602 393.896 478.7 393.858 480.721 394.252" stroke="#263238" stroke-linecap="round" stroke-linejoin="round"/>
<path d="M448.631 392.249C448.631 392.249 462.337 398.259 461.447 398.89" stroke="#263238" stroke-linecap="round" stroke-linejoin="round"/>
<path d="M468.657 402.575C468.657 402.575 475.14 404.944 478.689 408.607" stroke="#263238" stroke-linecap="round" stroke-linejoin="round"/>
<path d="M460.005 406.46C456.534 405.941 453.015 405.723 449.496 405.807C445.955 405.837 442.442 406.364 439.088 407.368" stroke="#263238" stroke-linecap="round" stroke-linejoin="round"/>
<path d="M461.66 410.245C461.66 410.245 468.833 414.373 468.695 419.509" stroke="#263238" stroke-linecap="round" stroke-linejoin="round"/>
<path d="M467.102 334.985C467.102 334.985 461.735 338.427 458.324 334.985C454.913 331.543 459.792 324.659 454.913 322.08C450.035 319.501 442.248 324.227 442.248 324.227C442.248 324.227 448.581 325.522 448.581 328.533C448.581 331.543 445.659 332.838 445.17 331.543C444.681 330.248 441.27 323.796 436.392 326.817C434.987 327.652 433.788 328.73 432.867 329.986C431.947 331.241 431.324 332.648 431.037 334.122C431.037 334.122 442.725 332.406 443.703 336.28C444.681 340.154 438.837 335.848 433.959 335.848C429.081 335.848 424.692 336.712 425.181 339.29C425.447 341.579 425.447 343.886 425.181 346.175C427.706 344.088 430.993 342.867 434.448 342.732C439.803 342.732 439.803 345.743 434.937 345.743C430.072 345.743 426.159 350.048 426.159 350.048C426.159 350.048 431.037 356.501 436.881 359.511C442.725 362.521 444.681 361.227 445.17 358.648C445.659 356.069 443.703 349.617 447.114 349.617C450.524 349.617 442.248 361.227 446.625 361.658C451.001 362.09 454.424 360.795 455.403 358.216L456.381 355.637C456.381 355.637 454.424 349.185 454.913 346.606C455.403 344.027 456.381 346.606 457.346 349.617C458.312 352.627 459.302 359.932 460.77 359.511C462.237 359.09 466.613 353.479 467.591 351.332C468.57 349.185 460.77 343.164 460.77 341.869C460.77 340.574 466.613 342.732 467.591 344.016C468.57 345.3 469.535 347.027 469.535 347.027C469.535 347.027 472.946 344.88 472.457 338.859C471.968 332.838 467.102 334.985 467.102 334.985Z" fill="#92E3A9"/>
<path d="M439.79 350.59C443.164 346.44 448.167 340.796 452.481 337.995" stroke="#263238" stroke-linecap="round" stroke-linejoin="round"/>
<path d="M435.903 355.637C435.903 355.637 436.768 354.442 438.16 352.649" stroke="#263238" stroke-linecap="round" stroke-linejoin="round"/>
<path d="M454.914 338.859C454.914 338.859 460.77 345.311 462.224 352.195" stroke="#263238" stroke-linecap="round" stroke-linejoin="round"/>
<path d="M449.07 343.164C449.07 343.164 450.524 342.301 450.524 350.911" stroke="#263238" stroke-linecap="round" stroke-linejoin="round"/>
<path d="M452.481 334.985C452.481 334.985 455.403 332.406 453.459 327.669" stroke="#263238" stroke-linecap="round" stroke-linejoin="round"/>
<path d="M448.581 339.29L446.148 335.848" stroke="#263238" stroke-linecap="round" stroke-linejoin="round"/>
<path d="M444.192 343.164C444.192 343.164 436.881 338.859 432.492 338.859" stroke="#263238" stroke-linecap="round" stroke-linejoin="round"/>
<path d="M516.322 431.362H478.639V479.23H516.322V431.362Z" fill="#263238" stroke="#263238" stroke-width="2" stroke-linecap="round" stroke-linejoin="round"/>
</svg>
