
<svg width="50" height="50" viewBox="0 0 50 50" fill="none" xmlns="http://www.w3.org/2000/svg">
<path d="M28.4173 8.33354C28.4173 10.2205 26.8876 11.7502 25.0007 11.7502C23.1137 11.7502 21.584 10.2205 21.584 8.33354C21.584 6.44656 23.1137 4.91687 25.0007 4.91687C26.8876 4.91687 28.4173 6.44656 28.4173 8.33354Z" stroke="#92E3A9" stroke-width="1.5"/>
<path d="M41.6673 28.4171C39.7803 28.4171 38.2507 26.8874 38.2507 25.0004C38.2507 23.1134 39.7803 21.5837 41.6673 21.5837C43.5543 21.5837 45.084 23.1134 45.084 25.0004C45.084 26.8874 43.5543 28.4171 41.6673 28.4171Z" stroke="#92E3A9" stroke-width="1.5"/>
<ellipse cx="36.7832" cy="36.7849" rx="4.16667" ry="4.16667" transform="rotate(135 36.7832 36.7849)" stroke="#92E3A9" stroke-width="1.5"/>
<circle cx="13.2148" cy="36.7857" r="3.41667" transform="rotate(-135 13.2148 36.7857)" stroke="#92E3A9" stroke-width="1.5"/>
<path d="M25 11.4589V15.6255" stroke="#92E3A9" stroke-width="1.5" stroke-linecap="round"/>
<path d="M38.541 25.0004L34.3743 25.0004" stroke="#92E3A9" stroke-width="1.5" stroke-linecap="round"/>
<path d="M34.5762 34.5757L31.6299 31.6294" stroke="#92E3A9" stroke-width="1.5" stroke-linecap="round"/>
<path d="M15.4238 34.5757L18.3701 31.6294" stroke="#92E3A9" stroke-width="1.5" stroke-linecap="round"/>
<path d="M25 35.417V37.5003" stroke="#92E3A9" stroke-width="1.5" stroke-linecap="round"/>
<path d="M14.582 25.0004L12.4987 25.0004" stroke="#92E3A9" stroke-width="1.5" stroke-linecap="round"/>
<path d="M17.6328 17.6345L16.1597 16.1614" stroke="#92E3A9" stroke-width="1.5" stroke-linecap="round"/>
<path d="M32.3652 17.6345L33.8384 16.1614" stroke="#92E3A9" stroke-width="1.5" stroke-linecap="round"/>
<path d="M28.4173 41.6672C28.4173 43.5541 26.8876 45.0838 25.0007 45.0838C23.1137 45.0838 21.584 43.5541 21.584 41.6672C21.584 39.7802 23.1137 38.2505 25.0007 38.2505C26.8876 38.2505 28.4173 39.7802 28.4173 41.6672Z" stroke="#92E3A9" stroke-width="1.5"/>
<path d="M8.33333 28.4171C6.44636 28.4171 4.91667 26.8874 4.91667 25.0004C4.91667 23.1134 6.44636 21.5837 8.33333 21.5837C10.2203 21.5837 11.75 23.1134 11.75 25.0004C11.75 26.8874 10.2203 28.4171 8.33333 28.4171Z" stroke="#92E3A9" stroke-width="1.5"/>
<ellipse cx="13.2149" cy="13.2153" rx="4.16667" ry="4.16667" transform="rotate(135 13.2149 13.2153)" stroke="#92E3A9" stroke-width="1.5"/>
<circle cx="36.7852" cy="13.2146" r="3.41667" transform="rotate(-135 36.7852 13.2146)" stroke="#92E3A9" stroke-width="1.5"/>
<path d="M34.6673 25.0005C34.6673 30.3393 30.3394 34.6672 25.0007 34.6672C19.6619 34.6672 15.334 30.3393 15.334 25.0005C15.334 19.6618 19.6619 15.3339 25.0007 15.3339C30.3394 15.3339 34.6673 19.6618 34.6673 25.0005Z" stroke="#92E3A9" stroke-width="1.5"/>
<path d="M28.4173 22.7421C28.4173 24.6291 26.8876 26.1588 25.0007 26.1588C23.1137 26.1588 21.584 24.6291 21.584 22.7421C21.584 20.8551 23.1137 19.3254 25.0007 19.3254C26.8876 19.3254 28.4173 20.8551 28.4173 22.7421Z" stroke="#92E3A9" stroke-width="1.5"/>
<path d="M30.3898 31.7464C29.2165 30.0249 27.24 28.8945 24.9996 28.8945C22.7591 28.8945 20.7827 30.0249 19.6094 31.7464" stroke="#92E3A9" stroke-width="1.5"/>
</svg>
