<?xml version="1.0" encoding="UTF-8"?>
<svg width="32" height="32" viewBox="0 0 32 32" fill="none" xmlns="http://www.w3.org/2000/svg">
  <!-- Background Circle -->
  <circle cx="16" cy="16" r="15" fill="url(#gradient)" stroke="url(#borderGradient)" stroke-width="1.5"/>
  
  <!-- Digital Network Lines -->
  <path d="M10 16H22" stroke="white" stroke-width="1.5" stroke-linecap="round"/>
  <path d="M16 10V22" stroke="white" stroke-width="1.5" stroke-linecap="round"/>
  
  <!-- Briefcase Base -->
  <path d="M12 14C12 13.4477 12.4477 13 13 13H19C19.5523 13 20 13.4477 20 14V15H12V14Z" fill="white"/>
  <path d="M10 15H22V21C22 21.5523 21.5523 22 21 22H11C10.4477 22 10 21.5523 10 21V15Z" fill="white"/>
  
  <!-- Growth Arrow -->
  <path d="M16 8L18 10L16 12" stroke="white" stroke-width="1.5" stroke-linecap="round" stroke-linejoin="round"/>
  
  <!-- Connection Nodes -->
  <circle cx="16" cy="16" r="1.5" fill="white"/>
  <circle cx="10" cy="16" r="1" fill="white"/>
  <circle cx="22" cy="16" r="1" fill="white"/>
  <circle cx="16" cy="10" r="1" fill="white"/>
  <circle cx="16" cy="22" r="1" fill="white"/>
  
  <!-- Gradients -->
  <defs>
    <linearGradient id="gradient" x1="0" y1="0" x2="32" y2="32" gradientUnits="userSpaceOnUse">
      <stop offset="0%" stop-color="#0EA5E9"/>
      <stop offset="100%" stop-color="#0284C7"/>
    </linearGradient>
    <linearGradient id="borderGradient" x1="0" y1="0" x2="32" y2="32" gradientUnits="userSpaceOnUse">
      <stop offset="0%" stop-color="#38BDF8"/>
      <stop offset="100%" stop-color="#0EA5E9"/>
    </linearGradient>
  </defs>
</svg> 