<svg width="302" height="302" viewBox="0 0 302 302" fill="none" xmlns="http://www.w3.org/2000/svg">
<path d="M252 0C279.614 8.15309e-05 302 22.3858 302 50V252C302 279.614 279.614 302 252 302H115.709L202.556 213.092C207.573 207.956 207.476 199.725 202.34 194.708C197.284 189.77 189.23 189.786 184.194 194.687L183.956 194.924L83.7012 297.56L83.4688 297.803C82.3032 299.058 81.4332 300.487 80.8555 302H58.1279L170.946 189.066C174.85 185.159 174.847 178.827 170.939 174.924C167.032 171.021 160.7 171.024 156.797 174.932L32.8682 298.986C30.1741 298.004 27.5876 296.798 25.1328 295.388L210.211 113.352L209.419 208.843C209.353 216.85 215.79 223.396 223.798 223.463C231.806 223.529 238.352 217.092 238.419 209.084L239.499 78.5879C239.565 70.5801 233.128 64.0351 225.12 63.9688L94.625 62.8867C86.6174 62.8204 80.0717 69.2582 80.0049 77.2656C79.9385 85.2733 86.3762 91.8201 94.3838 91.8867L189.876 92.6777L5.23242 274.284C1.88585 267.574 0 260.008 0 252V251.095L111.043 144.458C116.819 138.911 117.005 129.733 111.458 123.957C105.911 118.181 96.7331 117.995 90.957 123.542L0 210.889V50C2.06164e-06 22.3858 22.3858 0 50 0H252ZM186 151C179.925 151 175 155.925 175 162C175 168.075 179.925 173 186 173C192.075 173 197 168.075 197 162C197 155.925 192.075 151 186 151ZM137 108C130.925 108 126 112.925 126 119C126 125.075 130.925 130 137 130C143.075 130 148 125.075 148 119C148 112.925 143.075 108 137 108Z" fill="#2AE899"/>
</svg>