
<svg width="117" height="122" viewBox="0 0 117 122" fill="none" xmlns="http://www.w3.org/2000/svg">
<path d="M35.1 40.9925H37.7813L39.2438 41.1229L40.6453 41.4487L41.8031 41.9049L43.3266 42.7521L44.9719 43.9252L45.7641 44.5118L46.8609 45.2286L47.8359 45.75L49.4813 46.5321L50.6391 47.1186L52.1016 48.031L53.3813 48.9434L54.1125 49.6603L54.8438 50.4423L55.4531 51.2895L55.9406 52.1368L56.55 53.5705L56.7938 54.4177L56.9766 55.3953L57.0375 56.438V58.2628L56.9766 60.0224L56.7328 63.0855L56.3672 66.0182L56.0016 68.3643L55.4531 70.9712L54.9656 72.9915L54.5391 74.36L53.8078 75.859L53.3813 76.5107L53.0156 77.1624L52.5281 78.4658L51.9797 79.8996L51.4313 81.594L50.8219 82.9626L50.2125 84.2009L49.4813 85.5043L48.6281 86.8729L48.0797 87.7853L47.4703 88.828L46.6781 90.2618L46.6172 90.5224L47.1047 90.9786L47.7141 91.4348L48.8719 92.2821L50.2125 93.1293L51.0047 93.6506L53.6859 95.2147L56.8547 96.9092L58.5 97.9519L60.0844 98.8643L61.2422 99.6464L62.1563 100.298L63.1313 101.015L63.9844 101.732L64.4719 102.253L64.8984 102.644L65.4469 103.361L65.8734 104.013L66.4219 105.056L66.9094 106.424L67.1531 107.402L67.3359 108.966L67.3969 110.334V112.811L67.3359 115.483L67.0922 115.744L66.6656 115.874L20.0484 115.809H9.75L9.01875 115.678L8.775 115.418L8.65313 114.571L8.53125 112.681V110.009L8.65313 108.379L8.83594 106.946L9.07969 106.033L9.50625 104.99L9.87188 104.274L10.3594 103.557L10.8469 102.905H10.9688L11.0906 102.644L11.9438 101.732L12.7969 101.015L13.7109 100.298L14.8078 99.516L16.1484 98.6688L17.4281 97.8868L19.0734 96.9744L20.2313 96.3226L21.2063 95.8013L22.7906 94.8889L23.5828 94.3675L24.9844 93.5203L26.6297 92.4776L27.6656 91.8259L28.5797 91.1741L29.4328 90.5876L29.3719 90.4573L29.1891 90.3269L29.1281 90.0662L28.5188 88.9583L27.6047 87.3942L26.9344 86.2863L26.2031 84.9829L25.35 83.3536L24.8625 82.3109L24.2531 80.6165L23.5828 78.5962L23.1563 77.2276L22.6688 76.3152L22.1203 75.6635L21.6938 74.9466L21.0844 73.3173L20.7188 71.9487L20.475 70.515L20.3531 69.016L20.2313 64.5192L20.1094 60.2831L19.9266 57.7415L19.7438 56.7639L19.5 56.1122L18.9516 55.7212L18.525 55.5256L17.6719 55.3301L16.8188 55.1998L15.6609 54.9391L14.9297 54.8088L14.8078 54.6132L14.8688 54.2874L15.2953 53.6357L16.2094 52.3323H16.3313L16.4531 52.0716L17.6719 50.7682L18.1594 50.312L19.0125 49.4647L19.6219 48.9434L20.4141 48.2265L21.0844 47.64L21.9984 46.8579L22.8516 46.2062L23.9484 45.359L25.2281 44.4466L26.5078 43.6645L27.6656 43.078L28.8234 42.5566L29.9203 42.1004L32.1141 41.4487L33.8203 41.1229L35.1 40.9925ZM35.8922 43.9904L34.3688 44.1207L32.8453 44.4466L31.2609 44.968L29.6766 45.6848L28.2141 46.4669L26.9344 47.3141L25.8984 48.031L24.8016 48.813L23.9484 49.4647L22.9125 50.312L22.0594 50.9637L21.0844 51.8109L20.7797 52.0716V52.2671L21.0234 52.3323L21.1453 52.7233L21.5109 53.5053L22.1203 55.0694L22.6078 56.6335L23.0953 58.719L23.4609 60.8697L24.0094 63.6068L24.3141 64.5844L24.4969 64.7147L24.9234 63.3462L25.35 62.3686L25.7766 61.3259L26.325 60.4135L26.8125 59.8269V59.6966L27.0563 59.5662L27.6656 58.9797L28.4578 58.4583L29.4328 57.937L31.4438 57.2201L33.0891 56.8291L36.6234 56.1774L38.5734 55.8515L39.975 55.5256L41.7422 55.0043L43.2047 54.4829L44.85 53.7009L45.3375 53.3098L45.825 52.6581H46.1906L46.6781 52.9188L47.1656 53.375L48.0797 53.9615L48.9328 54.7436L49.4203 55.1998L50.2125 56.3077L50.8219 57.2853L51.3703 58.5235L51.675 59.5011L51.9797 61.0652L52.2844 63.7372L52.4672 66.9306L52.5281 67.3868H52.65L52.7719 67.5823L52.8938 66.9306L53.0766 65.3665L53.3813 63.281L53.625 61.0652L53.8078 59.1752L53.8688 58.0021V56.047L53.7469 55.265L53.5031 54.4829L52.9547 53.375L52.3453 52.5278L51.7969 51.8761L51.3094 51.4199L50.4563 50.7682L49.4203 50.1165L48.1406 49.5299L47.2266 49.2041L46.0078 48.813L45.0328 48.2917L44.1797 47.64L43.3875 46.9231L42.3516 46.0759L41.1328 45.2938L40.0969 44.7073L39 44.3162L37.6594 44.0556L36.8063 43.9904H35.8922ZM46.0078 56.6335L43.5703 57.6111L42.4734 58.0021L40.8281 58.4583L38.3906 59.0449L35.3438 59.6314L33.2109 60.0224L31.9313 60.3483L30.8344 60.7393L30.1641 61.0652L29.25 61.5865L28.5188 62.1731V62.3034L28.275 62.4338V62.5641H28.1531L27.5438 63.4113L27.1172 64.1934L26.5688 65.7575L26.2031 67.1912L26.0813 68.1688V69.2767L26.1422 69.6677L25.8984 70.1239H25.5938H25.4109L24.2531 70.8408L23.8875 71.1667L23.7047 71.8184L23.7656 72.4701L24.0703 72.9915L24.4969 73.3825L25.35 73.7083H26.1422L26.2641 74.2949L26.325 77.2927L26.5078 78.6613L26.7516 79.6389L27.2391 81.0075L27.7875 82.1154L28.4578 83.2233L28.9453 83.875L29.4938 84.5267L30.1031 85.1784L30.7734 85.765L31.6875 86.4167L33.0891 87.2639L34.6125 88.0459L35.2828 88.3066L36.4406 88.5673L36.9891 88.6325H38.5125L39.975 88.3718L41.6203 87.9156L42.5344 87.5246L43.5094 87.0032L44.4844 86.3515L45.2766 85.6998L45.8859 85.1784L46.6172 84.3312L47.5922 82.7671L48.3234 81.3333L48.6891 80.5513L49.3594 78.3355L49.6641 76.7714L49.7859 74.2949L49.8469 74.0342L50.3953 73.8387L51.1266 73.5128L51.675 73.1218L51.8578 72.7308V72.4049L51.7359 72.6656H51.6141L51.5531 72.3397L51.7359 72.4049L51.675 71.9487H51.5531L51.4313 71.6229L51.1266 71.3622L50.2125 70.8408L49.9688 70.6453L49.8469 70.1891L49.725 68.4947L49.6031 66.0833L49.4203 63.6068L49.1766 61.9776L48.8109 60.4135L48.4453 59.3707L47.9578 58.328L47.4094 57.4156L47.1047 57.0246L46.6781 56.6987L46.4953 56.6335H46.0078ZM52.65 68.4947V69.6026H52.7109V68.4947H52.65ZM43.2656 91.1741L41.1938 91.5652L38.6953 92.1517L37.7203 92.2169L36.4406 92.0214L34.9172 91.6303L34.0031 91.3697H33.2719L32.6625 91.6955L32.2359 92.2169L32.2969 92.6079L33.0281 93.8462L33.7594 94.9541L34.3688 95.8013L35.0391 96.6485L35.7094 97.5609L36.7453 98.6688L37.1109 98.8643L37.4156 98.9295H38.2078L39 98.6036L39.6703 98.1474L40.4016 97.4306L41.1938 96.453L41.6813 95.8013L42.1688 95.2147L42.5953 94.563L43.0828 93.781L43.5703 92.9338L43.875 92.2169L43.9359 91.3697L43.8141 91.1741H43.2656ZM45.9469 94.172L45.3375 95.4754L44.6063 96.6485L44.2406 97.3654L43.5094 98.4733L42.9609 99.2553L42.4125 100.103L41.8031 101.08L41.1328 102.253L40.4625 103.491L40.2188 104.143L40.1578 104.534L40.0969 106.033L40.2188 107.988L40.4625 111.116L40.6453 112.485L40.8891 112.746L41.0719 112.811H46.5563L47.4703 112.615L48.0797 112.224L48.75 111.507L49.4813 110.269L49.9688 109.226L50.4563 107.662L50.3953 107.271L50.0297 106.685L49.7859 106.359L49.2984 105.903L48.8719 105.447L48.75 105.251V104.73L49.0547 103.882L49.9078 102.123L50.6391 100.689L51.1875 99.3205L51.3703 98.6036L51.3094 98.1474L50.7609 97.6261L49.6641 96.7788L48.6281 95.9968L47.6531 95.2799L46.4344 94.3675L46.1906 94.172H45.9469ZM29.4938 94.3023L28.5188 94.8889L27.8484 95.4103L26.9344 96.1271L26.2031 96.7137L25.35 97.4957L24.9234 98.0171L24.7406 98.5385V99.125L24.9844 99.9722L25.35 100.885L26.1422 102.058L26.9953 103.622L27.3 104.469V105.121L27.1172 105.512L26.6297 105.838L25.9594 106.229L25.8375 106.554L26.0203 107.662L26.3859 109.422L26.7516 110.53L27.4828 112.029L27.9094 112.615L28.3359 112.811H34.4906L34.9781 112.681L35.1609 112.42L35.3438 111.507L35.5875 110.009L35.8922 107.141V104.99L35.6484 103.882L35.2219 102.84L34.6125 101.601L34.0031 100.689L33.15 99.4509L32.4188 98.3429L31.5656 97.1047L30.7734 95.9316L30.2859 95.2799L29.8594 94.4979L29.6766 94.3023H29.4938ZM54.2953 99.125L54.1125 99.516L53.7469 101.21L53.1984 103.166L52.7109 104.665L52.5891 104.99V105.577L52.8328 105.968L53.3813 106.294L53.5641 106.489V107.337L53.2594 109.292L52.9547 110.4L52.4672 111.442L51.7969 112.615L51.675 113.006L51.8578 113.072H53.2594L53.9906 113.006L57.0984 112.876L63.2531 112.811L63.9844 112.615L64.0453 112.55L64.2281 110.074V108.901L64.1063 108.053L63.8016 107.141L63.2531 106.098L62.7047 105.316L61.7906 104.274L61.3031 103.752L60.6328 103.166L59.5359 102.253L58.4391 101.471L57.4031 100.819L56.0625 100.037L54.8438 99.3857L54.2953 99.125ZM21.5719 99.125L20.5969 99.6464L19.2563 100.428L18.3422 101.015L17.3063 101.667L16.1484 102.514L15.0516 103.361L14.3813 103.948L13.4672 104.86L12.9797 105.381L12.3094 106.294L11.9438 106.946L11.7 107.662L11.5172 109.096V112.094L11.5781 112.681L11.6391 112.811L12.3094 112.941H15.2953L17.4281 112.876H20.3531L22.2422 112.941H24.2531L24.1922 112.681H24.0094L23.8875 112.355L23.3391 111.507L22.9125 110.334L22.4859 109.031L22.0594 107.662L21.9984 107.402V106.685L22.9734 106.229L23.2781 105.903L23.3391 105.512L23.2172 104.665L22.9734 103.687L22.3031 101.797L21.9375 100.559L21.6328 99.125H21.5719Z" fill="black"/>
<path d="M30.7734 7.49466L31.4438 7.625L34.1859 7.69017L81.7781 7.82051L100.059 7.75534H106.702L106.763 7.82051L106.702 8.86325L106.397 11.1442L105.909 13.5556L105.422 15.3803L104.934 16.7489L104.508 17.6613L104.264 18.1175L104.142 18.8344L104.02 20.8547L103.959 24.0481L103.898 35.062V101.797L103.716 101.927L102.984 101.993H90.2484L71.4797 101.927L68.1891 101.862L67.5797 101.797L67.3969 101.667L67.0313 99.8419L66.8484 99.3857V98.9947L67.2141 98.9295L78.2438 98.8643H100.913V14.6635L101.034 13.9466L101.217 13.7511H101.948L102.558 13.4904L102.741 13.2297L103.228 11.2094V11.0139L89.0906 10.9487H82.0219L56.3063 11.0139H34.3688L34.6734 13.2949L34.7344 13.4904L35.5266 13.6859L36.8672 13.7511L36.9281 13.9466L36.9891 15.9669L36.9281 22.2233L36.8672 37.5385L36.5625 37.734L34.2469 37.8643L33.4547 37.9295L33.3328 37.7991L33.2109 36.4306L33.15 27.0459L33.0281 20.5288L32.9672 19.2254H32.8453L32.5406 18.0524H32.3578V17.531V17.4006L32.0531 16.8793L31.8094 15.5107L31.4438 13.0342L31.0781 10.7532L30.8953 9.12393L30.7734 7.88568V7.49466Z" fill="black"/>
<path d="M61.3031 42.2308L62.0344 42.2959L65.2641 42.3611H69.8953L75.7453 42.2308L76.05 42.3611V46.141L76.111 55.0043L76.05 55.1346L61.1813 55.0694V52.9188L61.2422 46.5321L61.3031 42.2308ZM64.5328 45.6197L64.411 47.7703L64.2891 50.6378V51.6806H66.4828L72.8813 51.5502L73.0031 47.1186L73.0641 45.6197H64.5328Z" fill="black"/>
<path d="M80.4375 42.2308L81.4734 42.2959L84.8859 42.3611H90.2484L93.7828 42.2959H94.9406L95.0016 42.3611V55.0043L94.9406 55.0694L80.3156 55.0043L80.2547 54.9391V52.4626L80.3156 44.2511L80.3766 42.2959L80.4375 42.2308ZM83.6063 45.6848L83.5453 45.75L83.4844 46.2062L83.3625 49.2041L83.3016 51.7457H85.0078L89.3344 51.6806L91.8328 51.6154L91.9547 51.5502L92.0156 51.1592V45.8803L91.8938 45.8152L87.8719 45.6848H83.6063Z" fill="black"/>
<path d="M61.4859 79.7041L61.9125 79.7692L63.0094 79.8344L65.8125 79.8996H69.6516L74.5875 79.7692H75.9891L76.05 79.8344V87.6549L76.1109 92.5427L75.9891 92.6731L73.9172 92.6079H61.3031L61.2422 92.5427L61.3031 84.266L61.3641 79.7692L61.4859 79.7041ZM64.5328 83.093L64.4719 83.1581L64.4109 83.6143L64.2281 88.7628V89.2842L64.2891 89.3494H65.2641L67.7016 89.2842L71.8453 89.219L72.8812 89.1538L73.0641 84.4615V83.093H64.5328Z" fill="black"/>
<path d="M80.4375 79.7692L81.7781 79.8344H95.0015L95.0625 79.9647L95.0015 92.5427L94.8187 92.6731H94.0265L92.625 92.6079L89.7 92.5427H85.3734L80.5594 92.4776L80.3156 92.4124V88.8932L80.3766 79.9647L80.4375 79.7692ZM83.5453 83.1581L83.4234 83.9402L83.3016 86.4818V89.3494H85.8L89.9437 89.2842L91.9547 89.219L92.0156 88.7628V83.7447L91.8937 83.3536L89.5172 83.2233L86.2875 83.1581H83.5453Z" fill="black"/>
<path d="M73.8563 61.1955H75.9281L76.05 61.391V73.578L75.8063 73.7083L64.5328 73.6432L61.6688 73.578L61.2422 73.4476L61.1813 72.9915L61.2422 69.9284V62.3686L61.1813 61.3259L61.2422 61.2607H62.8266L67.4578 61.3259L71.3578 61.2607L73.8563 61.1955ZM64.411 64.2585L64.35 64.4541L64.2281 68.0385L64.1672 69.7329V70.5801L64.2281 70.6453H65.325L69.4078 70.5801H72.9422L73.0641 65.953L73.125 64.2585H72.0891L69.0422 64.3237H67.7625L64.411 64.2585Z" fill="black"/>
<path d="M42.5344 23.7222L46.739 23.7874H49.725L53.0156 23.7222H57.0984L57.1594 23.9177V27.3718L57.0984 36.0395L56.6719 36.1699L42.5953 36.1047L42.4125 35.9092L42.4734 23.7874L42.5344 23.7222ZM53.3812 26.7201L50.5781 26.7853H45.4594L45.3984 27.0459V28.1538L45.3375 30.6303V33.172H46.5562L49.2984 33.0417H54.0515L54.1125 28.9359V26.7853L53.8078 26.7201H53.3812Z" fill="black"/>
<path d="M61.6688 23.6571L65.6297 23.7874H69.1031L73.6125 23.7222H75.9281L76.05 23.9177V36.0395L75.9891 36.1699H73.6125L61.425 36.0395L61.3641 35.9744V33.0417L61.425 23.9177L61.4859 23.7222L61.6688 23.6571ZM73.0031 26.6549L71.4188 26.7201H64.35L64.2281 32.1944V33.1068L64.2891 33.172H65.0203L66.2391 33.1068L69.7734 33.0417H73.0641V26.6549H73.0031Z" fill="black"/>
<path d="M80.5594 61.1303H81.2906L83.0578 61.2607L84.8859 61.3259H89.5172L94.514 61.2607L94.8797 61.391L94.9406 61.7169V66.344L95.0015 71.9487V73.5128L94.575 73.7083L83.9719 73.578H81.7172L80.3156 73.5128V68.3643L80.3766 63.0855L80.4375 61.5214L80.5594 61.1303ZM83.2406 64.2585L83.1797 64.3237V70.2543L83.2406 70.7105L85.2516 70.6453H90.3094L92.0765 70.7105L92.1984 65.0406V64.3889L86.1047 64.3237L83.2406 64.2585Z" fill="black"/>
<path d="M80.6203 23.6571H81.7781L84.8859 23.7874H94.6969L94.8797 23.9177L94.9406 24.1132L95.0016 33.4979V36.0395L94.7578 36.1699H92.9297L83.7281 36.0395H81.7781L80.4375 35.9744L80.3766 35.9092V31.8686L80.4984 25.547L80.5594 23.7222L80.6203 23.6571ZM83.2406 26.7201V33.172L85.3734 33.1068H89.3344L91.0406 33.172H92.1375L92.1984 26.7853H86.1047L84.0937 26.7201H83.2406Z" fill="black"/>
<path d="M40.7672 14.2724H43.875L44.0578 14.4679L44.1187 17.0096L43.9969 17.2051H42.6562L41.6203 17.14L40.95 17.0096L40.4016 17.0748L40.2187 17.14H38.0859L38.3906 16.8141L38.5734 16.8793L38.6344 16.6186H38.5125L38.6344 16.3579L38.8781 16.4231V16.0972L39.0609 16.032L38.9391 15.7062H39.1828V15.5759V15.3152L39.2437 15.1197L39.0609 15.1848L38.8781 15.0545L38.9391 14.9893L38.8172 14.9241V14.7938H38.9391L39 14.6635H39.1828V14.4679L39.4266 14.5983V14.859H39.7312V15.9669L39.7922 16.0972L39.7312 16.5534V16.9444H40.2797L40.3406 16.6838L40.7062 16.6186V14.4028L40.7672 14.2724ZM41.8641 14.859V14.9893H41.9859L42.0469 16.1624L42.1687 16.7489L42.4734 16.9444L42.7781 16.6838L43.0219 15.8365L42.9609 15.3803L42.7172 15.0545L42.4734 14.9241L42.2906 14.9893H42.0469L41.9859 14.859H41.8641ZM39.0609 16.032L39 16.1624L39.1828 16.0972L39.0609 16.032ZM41.0719 16.032L41.0109 16.8793H41.0719L41.1937 16.2276L41.0719 16.032ZM39 16.2927V16.6186L39.2437 16.5534L39.1828 16.3579L39 16.2927ZM41.3156 16.2927L41.1937 16.6186H41.3766V16.2927H41.3156ZM38.7562 16.6186V16.7489H38.8781V16.6186H38.7562Z" fill="black"/>
<path d="M54.7828 13.9466H55.3313L55.636 14.2073L55.6969 14.3376L55.7578 14.9893V16.6186L55.575 17.0748L55.3922 17.2703L55.1485 17.3355H54.4172L54.1735 17.14H53.9906L54.0516 16.8141L54.4172 16.5534L54.6 15.8365L54.661 14.9893L54.5391 14.7286L54.4781 14.5331L54.1125 14.2724L53.9297 14.3376V14.859L53.8078 15.9669L53.625 16.4231L53.0766 17.14L52.8328 17.4006L52.4672 17.3355L52.3453 17.14V15.641L52.4063 14.3376L52.4672 14.2073L53.5031 14.0118L54.7828 13.9466Z" fill="black"/>
<path d="M88.9078 13.9466H90.4922L90.7359 14.2073L90.7969 14.9241V16.7489L90.6141 17.14L90.3094 17.3355H89.5172L89.2125 17.14L89.0906 16.6838H89.2125L89.2734 16.3579L89.4562 15.7714L89.5172 15.4455V14.7938L89.3344 14.4028H88.9687L89.0297 14.5983V15.3803L88.8469 16.5534L88.5422 16.6186V15.1848L88.6641 14.859L88.7859 14.7938L88.725 14.4028L88.3594 14.468L88.2375 14.7938L88.1766 15.1848L88.0547 17.14L87.9328 17.3355L87.5672 17.4006L87.3234 17.2703V16.3579L87.4453 14.3376L87.5672 14.0118L88.9078 13.9466Z" fill="black"/>
<path d="M70.7484 13.7511H72.4547L72.7594 13.9466L72.8203 14.2073V16.6838L72.5766 17.2051L72.3328 17.4006L71.9063 17.4658H70.8703L70.6266 17.2703L70.5656 17.0748L70.5047 14.2073L70.6266 13.8162L70.7484 13.7511Z" fill="black"/>
<path d="M66.3609 13.8814H66.9703L67.214 14.0118L67.3359 14.2724L67.3969 14.859V16.8793L67.214 17.2051L66.6047 17.4006L65.9344 17.3355L65.8125 17.2051V16.6186L65.9953 15.9017L66.0562 15.25L65.8734 14.6635L65.6297 14.4028L65.5687 14.2724L65.0203 14.3376L64.8984 14.5983L64.7766 15.7714L64.6547 16.8141L64.4719 17.2703L64.1672 17.4006L63.9234 17.3355L63.8625 17.2051L63.9234 15.9669L63.9844 14.4679L64.1062 14.0118L64.7766 13.9466L66.3609 13.8814Z" fill="black"/>
<path d="M78.3047 13.8162L78.8531 13.8814L79.0359 14.0118L79.0969 14.2073L79.1578 16.2927L79.0359 16.9444L78.8531 17.2051L78.6094 17.2703H77.6953L77.5734 17.2051L77.5125 16.8793L77.8172 15.7062L77.8781 15.3152V14.7938L77.6953 14.2073H77.2078L76.7203 14.3376L76.5984 14.859L76.4766 16.6838L76.3547 17.2703L76.2328 17.4006H75.6844L75.5625 17.2703L75.6234 16.1624L75.7453 14.0769L75.8672 13.8814L76.9641 13.9466L77.0859 13.8814L78.3047 13.8162Z" fill="black"/>
<path d="M82.4484 13.7511L84.0328 13.8162L84.3984 13.9466L84.4594 14.0769V16.2276L84.3375 16.9444L84.1547 17.3355L83.9109 17.4658L82.6922 17.531L82.3875 17.4006L82.3266 17.2703L82.2656 16.6186V14.2724L82.3875 13.8162L82.4484 13.7511Z" fill="black"/>
<path d="M47.3485 14.0118H49.3594L49.4813 14.0769L49.5422 14.2724V16.1624L49.4203 16.9444L49.1766 17.2703L48.2625 17.4006L47.4094 17.3355L47.2266 17.2051L47.1656 16.9444L47.2266 14.1421L47.3485 14.0118Z" fill="black"/>
<path d="M59.2312 13.7511H60.0234L60.8156 13.8162L60.9984 13.9466L61.0594 14.1421L61.1203 15.25V16.6186L60.8766 17.2703L60.6937 17.4006L60.2062 17.4658H59.5359L59.1094 17.2703L58.9875 17.0748V13.8814L59.2312 13.7511Z" fill="black"/>
<path d="M31.2609 70.7105H31.9922L32.7234 71.0363L33.3328 71.5577L33.8813 71.9487L34.0641 72.2746L34.0031 72.7308L33.5766 73.1218L33.2719 73.2521L32.9063 73.3173H31.5047L30.8953 73.1218L30.5906 72.8611L30.4688 72.6656V72.1442L30.7734 71.1015L30.9563 70.8408L31.2609 70.7105Z" fill="black"/>
<path d="M94.0875 13.8162H95.6719L95.9156 13.9466L95.8547 14.9893L95.7938 16.9444L95.6719 17.4006L95.4891 17.531L94.8188 17.5962H94.2703L94.0266 17.4658L93.9656 17.2703V14.0118L94.0875 13.8162Z" fill="black"/>
<path d="M43.0828 70.9712H43.8141L44.7891 71.297L45.3984 71.4925L45.7031 71.7532V72.2094L45.4594 72.6004L45.1547 72.8611L44.5453 73.1218L43.875 73.2521H42.7781L42.4125 73.0566L42.2297 72.7308V72.0791L42.4734 71.5577L42.7781 71.1667L43.0828 70.9712Z" fill="black"/>
<path d="M99.2672 14.1421H100.181L100.12 15.3803V16.3579L100.242 16.9444L100.486 17.0096V17.2051L100.669 17.2703L100.059 17.2051L99.0234 17.0748V16.0321L99.1453 14.2724L99.2672 14.1421Z" fill="black"/>
<path d="M77.2078 14.4028L77.4516 14.4679L77.5125 14.5983L77.4516 15.5759L77.3297 16.4882L77.2688 16.7489H76.7812V16.1624L76.9031 15.1197L77.2078 14.4028Z" fill="black"/>
<path d="M42.4734 15.4455H42.5953V16.4231L42.4734 16.5534V15.4455Z" fill="black"/>
<path d="M28.9453 90.1966H29.1281L29.1891 90.5876L28.8844 90.3921L28.9453 90.1966Z" fill="black"/>
<path d="M65.2031 14.859H65.2641L65.2031 15.3803H65.1422V14.9241L65.2031 14.859Z" fill="black"/>
<path d="M42.7172 16.3579L42.7781 16.5534H42.5953V16.4231L42.7172 16.3579Z" fill="black"/>
<path d="M53.8687 16.5534L53.9297 16.7489L53.8078 16.6838L53.8687 16.5534Z" fill="black"/>
<path d="M100.425 15.9017L100.547 16.0321L100.425 16.0972V15.9017Z" fill="black"/>
</svg>
