<svg width="124" height="121" viewBox="0 0 124 121" fill="none" xmlns="http://www.w3.org/2000/svg">
<path d="M26.8021 3.55502H60.8375L64.1958 3.61966L64.3896 3.6843L64.4541 4.65385V13.5091H69.1041L74.0125 13.5737L74.3354 13.6384L74.4 13.7676V25.2083L74.3354 33.4818L93.8396 33.4172H106.046L113.86 33.4818L114.054 33.6111V117.38L113.925 117.574L113.602 117.639H89.7062L10.5917 117.768L9.94582 117.704L9.88123 117.574L9.81665 105.293V37.554L9.88123 13.5737L9.94582 13.5091L17.2437 13.5737H19.4396L19.6979 13.5091L19.7625 4.00748L19.8916 3.61966L26.8021 3.55502ZM24.9291 8.59669L24.8646 8.66133L24.8 9.88942L24.6708 18.2922L24.2833 18.3568H14.8541V112.791L17.825 112.856H36.7479L37.0708 112.726V99.0881L37.1354 96.0502L37.2646 95.5978H39.8479L47.0812 95.727V112.856H68.8458L69.3625 112.791V100.575L69.4271 52.1619V37.0369L69.3625 18.4215H59.6104L59.4812 18.3568L59.4166 8.59669H24.9291ZM74.4 38.3296L74.3354 38.7174V112.791L74.4646 112.856L89.9646 112.92H96.9396L107.983 112.856L109.017 112.791L109.081 38.3942L95.5833 38.3296H74.4Z" fill="black"/>
<path d="M54.3792 95.5978H55.4771L58.5771 95.6624L59.3521 95.7271L59.4813 95.8563V107.749L59.3521 107.879L59.0938 107.943H55.025L54.3792 107.814L54.3146 107.362L54.25 96.4381L54.3146 95.6624L54.3792 95.5978Z" fill="black"/>
<path d="M24.8 95.5978H28.675L29.45 95.6624L29.6438 95.7917V107.749L29.45 107.879L29.1271 107.943H25.4458L24.9292 107.814L24.7354 107.556L24.6708 106.392V95.9856L24.8 95.5978Z" fill="black"/>
<path d="M54.3792 65.671H56.9625L59.1583 65.7356L59.4813 65.8649L59.5458 68.7089V73.8798L59.4813 75.4311L59.4167 75.4957L58.8354 75.5604H54.5083L54.3146 75.4957L54.25 75.1726V71.2944L54.3146 65.7356L54.3792 65.671Z" fill="black"/>
<path d="M54.4438 50.8045H56.7042L58.7063 50.8691L59.4167 50.9984L59.4813 51.1277L59.5458 53.7132V59.5951L59.4813 60.4354L59.2229 60.6293L57.8667 60.6939H55.6708L54.4438 60.6293L54.3146 60.5647L54.25 59.789V56.1694L54.3146 51.0631L54.4438 50.8045Z" fill="black"/>
<path d="M54.4438 80.5374H58.2542L59.2875 80.6021L59.4813 80.8606V90.1683L59.1583 90.3622L58.7708 90.4268H54.7667L54.3792 90.2976L54.25 89.5866V86.6779L54.3146 80.6667L54.4438 80.5374Z" fill="black"/>
<path d="M54.3792 35.938H56.8333L58.6417 36.0027L59.2875 36.0673L59.4167 36.132L59.4812 36.3259V45.6982L59.2875 45.8275L58.2542 45.8921H55.9937L54.6375 45.8275L54.3792 45.7628L54.3146 45.5689V36.0027L54.3792 35.938Z" fill="black"/>
<path d="M34.7458 65.671H37.8458L39.5896 65.7356L39.6542 65.8002V75.4957L39.4604 75.5604H34.7458L34.5521 75.4957L34.4875 75.3018V72.7164L34.5521 66.5112L34.6167 65.8002L34.7458 65.671Z" fill="black"/>
<path d="M24.7354 65.671H29.1271L29.6438 65.7356L29.7083 65.8002V75.4311L29.5792 75.5604L28.9333 75.625H25.6396L24.7354 75.5604L24.6063 75.1079V69.7431L24.6708 66.0588L24.7354 65.671Z" fill="black"/>
<path d="M34.6812 80.5374H39.4604L39.6541 80.6021L39.7187 81.2484V90.1683L39.3958 90.3622L37.3291 90.4268H35.0687L34.6812 90.2329L34.6166 90.1037L34.5521 88.7463V82.0241L34.6166 80.6021L34.6812 80.5374Z" fill="black"/>
<path d="M34.7458 50.8045H39.2021L39.6542 50.9338V60.5L39.4604 60.6293H34.8104L34.5521 60.5L34.4875 59.5305V57.4621L34.5521 52.4851L34.6167 50.9338L34.7458 50.8045Z" fill="black"/>
<path d="M24.7354 80.5374H28.9333L29.6438 80.6021L29.7083 80.7313V90.1037L29.5792 90.2976L29.1917 90.4268L26.9313 90.4915H25.575L24.9938 90.3622L24.7354 90.1683L24.6708 89.7158L24.6063 88.617V85.773L24.6708 80.9252L24.7354 80.5374Z" fill="black"/>
<path d="M34.6812 35.938H37.5229L39.5896 36.0027L39.6541 36.132V45.6982L39.525 45.7628L36.8125 45.8275H35.5854L34.875 45.7628L34.5521 45.4397V39.8809L34.6166 36.0027L34.6812 35.938Z" fill="black"/>
<path d="M24.8 35.938H28.0938L29.5146 36.0027L29.6438 36.0673L29.7083 36.3905V45.0518L29.6438 45.6982L29.1271 45.8921H26.35L25.0583 45.8275L24.8 45.6982L24.6708 45.3104L24.6063 44.3408V41.5614L24.6708 36.1966L24.8 35.938Z" fill="black"/>
<path d="M44.7563 65.6063H45.9188L48.7604 65.671L49.5354 65.7356L49.6 65.8649L49.5354 75.4311L49.4708 75.4957L48.9542 75.5604H44.7563L44.5625 75.4957L44.4979 75.3018V69.937L44.5625 66.7698L44.6271 65.8002L44.7563 65.6063Z" fill="black"/>
<path d="M24.7354 50.8045H27.7063L29.45 50.8691L29.6438 50.9338L29.7083 51.0631V60.3061L29.5792 60.5647L29.3854 60.6293H25.0583L24.7354 60.5L24.6063 59.5305V55.0705L24.6708 51.7741L24.7354 50.8045Z" fill="black"/>
<path d="M45.1438 35.8734L48.1146 35.938L49.5354 36.0027L49.6 36.132L49.5354 45.6982L49.2125 45.8275H44.95L44.6917 45.6982L44.5625 45.5043L44.4979 44.8579V41.6261L44.5625 36.5198L44.6917 35.938L45.1438 35.8734Z" fill="black"/>
<path d="M44.6917 50.8045H47.9854L49.3417 50.8691L49.5354 50.9338L49.6 51.0631V52.679L49.5354 60.5647L49.4708 60.6293H45.0146L44.5625 60.5L44.4979 59.8537V54.101L44.5625 51.257L44.6917 50.8045Z" fill="black"/>
<path d="M44.7562 80.5374H49.2771L49.5354 80.6021L49.6 80.7313V82.7351L49.5354 90.1683L49.1479 90.3622L48.3729 90.4268H45.0146L44.7562 90.2976L44.6271 89.7805V80.8606L44.7562 80.5374Z" fill="black"/>
<path d="M79.1792 53.196H84.0229L84.2812 53.3253L84.3458 54.0363V58.0438L84.2812 58.1731L84.0229 58.2377H79.4375L79.1792 58.1731L79.05 57.5267V53.3253L79.1792 53.196Z" fill="black"/>
<path d="M81.2458 102.837H82.9896L84.1521 102.902L84.2812 102.966V107.749L84.0875 107.879L82.9896 107.943H79.8896L79.3083 107.879L79.1792 107.814L79.1146 107.62L79.05 106.651V103.225L79.1792 102.902L81.2458 102.837Z" fill="black"/>
<path d="M80.7937 92.883H82.2146L84.0875 92.9477L84.2812 93.0769L84.3458 93.594V96.8259L84.2812 97.7954L83.9583 97.9247H81.8917L79.3729 97.8601L79.1146 97.7308L79.05 97.0198V93.0123L79.1146 92.9477L80.7937 92.883Z" fill="black"/>
<path d="M79.5667 83.0582H83.7L84.2167 83.1229L84.2812 83.1875L84.3458 83.7046V86.1608L84.2812 87.906L84.2167 87.9706H79.1792L79.05 87.8413L78.9854 86.4193V83.2521L79.05 83.1229L79.5667 83.0582Z" fill="black"/>
<path d="M89.1896 53.196H93.9688L94.2271 53.2607L94.2917 53.39V58.1731L94.2271 58.2377H89.3188L89.1896 58.1084L89.125 56.945V53.39L89.1896 53.196Z" fill="black"/>
<path d="M89.1896 102.837H93.9688L94.2917 102.966V107.62L94.1625 107.879H89.3833L89.1896 107.749L89.125 106.909V103.225L89.1896 102.837Z" fill="black"/>
<path d="M79.5021 43.242L83.8292 43.3066L84.1521 43.3713L84.2812 43.8237V48.0898L84.2167 48.219L83.9583 48.2837L79.825 48.219L79.2437 48.1544L79.1146 48.0251L79.05 47.3788V43.3713L79.5021 43.242Z" fill="black"/>
<path d="M80.8583 73.1042H83.3125L84.2167 73.1688L84.3458 73.6213V77.8227L84.0875 77.9519H79.5021L79.1792 77.8227L79.05 77.4995L78.9854 76.7885V73.4274L79.1146 73.1688L80.8583 73.1042Z" fill="black"/>
<path d="M93.6458 92.883L94.0979 92.9477L94.2917 93.2708V96.8905L94.2271 97.8601L94.1625 97.9247H89.5771L89.1896 97.7954L89.125 96.8905V93.0123L89.1896 92.9477L93.6458 92.883Z" fill="black"/>
<path d="M79.05 63.2147H84.0875L84.2812 63.2794L84.3458 63.6025V67.2222L84.2812 67.9978L84.1521 68.0625H79.8896L79.1792 67.9978L79.05 67.61V63.2147Z" fill="black"/>
<path d="M89.1896 43.3066H93.9042L94.1625 43.3712L94.2271 43.5652V48.219L94.1625 48.2836H89.8354L89.2542 48.219L89.125 47.8312V43.4359L89.1896 43.3066Z" fill="black"/>
<path d="M89.3188 63.1501H92.6125L94.0333 63.2147L94.2271 63.2794L94.2917 63.4733V67.8039L94.2271 67.9978L94.0979 68.0625H90.0938L89.2542 67.9978L89.125 67.61V63.2794L89.3188 63.1501Z" fill="black"/>
<path d="M99.2 53.196H103.656L103.979 53.3253L104.044 53.4546V57.9792L103.85 58.1731L103.204 58.2377H99.4583L99.2646 58.0438L99.1354 57.7853L99.0062 56.4279V53.7778L99.0708 53.3253L99.2 53.196Z" fill="black"/>
<path d="M89.3188 83.0582L94.0979 83.1229L94.2271 83.1875L94.2917 83.446V87.7767L94.1625 87.9706H89.3833L89.1896 87.7767L89.125 87.195V83.1875L89.3188 83.0582Z" fill="black"/>
<path d="M54.5083 23.4631H58.5771L59.3521 23.5278L59.4812 23.7217V28.1816L59.0937 28.3755H55.1542L54.5083 28.2463L54.3792 28.1816V23.5924L54.5083 23.4631Z" fill="black"/>
<path d="M93.3229 73.1042H93.8396L94.2271 73.2335L94.2917 73.7506V77.8227L94.1625 78.0166H89.3833L89.1896 77.6934L89.125 76.5946V73.3627L89.1896 73.1688L93.3229 73.1042Z" fill="black"/>
<path d="M99.2 102.837H103.785L103.979 102.966L104.044 103.548V107.556L103.915 107.814L103.656 107.879H99.5229L99.3292 107.814L99.1354 107.491L99.0709 106.78V103.29L99.2 102.837Z" fill="black"/>
<path d="M99.1354 43.3066H103.592L104.044 43.3712L104.108 43.5652V46.086L104.044 48.0251L103.785 48.219L103.333 48.2836H99.5875L99.2 48.1544L99.1354 48.0251L99.0709 47.4434V43.3712L99.1354 43.3066Z" fill="black"/>
<path d="M99.0708 92.9477H103.85L104.044 93.0769V97.6015L103.85 97.7954L103.656 97.8601L101.46 97.9247H99.5875L99.2646 97.7954L99.1354 97.4722L99.0062 96.3734V93.0123L99.0708 92.9477Z" fill="black"/>
<path d="M101.137 83.0582H103.785L103.979 83.1875L104.044 83.446V87.7121L103.915 87.906L102.752 87.9706H99.3291L99.1354 87.906L99.0708 87.7121L99.0062 86.484V83.5753L99.1354 83.1229L101.137 83.0582Z" fill="black"/>
<path d="M101.267 73.1042H103.656L103.979 73.2335L104.044 73.2981V77.758L103.721 77.9519L103.075 78.0166L99.6521 78.0812L99.3291 77.8873L99.1354 77.5641L99.0062 76.2714V73.3627L99.2 73.1688L101.267 73.1042Z" fill="black"/>
<path d="M34.7459 23.5278H39.3959L39.5896 23.5924L39.6542 23.7217V28.117L39.525 28.3109L39.3313 28.3755H36.425L35.2625 28.3109L34.7459 28.1816L34.6167 27.9231V23.7217L34.7459 23.5278Z" fill="black"/>
<path d="M45.0792 23.4631H47.275L49.4708 23.5278L49.6 23.7217L49.5354 27.5999L49.4708 28.2463L48.9542 28.4402L45.6604 28.3755L44.6917 28.2463L44.5625 27.9231V24.6912L44.6271 23.5924L45.0792 23.4631Z" fill="black"/>
<path d="M99.5875 63.1501L103.85 63.2147L104.044 63.4086V67.7393L103.85 67.9332L103.01 67.9978L99.6521 68.0625L99.2 67.9978L99.0708 67.61L99.0062 66.9637V63.6672L99.1354 63.2147L99.5875 63.1501Z" fill="black"/>
<path d="M24.8646 23.4631H25.8333L29.2562 23.5924L29.6437 23.7217V27.9877L29.5146 28.2463L29.1271 28.3755H26.0271L25.1875 28.3109L24.9292 28.1816L24.8 27.9231L24.7354 27.2121V24.1741L24.8 23.5278L24.8646 23.4631Z" fill="black"/>
</svg>
