<svg width="143" height="139" viewBox="0 0 143 139" fill="none" xmlns="http://www.w3.org/2000/svg">
<path d="M44.613 29.1811H51.4651L59.1365 29.2553L70.5318 29.4038L89.375 29.4781H113.804L123.04 29.4038L131.381 29.2553L132.126 29.3296L132.201 29.4038L132.275 30.9631L132.424 38.3141L132.498 44.477L132.573 58.5107V75.5887L132.424 91.1816L132.349 94.226L132.201 96.7505L131.977 97.1218L131.381 97.4188L130.339 97.7158L129.147 97.8643L126.317 97.9386L108.218 98.1613L99.4297 98.2356L98.6849 98.3098L98.6104 102.765V105.587L104.643 105.661L106.133 105.809L107.995 106.106L108.889 106.329L109.261 106.7L109.708 108.26L110.155 110.858L110.751 115.091V115.908L110.676 115.982L109.41 116.056L104.494 116.13L90.7156 116.205L72.6917 116.279L70.6063 116.427V116.65L70.0849 116.724H66.2865L64.7224 116.65L64.35 116.576L64.201 116.353L64.0521 115.239V113.754L64.201 112.269L64.4245 110.487L64.7224 109.225L65.0203 108.482L65.6162 107.666L66.2865 106.997L67.3292 106.329L68.6698 105.735L69.2656 105.587L70.7552 105.512H76.4901L76.5646 100.463L76.6391 98.3098L61.2219 98.1613L47.8901 98.0128L45.8047 97.9386L44.1662 97.7901L43.4214 97.6416L43.3469 97.4931L43.2724 96.305L43.1234 90.8104L43.049 86.2067L42.9745 76.9252V48.1154L43.049 39.5764L43.1234 34.3787L43.2724 30.4434L43.3469 29.6266L43.4958 29.3296L43.7193 29.2553L44.613 29.1811ZM46.6984 32.2997L46.624 32.3739V94.7457L54.3698 94.5972L78.8734 94.4487L83.5656 94.523H95.0354L119.316 94.6715L124.008 94.7457H128.253L128.7 94.5972V89.1026L128.923 73.2126V44.9968L128.849 32.3739H72.3193L46.6984 32.2997ZM84.5339 98.1613L80.8099 98.2356L80.7354 98.3098L80.6609 101.428V105.215H82.9698L83.4167 105.141H85.2787L91.4604 105.215H94.5885L94.663 103.656L94.7375 98.3098L94.663 98.2356L93.6203 98.1613H84.5339ZM87.8854 105.364L83.4912 105.512H80.7354L80.6609 105.735L81.2568 105.809H83.1188V105.735H85.651V105.661L86.5448 105.587L92.0563 105.512L91.7583 105.364H87.8854ZM93.2479 105.438V105.512H94.1417V105.438H93.2479ZM94.1417 105.512V105.587H94.5141V105.512H94.1417ZM86.8427 105.587V105.661H88.1089V105.587H86.8427ZM94.3651 108.928L75.224 109.002L71.351 109.076L69.4146 109.151L68.5208 109.299L68.3719 109.596L67.925 112.343L67.9995 112.64H88.3323L96.8974 112.566H106.058L106.878 112.492L106.803 111.824L106.356 109.299L106.133 109.076L101.441 108.928H94.3651ZM65.8396 115.982L65.6162 116.13L67.3292 116.056V115.982H65.8396Z" fill="black"/>
<path d="M27.1849 32.0027H39.2505L39.4739 32.0769V33.1907L39.3995 33.6362V35.641L39.176 35.8638L18.6943 35.938L14.4489 36.0123L14.3 40.2447L14.2255 53.0903V112.195H17.6515L17.5771 111.007V109.225L17.726 106.255L18.0984 105.884L19.588 106.032L21.0031 106.106H24.3547L34.1114 106.032L36.0479 105.958L36.7927 105.884L38.5802 105.809L39.5484 105.735L32.175 105.809H26.6635L20.0349 105.661L18.3219 105.587L17.726 105.512L17.6515 105.438V104.696L17.8005 104.621L21.6734 104.696L27.4083 104.77L42.5276 104.844L42.6021 104.918L42.6765 112.492H43.9427L45.8792 112.343L46.326 112.269L46.4005 110.116L46.475 105.661V101.503H47.4432L49.7521 101.725L50.2734 101.948L50.3479 102.022L50.2734 106.106L50.1989 108.779L49.9755 111.898L49.6776 113.16L49.3052 114.126L48.7838 115.165L48.4114 115.536L47.5177 115.759L45.1344 115.982L40.5911 116.205L37.9844 116.279L26.887 116.353L24.8015 116.427H20.7797L17.3536 116.353L14.8213 116.205L12.6614 115.908L11.9911 115.462L11.7677 115.165L12.1401 115.239V115.091L11.9911 115.017L11.9167 114.72L11.0974 113.977L10.725 113.235L10.6505 112.121L10.576 109.299L10.5016 103.953L10.4271 101.28L10.3526 100.24L10.2036 100.018L10.1292 98.6811L10.0547 98.3098L10.1292 97.9386L9.9802 97.8643L10.0547 97.5673L9.9802 97.4931L9.90572 97.0475V96.2308L9.83124 94.5972V92.6667V92.3697L10.0547 92.1469L10.1292 92.8152L10.2036 94.0032L10.2781 92.1469H10.3526L10.4271 90.6619V47.4471L10.5016 38.7596L10.576 36.6806L10.725 35.5668L11.0229 34.8985L11.6932 33.7847L12.2146 33.1907L12.9594 32.7452L13.7042 32.4482L15.1193 32.2254L16.3854 32.1512L19.5135 32.0769L27.1849 32.0027ZM10.1292 94.6715V95.0427L10.2781 94.9685L10.2036 94.6715H10.1292ZM22.3437 109.076L22.1203 110.116L21.8969 111.749V112.343L23.3864 112.418L34.2604 112.492H39.2505V111.304L39.176 109.299L38.5802 109.225L36.1224 109.151L22.3437 109.076ZM12.2891 115.165L12.1401 115.314L12.5125 115.239L12.2891 115.165ZM12.5125 115.239L12.587 115.462L13.1083 115.611H13.7786L14.151 115.536V115.462H13.4062L12.7359 115.239H12.5125Z" fill="black"/>
<path d="M21.599 59.476L21.9714 59.5502V59.6987L22.2693 59.773V59.9215H22.4927V60.07L22.7906 59.8472V59.9957L23.0886 59.9215L23.6844 60.1442L23.8333 60.07V60.2927L23.9078 60.1442L24.5781 60.2185L25.3229 60.367H25.8443L26.1422 60.4412L29.4193 60.5155L31.6537 60.5897H36.9417L37.5375 60.5155L39.0271 60.367L39.1016 60.2185L39.1761 60.5897L39.325 65.6389V66.6042L38.8037 66.7527L21.3755 66.6784L21.1521 66.5299L21.3011 64.8221L21.3755 63.4856L21.45 60.8125L21.5245 59.6987L21.599 59.476ZM29.4938 62.5945L29.2703 62.743H29.7172V62.5945H29.4938ZM29.7917 62.5945V62.743L34.4839 62.8173H38.6547V62.6688L38.2823 62.5945H29.7917Z" fill="black"/>
<path d="M32.6963 47.5956H39.1016L39.2505 47.6699V52.125L39.176 52.1992H21.2266L21.1521 52.125V48.4124L21.0031 48.0411L21.0776 47.7441L30.6109 47.6699L32.6963 47.5956Z" fill="black"/>
<path d="M85.1297 27.8445H112.687L118.273 27.9188L126.093 28.1416L128.998 28.2901L131.605 28.5871L131.754 28.6613L131.679 29.0326L131.456 28.9583L126.764 28.8841L63.8286 28.8098H44.3896L44.5385 28.5128L44.8365 28.2901L45.2089 28.2158L67.2547 27.9188L85.1297 27.8445Z" fill="black"/>
<path d="M21.3011 55.6149H39.325L39.3995 55.6891V57.4712L39.325 58.5849L39.2505 58.6592H21.3755L21.2266 58.5107L21.1521 58.1394V55.7634L21.3011 55.6149Z" fill="black"/>
<path d="M29.3448 75.2917H30.9089L32.4729 75.5144L33.0688 75.8114L33.3667 76.4054L33.5156 76.9252V79.7468L33.2922 81.3061L32.9198 81.7516L32.324 81.9743L31.5047 82.1971H29.4938L28.1531 81.9743L27.5573 81.6031L27.1104 81.0833L26.887 80.3408L26.8125 79.8953V77.6677L27.0359 76.4054L27.3339 75.9599L28.0786 75.5144L28.6745 75.3659L29.3448 75.2917Z" fill="black"/>
<path d="M53.476 85.39L53.8484 85.4642L53.7739 89.2511L53.6995 89.3253L52.3588 89.3996H49.8265V88.1373L49.901 86.0582L49.8265 85.5385L49.901 85.4642H52.8057L53.476 85.39ZM51.0927 85.9097L50.9437 86.1325V88.4343L51.0182 88.5828H51.5396L51.9864 88.36L51.8375 88.2858H51.3906V87.3948L51.4651 86.578L51.6885 86.3552H52.6567H52.8802L53.1036 86.2067L53.0291 85.984L52.8802 85.9097H51.0927ZM51.9864 87.9888V88.2858L52.1354 88.2115L52.0609 87.9888H51.9864Z" fill="black"/>
<path d="M81.4057 85.1672H82.1505L82.2995 85.3157V89.3253L81.7781 89.3996H80.0651L79.9161 89.2511V88.2858L80.1396 86.4295L80.2885 86.2067L80.1396 85.687H78.9479V86.8008L78.8734 89.2511L79.1713 89.1768L79.3203 87.0235L79.3948 86.281L79.6182 86.3552L79.4693 89.4738L78.8734 89.5481L78.0542 89.4738L77.9797 89.3996V87.3205L78.0542 85.6127L78.2031 85.2415H79.5437L81.4057 85.1672ZM80.8099 85.5385L80.7354 86.281L80.8099 87.2463L81.0333 87.5433L81.6292 86.2067L81.5547 85.687L81.1823 85.5385H80.8099ZM80.7354 87.2463V87.9888H80.8099V87.2463H80.7354Z" fill="black"/>
<path d="M67.0313 85.2415H67.5526L67.9995 85.39L68.074 87.3205V89.1026L67.925 89.3996H65.7651L65.6162 89.0283V87.766L65.7651 86.578L65.8396 86.3552H65.9886L65.8396 86.0582L65.6906 85.8355L64.6479 85.7612V89.1768L64.9458 89.3253V87.6175L65.0948 86.281H65.2438L65.1693 89.4738H63.7542L63.6052 89.1768V88.2115L63.7542 85.4642L63.9031 85.3157H65.0203L67.0313 85.2415ZM66.5844 85.687L66.4354 85.984V87.6175L66.7333 87.5433L67.1057 87.172L67.2547 87.2463L67.4037 86.4295V85.8355L67.1057 85.687H66.5844Z" fill="black"/>
<path d="M109.931 85.093H110.899L111.048 85.2415L110.974 86.2067V89.2511L110.899 89.3253H108.814L108.74 89.1768V87.2463L108.814 85.6127L108.218 85.5385H107.846L107.548 85.6127L107.622 85.4642L107.473 85.39L107.399 85.6127L107.324 85.9097L107.399 87.766L107.548 89.0283L108.218 88.8798V89.2511L108.144 89.3253L107.027 89.3996L106.505 89.2511L106.431 89.1768V88.063L106.58 85.7612L106.654 85.2415L106.729 85.1672H107.324L107.92 85.2415H108.591L108.74 85.1672H109.559L109.931 85.093ZM109.335 85.39L109.261 85.6127V86.6523L109.335 86.9493H109.484L109.559 87.0978H109.708V86.9493L110.006 87.0235V87.172L110.229 87.2463L110.602 86.875L110.825 86.3552V85.7612L110.453 85.6127L109.484 85.5385L109.335 85.39Z" fill="black"/>
<path d="M57.7214 85.39H58.7641L60.2537 85.4642L60.4026 85.8355L59.8068 86.0582L60.0302 86.1325L59.8068 86.281H60.1047L60.2537 87.469L60.4026 89.2511L60.2537 89.3996L59.1365 89.4738H57.5724L57.4979 89.3253L57.5724 87.172L57.6469 86.2067V85.4642L57.7214 85.39Z" fill="black"/>
<path d="M72.1703 85.1672H73.362L74.5536 85.2415L74.7026 85.39L74.7771 85.8355L74.4791 85.984H72.9151L72.6172 86.281L72.9151 86.4295H73.9578L74.1068 86.5037V86.3552L74.4791 86.4295L74.5536 88.2858V89.3253L74.4791 89.3996L73.213 89.4738H72.0213L71.8724 89.3253L71.9469 86.9493L72.0213 86.281V85.3157L72.1703 85.1672Z" fill="black"/>
<path d="M100.621 85.1672H103.079L103.303 85.3157L103.228 85.687L101.441 85.8355L100.919 86.1325V86.4295L101.441 86.578L102.409 86.5037H103.154L103.228 86.578V89.2511L103.079 89.3996H100.472L100.398 89.2511L100.472 87.0978L100.621 85.1672Z" fill="black"/>
<path d="M86.3213 85.1672H88.8536L89.0026 85.3157V85.687L88.9281 85.7612L87.1406 85.9097L86.6937 86.1325H86.5448L86.6192 86.4295H87.364L88.1088 86.3552H88.7791L88.8536 86.4295L88.7791 89.3253L88.7047 89.3996L86.3213 89.4738L86.1724 89.1768L86.3213 85.1672Z" fill="black"/>
<path d="M115.294 85.0187H117.156L117.23 85.093V85.5385L117.156 85.6127H115.517L115.592 86.281H115.443L115.368 86.5037H115.219V86.6523H115.443V86.4295L115.666 86.5037L115.741 86.578L117.156 86.3552L117.23 86.4295L117.305 89.3253L117.23 89.3996H114.847L114.772 89.0283V87.3205L114.847 85.6127V85.1672L115.294 85.0187Z" fill="black"/>
<path d="M95.9292 85.093L96.5995 85.1672L96.674 85.8355V89.3253L96.5995 89.3996L95.1844 89.4738H94.3651L94.2906 89.3996V88.1373L94.4396 86.5037L94.5141 86.0582L94.3651 85.7612L93.9182 85.687H93.5458L93.6203 85.39L94.7375 85.1672L95.9292 85.093ZM95.0354 85.4642V85.6127H94.8865V86.0582H95.0354L95.1099 86.578L95.1844 86.4295L96.0036 86.5037L96.3016 86.1325L96.2271 85.8355L95.9292 85.5385L95.0354 85.4642Z" fill="black"/>
<path d="M124.306 85.0187L124.753 85.093L124.976 85.4642L125.051 85.8355L125.125 87.3205V89.3253L124.753 89.4738H123.486V87.0978L123.561 85.8355L123.635 85.3157L124.306 85.0187Z" fill="black"/>
<path d="M92.5776 85.1672H93.1734L93.2479 85.5385L93.1734 87.3205V89.3253H93.5458V87.9145L93.6948 86.281H93.9182L93.7693 89.4738H92.2797L92.2052 89.3996V87.6918L92.3542 85.2415L92.5776 85.1672Z" fill="black"/>
<path d="M120.88 85.2415L121.252 85.3157L121.476 85.4642L121.699 87.172L121.848 88.6571L121.997 88.8798V89.1768H121.848V89.4738H120.954L120.731 89.2511V87.3205L120.805 85.3157L120.88 85.2415Z" fill="black"/>
<path d="M105.537 116.65H110.974L111.197 116.873L111.048 116.947H109.633L105.76 116.873L104.718 116.799V116.724L105.537 116.65Z" fill="black"/>
<path d="M74.4792 85.9097L74.7771 85.984V88.9541L74.6281 89.1768L74.5537 88.6571L74.4792 85.9097Z" fill="black"/>
<path d="M60.4026 85.5385L60.775 85.687L60.9239 86.281V88.2115L60.775 87.9888L60.5515 85.8355L60.4026 85.5385Z" fill="black"/>
<path d="M117.901 86.4295H117.975L118.049 89.3253H117.826V86.578L117.901 86.4295Z" fill="black"/>
<path d="M122.518 89.2511L123.114 89.3253L123.189 89.4738H121.922L121.997 89.3253L122.518 89.2511Z" fill="black"/>
<path d="M105.909 109.299L106.133 109.522V109.67L105.835 109.596L105.909 109.299Z" fill="black"/>
<path d="M9.98018 91.7756L10.1291 91.8499L9.9057 92.1469V91.9241L9.98018 91.7756Z" fill="black"/>
<path d="M123.337 89.1026H123.412V89.4738H123.263L123.337 89.1026Z" fill="black"/>
<path d="M117.826 86.2067L117.975 86.281L117.826 86.4295V86.2067Z" fill="black"/>
<path d="M22.4182 59.773H22.5672L22.4927 59.9215L22.4182 59.773Z" fill="black"/>
</svg>
